<?xml version="1.0" encoding="utf-8"?>
<!-- Generator: Adobe Illustrator 18.1.1, SVG Export Plug-In . SVG Version: 6.00 Build 0)  -->
<!DOCTYPE svg PUBLIC "-//W3C//DTD SVG 1.1//EN" "http://www.w3.org/Graphics/SVG/1.1/DTD/svg11.dtd">
<svg version="1.1" id="Layer_1" xmlns="http://www.w3.org/2000/svg" xmlns:xlink="http://www.w3.org/1999/xlink" x="0px" y="0px"
	 viewBox="0 0 329.5 439.7" style="enable-background:new 0 0 329.5 439.7;" xml:space="preserve">
<style type="text/css">
	.st0{clip-path:url(#SVGID_2_);}
	.st1{clip-path:url(#SVGID_4_);}
</style>
<g>
	<g>
		<defs>
			<rect id="SVGID_1_" x="10.8" y="-37.3" width="157.7" height="571.6"/>
		</defs>
		<clipPath id="SVGID_2_">
			<use xlink:href="#SVGID_1_"  style="overflow:visible;"/>
		</clipPath>
		<g id="DfuA4O_2_" class="st0">
			<g>
				<path d="M38.7,290.6c-2.1-46,22.6-82.2,49-117.6c13.1-17.6,26.8-36.7,37.5-55.8c12.6-22.6,13.3-47.2,23.3-70.2
					c6-13.7,14.9-28,31.3-19.4c17.6,9.3,14.7,38.4,21.4,54.6c15.9,38.5,50.5,72.1,75.8,104.8c27.7,35.8,49.8,70.2,36,117.5
					c-13.1,44.9-37.3,83.3-81.5,101.9C140.8,444.5,44.8,389,38.7,290.6C37.5,263.9,39.3,300.5,38.7,290.6z M88.3,280.3
					c-0.2,15.4,26.8,26.8,37.6,33.9c15.9,10.4,29.6,28.3,50.4,22.2c16.3-4.7,30.6-21.6,44.2-31.4c10.7-7.8,33.9-25.1,23.4-42.1
					c-12.2-19.8-27.4,14-33.3,23.8c-9.6,16.1-21.3,31-42,31c-18.4,0.1-29.8-13.3-42.2-24.8C122.3,289.1,86.7,259.2,88.3,280.3
					C88.2,283.7,87.7,272.6,88.3,280.3z M150.1,162c-0.5-12.9-20.4,13.4-21,14.4c-5.5,9-25,34-24,45.2c1.4,15.7,13.2,2.7,19.7-6.3
					C136.2,199.7,143.3,179.8,150.1,162C150,159.1,148.3,166.7,150.1,162z"/>
			</g>
		</g>
	</g>
	<g>
		<defs>
			<rect id="SVGID_3_" x="168.3" y="-37.3" width="152.3" height="571.6"/>
		</defs>
		<clipPath id="SVGID_4_">
			<use xlink:href="#SVGID_3_"  style="overflow:visible;"/>
		</clipPath>
		<g id="DfuA4O_3_" class="st1">
			<g>
				<path d="M293.6,290.6c2-46-21.8-82.2-47.3-117.6c-12.6-17.6-25.9-36.7-36.2-55.8c-12.2-22.6-12.8-47.2-22.5-70.2
					c-5.8-13.7-14.4-28-30.2-19.4c-17,9.3-14.2,38.4-20.7,54.6c-15.3,38.5-48.7,72.1-73.2,104.8c-26.8,35.8-48.1,70.2-34.8,117.5
					c12.7,44.9,36,83.3,78.7,101.9C195.1,444.5,287.8,389,293.6,290.6C294.7,263.9,293,300.5,293.6,290.6z M245.7,280.3
					c0.2,15.4-25.9,26.8-36.3,33.9c-15.3,10.4-28.6,28.3-48.7,22.2c-15.7-4.7-29.6-21.6-42.7-31.4c-10.4-7.8-32.7-25.1-22.6-42.1
					c11.8-19.8,26.5,14,32.2,23.8c9.3,16.1,20.5,31,40.6,31c17.7,0.1,28.8-13.3,40.8-24.8C212.9,289.1,247.2,259.2,245.7,280.3
					C245.8,283.7,246.3,272.6,245.7,280.3z"/>
			</g>
		</g>
	</g>
	<g>
		<defs>
			<rect id="SVGID_5_" x="168.5" y="-37.3" width="133.6" height="571.6"/>
		</defs>
		<clipPath id="SVGID_6_">
			<use xlink:href="#SVGID_5_"  style="overflow:visible;"/>
		</clipPath>
	</g>
</g>
<g>
</g>
<g>
</g>
<g>
</g>
<g>
</g>
<g>
</g>
<g>
</g>
<g>
</g>
<g>
</g>
<g>
</g>
<g>
</g>
<g>
</g>
<g>
</g>
<g>
</g>
<g>
</g>
<g>
</g>
</svg>
