<?xml version="1.0" encoding="utf-8"?>
<!-- Generator: Adobe Illustrator 18.1.1, SVG Export Plug-In . SVG Version: 6.00 Build 0)  -->
<!DOCTYPE svg PUBLIC "-//W3C//DTD SVG 1.1//EN" "http://www.w3.org/Graphics/SVG/1.1/DTD/svg11.dtd">
<svg version="1.1" id="Layer_1" xmlns="http://www.w3.org/2000/svg" xmlns:xlink="http://www.w3.org/1999/xlink" x="0px" y="0px"
	 viewBox="0 0 283.7 423.1" style="enable-background:new 0 0 283.7 423.1;" xml:space="preserve">
<style type="text/css">
	.st0{clip-path:url(#DfuA4O_1_);}
</style>
<g>
	<defs>
		<path id="DfuA4O_3_" d="M269,282.3c2-46-21.8-82.2-47.3-117.6c-12.6-17.6-25.9-36.7-36.2-55.8c-12.2-22.6-12.8-47.2-22.5-70.2
			c-5.8-13.7-14.4-28-30.2-19.4c-17,9.3-14.2,38.4-20.7,54.6C96.7,112.4,63.3,146,38.9,178.7C12.1,214.5-9.3,248.9,4.1,296.2
			c12.7,44.9,36,83.3,78.7,101.9C170.5,436.2,263.1,380.8,269,282.3C270.1,255.7,268.4,292.2,269,282.3z M221.1,272.1
			c0.2,15.4-25.9,26.8-36.3,33.9c-15.3,10.4-28.6,28.3-48.7,22.2c-15.7-4.7-29.6-21.6-42.7-31.4c-10.4-7.8-32.7-25.1-22.6-42.1
			c11.8-19.8,26.5,14,32.2,23.8c9.3,16.1,20.5,31,40.6,31c17.7,0.1,28.8-13.3,40.8-24.8C188.3,280.9,222.6,250.9,221.1,272.1
			C221.2,275.4,221.7,264.3,221.1,272.1z"/>
	</defs>
	<clipPath id="DfuA4O_1_">
		<use xlink:href="#DfuA4O_3_"  style="overflow:visible;"/>
	</clipPath>
	<g id="DfuA4O_2_" class="st0">
		<g>
			<path d="M14.1,282.3c-2.1-46,22.6-82.2,49-117.6c13.1-17.6,26.8-36.7,37.5-55.8c12.6-22.6,13.3-47.2,23.3-70.2
				c6-13.7,14.9-28,31.3-19.4c17.6,9.3,14.7,38.4,21.4,54.6c15.9,38.5,50.5,72.1,75.8,104.8c27.7,35.8,49.8,70.2,36,117.5
				c-13.1,44.9-37.3,83.3-81.5,101.9C116.1,436.2,20.2,380.8,14.1,282.3C12.9,255.7,14.7,292.2,14.1,282.3z M125.5,153.7
				c-0.5-12.9-20.4,13.4-21,14.4c-5.5,9-25,34-24,45.2c1.4,15.7,13.2,2.7,19.7-6.3C111.6,191.4,118.7,171.5,125.5,153.7
				C125.4,150.9,123.7,158.4,125.5,153.7z"/>
		</g>
	</g>
</g>
<g>
</g>
<g>
</g>
<g>
</g>
<g>
</g>
<g>
</g>
<g>
</g>
<g>
</g>
<g>
</g>
<g>
</g>
<g>
</g>
<g>
</g>
<g>
</g>
<g>
</g>
<g>
</g>
<g>
</g>
</svg>
