<?xml version="1.0" encoding="utf-8"?>
<!-- Generator: Adobe Illustrator 18.1.1, SVG Export Plug-In . SVG Version: 6.00 Build 0)  -->
<!DOCTYPE svg PUBLIC "-//W3C//DTD SVG 1.1//EN" "http://www.w3.org/Graphics/SVG/1.1/DTD/svg11.dtd">
<svg version="1.1" xmlns="http://www.w3.org/2000/svg" xmlns:xlink="http://www.w3.org/1999/xlink" x="0px" y="0px"
	 viewBox="0 0 594 3186" style="enable-background:new 0 0 594 3186;" xml:space="preserve">
<style type="text/css">
	.st0{display:none;}
	.st1{display:inline;fill:none;stroke:#000000;stroke-miterlimit:10;}
	.st2{fill:#F5DC75;}
	.st3{fill:#FDC43D;}
	.st4{fill:#00F670;}
	.st5{fill:#6EBF5B;}
	.st6{fill:none;stroke:#FFFFFF;stroke-width:5;stroke-linecap:round;stroke-miterlimit:10;}
	.st7{fill:#EC2226;}
	.st8{fill:#EA4A24;}
	.st9{fill:#87662D;}
	.st10{fill:#FFFFFF;}
	.st11{fill:none;stroke:#FFFFFF;stroke-width:4;stroke-miterlimit:10;}
</style>
<g id="Layer_2" class="st0">
	<rect x="4.9" y="2655" class="st1" width="593.7" height="531"/>
	<rect x="4.9" y="2124" class="st1" width="593.7" height="531"/>
	<rect x="4.9" y="1594.7" class="st1" width="593.7" height="531"/>
	<rect x="4.9" y="1065.3" class="st1" width="593.7" height="531"/>
	<rect x="4.9" y="533.1" class="st1" width="593.7" height="531"/>
</g>
<g id="Layer_1">
	<g id="bottom">
		<g>
			<path class="st2" d="M161.2,435.3c0,0,2.8-4.2,14.7-6.5c56.1-10.9,149.3-33.2,269.7,8c5.8,2,16.2,19.4,14.8,22.6
				c0,0,7.4,53.2-71.3,60.6c0,0-62,6.8-155.1-3.1C140.9,507.1,151.9,443.4,161.2,435.3z"/>
			<path class="st3" d="M165.1,432.9c0,0-14.8,21.4,66.1,40.8c0,0,59.8,18.6,183.9-0.9c0,0,49.6-5.4,30.5-36"/>
		</g>
	</g>
	<g id="lettuce">
		<g>
			<path class="st4" d="M294.6,479c1.5,5.8,7.6,9.8,13.5,9.2c5.9-0.7,10.9-6.1,11.1-12.1c5.2,4.8,11.3,9.8,18.5,9.8
				c7.2-0.1,13.9-8.6,9.8-14.4c5.7,3.8,12.1,6.6,18.7,8c5.5,1.3,11.8,1.5,16.3-1.9c4.4-3.3,5.8-9.4,5.4-14.9
				c-0.7-9.2-5.8-17.8-12.5-24.1c-6.7-6.4-14.9-11-23.3-15c-36.8-17.9-77.7-27.3-118.6-27.4c-5.8,0-11.7,0.2-17.2,1.9
				c-5.1,1.6-9.7,4.5-14.2,7.4c-6.8,4.4-18.9,6.5-25.5,11.2c-8.7,6.2-12.5,15.9-14.3,26.4c-1.2,6.8,3.6,15.6,10.4,14.5
				c-5.2,4.6-8.4,11.6-7.3,18.4c1.1,6.8,7.4,12.7,14.3,12.3c6.9-0.4,12.5-8.4,9.7-14.7c0.1,2.5,0.1,5.1,0.1,7.6
				c5.2,3.5,11.2,5.8,17.4,6.6c3.7,0.5,7.6,0.5,10.8-1.3c3.2-1.8,5.4-5.8,4.2-9.3c2.8,9.8,16.9,14.1,24.7,7.6
				c5.4,7.9,19.2,7.5,24.1-0.7c1.3,5.4,8,8.2,13.3,6.7C289.1,489.1,292.9,484.3,294.6,479z"/>
			<path class="st5" d="M278.9,430c-1.1-5.9,2.1-11.6,5.2-16.7c1.1-1.7,2.2-3.6,3.6-5c1.4-1.4,3.1-2.5,4.8-3.4
				c23.4-13.3,52.7-13.9,78.3-5.8s48.2,24.1,68,42.4c6.1,5.6,12.2,11.9,14.7,19.8c1.5,5,1.5,10.2,1.3,15.4c-0.2,3.3-0.9,7.3-4,8.7
				c-2.2,1-4.8,0.1-7.2-0.3c-2.4-0.5-5.4-0.3-6.6,1.9c-0.5,0.9-0.5,1.9-0.9,2.9c-1.1,3.7-5.6,5.5-9.4,4.7c-3.8-0.8-6.8-3.5-9.3-6.4
				c-2.3,5-7.1,8.6-12.5,9.5c-5.4,0.9-11.1-1.1-14.9-5c-0.7-0.8-1.7-1.7-2.7-1.5c-0.6,0.1-1,0.6-1.5,1c-2.9,2.7-7.7,2.8-11.3,0.9
				c-3.6-1.9-6-5.4-7.5-9.1c-1.5,3.5-3.8,7.6-7.6,7.6c-1.4,0-2.7-0.6-4-1.3c-8.8-5.4-11-17-12.3-27.3c-22.2,2.7-45.5-6.7-59.6-24
				C281.6,436.1,279.5,433.3,278.9,430z"/>
		</g>
		<path class="st6" d="M296.9,423c15.9-0.6,31.8-1.1,47.6-1.5c9.9-0.2,20.1-0.3,29.3,3.1c9.4,3.5,17.2,10.3,24.8,16.8
			c7.9,6.9,16.1,14.2,19.8,24.1"/>
		<path class="st6" d="M361.1,422.9c2.5,13.5,11.9,25.4,24.2,31.3"/>
		<path class="st6" d="M363.4,421.9c7.7-0.4,22.2-1.5,29.9-0.2c7.6,1.3,15.1,4.6,20.2,10.5"/>
		<path class="st6" d="M314.5,422.9c2.3,4.4,4.2,7.8,7.8,11.1s8.9,5.3,13.6,3.8"/>
		<path class="st6" d="M410,451.6c11.2,1.2,22.2,4.2,32.5,8.8"/>
		<path class="st6" d="M274.1,421.7c-27.9,4.4-48.9,11.8-73.2,26.3c-5.5,3.3-11.4,7.4-12.4,13.8"/>
		<path class="st6" d="M229.2,433.7c-12.9-2.5-22.8-2.5-35.8-1.1"/>
		<path class="st6" d="M229.2,433.7c6.4,9.2,13.2,22.5,12.7,33.8"/>
		<path class="st6" d="M266.5,422.8c0.7,5,4.8,8.8,7,13.4c4,8.2,1.3,18.1-2.5,26.3"/>
		<path class="st6" d="M265.6,423.2c0.2-3.9-4.2-5.2-7.6-7.1c-3.3-2-7.4-2.7-11.3-3.1c-8.2-0.9-16.6-1.1-24.9-0.5"/>
	</g>
	<g id="tomato">
		
			<ellipse transform="matrix(-0.1704 -0.9854 0.9854 -0.1704 -130.5137 724.0386)" class="st7" cx="239.5" cy="417" rx="31.5" ry="81.5"/>
		
			<ellipse transform="matrix(-0.1704 -0.9854 0.9854 -0.1704 -123.4565 715.6438)" class="st8" cx="239.5" cy="409.8" rx="31.5" ry="81.5"/>
		<path class="st7" d="M201.9,414.7c0,0-22.3-8.2,4.5-18.6c0,0,11.7-6.9,23.7,5.8c0,0,8.2-18.2,26.8-12.4c0,0,26.8,0.3,28.2,8.2
			c0,0,2.1,9.6-9.6,12.1c0,0,14.8,14.8-10.3,18.2c0,0-24.4,6.5-30.5-8.6c0,0-0.3,17.2-30.2,13.4
			C204.3,432.9,168.9,426.4,201.9,414.7z"/>
		
			<ellipse transform="matrix(8.182696e-02 -0.9966 0.9966 8.182696e-02 -106.8293 743.9421)" class="st7" cx="350.3" cy="430" rx="33" ry="81.5"/>
		
			<ellipse transform="matrix(8.182696e-02 -0.9966 0.9966 8.182696e-02 -100.8622 733.1335)" class="st8" cx="347.5" cy="421.3" rx="33" ry="81.5"/>
		<path class="st7" d="M384.9,433.3c0,0,23.6-2.9-0.1-19.1c0,0-9.8-9.4-24.4,0.2c0,0-3.8-19.6-23.2-18.2c0,0-26.2-5.8-29.3,1.5
			c0,0-4.2,8.9,6.6,13.9c0,0-17.8,11,5.8,20.1c0,0,22.2,12,31.8-1.3c0,0-3.6,16.8,26.3,20C378.4,450.5,414.3,452.3,384.9,433.3z"/>
	</g>
	<g id="burger">
		<g>
			<path class="st9" d="M168.9,355c0,0-0.9,0.5-2.1,1.3c-3.7,2.6-9.6,8.4,0.7,13.1c0,0-24.7,6.1-11.7,18.4c0,0-13.6,22.2,4.7,22.2
				c0,0-3.7,20.6,16.8,14.5c0,0,6.2,11.6,16.7,7.6c0,0-7.6,12.3,88.6,5.4c0,0,80.3,8.4,138.3-3.1c0,0,9.9,11.5,21.4-2.3
				c0,0,21.4,3.1,22.9-9.2c0,0,17.6-6.9,7.6-22.2c0,0,11.5-6.1-1.5-13.7c0,0,0.7-22.2-18.4-21.4c0,0-174.4-27.3-285.1-10.2"/>
			<path class="st3" d="M210,465.1c0,0-9.2-68-14.5-78.7c0,0-35.6-22.9-26.6-31.4c0,0,70.1-58.1,240.6-17.6c0,0,41.3,6.1,48.5,30.5
				c0,0-97.4,26.9-136.4,26.1c0,0-25.2,7.6-30.5,14.4C291,408.5,257.4,452.8,210,465.1z"/>
			<ellipse class="st10" cx="211.8" cy="401" rx="7.8" ry="8.9"/>
			<ellipse class="st11" cx="299.3" cy="420.3" rx="7.8" ry="7.5"/>
			<ellipse class="st11" cx="332.5" cy="425.7" rx="7.8" ry="5.6"/>
			<path class="st11" d="M362.9,420.1c0,0,11,9.7,19.4-2.3c0,0,34.1,7.8,27.8-12.6"/>
			<path class="st10" d="M211.8,378.4c0,0-12.1-8.2-11.5-19.1c0,0,4.5-13.1-6.4-10.7c0,0-13.3,5.7-2.7,19
				C191.4,367.7,197.9,377.2,211.8,378.4z"/>
			<path class="st10" d="M343.3,332.1c0,0,46.6-2.3,84.6,19.6c0,0-0.2,5.1-5.3,4.7c0,0-28.4-19-79.3-17.6
				C343.3,338.9,333.7,335.4,343.3,332.1z"/>
		</g>
	</g>
	<g id="top">
		<g>
			<path class="st2" d="M424.9,284.7c5.5,5,15.8,15.2,19.7,21.5c11.8,19.2,17.3,33.5,13.1,55.6c-3,16.1-41.6,18-45.3,18.2
				c-61.2,1.5-81.5,4.3-146.3,3.5c-16.4-0.2-76.8-3.4-85.1-8.4c-8.3-5.1-21.8-9.1-24.5-18.5c-5-17.3,5.3-35.4,17.5-48.6
				c37-39.9,89-53.2,143.4-55.7c11.5-0.5,26.7,0.1,38.1,1.9c18,2.8,34.4,9.6,50.6,18.1C412.9,275.7,419.2,279.6,424.9,284.7z"/>
			<path class="st10" d="M214.4,308.1c0,3.4-3.1,6.2-7,6.2c-3.8,0-18.9-2.8-18.9-6.2c0-3.4,15.1-6.2,18.9-6.2
				S214.4,304.6,214.4,308.1z"/>
			<path class="st10" d="M254.9,303.9c-0.9-3.3,1.5-6.8,5.2-7.7c3.8-0.9,19-1.9,19.8,1.4c0.9,3.3-13.1,9.7-16.8,10.7
				C259.5,309.1,255.7,307.2,254.9,303.9z"/>
			<path class="st10" d="M242.2,277c-0.8-3.3,1.5-6.8,5.2-7.7c3.8-0.9,19-1.9,19.8,1.4c0.8,3.3-13.1,9.7-16.8,10.7
				C246.7,282.3,243,280.3,242.2,277z"/>
			<path class="st10" d="M313.8,293.7c-2.2,2.6-6.4,2.8-9.3,0.3c-2.9-2.5-12.8-14.2-10.6-16.9c2.2-2.6,15.5,4.8,18.5,7.3
				C315.4,287,316,291.1,313.8,293.7z"/>
			<path class="st10" d="M348.5,278c-2.7,2.1-6.8,1.3-9.2-1.7c-2.3-3-9.4-16.6-6.8-18.7c2.7-2.1,14.1,8,16.5,11.1
				C351.5,271.7,351.2,276,348.5,278z"/>
			<path class="st10" d="M359.2,311.1c-1.3,3.2-5.2,4.6-8.8,3.2s-16.5-9.6-15.3-12.8c1.3-3.2,16.3-0.2,19.8,1.3
				C358.5,304.3,360.5,307.9,359.2,311.1z"/>
			<path class="st10" d="M396.5,272.3c2.1,2.7,1.2,6.8-1.9,9.2c-3.1,2.3-16.8,9-18.9,6.3c-2.1-2.7,8.4-14,11.5-16.3
				S394.4,269.5,396.5,272.3z"/>
			<path class="st10" d="M397.4,305.9c1-3.3,4.8-5.1,8.4-4c3.7,1.1,17.4,8,16.3,11.3c-1,3.3-16.2,1.7-19.9,0.6
				C398.7,312.7,396.5,309.2,397.4,305.9z"/>
		</g>
		<g id="drops">
			<path class="st7" d="M506.7,440.4c0,0,19.6-38.4,52.4-26.3c0,0,23.6,8.2,15.1,28.9c0,0-5.4,14-24.4,3.6c0,0-11.1-16.3-32.2-10.9
				C517.6,435.7,507.5,437.8,506.7,440.4z"/>
			<path class="st7" d="M496.1,464.1c0,0,54.5-0.1,58.4,42.9c0,0-1,20.6-24.2,15.9c0,0-18.3-3.5-11.9-25
				C518.5,497.9,526.4,474,496.1,464.1z"/>
			<path class="st10" d="M534.6,485.1c0,0,26.1,18.1,6,31.4c-0.9,0.5-1.8,0.9-2.8,0.9c-2.5,0.1-7.6-0.3-10.3-3.3
				C527.6,514,556.3,514.8,534.6,485.1z"/>
			<path class="st3" d="M128.9,464.6c0,0-53.9-7.8-63.9,34.2c0,0-1.9,20.6,21.7,19.2c0,0,18.6-0.8,15.3-23
				C102,494.8,97.5,470.1,128.9,464.6z"/>
			<path class="st10" d="M87.9,479.8c0,0-28.3,14.2-10.5,30.3c0.7,0.7,1.7,1.1,2.7,1.3c2.5,0.4,7.6,0.8,10.6-1.9
				C90.8,509.5,62.1,506.2,87.9,479.8z"/>
			<path class="st10" d="M548,419.1c0,0,19.2-3.4,23,14.3c0,0,1.9,2.8-5.4,11.2C565.6,444.5,570.4,427.7,548,419.1z"/>
		</g>
	</g>
	<g id="bottom_1_">
		<g>
			<path class="st2" d="M163,974.5c0,0,2.8-4.2,14.7-6.5c56.1-10.9,149.3-33.2,269.7,8c5.8,2,16.2,19.4,14.8,22.6
				c0,0,7.4,53.2-71.3,60.6c0,0-62,6.8-155.1-3.1S153.7,982.6,163,974.5z"/>
			<path class="st3" d="M166.9,972.1c0,0-14.8,21.4,66.1,40.8c0,0,59.8,18.6,183.9-0.9c0,0,49.6-5.4,30.5-36"/>
		</g>
	</g>
	<g id="lettuce_1_">
		<g>
			<path class="st4" d="M296.4,1011.5c1.5,5.8,7.6,9.8,13.5,9.2c5.9-0.7,10.9-6.1,11.1-12.1c5.2,4.8,11.3,9.8,18.5,9.8
				c7.2-0.1,13.9-8.6,9.8-14.4c5.7,3.8,12.1,6.6,18.7,8c5.5,1.3,11.8,1.5,16.3-1.9c4.4-3.3,5.8-9.4,5.4-14.9
				c-0.7-9.2-5.8-17.8-12.5-24.1c-6.7-6.4-14.9-11-23.3-15c-36.8-17.9-77.7-27.3-118.6-27.4c-5.8,0-11.7,0.2-17.2,1.9
				c-5.1,1.6-9.7,4.5-14.2,7.4c-6.8,4.4-18.9,6.5-25.5,11.2c-8.7,6.2-12.5,15.9-14.3,26.4c-1.2,6.8,3.6,15.6,10.4,14.5
				c-5.2,4.6-8.4,11.6-7.3,18.4c1.1,6.8,7.4,12.7,14.3,12.3s12.5-8.4,9.7-14.7c0.1,2.5,0.1,5.1,0.1,7.6c5.2,3.5,11.2,5.8,17.4,6.6
				c3.7,0.5,7.6,0.5,10.8-1.3c3.2-1.8,5.4-5.8,4.2-9.3c2.8,9.8,16.9,14.1,24.7,7.6c5.4,7.9,19.2,7.5,24.1-0.7
				c1.3,5.4,8,8.2,13.3,6.7C290.9,1021.7,294.7,1016.7,296.4,1011.5z"/>
			<path class="st5" d="M280.8,962.5c-1.1-5.9,2.1-11.6,5.2-16.7c1.1-1.7,2.2-3.6,3.6-5c1.4-1.4,3.1-2.5,4.8-3.4
				c23.4-13.3,52.7-13.9,78.3-5.8c25.7,8.1,48.2,24.1,68,42.4c6.1,5.6,12.2,11.9,14.7,19.8c1.5,5,1.5,10.2,1.3,15.4
				c-0.2,3.3-0.9,7.3-4,8.7c-2.2,1-4.8,0.1-7.2-0.3c-2.4-0.5-5.4-0.3-6.6,1.9c-0.5,0.9-0.5,1.9-0.9,2.9c-1.1,3.7-5.6,5.5-9.4,4.7
				c-3.8-0.8-6.8-3.5-9.3-6.4c-2.3,5-7.1,8.6-12.5,9.5c-5.4,0.9-11.1-1.1-14.9-5c-0.7-0.8-1.7-1.7-2.7-1.5c-0.6,0.1-1,0.6-1.5,1
				c-2.9,2.7-7.7,2.8-11.3,0.9c-3.6-1.9-6-5.4-7.5-9.1c-1.5,3.5-3.8,7.6-7.6,7.6c-1.4,0-2.7-0.6-4-1.3c-8.8-5.4-11-17-12.3-27.3
				c-22.2,2.7-45.5-6.7-59.6-24C283.4,968.6,281.4,965.8,280.8,962.5z"/>
		</g>
		<path class="st6" d="M298.7,955.5c15.9-0.6,31.8-1.1,47.6-1.5c9.9-0.2,20.1-0.3,29.3,3.1c9.4,3.5,17.2,10.3,24.8,16.8
			c7.9,6.9,16.1,14.2,19.8,24.1"/>
		<path class="st6" d="M363,955.4c2.5,13.5,11.9,25.4,24.2,31.3"/>
		<path class="st6" d="M365.2,954.4c7.7-0.4,22.2-1.5,29.9-0.2c7.6,1.3,15.1,4.6,20.2,10.5"/>
		<path class="st6" d="M316.3,955.4c2.3,4.4,4.2,7.8,7.8,11.1s8.9,5.3,13.6,3.8"/>
		<path class="st6" d="M411.8,984.1c11.2,1.2,22.2,4.2,32.5,8.8"/>
		<path class="st6" d="M275.9,954.2c-27.9,4.4-48.9,11.8-73.2,26.3c-5.5,3.3-11.4,7.4-12.4,13.8"/>
		<path class="st6" d="M231,966.2c-12.9-2.5-22.8-2.5-35.8-1.1"/>
		<path class="st6" d="M231,966.2c6.4,9.2,13.2,22.5,12.7,33.8"/>
		<path class="st6" d="M268.3,955.3c0.7,5,4.8,8.8,7,13.4c4,8.2,1.3,18.1-2.5,26.3"/>
		<path class="st6" d="M267.4,955.7c0.2-3.9-4.2-5.2-7.6-7.1c-3.4-1.9-7.4-2.7-11.3-3.1c-8.2-0.9-16.6-1.1-24.9-0.5"/>
	</g>
	<g id="tomato_1_">
		
			<ellipse transform="matrix(-0.1704 -0.9854 0.9854 -0.1704 -645.1287 1339.5547)" class="st7" cx="241.3" cy="941.3" rx="31.5" ry="81.5"/>
		
			<ellipse transform="matrix(-0.1704 -0.9854 0.9854 -0.1704 -638.1231 1331.2483)" class="st8" cx="241.3" cy="934.2" rx="31.5" ry="81.5"/>
		<path class="st7" d="M203.7,939.1c0,0-22.3-8.2,4.5-18.6c0,0,11.7-6.9,23.7,5.8c0,0,8.2-18.2,26.8-12.4c0,0,26.8,0.3,28.2,8.2
			c0,0,2.1,9.6-9.6,12.1c0,0,14.8,14.8-10.3,18.2c0,0-24.4,6.5-30.5-8.6c0,0-0.3,17.2-30.2,13.4
			C206.1,957.3,170.7,950.8,203.7,939.1z"/>
		
			<ellipse transform="matrix(8.182696e-02 -0.9966 0.9966 8.182696e-02 -627.8682 1227.285)" class="st7" cx="352.2" cy="954.4" rx="33" ry="81.5"/>
		
			<ellipse transform="matrix(8.182696e-02 -0.9966 0.9966 8.182696e-02 -621.9011 1216.4764)" class="st8" cx="349.3" cy="945.8" rx="33" ry="81.5"/>
		<path class="st7" d="M386.7,957.8c0,0,23.6-2.9-0.1-19.1c0,0-9.8-9.4-24.4,0.2c0,0-3.8-19.6-23.2-18.2c0,0-26.2-5.8-29.3,1.5
			c0,0-4.2,8.9,6.6,13.9c0,0-17.8,11,5.8,20.1c0,0,22.2,12,31.8-1.3c0,0-3.6,16.8,26.3,20C380.2,974.9,416.2,976.8,386.7,957.8z"/>
	</g>
	<g id="burger_1_">
		<g>
			<path class="st9" d="M170.7,872.8c0,0-0.9,0.5-2.1,1.3c-3.7,2.6-9.6,8.4,0.7,13.1c0,0-24.7,6.1-11.7,18.4c0,0-13.6,22.2,4.7,22.2
				c0,0-3.7,20.6,16.8,14.5c0,0,6.2,11.6,16.7,7.6c0,0-7.6,12.3,88.6,5.4c0,0,80.3,8.4,138.3-3.1c0,0,9.9,11.5,21.4-2.3
				c0,0,21.4,3.1,22.9-9.2c0,0,17.6-6.9,7.6-22.2c0,0,11.5-6.1-1.5-13.7c0,0,0.7-22.2-18.4-21.4c0,0-174.4-27.3-285.1-10.2"/>
			<path class="st3" d="M211.8,982.8c0,0-9.2-68-14.5-78.7c0,0-35.6-22.9-26.6-31.4c0,0,70.1-58.1,240.6-17.6
				c0,0,41.3,6.1,48.5,30.5c0,0-97.4,26.9-136.4,26.1c0,0-25.2,7.6-30.5,14.4C292.8,926.2,259.2,970.6,211.8,982.8z"/>
			<ellipse class="st10" cx="213.6" cy="918.7" rx="7.8" ry="8.9"/>
			<ellipse class="st11" cx="301.1" cy="938.1" rx="7.8" ry="7.5"/>
			<ellipse class="st11" cx="334.3" cy="943.5" rx="7.8" ry="5.6"/>
			<path class="st11" d="M364.7,937.8c0,0,11,9.7,19.4-2.3c0,0,34.1,7.8,27.8-12.6"/>
			<path class="st10" d="M213.6,896.2c0,0-12.1-8.2-11.5-19.1c0,0,4.5-13.1-6.4-10.7c0,0-13.3,5.7-2.7,19
				C193.2,885.4,199.7,894.9,213.6,896.2z"/>
			<path class="st10" d="M345.1,849.9c0,0,46.6-2.3,84.6,19.6c0,0-0.2,5.1-5.3,4.7c0,0-28.4-19-79.3-17.6
				C345.1,856.6,335.5,853.1,345.1,849.9z"/>
		</g>
	</g>
	<g id="top_1_">
		<g>
			<path class="st2" d="M426.7,797.7c5.5,5,15.8,15.2,19.7,21.5c11.8,19.2,17.3,33.5,13.1,55.6c-3,16.1-41.6,18-45.3,18.2
				c-61.2,1.5-81.5,4.3-146.3,3.5c-16.4-0.2-76.8-3.4-85.1-8.4c-8.3-5.1-21.8-9.1-24.5-18.5c-5-17.3,5.3-35.4,17.5-48.6
				c37-39.9,89-53.2,143.4-55.7c11.5-0.5,26.7,0.1,38.1,1.9c18,2.8,34.4,9.6,50.6,18.1C414.7,788.8,421,792.6,426.7,797.7z"/>
			<path class="st10" d="M216.2,821.1c0,3.4-3.1,6.2-7,6.2s-18.9-2.8-18.9-6.2s15.1-6.2,18.9-6.2
				C213.1,814.9,216.2,817.6,216.2,821.1z"/>
			<path class="st10" d="M256.7,816.9c-0.9-3.3,1.5-6.8,5.2-7.7c3.8-0.9,19-1.9,19.8,1.4c0.8,3.3-13.1,9.7-16.8,10.7
				C261.3,822.2,257.5,820.3,256.7,816.9z"/>
			<path class="st10" d="M244,790c-0.8-3.3,1.5-6.8,5.2-7.7s19-1.9,19.8,1.4c0.8,3.3-13.1,9.7-16.8,10.7S244.8,793.3,244,790z"/>
			<path class="st10" d="M315.6,806.8c-2.2,2.6-6.4,2.8-9.3,0.3s-12.8-14.2-10.6-16.9c2.2-2.6,15.5,4.8,18.5,7.3
				C317.2,800,317.8,804.1,315.6,806.8z"/>
			<path class="st10" d="M350.3,791.1c-2.7,2.1-6.8,1.3-9.2-1.7c-2.3-3-9.4-16.6-6.8-18.7c2.7-2.1,14.1,8,16.5,11.1
				C353.3,784.8,353,789,350.3,791.1z"/>
			<path class="st10" d="M361,824.1c-1.3,3.2-5.2,4.6-8.8,3.2c-3.6-1.4-16.5-9.6-15.3-12.8c1.3-3.2,16.3-0.2,19.8,1.3
				C360.4,817.2,362.3,821,361,824.1z"/>
			<path class="st10" d="M398.3,785.3c2.1,2.7,1.2,6.8-1.9,9.2c-3.1,2.3-16.8,9-18.9,6.3c-2.1-2.7,8.4-14,11.5-16.3
				C392,782.2,396.2,782.6,398.3,785.3z"/>
			<path class="st10" d="M399.2,819c1-3.3,4.8-5.1,8.4-4c3.7,1.1,17.4,8,16.3,11.3c-1,3.3-16.2,1.7-19.9,0.6
				C400.5,825.8,398.3,822.3,399.2,819z"/>
		</g>
		<g id="drops_1_">
			<path class="st7" d="M479.7,936.5c0,0,19.6-38.4,52.4-26.3c0,0,23.6,8.2,15.1,28.9c0,0-5.4,14-24.4,3.6c0,0-11.1-16.3-32.2-10.9
				C490.6,931.8,480.4,933.9,479.7,936.5z"/>
			<path class="st7" d="M469.1,960.1c0,0,54.5-0.1,58.4,42.9c0,0-1,20.6-24.2,15.9c0,0-18.3-3.5-11.9-25
				C491.5,994,499.4,970.1,469.1,960.1z"/>
			<path class="st10" d="M507.5,981.2c0,0,26.1,18.1,6,31.4c-0.9,0.5-1.8,0.9-2.8,0.9c-2.5,0.1-7.6-0.3-10.3-3.3
				C500.5,1010.1,529.3,1010.9,507.5,981.2z"/>
			<path class="st3" d="M167.6,945.6c0,0-53.9-7.8-63.9,34.2c0,0-1.9,20.6,21.7,19.2c0,0,18.6-0.8,15.3-23
				C140.6,975.9,136.2,951.2,167.6,945.6z"/>
			<path class="st10" d="M126.5,960.9c0,0-28.3,14.2-10.5,30.3c0.7,0.7,1.7,1.1,2.7,1.3c2.5,0.4,7.6,0.8,10.6-1.9
				C129.3,990.6,100.7,987.3,126.5,960.9z"/>
			<path class="st10" d="M520.9,915.2c0,0,19.2-3.4,23,14.3c0,0,1.9,2.8-5.4,11.2C538.5,940.6,543.4,923.8,520.9,915.2z"/>
		</g>
	</g>
	<g id="bottom_2_">
		<g>
			<path class="st2" d="M163.2,1503.6c0,0,2.8-4.2,14.7-6.5c56.1-10.9,149.3-33.2,269.7,8c5.8,2,16.2,19.4,14.8,22.6
				c0,0,7.4,53.2-71.3,60.6c0,0-62,6.8-155.1-3.1S153.9,1511.7,163.2,1503.6z"/>
			<path class="st3" d="M167.2,1501.2c0,0-14.8,21.4,66.1,40.8c0,0,59.8,18.6,183.9-0.9c0,0,49.6-5.4,30.5-36"/>
		</g>
	</g>
	<g id="lettuce_2_">
		<g>
			<path class="st4" d="M296.7,1527.9c1.5,5.8,7.6,9.8,13.5,9.2c5.9-0.7,10.9-6.1,11.1-12.1c5.2,4.8,11.3,9.8,18.5,9.8
				c7.2-0.1,13.9-8.6,9.8-14.4c5.7,3.8,12.1,6.6,18.7,8c5.5,1.3,11.8,1.5,16.3-1.9c4.4-3.3,5.8-9.4,5.4-14.9
				c-0.7-9.2-5.8-17.8-12.5-24.1c-6.7-6.4-14.9-11-23.3-15c-36.8-17.9-77.7-27.3-118.6-27.4c-5.8,0-11.7,0.2-17.2,1.9
				c-5.1,1.6-9.7,4.5-14.2,7.4c-6.8,4.4-18.9,6.5-25.5,11.2c-8.7,6.2-12.5,15.9-14.3,26.4c-1.2,6.8,3.6,15.6,10.4,14.5
				c-5.2,4.6-8.4,11.6-7.3,18.4c1.1,6.8,7.4,12.7,14.3,12.3c6.9-0.4,12.5-8.4,9.7-14.7c0.1,2.5,0.1,5.1,0.1,7.6
				c5.2,3.5,11.2,5.8,17.4,6.6c3.7,0.5,7.6,0.5,10.8-1.3c3.2-1.8,5.4-5.8,4.2-9.3c2.8,9.8,16.9,14.1,24.7,7.6
				c5.4,7.9,19.2,7.5,24.1-0.7c1.3,5.4,8,8.2,13.3,6.7C291.1,1538.1,294.9,1533.2,296.7,1527.9z"/>
			<path class="st5" d="M281,1478.9c-1.1-5.9,2.1-11.6,5.2-16.7c1.1-1.7,2.2-3.6,3.6-5c1.4-1.4,3.1-2.5,4.8-3.4
				c23.4-13.3,52.7-13.9,78.3-5.8c25.7,8.1,48.2,24.1,68,42.4c6.1,5.6,12.2,11.9,14.7,19.8c1.5,5,1.6,10.2,1.3,15.4
				c-0.2,3.3-0.9,7.3-4,8.7c-2.2,1-4.8,0.1-7.2-0.3c-2.4-0.5-5.4-0.3-6.6,1.9c-0.5,0.9-0.5,1.9-0.9,2.9c-1.1,3.7-5.6,5.5-9.4,4.7
				c-3.8-0.8-6.8-3.5-9.3-6.4c-2.3,5-7.1,8.6-12.5,9.5c-5.4,0.9-11.1-1.1-14.9-5c-0.7-0.8-1.7-1.7-2.7-1.5c-0.6,0.1-1,0.6-1.5,1
				c-2.9,2.7-7.7,2.8-11.3,0.9c-3.6-1.9-6-5.4-7.5-9.1c-1.5,3.5-3.8,7.6-7.6,7.6c-1.4,0-2.7-0.6-4-1.3c-8.8-5.4-11-17-12.3-27.3
				c-22.2,2.7-45.5-6.7-59.6-24C283.6,1485.1,281.6,1482.2,281,1478.9z"/>
		</g>
		<path class="st6" d="M299,1472c15.9-0.6,31.8-1.1,47.6-1.5c9.9-0.2,20.1-0.3,29.3,3.1c9.4,3.5,17.2,10.3,24.8,16.8
			c7.9,6.9,16.1,14.2,19.8,24.1"/>
		<path class="st6" d="M363.2,1471.8c2.5,13.5,11.9,25.4,24.2,31.3"/>
		<path class="st6" d="M365.4,1470.8c7.7-0.4,22.2-1.5,29.9-0.2c7.6,1.3,15.1,4.6,20.2,10.5"/>
		<path class="st6" d="M316.6,1471.8c2.3,4.4,4.2,7.8,7.8,11.1c3.6,3.3,8.9,5.3,13.6,3.8"/>
		<path class="st6" d="M412,1500.6c11.2,1.2,22.2,4.2,32.5,8.8"/>
		<path class="st6" d="M276.1,1470.7c-27.9,4.4-48.9,11.8-73.2,26.3c-5.5,3.3-11.4,7.4-12.4,13.8"/>
		<path class="st6" d="M231.2,1482.7c-12.9-2.5-22.8-2.5-35.8-1.1"/>
		<path class="st6" d="M231.2,1482.7c6.4,9.2,13.2,22.5,12.7,33.8"/>
		<path class="st6" d="M268.5,1471.8c0.7,5,4.8,8.8,7,13.4c4,8.2,1.3,18.1-2.5,26.3"/>
		<path class="st6" d="M267.7,1472.2c0.2-3.9-4.2-5.2-7.6-7.1c-3.4-1.9-7.4-2.7-11.3-3.1c-8.2-0.9-16.6-1.1-24.9-0.5"/>
	</g>
	<g id="tomato_2_">
		
			<ellipse transform="matrix(-0.1704 -0.9854 0.9854 -0.1704 -1148.4408 1937.964)" class="st7" cx="241.6" cy="1452.4" rx="31.5" ry="81.5"/>
		
			<ellipse transform="matrix(-0.1704 -0.9854 0.9854 -0.1704 -1141.4353 1929.6575)" class="st8" cx="241.6" cy="1445.3" rx="31.5" ry="81.5"/>
		<path class="st7" d="M204,1450.2c0,0-22.3-8.2,4.5-18.6c0,0,11.7-6.9,23.7,5.8c0,0,8.2-18.2,26.8-12.4c0,0,26.8,0.3,28.2,8.2
			c0,0,2.1,9.6-9.6,12.1c0,0,14.8,14.8-10.3,18.2c0,0-24.4,6.5-30.5-8.6c0,0-0.3,17.2-30.2,13.4C206.4,1468.4,171,1461.8,204,1450.2
			z"/>
		
			<ellipse transform="matrix(8.182696e-02 -0.9966 0.9966 8.182696e-02 -1137.0093 1696.7886)" class="st7" cx="352.4" cy="1465.5" rx="33" ry="81.5"/>
		
			<ellipse transform="matrix(8.182696e-02 -0.9966 0.9966 8.182696e-02 -1130.9706 1685.9241)" class="st8" cx="349.5" cy="1456.8" rx="33" ry="81.5"/>
		<path class="st7" d="M387,1468.9c0,0,23.6-2.9-0.1-19.1c0,0-9.8-9.4-24.4,0.2c0,0-3.8-19.6-23.2-18.2c0,0-26.2-5.8-29.3,1.5
			c0,0-4.2,8.9,6.6,13.9c0,0-17.8,11,5.8,20.1c0,0,22.2,12,31.8-1.3c0,0-3.6,16.8,26.3,20C380.4,1486,416.4,1487.8,387,1468.9z"/>
	</g>
	<g id="burger_2_">
		<g>
			<path class="st9" d="M170.9,1374.5c0,0-0.9,0.5-2.1,1.3c-3.7,2.6-9.6,8.4,0.7,13.1c0,0-24.7,6.1-11.7,18.4
				c0,0-13.6,22.2,4.7,22.2c0,0-3.7,20.6,16.8,14.5c0,0,6.2,11.6,16.7,7.6c0,0-7.6,12.3,88.6,5.4c0,0,80.3,8.4,138.3-3.1
				c0,0,9.9,11.5,21.4-2.3c0,0,21.4,3.1,22.9-9.2c0,0,17.6-6.9,7.6-22.2c0,0,11.5-6.1-1.5-13.7c0,0,0.7-22.2-18.4-21.4
				c0,0-174.4-27.3-285.1-10.2"/>
			<path class="st3" d="M212.1,1484.5c0,0-9.2-68-14.5-78.7c0,0-35.6-22.9-26.6-31.4c0,0,70.1-58.1,240.6-17.6
				c0,0,41.3,6.1,48.5,30.5c0,0-97.4,26.9-136.4,26.1c0,0-25.2,7.6-30.5,14.4C293.1,1427.9,259.4,1472.3,212.1,1484.5z"/>
			<ellipse class="st10" cx="213.9" cy="1420.4" rx="7.8" ry="8.9"/>
			<ellipse class="st11" cx="301.4" cy="1439.8" rx="7.8" ry="7.5"/>
			<ellipse class="st11" cx="334.5" cy="1445.1" rx="7.8" ry="5.6"/>
			<path class="st11" d="M364.9,1439.5c0,0,11,9.7,19.4-2.3c0,0,34.1,7.8,27.8-12.6"/>
			<path class="st10" d="M213.9,1397.8c0,0-12.1-8.2-11.5-19.1c0,0,4.5-13.1-6.4-10.7c0,0-13.3,5.7-2.7,19
				C193.4,1387.1,199.9,1396.6,213.9,1397.8z"/>
			<path class="st10" d="M345.3,1351.6c0,0,46.6-2.3,84.6,19.6c0,0-0.2,5.1-5.3,4.7c0,0-28.4-19-79.3-17.6
				C345.3,1358.3,335.7,1354.8,345.3,1351.6z"/>
		</g>
	</g>
	<g id="top_2_">
		<g>
			<path class="st2" d="M426.9,1292.7c5.5,5,15.8,15.2,19.7,21.5c11.8,19.2,17.3,33.5,13.1,55.6c-3,16.1-41.6,18-45.3,18.2
				c-61.2,1.5-81.5,4.3-146.3,3.5c-16.4-0.2-76.8-3.4-85.1-8.4c-8.3-5.1-21.8-9.1-24.5-18.5c-5-17.3,5.3-35.4,17.5-48.6
				c37-39.9,89-53.2,143.4-55.7c11.5-0.5,26.7,0.1,38.1,1.9c18,2.8,34.4,9.6,50.6,18.1C414.9,1283.7,421.3,1287.6,426.9,1292.7z"/>
			<path class="st10" d="M216.5,1316.1c0,3.4-3.1,6.2-7,6.2c-3.8,0-18.9-2.8-18.9-6.2s15.1-6.2,18.9-6.2S216.5,1312.6,216.5,1316.1z
				"/>
			<path class="st10" d="M256.9,1311.9c-0.9-3.3,1.5-6.8,5.2-7.7c3.8-0.9,19-1.9,19.8,1.4c0.9,3.3-13.1,9.7-16.8,10.7
				C261.5,1317.1,257.8,1315.3,256.9,1311.9z"/>
			<path class="st10" d="M244.3,1285c-0.8-3.3,1.5-6.8,5.2-7.7c3.8-0.9,19-1.9,19.8,1.4c0.8,3.3-13.1,9.7-16.8,10.7
				C248.8,1290.3,245.1,1288.3,244.3,1285z"/>
			<path class="st10" d="M315.8,1301.7c-2.2,2.6-6.4,2.8-9.3,0.3c-2.9-2.5-12.8-14.2-10.6-16.9c2.2-2.6,15.5,4.8,18.5,7.3
				C317.4,1295,318,1299.1,315.8,1301.7z"/>
			<path class="st10" d="M350.5,1286.1c-2.7,2.1-6.8,1.3-9.2-1.7c-2.3-3-9.4-16.6-6.8-18.7c2.7-2.1,14.1,8,16.5,11.1
				S353.3,1284,350.5,1286.1z"/>
			<path class="st10" d="M361.3,1319.1c-1.3,3.2-5.2,4.6-8.8,3.2c-3.6-1.4-16.5-9.6-15.3-12.8c1.3-3.2,16.3-0.2,19.8,1.3
				C360.7,1312.2,362.5,1315.9,361.3,1319.1z"/>
			<path class="st10" d="M398.5,1280.3c2.1,2.7,1.2,6.8-1.9,9.2c-3.1,2.3-16.8,9-18.9,6.3c-2.1-2.7,8.4-14,11.5-16.3
				C392.3,1277.2,396.4,1277.5,398.5,1280.3z"/>
			<path class="st10" d="M399.4,1314c1-3.3,4.8-5.1,8.4-4c3.7,1.1,17.4,8,16.3,11.3c-1,3.3-16.2,1.7-19.9,0.6
				C400.7,1320.9,398.5,1317.3,399.4,1314z"/>
		</g>
		<g id="drops_2_">
		</g>
	</g>
	<g id="bottom_3_">
		<g>
			<path class="st2" d="M160.5,2028.7c0,0,2.8-4.2,14.7-6.5c56.1-10.9,149.3-33.2,269.7,8c5.8,2,16.2,19.4,14.8,22.6
				c0,0,7.4,53.2-71.3,60.6c0,0-62,6.8-155.1-3.1S151.2,2036.8,160.5,2028.7z"/>
			<path class="st3" d="M164.5,2026.3c0,0-14.8,21.4,66.1,40.8c0,0,59.8,18.6,183.9-0.9c0,0,49.6-5.4,30.5-36"/>
		</g>
	</g>
	<g id="lettuce_3_">
		<g>
			<path class="st4" d="M294,2036.2c1.5,5.8,7.6,9.8,13.5,9.2c5.9-0.7,10.9-6.1,11.1-12.1c5.2,4.8,11.3,9.8,18.5,9.8
				c7.2-0.1,13.9-8.6,9.8-14.4c5.7,3.8,12.1,6.6,18.7,8c5.5,1.3,11.8,1.5,16.3-1.9c4.4-3.3,5.8-9.4,5.4-14.9
				c-0.7-9.2-5.8-17.8-12.5-24.1c-6.7-6.4-14.9-11-23.3-15c-36.8-17.9-77.7-27.3-118.6-27.4c-5.8,0-11.7,0.2-17.2,1.9
				c-5.1,1.6-9.7,4.5-14.2,7.4c-6.8,4.4-18.9,6.5-25.5,11.2c-8.7,6.2-12.5,15.9-14.3,26.4c-1.2,6.8,3.6,15.6,10.4,14.5
				c-5.2,4.6-8.4,11.6-7.3,18.4c1.1,6.8,7.4,12.7,14.3,12.3c6.9-0.4,12.5-8.4,9.7-14.7c0.1,2.5,0.1,5.1,0.1,7.6
				c5.2,3.5,11.2,5.8,17.4,6.6c3.7,0.5,7.6,0.5,10.8-1.3s5.4-5.8,4.2-9.3c2.8,9.8,16.9,14.1,24.7,7.6c5.4,7.9,19.2,7.5,24.1-0.7
				c1.3,5.4,8,8.2,13.3,6.7C288.4,2046.4,292.3,2041.5,294,2036.2z"/>
			<path class="st5" d="M278.3,1987.2c-1.1-5.9,2.1-11.6,5.2-16.7c1.1-1.7,2.2-3.6,3.6-5c1.4-1.4,3.1-2.5,4.8-3.4
				c23.4-13.3,52.7-13.9,78.3-5.8c25.7,8.1,48.2,24.1,68,42.4c6.1,5.6,12.2,11.9,14.7,19.8c1.5,5,1.6,10.2,1.3,15.4
				c-0.2,3.3-0.9,7.3-4,8.7c-2.2,1-4.8,0.1-7.2-0.3c-2.4-0.5-5.4-0.3-6.6,1.9c-0.5,0.9-0.5,1.9-0.9,2.9c-1.1,3.7-5.6,5.5-9.4,4.7
				s-6.8-3.5-9.3-6.4c-2.3,5-7.1,8.6-12.5,9.5c-5.4,0.9-11.1-1.1-14.9-5c-0.7-0.8-1.7-1.7-2.7-1.5c-0.6,0.1-1,0.6-1.5,1
				c-2.9,2.7-7.7,2.8-11.3,0.9c-3.6-1.9-6-5.4-7.5-9.1c-1.5,3.5-3.8,7.6-7.6,7.6c-1.4,0-2.7-0.6-4-1.3c-8.8-5.4-11-17-12.3-27.3
				c-22.2,2.7-45.5-6.7-59.6-24C280.9,1993.4,278.9,1990.6,278.3,1987.2z"/>
		</g>
		<path class="st6" d="M296.3,1986.3c15.9-0.6,31.8-1.1,47.6-1.5c9.9-0.2,20.1-0.3,29.3,3.1c9.4,3.5,17.2,10.3,24.8,16.8
			c7.9,6.9,16.1,14.2,19.8,24.1"/>
		<path class="st6" d="M360.5,1986.2c2.5,13.5,11.9,25.4,24.2,31.3"/>
		<path class="st6" d="M362.7,1985.2c7.7-0.4,22.2-1.5,29.9-0.2c7.6,1.3,15.1,4.6,20.2,10.5"/>
		<path class="st6" d="M313.9,1986.2c2.3,4.4,4.2,7.8,7.8,11.1c3.6,3.3,8.9,5.3,13.6,3.8"/>
		<path class="st6" d="M409.4,2014.9c11.2,1.2,22.2,4.2,32.5,8.8"/>
		<path class="st6" d="M273.4,1985.1c-27.9,4.4-48.9,11.8-73.2,26.3c-5.5,3.3-11.4,7.4-12.4,13.8"/>
		<path class="st6" d="M228.5,1997.1c-12.9-2.5-22.8-2.5-35.8-1.1"/>
		<path class="st6" d="M228.5,1997.1c6.4,9.2,13.2,22.5,12.7,33.8"/>
		<path class="st6" d="M265.9,1986.1c0.7,5,4.8,8.8,7,13.4c4,8.2,1.3,18.1-2.5,26.3"/>
		<path class="st6" d="M265,1986.5c0.2-3.9-4.2-5.2-7.6-7.1c-3.3-2-7.4-2.7-11.3-3.1c-8.2-0.9-16.6-1.1-24.9-0.5"/>
	</g>
	<g id="tomato_3_">
		
			<ellipse transform="matrix(-0.1704 -0.9854 0.9854 -0.1704 -1631.3639 2505.2085)" class="st7" cx="238.9" cy="1939.3" rx="31.5" ry="81.5"/>
		
			<ellipse transform="matrix(-0.1704 -0.9854 0.9854 -0.1704 -1624.3066 2496.8135)" class="st8" cx="238.9" cy="1932.2" rx="31.5" ry="81.5"/>
		<path class="st7" d="M201.3,1937.1c0,0-22.3-8.2,4.5-18.6c0,0,11.7-6.9,23.7,5.8c0,0,8.2-18.2,26.8-12.4c0,0,26.8,0.3,28.2,8.2
			c0,0,2.1,9.6-9.6,12.1c0,0,14.8,14.8-10.3,18.2c0,0-24.4,6.5-30.5-8.6c0,0-0.3,17.2-30.2,13.4
			C203.7,1955.2,168.3,1948.8,201.3,1937.1z"/>
		
			<ellipse transform="matrix(8.182696e-02 -0.9966 0.9966 8.182696e-02 -1624.6858 2141.1304)" class="st7" cx="349.7" cy="1952.3" rx="33" ry="81.5"/>
		
			<ellipse transform="matrix(8.182696e-02 -0.9966 0.9966 8.182696e-02 -1618.7186 2130.3218)" class="st8" cx="346.8" cy="1943.7" rx="33" ry="81.5"/>
		<path class="st7" d="M384.3,1955.7c0,0,23.6-2.9-0.1-19.1c0,0-9.8-9.4-24.4,0.2c0,0-3.8-19.6-23.2-18.2c0,0-26.2-5.8-29.3,1.5
			c0,0-4.2,8.9,6.6,13.9c0,0-17.8,11,5.8,20.1c0,0,22.2,12,31.8-1.3c0,0-3.6,16.8,26.3,20C377.7,1972.9,413.7,1974.7,384.3,1955.7z"
			/>
	</g>
	<g id="burger_3_">
		<g>
			<path class="st9" d="M168.2,1842.6c0,0-0.9,0.5-2.1,1.3c-3.7,2.6-9.6,8.4,0.7,13.1c0,0-24.7,6.1-11.7,18.4
				c0,0-13.6,22.2,4.7,22.2c0,0-3.7,20.6,16.8,14.5c0,0,6.2,11.6,16.7,7.6c0,0-7.6,12.3,88.6,5.4c0,0,80.3,8.4,138.3-3.1
				c0,0,9.9,11.5,21.4-2.3c0,0,21.4,3.1,22.9-9.2c0,0,17.6-6.9,7.6-22.2c0,0,11.5-6.1-1.5-13.7c0,0,0.7-22.2-18.4-21.4
				c0,0-174.4-27.3-285.1-10.2"/>
			<path class="st3" d="M209.4,1952.6c0,0-9.2-68-14.5-78.7c0,0-35.6-22.9-26.6-31.4c0,0,70.1-58.1,240.6-17.6
				c0,0,41.3,6.1,48.5,30.5c0,0-97.4,26.9-136.4,26.1c0,0-25.2,7.6-30.5,14.4C290.4,1896,256.7,1940.4,209.4,1952.6z"/>
			<ellipse class="st10" cx="211.2" cy="1888.5" rx="7.8" ry="8.9"/>
			<ellipse class="st11" cx="298.7" cy="1907.9" rx="7.8" ry="7.5"/>
			<ellipse class="st11" cx="331.8" cy="1913.2" rx="7.8" ry="5.6"/>
			<path class="st11" d="M362.3,1907.6c0,0,11,9.7,19.4-2.3c0,0,34.1,7.8,27.8-12.6"/>
			<path class="st10" d="M211.2,1865.9c0,0-12.1-8.2-11.5-19.1c0,0,4.5-13.1-6.4-10.7c0,0-13.3,5.7-2.7,19
				C190.8,1855.2,197.3,1864.7,211.2,1865.9z"/>
			<path class="st10" d="M342.6,1819.7c0,0,46.6-2.3,84.6,19.6c0,0-0.2,5.1-5.3,4.7c0,0-28.4-19-79.3-17.6
				C342.6,1826.4,333.1,1822.9,342.6,1819.7z"/>
		</g>
	</g>
	<g id="top_3_">
		<g>
			<path class="st2" d="M424.2,1742.7c5.5,5,15.8,15.2,19.7,21.5c11.8,19.2,17.3,33.5,13.1,55.6c-3,16.1-41.6,18-45.3,18.2
				c-61.2,1.5-81.5,4.3-146.3,3.5c-16.4-0.2-76.8-3.4-85.1-8.4c-8.3-5.1-21.8-9.1-24.5-18.5c-5-17.3,5.3-35.4,17.5-48.6
				c37-39.9,89-53.2,143.4-55.7c11.5-0.5,26.7,0.1,38.1,1.9c18,2.8,34.4,9.6,50.6,18.1C412.2,1733.7,418.6,1737.6,424.2,1742.7z"/>
			<path class="st10" d="M213.8,1766.1c0,3.4-3.1,6.2-7,6.2c-3.8,0-18.9-2.8-18.9-6.2s15.1-6.2,18.9-6.2
				C210.7,1759.8,213.8,1762.6,213.8,1766.1z"/>
			<path class="st10" d="M254.3,1761.9c-0.9-3.3,1.5-6.8,5.2-7.7c3.8-0.9,19-1.9,19.8,1.4c0.9,3.3-13.1,9.7-16.8,10.7
				C258.8,1767.2,255.1,1765.3,254.3,1761.9z"/>
			<path class="st10" d="M241.6,1735c-0.8-3.3,1.5-6.8,5.2-7.7s19-1.9,19.8,1.4c0.8,3.3-13.1,9.7-16.8,10.7
				C246.1,1740.3,242.4,1738.3,241.6,1735z"/>
			<path class="st10" d="M313.2,1751.8c-2.2,2.6-6.4,2.8-9.3,0.3c-2.9-2.5-12.8-14.2-10.6-16.9c2.2-2.6,15.5,4.8,18.5,7.3
				C314.8,1745,315.4,1749.1,313.2,1751.8z"/>
			<path class="st10" d="M347.9,1736.1c-2.7,2.1-6.8,1.3-9.2-1.7c-2.3-3-9.4-16.6-6.8-18.7c2.7-2.1,14.1,8,16.5,11.1
				C350.9,1729.8,350.6,1734,347.9,1736.1z"/>
			<path class="st10" d="M358.6,1769.1c-1.3,3.2-5.2,4.6-8.8,3.2c-3.6-1.4-16.5-9.6-15.3-12.8c1.3-3.2,16.3-0.2,19.8,1.3
				C358,1762.2,359.9,1765.9,358.6,1769.1z"/>
			<path class="st10" d="M395.8,1730.3c2.1,2.7,1.2,6.8-1.9,9.2c-3.1,2.3-16.8,9-18.9,6.3c-2.1-2.7,8.4-14,11.5-16.3
				C389.6,1727.2,393.8,1727.5,395.8,1730.3z"/>
			<path class="st10" d="M396.8,1764c1-3.3,4.8-5.1,8.4-4c3.7,1.1,17.4,8,16.3,11.3c-1,3.3-16.2,1.7-19.9,0.6
				C398,1770.8,395.8,1767.3,396.8,1764z"/>
		</g>
		<g id="drops_3_">
		</g>
	</g>
	<g id="bottom_4_">
		<g>
			<path class="st2" d="M163.2,2566.3c0,0,2.8-4.2,14.7-6.5c56.1-10.9,149.3-33.2,269.7,8c5.8,2,16.2,19.4,14.8,22.6
				c0,0,7.4,53.2-71.3,60.6c0,0-62,6.8-155.1-3.1S153.9,2574.4,163.2,2566.3z"/>
			<path class="st3" d="M167.2,2563.9c0,0-14.8,21.4,66.1,40.8c0,0,59.8,18.6,183.9-0.9c0,0,49.6-5.4,30.5-36"/>
		</g>
	</g>
	<g id="lettuce_4_">
		<g>
			<path class="st4" d="M296.7,2570.4c1.5,5.8,7.6,9.8,13.5,9.2c5.9-0.7,10.9-6.1,11.1-12.1c5.2,4.8,11.3,9.8,18.5,9.8
				c7.2-0.1,13.9-8.6,9.8-14.4c5.7,3.8,12.1,6.6,18.7,8c5.5,1.3,11.8,1.5,16.3-1.9c4.4-3.3,5.8-9.4,5.4-14.9
				c-0.7-9.2-5.8-17.8-12.5-24.1c-6.7-6.4-14.9-11-23.3-15c-36.8-17.9-77.7-27.3-118.6-27.4c-5.8,0-11.7,0.2-17.2,1.9
				c-5.1,1.6-9.7,4.5-14.2,7.4c-6.8,4.4-18.9,6.5-25.5,11.2c-8.7,6.2-12.5,15.9-14.3,26.4c-1.2,6.8,3.6,15.6,10.4,14.5
				c-5.2,4.6-8.4,11.6-7.3,18.4c1.1,6.8,7.4,12.7,14.3,12.3c6.9-0.4,12.5-8.4,9.7-14.7c0.1,2.5,0.1,5.1,0.1,7.6
				c5.2,3.5,11.2,5.8,17.4,6.6c3.7,0.5,7.6,0.5,10.8-1.3c3.2-1.8,5.4-5.8,4.2-9.3c2.8,9.8,16.9,14.1,24.7,7.6
				c5.4,7.9,19.2,7.5,24.1-0.7c1.3,5.4,8,8.2,13.3,6.7C291.1,2580.6,294.9,2575.6,296.7,2570.4z"/>
			<path class="st5" d="M281,2521.4c-1.1-5.9,2.1-11.6,5.2-16.7c1.1-1.7,2.2-3.6,3.6-5c1.4-1.4,3.1-2.5,4.8-3.4
				c23.4-13.3,52.7-13.9,78.3-5.8c25.7,8.1,48.2,24.1,68,42.4c6.1,5.6,12.2,11.9,14.7,19.8c1.5,5,1.5,10.2,1.3,15.4
				c-0.2,3.3-0.9,7.3-4,8.7c-2.2,1-4.8,0.1-7.2-0.3s-5.4-0.3-6.6,1.9c-0.5,0.9-0.5,1.9-0.9,2.9c-1.1,3.7-5.6,5.5-9.4,4.7
				c-3.8-0.8-6.8-3.5-9.3-6.4c-2.3,5-7.1,8.6-12.5,9.5c-5.4,0.9-11.1-1.1-14.9-5c-0.7-0.8-1.7-1.7-2.7-1.5c-0.6,0.1-1,0.6-1.5,1
				c-2.9,2.7-7.7,2.8-11.3,0.9c-3.6-1.9-6-5.4-7.5-9.1c-1.5,3.5-3.8,7.6-7.6,7.6c-1.4,0-2.7-0.6-4-1.3c-8.8-5.4-11-17-12.3-27.3
				c-22.2,2.7-45.5-6.7-59.6-24C283.6,2527.6,281.6,2524.7,281,2521.4z"/>
		</g>
		<path class="st6" d="M299,2514.4c15.9-0.6,31.8-1.1,47.6-1.5c9.9-0.2,20.1-0.3,29.3,3.1c9.4,3.5,17.2,10.3,24.8,16.8
			c7.9,6.9,16.1,14.2,19.8,24.1"/>
		<path class="st6" d="M363.2,2514.3c2.5,13.5,11.9,25.4,24.2,31.3"/>
		<path class="st6" d="M365.4,2513.3c7.7-0.4,22.2-1.5,29.9-0.2c7.6,1.3,15.1,4.6,20.2,10.5"/>
		<path class="st6" d="M316.6,2514.3c2.3,4.4,4.2,7.8,7.8,11.1c3.6,3.3,8.9,5.3,13.6,3.8"/>
		<path class="st6" d="M412,2543.1c11.2,1.2,22.2,4.2,32.5,8.8"/>
		<path class="st6" d="M276.1,2513.2c-27.9,4.4-48.9,11.8-73.2,26.3c-5.5,3.3-11.4,7.4-12.4,13.8"/>
		<path class="st6" d="M231.2,2525.2c-12.9-2.5-22.8-2.5-35.8-1.1"/>
		<path class="st6" d="M231.2,2525.2c6.4,9.2,13.2,22.5,12.7,33.8"/>
		<path class="st6" d="M268.5,2514.2c0.7,5,4.8,8.8,7,13.4c4,8.2,1.3,18.1-2.5,26.3"/>
		<path class="st6" d="M267.7,2514.7c0.2-3.9-4.2-5.2-7.6-7.1c-3.3-2-7.4-2.7-11.3-3.1c-8.2-0.9-16.6-1.1-24.9-0.5"/>
	</g>
	<g id="tomato_4_">
		
			<ellipse transform="matrix(-0.1704 -0.9854 0.9854 -0.1704 -2141.3235 3117.2725)" class="st7" cx="241.6" cy="2460" rx="31.5" ry="81.5"/>
		
			<ellipse transform="matrix(-0.1704 -0.9854 0.9854 -0.1704 -2127.0544 3100.3416)" class="st8" cx="241.6" cy="2445.6" rx="31.5" ry="81.5"/>
		<path class="st7" d="M204,2457.8c0,0-22.3-8.2,4.5-18.6c0,0,11.7-6.9,23.7,5.8c0,0,8.2-18.2,26.8-12.4c0,0,26.8,0.3,28.2,8.2
			c0,0,2.1,9.6-9.6,12.1c0,0,14.8,14.8-10.3,18.2c0,0-24.4,6.5-30.5-8.6c0,0-0.3,17.2-30.2,13.4C206.4,2476,171,2469.5,204,2457.8z"
			/>
		
			<ellipse transform="matrix(8.182696e-02 -0.9966 0.9966 8.182696e-02 -2141.2493 2621.9604)" class="st7" cx="352.4" cy="2473.1" rx="33" ry="81.5"/>
		
			<ellipse transform="matrix(8.182696e-02 -0.9966 0.9966 8.182696e-02 -2135.282 2611.1519)" class="st8" cx="349.5" cy="2464.5" rx="33" ry="81.5"/>
		<path class="st7" d="M387,2476.5c0,0,23.6-2.9-0.1-19.1c0,0-9.8-9.4-24.4,0.2c0,0-3.8-19.6-23.2-18.2c0,0-26.2-5.8-29.3,1.5
			c0,0-4.2,8.9,6.6,13.9c0,0-17.8,11,5.8,20.1c0,0,22.2,12,31.8-1.3c0,0-3.6,16.8,26.3,20C380.4,2493.6,416.4,2495.4,387,2476.5z"/>
	</g>
	<g id="burger_4_">
		<g>
			<path class="st9" d="M170.9,2352.6c0,0-0.9,0.5-2.1,1.3c-3.7,2.6-9.6,8.4,0.7,13.1c0,0-24.7,6.1-11.7,18.4
				c0,0-13.6,22.2,4.7,22.2c0,0-3.7,20.6,16.8,14.5c0,0,6.2,11.6,16.7,7.6c0,0-7.6,12.3,88.6,5.4c0,0,80.3,8.4,138.3-3.1
				c0,0,9.9,11.5,21.4-2.3c0,0,21.4,3.1,22.9-9.2c0,0,17.6-6.9,7.6-22.2c0,0,11.5-6.1-1.5-13.7c0,0,0.7-22.2-18.4-21.4
				c0,0-174.4-27.3-285.1-10.2"/>
			<path class="st3" d="M212.1,2462.6c0,0-9.2-68-14.5-78.7c0,0-35.6-22.9-26.6-31.4c0,0,70.1-58.1,240.6-17.6
				c0,0,41.3,6.1,48.5,30.5c0,0-97.4,26.9-136.4,26.1c0,0-25.2,7.6-30.5,14.4C293.1,2406.1,259.4,2450.4,212.1,2462.6z"/>
			<ellipse class="st10" cx="213.9" cy="2398.5" rx="7.8" ry="8.9"/>
			<ellipse class="st11" cx="301.4" cy="2417.9" rx="7.8" ry="7.5"/>
			<ellipse class="st11" cx="334.5" cy="2423.2" rx="7.8" ry="5.6"/>
			<path class="st11" d="M364.9,2417.7c0,0,11,9.7,19.4-2.3c0,0,34.1,7.8,27.8-12.6"/>
			<path class="st10" d="M213.9,2375.9c0,0-12.1-8.2-11.5-19.1c0,0,4.5-13.1-6.4-10.7c0,0-13.3,5.7-2.7,19
				C193.4,2365.3,199.9,2374.8,213.9,2375.9z"/>
			<path class="st10" d="M345.3,2329.7c0,0,46.6-2.3,84.6,19.6c0,0-0.2,5.1-5.3,4.7c0,0-28.4-19-79.3-17.6
				C345.3,2336.4,335.7,2332.9,345.3,2329.7z"/>
		</g>
	</g>
	<g id="top_4_">
		<g>
			<path class="st2" d="M426.9,2228.7c5.5,5,15.8,15.2,19.7,21.5c11.8,19.2,17.3,33.5,13.1,55.6c-3,16.1-41.6,18-45.3,18.2
				c-61.2,1.5-81.5,4.3-146.3,3.5c-16.4-0.2-76.8-3.4-85.1-8.4c-8.3-5.1-21.8-9.1-24.5-18.5c-5-17.3,5.3-35.4,17.5-48.6
				c37-39.9,89-53.2,143.4-55.7c11.5-0.5,26.7,0.1,38.1,1.9c18,2.8,34.4,9.6,50.6,18.1C414.9,2219.8,421.3,2223.6,426.9,2228.7z"/>
			<path class="st10" d="M216.5,2252.1c0,3.4-3.1,6.2-7,6.2c-3.8,0-18.9-2.8-18.9-6.2s15.1-6.2,18.9-6.2S216.5,2248.7,216.5,2252.1z
				"/>
			<path class="st10" d="M256.9,2247.9c-0.9-3.3,1.5-6.8,5.2-7.7c3.8-0.9,19-1.9,19.8,1.4c0.8,3.3-13.1,9.7-16.8,10.7
				C261.5,2253.2,257.8,2251.3,256.9,2247.9z"/>
			<path class="st10" d="M244.3,2221c-0.8-3.3,1.5-6.8,5.2-7.7c3.8-0.9,19-1.9,19.8,1.4c0.8,3.3-13.1,9.7-16.8,10.7
				C248.8,2226.3,245.1,2224.3,244.3,2221z"/>
			<path class="st10" d="M315.8,2237.8c-2.2,2.6-6.4,2.8-9.3,0.3s-12.8-14.2-10.6-16.9c2.2-2.6,15.5,4.8,18.5,7.3
				S318,2235.2,315.8,2237.8z"/>
			<path class="st10" d="M350.5,2222.1c-2.7,2.1-6.8,1.3-9.2-1.7c-2.3-3-9.4-16.6-6.8-18.7c2.7-2.1,14.1,8,16.5,11.1
				C353.6,2215.8,353.3,2220,350.5,2222.1z"/>
			<path class="st10" d="M361.3,2255.1c-1.3,3.2-5.2,4.6-8.8,3.2c-3.6-1.4-16.5-9.6-15.3-12.8s16.3-0.2,19.8,1.3
				C360.6,2248.3,362.5,2252,361.3,2255.1z"/>
			<path class="st10" d="M398.5,2216.3c2.1,2.7,1.2,6.8-1.9,9.2c-3.1,2.3-16.8,9-18.9,6.3c-2.1-2.7,8.4-14,11.5-16.3
				S396.4,2213.6,398.5,2216.3z"/>
			<path class="st10" d="M399.4,2250c1-3.3,4.8-5.1,8.4-4c3.7,1.1,17.4,8,16.3,11.3c-1,3.3-16.2,1.7-19.9,0.6
				C400.7,2256.8,398.5,2253.3,399.4,2250z"/>
		</g>
	</g>
	<g id="bottom_5_">
		<g>
			<path class="st2" d="M163.2,3093.8c0,0,2.8-4.2,14.7-6.5c56.1-10.9,149.3-33.2,269.7,8c5.8,2,16.2,19.4,14.8,22.6
				c0,0,7.4,53.2-71.3,60.6c0,0-62,6.8-155.1-3.1S153.9,3101.9,163.2,3093.8z"/>
			<path class="st3" d="M167.2,3091.4c0,0-14.8,21.4,66.1,40.8c0,0,59.8,18.6,183.9-0.9c0,0,49.6-5.4,30.5-36"/>
		</g>
	</g>
	<g id="lettuce_5_">
		<g>
			<path class="st4" d="M296.7,3084.6c1.5,5.8,7.6,9.8,13.5,9.2c5.9-0.7,10.9-6.1,11.1-12.1c5.2,4.8,11.3,9.8,18.5,9.8
				c7.2-0.1,13.9-8.6,9.8-14.4c5.7,3.8,12.1,6.6,18.7,8c5.5,1.3,11.8,1.5,16.3-1.9c4.4-3.3,5.8-9.4,5.4-14.9
				c-0.7-9.2-5.8-17.8-12.5-24.1c-6.7-6.4-14.9-11-23.3-15c-36.8-17.9-77.7-27.3-118.6-27.4c-5.8,0-11.7,0.2-17.2,1.9
				c-5.1,1.6-9.7,4.5-14.2,7.4c-6.8,4.4-18.9,6.5-25.5,11.2c-8.7,6.2-12.5,15.9-14.3,26.4c-1.2,6.8,3.6,15.6,10.4,14.5
				c-5.2,4.6-8.4,11.6-7.3,18.4c1.1,6.8,7.4,12.7,14.3,12.3c6.9-0.4,12.5-8.4,9.7-14.7c0.1,2.5,0.1,5.1,0.1,7.6
				c5.2,3.5,11.2,5.8,17.4,6.6c3.7,0.5,7.6,0.5,10.8-1.3c3.2-1.8,5.4-5.8,4.2-9.3c2.8,9.8,16.9,14.1,24.7,7.6
				c5.4,7.9,19.2,7.5,24.1-0.7c1.3,5.4,8,8.2,13.3,6.7C291.1,3094.7,294.9,3089.8,296.7,3084.6z"/>
			<path class="st5" d="M281,3035.5c-1.1-5.9,2.1-11.6,5.2-16.7c1.1-1.7,2.2-3.6,3.6-5c1.4-1.4,3.1-2.5,4.8-3.4
				c23.4-13.3,52.7-13.9,78.3-5.8c25.7,8.1,48.2,24.1,68,42.4c6.1,5.6,12.2,11.9,14.7,19.8c1.5,5,1.5,10.2,1.3,15.4
				c-0.2,3.3-0.9,7.3-4,8.7c-2.2,1-4.8,0.1-7.2-0.3c-2.4-0.5-5.4-0.3-6.6,1.9c-0.5,0.9-0.5,1.9-0.9,2.9c-1.1,3.7-5.6,5.5-9.4,4.7
				c-3.8-0.8-6.8-3.5-9.3-6.4c-2.3,5-7.1,8.6-12.5,9.5c-5.4,0.9-11.1-1.1-14.9-5c-0.7-0.8-1.7-1.7-2.7-1.5c-0.6,0.1-1,0.6-1.5,1
				c-2.9,2.7-7.7,2.8-11.3,0.9c-3.6-1.9-6-5.4-7.5-9.1c-1.5,3.5-3.8,7.6-7.6,7.6c-1.4,0-2.7-0.6-4-1.3c-8.8-5.4-11-17-12.3-27.3
				c-22.2,2.7-45.5-6.7-59.6-24C283.6,3041.7,281.6,3038.9,281,3035.5z"/>
		</g>
		<path class="st6" d="M299,3028.5c15.9-0.6,31.8-1.1,47.6-1.5c9.9-0.2,20.1-0.3,29.3,3.1c9.4,3.5,17.2,10.3,24.8,16.8
			c7.9,6.9,16.1,14.2,19.8,24.1"/>
		<path class="st6" d="M363.2,3028.5c2.5,13.5,11.9,25.4,24.2,31.3"/>
		<path class="st6" d="M365.4,3027.4c7.7-0.4,22.2-1.5,29.9-0.2c7.6,1.3,15.1,4.6,20.2,10.5"/>
		<path class="st6" d="M316.6,3028.5c2.3,4.4,4.2,7.8,7.8,11.1c3.6,3.3,8.9,5.3,13.6,3.8"/>
		<path class="st6" d="M412,3057.2c11.2,1.2,22.2,4.2,32.5,8.8"/>
		<path class="st6" d="M276.1,3027.3c-27.9,4.4-48.9,11.8-73.2,26.3c-5.5,3.3-11.4,7.4-12.4,13.8"/>
		<path class="st6" d="M231.2,3039.3c-12.9-2.5-22.8-2.5-35.8-1.1"/>
		<path class="st6" d="M231.2,3039.3c6.4,9.2,13.2,22.5,12.7,33.8"/>
		<path class="st6" d="M268.5,3028.3c0.7,5,4.8,8.8,7,13.4c4,8.2,1.3,18.1-2.5,26.3"/>
		<path class="st6" d="M267.7,3028.7c0.2-3.9-4.2-5.2-7.6-7.1c-3.3-2-7.4-2.7-11.3-3.1c-8.2-0.9-16.6-1.1-24.9-0.5"/>
	</g>
	<g id="tomato_5_">
		
			<ellipse transform="matrix(-0.1704 -0.9854 0.9854 -0.1704 -2634.7322 3703.3376)" class="st7" cx="241.6" cy="2960.8" rx="31.5" ry="81.5"/>
		
			<ellipse transform="matrix(-0.1704 -0.9854 0.9854 -0.1704 -2627.7266 3695.0312)" class="st8" cx="241.6" cy="2953.7" rx="31.5" ry="81.5"/>
		<path class="st7" d="M204,2958.5c0,0-22.3-8.2,4.5-18.6c0,0,11.7-6.9,23.7,5.8c0,0,8.2-18.2,26.8-12.4c0,0,26.8,0.3,28.2,8.2
			c0,0,2.1,9.6-9.6,12.1c0,0,14.8,14.8-10.3,18.2c0,0-24.4,6.5-30.5-8.6c0,0-0.3,17.2-30.2,13.4C206.4,2976.8,171,2970.3,204,2958.5
			z"/>
		
			<ellipse transform="matrix(8.182696e-02 -0.9966 0.9966 8.182696e-02 -2640.311 3081.7244)" class="st7" cx="352.4" cy="2973.8" rx="33" ry="81.5"/>
		
			<ellipse transform="matrix(8.182696e-02 -0.9966 0.9966 8.182696e-02 -2634.2722 3070.8596)" class="st8" cx="349.5" cy="2965.1" rx="33" ry="81.5"/>
		<path class="st7" d="M387,2977.2c0,0,23.6-2.9-0.1-19.1c0,0-9.8-9.4-24.4,0.2c0,0-3.8-19.6-23.2-18.2c0,0-26.2-5.8-29.3,1.5
			c0,0-4.2,8.9,6.6,13.9c0,0-17.8,11,5.8,20.1c0,0,22.2,12,31.8-1.3c0,0-3.6,16.8,26.3,20C380.4,2994.4,416.4,2996.2,387,2977.2z"/>
	</g>
	<g id="burger_5_">
		<g>
			<path class="st9" d="M170.9,2830.5c0,0-0.9,0.5-2.1,1.3c-3.7,2.6-9.6,8.4,0.7,13.1c0,0-24.7,6.1-11.7,18.4
				c0,0-13.6,22.2,4.7,22.2c0,0-3.7,20.6,16.8,14.5c0,0,6.2,11.6,16.7,7.6c0,0-7.6,12.3,88.6,5.4c0,0,80.3,8.4,138.3-3.1
				c0,0,9.9,11.5,21.4-2.3c0,0,21.4,3.1,22.9-9.2c0,0,17.6-6.9,7.6-22.2c0,0,11.5-6.1-1.5-13.7c0,0,0.7-22.2-18.4-21.4
				c0,0-174.4-27.3-285.1-10.2"/>
			<path class="st3" d="M212.1,2940.6c0,0-9.2-68-14.5-78.7c0,0-35.6-22.9-26.6-31.4c0,0,70.1-58.1,240.6-17.6
				c0,0,41.3,6.1,48.5,30.5c0,0-97.4,26.9-136.4,26.1c0,0-25.2,7.6-30.5,14.4C293.1,2884,259.4,2928.3,212.1,2940.6z"/>
			<ellipse class="st10" cx="213.9" cy="2876.4" rx="7.8" ry="8.9"/>
			<ellipse class="st11" cx="301.4" cy="2895.8" rx="7.8" ry="7.5"/>
			<ellipse class="st11" cx="334.5" cy="2901.2" rx="7.8" ry="5.6"/>
			<path class="st11" d="M364.9,2895.6c0,0,11,9.7,19.4-2.3c0,0,34.1,7.8,27.8-12.6"/>
			<path class="st10" d="M213.9,2853.9c0,0-12.1-8.2-11.5-19.1c0,0,4.5-13.1-6.4-10.7c0,0-13.3,5.7-2.7,19
				C193.4,2843.2,199.9,2852.7,213.9,2853.9z"/>
			<path class="st10" d="M345.3,2807.6c0,0,46.6-2.3,84.6,19.6c0,0-0.2,5.1-5.3,4.7c0,0-28.4-19-79.3-17.6
				C345.3,2814.4,335.7,2810.9,345.3,2807.6z"/>
		</g>
	</g>
	<g id="top_5_">
		<g>
			<path class="st2" d="M426.9,2693.2c5.5,5,15.8,15.2,19.7,21.5c11.8,19.2,17.3,33.5,13.1,55.6c-3,16.1-41.6,18-45.3,18.2
				c-61.2,1.5-81.5,4.3-146.3,3.5c-16.4-0.2-76.8-3.4-85.1-8.4c-8.3-5.1-21.8-9.1-24.5-18.5c-5-17.3,5.3-35.4,17.5-48.6
				c37-39.9,89-53.2,143.4-55.7c11.5-0.5,26.7,0.1,38.1,1.9c18,2.8,34.4,9.6,50.6,18.1C414.9,2684.3,421.3,2688.1,426.9,2693.2z"/>
			<path class="st10" d="M216.5,2716.6c0,3.4-3.1,6.2-7,6.2c-3.8,0-18.9-2.8-18.9-6.2s15.1-6.2,18.9-6.2S216.5,2713.2,216.5,2716.6z
				"/>
			<path class="st10" d="M256.9,2712.5c-0.9-3.3,1.5-6.8,5.2-7.7c3.8-0.9,19-1.9,19.8,1.4c0.8,3.3-13.1,9.7-16.8,10.7
				C261.5,2717.7,257.8,2715.7,256.9,2712.5z"/>
			<path class="st10" d="M244.3,2685.5c-0.8-3.3,1.5-6.8,5.2-7.7c3.8-0.9,19-1.9,19.8,1.4c0.8,3.3-13.1,9.7-16.8,10.7
				C248.8,2690.8,245.1,2688.8,244.3,2685.5z"/>
			<path class="st10" d="M315.8,2702.3c-2.2,2.6-6.4,2.8-9.3,0.3s-12.8-14.2-10.6-16.9c2.2-2.6,15.5,4.8,18.5,7.3
				C317.4,2695.5,318,2699.7,315.8,2702.3z"/>
			<path class="st10" d="M350.5,2686.6c-2.7,2.1-6.8,1.3-9.2-1.7c-2.3-3-9.4-16.6-6.8-18.7c2.7-2.1,14.1,8,16.5,11.1
				C353.6,2680.4,353.3,2684.5,350.5,2686.6z"/>
			<path class="st10" d="M361.3,2719.7c-1.3,3.2-5.2,4.6-8.8,3.2c-3.6-1.4-16.5-9.6-15.3-12.8s16.3-0.2,19.8,1.3
				C360.6,2712.9,362.5,2716.5,361.3,2719.7z"/>
			<path class="st10" d="M398.5,2680.8c2.1,2.7,1.2,6.8-1.9,9.2c-3.1,2.3-16.8,9-18.9,6.3c-2.1-2.7,8.4-14,11.5-16.3
				C392.3,2677.8,396.4,2678.1,398.5,2680.8z"/>
			<path class="st10" d="M399.4,2714.5c1-3.3,4.8-5.1,8.4-4c3.7,1.1,17.4,8,16.3,11.3c-1,3.3-16.2,1.7-19.9,0.6
				C400.7,2721.4,398.5,2717.8,399.4,2714.5z"/>
		</g>
		<g id="drops_4_">
		</g>
	</g>
	<g>
	</g>
	<g>
	</g>
	<g>
	</g>
	<g>
	</g>
	<g>
	</g>
	<g>
	</g>
	<g>
	</g>
	<g>
	</g>
	<g>
	</g>
	<g>
	</g>
	<g>
	</g>
</g>
</svg>
