<svg xmlns="http://www.w3.org/2000/svg" viewBox="0 0 594 3186" enable-background="new 0 0 594 3186"><style type="text/css">.st0{display:none;} .st1{display:inline;fill:none;stroke:#000000;stroke-miterlimit:10;} .st2{fill:#F5DC75;} .st3{fill:#FDC43D;} .st4{fill:#00F670;} .st5{fill:#6EBF5B;} .st6{fill:none;stroke:#FFFFFF;stroke-width:5;stroke-linecap:round;stroke-miterlimit:10;} .st7{fill:#EC2226;} .st8{fill:#EA4A24;} .st9{fill:#87662D;} .st10{fill:#FFFFFF;} .st11{fill:none;stroke:#FFFFFF;stroke-width:4;stroke-miterlimit:10;}</style><path class="st1" d="M4.9 2655h593.7v531h-593.7zm0-531h593.7v531h-593.7zm0-529.3h593.7v531h-593.7zm0-529.4h593.7v531h-593.7zm0-532.2h593.7v531h-593.7z" id="Layer_2"/><g id="Layer_1"><g id="bottom"><path class="st2" d="M161.2 435.3s2.8-4.2 14.7-6.5c56.1-10.9 149.3-33.2 269.7 8 5.8 2 16.2 19.4 14.8 22.6 0 0 7.4 53.2-71.3 60.6 0 0-62 6.8-155.1-3.1-93.1-9.8-82.1-73.5-72.8-81.6z"/><path class="st3" d="M165.1 432.9s-14.8 21.4 66.1 40.8c0 0 59.8 18.6 183.9-.9 0 0 49.6-5.4 30.5-36"/></g><g id="lettuce"><path class="st4" d="M294.6 479c1.5 5.8 7.6 9.8 13.5 9.2 5.9-.7 10.9-6.1 11.1-12.1 5.2 4.8 11.3 9.8 18.5 9.8 7.2-.1 13.9-8.6 9.8-14.4 5.7 3.8 12.1 6.6 18.7 8 5.5 1.3 11.8 1.5 16.3-1.9 4.4-3.3 5.8-9.4 5.4-14.9-.7-9.2-5.8-17.8-12.5-24.1-6.7-6.4-14.9-11-23.3-15-36.8-17.9-77.7-27.3-118.6-27.4-5.8 0-11.7.2-17.2 1.9-5.1 1.6-9.7 4.5-14.2 7.4-6.8 4.4-18.9 6.5-25.5 11.2-8.7 6.2-12.5 15.9-14.3 26.4-1.2 6.8 3.6 15.6 10.4 14.5-5.2 4.6-8.4 11.6-7.3 18.4 1.1 6.8 7.4 12.7 14.3 12.3 6.9-.4 12.5-8.4 9.7-14.7.1 2.5.1 5.1.1 7.6 5.2 3.5 11.2 5.8 17.4 6.6 3.7.5 7.6.5 10.8-1.3 3.2-1.8 5.4-5.8 4.2-9.3 2.8 9.8 16.9 14.1 24.7 7.6 5.4 7.9 19.2 7.5 24.1-.7 1.3 5.4 8 8.2 13.3 6.7 5.1-1.7 8.9-6.5 10.6-11.8z"/><path class="st5" d="M278.9 430c-1.1-5.9 2.1-11.6 5.2-16.7 1.1-1.7 2.2-3.6 3.6-5s3.1-2.5 4.8-3.4c23.4-13.3 52.7-13.9 78.3-5.8s48.2 24.1 68 42.4c6.1 5.6 12.2 11.9 14.7 19.8 1.5 5 1.5 10.2 1.3 15.4-.2 3.3-.9 7.3-4 8.7-2.2 1-4.8.1-7.2-.3-2.4-.5-5.4-.3-6.6 1.9-.5.9-.5 1.9-.9 2.9-1.1 3.7-5.6 5.5-9.4 4.7-3.8-.8-6.8-3.5-9.3-6.4-2.3 5-7.1 8.6-12.5 9.5-5.4.9-11.1-1.1-14.9-5-.7-.8-1.7-1.7-2.7-1.5-.6.1-1 .6-1.5 1-2.9 2.7-7.7 2.8-11.3.9-3.6-1.9-6-5.4-7.5-9.1-1.5 3.5-3.8 7.6-7.6 7.6-1.4 0-2.7-.6-4-1.3-8.8-5.4-11-17-12.3-27.3-22.2 2.7-45.5-6.7-59.6-24-1.9-2.9-4-5.7-4.6-9z"/><path class="st6" d="M296.9 423c15.9-.6 31.8-1.1 47.6-1.5 9.9-.2 20.1-.3 29.3 3.1 9.4 3.5 17.2 10.3 24.8 16.8 7.9 6.9 16.1 14.2 19.8 24.1m-57.3-42.6c2.5 13.5 11.9 25.4 24.2 31.3m-21.9-32.3c7.7-.4 22.2-1.5 29.9-.2 7.6 1.3 15.1 4.6 20.2 10.5m-99-9.3c2.3 4.4 4.2 7.8 7.8 11.1s8.9 5.3 13.6 3.8m74.1 13.8c11.2 1.2 22.2 4.2 32.5 8.8m-168.4-38.7c-27.9 4.4-48.9 11.8-73.2 26.3-5.5 3.3-11.4 7.4-12.4 13.8m40.7-28.1c-12.9-2.5-22.8-2.5-35.8-1.1m35.8 1.1c6.4 9.2 13.2 22.5 12.7 33.8m24.6-44.7c.7 5 4.8 8.8 7 13.4 4 8.2 1.3 18.1-2.5 26.3m-5.4-39.3c.2-3.9-4.2-5.2-7.6-7.1-3.3-2-7.4-2.7-11.3-3.1-8.2-.9-16.6-1.1-24.9-.5"/></g><g id="tomato"><ellipse transform="matrix(-.17 -.985 .985 -.17 -130.514 724.039)" class="st7" cx="239.5" cy="417" rx="31.5" ry="81.5"/><ellipse transform="matrix(-.17 -.985 .985 -.17 -123.457 715.644)" class="st8" cx="239.5" cy="409.8" rx="31.5" ry="81.5"/><path class="st7" d="M201.9 414.7s-22.3-8.2 4.5-18.6c0 0 11.7-6.9 23.7 5.8 0 0 8.2-18.2 26.8-12.4 0 0 26.8.3 28.2 8.2 0 0 2.1 9.6-9.6 12.1 0 0 14.8 14.8-10.3 18.2 0 0-24.4 6.5-30.5-8.6 0 0-.3 17.2-30.2 13.4-.2.1-35.6-6.4-2.6-18.1z"/><ellipse transform="matrix(.082 -.997 .997 .082 -106.829 743.942)" class="st7" cx="350.3" cy="430" rx="33" ry="81.5"/><ellipse transform="matrix(.082 -.997 .997 .082 -100.862 733.134)" class="st8" cx="347.5" cy="421.3" rx="33" ry="81.5"/><path class="st7" d="M384.9 433.3s23.6-2.9-.1-19.1c0 0-9.8-9.4-24.4.2 0 0-3.8-19.6-23.2-18.2 0 0-26.2-5.8-29.3 1.5 0 0-4.2 8.9 6.6 13.9 0 0-17.8 11 5.8 20.1 0 0 22.2 12 31.8-1.3 0 0-3.6 16.8 26.3 20 0 .1 35.9 1.9 6.5-17.1z"/></g><g id="burger"><path class="st9" d="M168.9 355s-.9.5-2.1 1.3c-3.7 2.6-9.6 8.4.7 13.1 0 0-24.7 6.1-11.7 18.4 0 0-13.6 22.2 4.7 22.2 0 0-3.7 20.6 16.8 14.5 0 0 6.2 11.6 16.7 7.6 0 0-7.6 12.3 88.6 5.4 0 0 80.3 8.4 138.3-3.1 0 0 9.9 11.5 21.4-2.3 0 0 21.4 3.1 22.9-9.2 0 0 17.6-6.9 7.6-22.2 0 0 11.5-6.1-1.5-13.7 0 0 .7-22.2-18.4-21.4 0 0-174.4-27.3-285.1-10.2"/><path class="st3" d="M210 465.1s-9.2-68-14.5-78.7c0 0-35.6-22.9-26.6-31.4 0 0 70.1-58.1 240.6-17.6 0 0 41.3 6.1 48.5 30.5 0 0-97.4 26.9-136.4 26.1 0 0-25.2 7.6-30.5 14.4-.1.1-33.7 44.4-81.1 56.7z"/><ellipse class="st10" cx="211.8" cy="401" rx="7.8" ry="8.9"/><ellipse class="st11" cx="299.3" cy="420.3" rx="7.8" ry="7.5"/><ellipse class="st11" cx="332.5" cy="425.7" rx="7.8" ry="5.6"/><path class="st11" d="M362.9 420.1s11 9.7 19.4-2.3c0 0 34.1 7.8 27.8-12.6"/><path class="st10" d="M211.8 378.4s-12.1-8.2-11.5-19.1c0 0 4.5-13.1-6.4-10.7 0 0-13.3 5.7-2.7 19 .2.1 6.7 9.6 20.6 10.8zm131.5-46.3s46.6-2.3 84.6 19.6c0 0-.2 5.1-5.3 4.7 0 0-28.4-19-79.3-17.6 0 .1-9.6-3.4 0-6.7z"/></g><g id="top"><path class="st2" d="M424.9 284.7c5.5 5 15.8 15.2 19.7 21.5 11.8 19.2 17.3 33.5 13.1 55.6-3 16.1-41.6 18-45.3 18.2-61.2 1.5-81.5 4.3-146.3 3.5-16.4-.2-76.8-3.4-85.1-8.4-8.3-5.1-21.8-9.1-24.5-18.5-5-17.3 5.3-35.4 17.5-48.6 37-39.9 89-53.2 143.4-55.7 11.5-.5 26.7.1 38.1 1.9 18 2.8 34.4 9.6 50.6 18.1 6.8 3.4 13.1 7.3 18.8 12.4z"/><path class="st10" d="M214.4 308.1c0 3.4-3.1 6.2-7 6.2-3.8 0-18.9-2.8-18.9-6.2 0-3.4 15.1-6.2 18.9-6.2s7 2.7 7 6.2zm40.5-4.2c-.9-3.3 1.5-6.8 5.2-7.7 3.8-.9 19-1.9 19.8 1.4.9 3.3-13.1 9.7-16.8 10.7-3.6.8-7.4-1.1-8.2-4.4zm-12.7-26.9c-.8-3.3 1.5-6.8 5.2-7.7 3.8-.9 19-1.9 19.8 1.4.8 3.3-13.1 9.7-16.8 10.7-3.7.9-7.4-1.1-8.2-4.4zm71.6 16.7c-2.2 2.6-6.4 2.8-9.3.3-2.9-2.5-12.8-14.2-10.6-16.9 2.2-2.6 15.5 4.8 18.5 7.3 3 2.6 3.6 6.7 1.4 9.3zm34.7-15.7c-2.7 2.1-6.8 1.3-9.2-1.7-2.3-3-9.4-16.6-6.8-18.7 2.7-2.1 14.1 8 16.5 11.1 2.5 3 2.2 7.3-.5 9.3zm10.7 33.1c-1.3 3.2-5.2 4.6-8.8 3.2s-16.5-9.6-15.3-12.8c1.3-3.2 16.3-.2 19.8 1.3 3.6 1.5 5.6 5.1 4.3 8.3zm37.3-38.8c2.1 2.7 1.2 6.8-1.9 9.2-3.1 2.3-16.8 9-18.9 6.3-2.1-2.7 8.4-14 11.5-16.3s7.2-2 9.3.8zm.9 33.6c1-3.3 4.8-5.1 8.4-4 3.7 1.1 17.4 8 16.3 11.3-1 3.3-16.2 1.7-19.9.6-3.5-1.1-5.7-4.6-4.8-7.9z"/><g id="drops"><path class="st7" d="M506.7 440.4s19.6-38.4 52.4-26.3c0 0 23.6 8.2 15.1 28.9 0 0-5.4 14-24.4 3.6 0 0-11.1-16.3-32.2-10.9 0 0-10.1 2.1-10.9 4.7zm-10.6 23.7s54.5-.1 58.4 42.9c0 0-1 20.6-24.2 15.9 0 0-18.3-3.5-11.9-25 .1 0 8-23.9-22.3-33.8z"/><path class="st10" d="M534.6 485.1s26.1 18.1 6 31.4c-.9.5-1.8.9-2.8.9-2.5.1-7.6-.3-10.3-3.3.1-.1 28.8.7 7.1-29z"/><path class="st3" d="M128.9 464.6s-53.9-7.8-63.9 34.2c0 0-1.9 20.6 21.7 19.2 0 0 18.6-.8 15.3-23 0-.2-4.5-24.9 26.9-30.4z"/><path class="st10" d="M87.9 479.8s-28.3 14.2-10.5 30.3c.7.7 1.7 1.1 2.7 1.3 2.5.4 7.6.8 10.6-1.9.1 0-28.6-3.3-2.8-29.7zm460.1-60.7s19.2-3.4 23 14.3c0 0 1.9 2.8-5.4 11.2 0-.1 4.8-16.9-17.6-25.5z"/></g></g><g id="bottom_1_"><path class="st2" d="M163 974.5s2.8-4.2 14.7-6.5c56.1-10.9 149.3-33.2 269.7 8 5.8 2 16.2 19.4 14.8 22.6 0 0 7.4 53.2-71.3 60.6 0 0-62 6.8-155.1-3.1s-82.1-73.5-72.8-81.6z"/><path class="st3" d="M166.9 972.1s-14.8 21.4 66.1 40.8c0 0 59.8 18.6 183.9-.9 0 0 49.6-5.4 30.5-36"/></g><g id="lettuce_1_"><path class="st4" d="M296.4 1011.5c1.5 5.8 7.6 9.8 13.5 9.2 5.9-.7 10.9-6.1 11.1-12.1 5.2 4.8 11.3 9.8 18.5 9.8 7.2-.1 13.9-8.6 9.8-14.4 5.7 3.8 12.1 6.6 18.7 8 5.5 1.3 11.8 1.5 16.3-1.9 4.4-3.3 5.8-9.4 5.4-14.9-.7-9.2-5.8-17.8-12.5-24.1-6.7-6.4-14.9-11-23.3-15-36.8-17.9-77.7-27.3-118.6-27.4-5.8 0-11.7.2-17.2 1.9-5.1 1.6-9.7 4.5-14.2 7.4-6.8 4.4-18.9 6.5-25.5 11.2-8.7 6.2-12.5 15.9-14.3 26.4-1.2 6.8 3.6 15.6 10.4 14.5-5.2 4.6-8.4 11.6-7.3 18.4 1.1 6.8 7.4 12.7 14.3 12.3s12.5-8.4 9.7-14.7c.1 2.5.1 5.1.1 7.6 5.2 3.5 11.2 5.8 17.4 6.6 3.7.5 7.6.5 10.8-1.3 3.2-1.8 5.4-5.8 4.2-9.3 2.8 9.8 16.9 14.1 24.7 7.6 5.4 7.9 19.2 7.5 24.1-.7 1.3 5.4 8 8.2 13.3 6.7 5.1-1.6 8.9-6.6 10.6-11.8z"/><path class="st5" d="M280.8 962.5c-1.1-5.9 2.1-11.6 5.2-16.7 1.1-1.7 2.2-3.6 3.6-5s3.1-2.5 4.8-3.4c23.4-13.3 52.7-13.9 78.3-5.8 25.7 8.1 48.2 24.1 68 42.4 6.1 5.6 12.2 11.9 14.7 19.8 1.5 5 1.5 10.2 1.3 15.4-.2 3.3-.9 7.3-4 8.7-2.2 1-4.8.1-7.2-.3-2.4-.5-5.4-.3-6.6 1.9-.5.9-.5 1.9-.9 2.9-1.1 3.7-5.6 5.5-9.4 4.7-3.8-.8-6.8-3.5-9.3-6.4-2.3 5-7.1 8.6-12.5 9.5-5.4.9-11.1-1.1-14.9-5-.7-.8-1.7-1.7-2.7-1.5-.6.1-1 .6-1.5 1-2.9 2.7-7.7 2.8-11.3.9-3.6-1.9-6-5.4-7.5-9.1-1.5 3.5-3.8 7.6-7.6 7.6-1.4 0-2.7-.6-4-1.3-8.8-5.4-11-17-12.3-27.3-22.2 2.7-45.5-6.7-59.6-24-2-2.9-4-5.7-4.6-9z"/><path class="st6" d="M298.7 955.5c15.9-.6 31.8-1.1 47.6-1.5 9.9-.2 20.1-.3 29.3 3.1 9.4 3.5 17.2 10.3 24.8 16.8 7.9 6.9 16.1 14.2 19.8 24.1m-57.2-42.6c2.5 13.5 11.9 25.4 24.2 31.3m-22-32.3c7.7-.4 22.2-1.5 29.9-.2 7.6 1.3 15.1 4.6 20.2 10.5m-99-9.3c2.3 4.4 4.2 7.8 7.8 11.1s8.9 5.3 13.6 3.8m74.1 13.8c11.2 1.2 22.2 4.2 32.5 8.8m-168.4-38.7c-27.9 4.4-48.9 11.8-73.2 26.3-5.5 3.3-11.4 7.4-12.4 13.8m40.7-28.1c-12.9-2.5-22.8-2.5-35.8-1.1m35.8 1.1c6.4 9.2 13.2 22.5 12.7 33.8m24.6-44.7c.7 5 4.8 8.8 7 13.4 4 8.2 1.3 18.1-2.5 26.3m-5.4-39.3c.2-3.9-4.2-5.2-7.6-7.1-3.4-1.9-7.4-2.7-11.3-3.1-8.2-.9-16.6-1.1-24.9-.5"/></g><g id="tomato_1_"><ellipse transform="matrix(-.17 -.985 .985 -.17 -645.129 1339.555)" class="st7" cx="241.3" cy="941.3" rx="31.5" ry="81.5"/><ellipse transform="matrix(-.17 -.985 .985 -.17 -638.123 1331.248)" class="st8" cx="241.3" cy="934.2" rx="31.5" ry="81.5"/><path class="st7" d="M203.7 939.1s-22.3-8.2 4.5-18.6c0 0 11.7-6.9 23.7 5.8 0 0 8.2-18.2 26.8-12.4 0 0 26.8.3 28.2 8.2 0 0 2.1 9.6-9.6 12.1 0 0 14.8 14.8-10.3 18.2 0 0-24.4 6.5-30.5-8.6 0 0-.3 17.2-30.2 13.4-.2.1-35.6-6.4-2.6-18.1z"/><ellipse transform="matrix(.082 -.997 .997 .082 -627.868 1227.285)" class="st7" cx="352.2" cy="954.4" rx="33" ry="81.5"/><ellipse transform="matrix(.082 -.997 .997 .082 -621.901 1216.476)" class="st8" cx="349.3" cy="945.8" rx="33" ry="81.5"/><path class="st7" d="M386.7 957.8s23.6-2.9-.1-19.1c0 0-9.8-9.4-24.4.2 0 0-3.8-19.6-23.2-18.2 0 0-26.2-5.8-29.3 1.5 0 0-4.2 8.9 6.6 13.9 0 0-17.8 11 5.8 20.1 0 0 22.2 12 31.8-1.3 0 0-3.6 16.8 26.3 20 0 0 36 1.9 6.5-17.1z"/></g><g id="burger_1_"><path class="st9" d="M170.7 872.8s-.9.5-2.1 1.3c-3.7 2.6-9.6 8.4.7 13.1 0 0-24.7 6.1-11.7 18.4 0 0-13.6 22.2 4.7 22.2 0 0-3.7 20.6 16.8 14.5 0 0 6.2 11.6 16.7 7.6 0 0-7.6 12.3 88.6 5.4 0 0 80.3 8.4 138.3-3.1 0 0 9.9 11.5 21.4-2.3 0 0 21.4 3.1 22.9-9.2 0 0 17.6-6.9 7.6-22.2 0 0 11.5-6.1-1.5-13.7 0 0 .7-22.2-18.4-21.4 0 0-174.4-27.3-285.1-10.2"/><path class="st3" d="M211.8 982.8s-9.2-68-14.5-78.7c0 0-35.6-22.9-26.6-31.4 0 0 70.1-58.1 240.6-17.6 0 0 41.3 6.1 48.5 30.5 0 0-97.4 26.9-136.4 26.1 0 0-25.2 7.6-30.5 14.4-.1.1-33.7 44.5-81.1 56.7z"/><ellipse class="st10" cx="213.6" cy="918.7" rx="7.8" ry="8.9"/><ellipse class="st11" cx="301.1" cy="938.1" rx="7.8" ry="7.5"/><ellipse class="st11" cx="334.3" cy="943.5" rx="7.8" ry="5.6"/><path class="st11" d="M364.7 937.8s11 9.7 19.4-2.3c0 0 34.1 7.8 27.8-12.6"/><path class="st10" d="M213.6 896.2s-12.1-8.2-11.5-19.1c0 0 4.5-13.1-6.4-10.7 0 0-13.3 5.7-2.7 19 .2 0 6.7 9.5 20.6 10.8zm131.5-46.3s46.6-2.3 84.6 19.6c0 0-.2 5.1-5.3 4.7 0 0-28.4-19-79.3-17.6 0 0-9.6-3.5 0-6.7z"/></g><g id="top_1_"><path class="st2" d="M426.7 797.7c5.5 5 15.8 15.2 19.7 21.5 11.8 19.2 17.3 33.5 13.1 55.6-3 16.1-41.6 18-45.3 18.2-61.2 1.5-81.5 4.3-146.3 3.5-16.4-.2-76.8-3.4-85.1-8.4-8.3-5.1-21.8-9.1-24.5-18.5-5-17.3 5.3-35.4 17.5-48.6 37-39.9 89-53.2 143.4-55.7 11.5-.5 26.7.1 38.1 1.9 18 2.8 34.4 9.6 50.6 18.1 6.8 3.5 13.1 7.3 18.8 12.4z"/><path class="st10" d="M216.2 821.1c0 3.4-3.1 6.2-7 6.2s-18.9-2.8-18.9-6.2 15.1-6.2 18.9-6.2c3.9 0 7 2.7 7 6.2zm40.5-4.2c-.9-3.3 1.5-6.8 5.2-7.7 3.8-.9 19-1.9 19.8 1.4.8 3.3-13.1 9.7-16.8 10.7-3.6.9-7.4-1-8.2-4.4zm-12.7-26.9c-.8-3.3 1.5-6.8 5.2-7.7s19-1.9 19.8 1.4c.8 3.3-13.1 9.7-16.8 10.7s-7.4-1.1-8.2-4.4zm71.6 16.8c-2.2 2.6-6.4 2.8-9.3.3s-12.8-14.2-10.6-16.9c2.2-2.6 15.5 4.8 18.5 7.3s3.6 6.6 1.4 9.3zm34.7-15.7c-2.7 2.1-6.8 1.3-9.2-1.7-2.3-3-9.4-16.6-6.8-18.7 2.7-2.1 14.1 8 16.5 11.1 2.5 3 2.2 7.2-.5 9.3zm10.7 33c-1.3 3.2-5.2 4.6-8.8 3.2-3.6-1.4-16.5-9.6-15.3-12.8 1.3-3.2 16.3-.2 19.8 1.3 3.7 1.4 5.6 5.2 4.3 8.3zm37.3-38.8c2.1 2.7 1.2 6.8-1.9 9.2-3.1 2.3-16.8 9-18.9 6.3-2.1-2.7 8.4-14 11.5-16.3 3-2.3 7.2-1.9 9.3.8zm.9 33.7c1-3.3 4.8-5.1 8.4-4 3.7 1.1 17.4 8 16.3 11.3-1 3.3-16.2 1.7-19.9.6-3.5-1.1-5.7-4.6-4.8-7.9z"/><g id="drops_1_"><path class="st7" d="M479.7 936.5s19.6-38.4 52.4-26.3c0 0 23.6 8.2 15.1 28.9 0 0-5.4 14-24.4 3.6 0 0-11.1-16.3-32.2-10.9 0 0-10.2 2.1-10.9 4.7zm-10.6 23.6s54.5-.1 58.4 42.9c0 0-1 20.6-24.2 15.9 0 0-18.3-3.5-11.9-25 .1.1 8-23.8-22.3-33.8z"/><path class="st10" d="M507.5 981.2s26.1 18.1 6 31.4c-.9.5-1.8.9-2.8.9-2.5.1-7.6-.3-10.3-3.3.1-.1 28.9.7 7.1-29z"/><path class="st3" d="M167.6 945.6s-53.9-7.8-63.9 34.2c0 0-1.9 20.6 21.7 19.2 0 0 18.6-.8 15.3-23-.1-.1-4.5-24.8 26.9-30.4z"/><path class="st10" d="M126.5 960.9s-28.3 14.2-10.5 30.3c.7.7 1.7 1.1 2.7 1.3 2.5.4 7.6.8 10.6-1.9 0 0-28.6-3.3-2.8-29.7zm394.4-45.7s19.2-3.4 23 14.3c0 0 1.9 2.8-5.4 11.2 0-.1 4.9-16.9-17.6-25.5z"/></g></g><g id="bottom_2_"><path class="st2" d="M163.2 1503.6s2.8-4.2 14.7-6.5c56.1-10.9 149.3-33.2 269.7 8 5.8 2 16.2 19.4 14.8 22.6 0 0 7.4 53.2-71.3 60.6 0 0-62 6.8-155.1-3.1s-82.1-73.5-72.8-81.6z"/><path class="st3" d="M167.2 1501.2s-14.8 21.4 66.1 40.8c0 0 59.8 18.6 183.9-.9 0 0 49.6-5.4 30.5-36"/></g><g id="lettuce_2_"><path class="st4" d="M296.7 1527.9c1.5 5.8 7.6 9.8 13.5 9.2 5.9-.7 10.9-6.1 11.1-12.1 5.2 4.8 11.3 9.8 18.5 9.8 7.2-.1 13.9-8.6 9.8-14.4 5.7 3.8 12.1 6.6 18.7 8 5.5 1.3 11.8 1.5 16.3-1.9 4.4-3.3 5.8-9.4 5.4-14.9-.7-9.2-5.8-17.8-12.5-24.1-6.7-6.4-14.9-11-23.3-15-36.8-17.9-77.7-27.3-118.6-27.4-5.8 0-11.7.2-17.2 1.9-5.1 1.6-9.7 4.5-14.2 7.4-6.8 4.4-18.9 6.5-25.5 11.2-8.7 6.2-12.5 15.9-14.3 26.4-1.2 6.8 3.6 15.6 10.4 14.5-5.2 4.6-8.4 11.6-7.3 18.4 1.1 6.8 7.4 12.7 14.3 12.3 6.9-.4 12.5-8.4 9.7-14.7.1 2.5.1 5.1.1 7.6 5.2 3.5 11.2 5.8 17.4 6.6 3.7.5 7.6.5 10.8-1.3 3.2-1.8 5.4-5.8 4.2-9.3 2.8 9.8 16.9 14.1 24.7 7.6 5.4 7.9 19.2 7.5 24.1-.7 1.3 5.4 8 8.2 13.3 6.7 5-1.6 8.8-6.5 10.6-11.8z"/><path class="st5" d="M281 1478.9c-1.1-5.9 2.1-11.6 5.2-16.7 1.1-1.7 2.2-3.6 3.6-5s3.1-2.5 4.8-3.4c23.4-13.3 52.7-13.9 78.3-5.8 25.7 8.1 48.2 24.1 68 42.4 6.1 5.6 12.2 11.9 14.7 19.8 1.5 5 1.6 10.2 1.3 15.4-.2 3.3-.9 7.3-4 8.7-2.2 1-4.8.1-7.2-.3-2.4-.5-5.4-.3-6.6 1.9-.5.9-.5 1.9-.9 2.9-1.1 3.7-5.6 5.5-9.4 4.7-3.8-.8-6.8-3.5-9.3-6.4-2.3 5-7.1 8.6-12.5 9.5-5.4.9-11.1-1.1-14.9-5-.7-.8-1.7-1.7-2.7-1.5-.6.1-1 .6-1.5 1-2.9 2.7-7.7 2.8-11.3.9-3.6-1.9-6-5.4-7.5-9.1-1.5 3.5-3.8 7.6-7.6 7.6-1.4 0-2.7-.6-4-1.3-8.8-5.4-11-17-12.3-27.3-22.2 2.7-45.5-6.7-59.6-24-2-2.8-4-5.7-4.6-9z"/><path class="st6" d="M299 1472c15.9-.6 31.8-1.1 47.6-1.5 9.9-.2 20.1-.3 29.3 3.1 9.4 3.5 17.2 10.3 24.8 16.8 7.9 6.9 16.1 14.2 19.8 24.1m-57.3-42.7c2.5 13.5 11.9 25.4 24.2 31.3m-22-32.3c7.7-.4 22.2-1.5 29.9-.2 7.6 1.3 15.1 4.6 20.2 10.5m-98.9-9.3c2.3 4.4 4.2 7.8 7.8 11.1 3.6 3.3 8.9 5.3 13.6 3.8m74 13.9c11.2 1.2 22.2 4.2 32.5 8.8m-168.4-38.7c-27.9 4.4-48.9 11.8-73.2 26.3-5.5 3.3-11.4 7.4-12.4 13.8m40.7-28.1c-12.9-2.5-22.8-2.5-35.8-1.1m35.8 1.1c6.4 9.2 13.2 22.5 12.7 33.8m24.6-44.7c.7 5 4.8 8.8 7 13.4 4 8.2 1.3 18.1-2.5 26.3m-5.3-39.3c.2-3.9-4.2-5.2-7.6-7.1-3.4-1.9-7.4-2.7-11.3-3.1-8.2-.9-16.6-1.1-24.9-.5"/></g><g id="tomato_2_"><ellipse transform="matrix(-.17 -.985 .985 -.17 -1148.441 1937.964)" class="st7" cx="241.6" cy="1452.4" rx="31.5" ry="81.5"/><ellipse transform="matrix(-.17 -.985 .985 -.17 -1141.435 1929.658)" class="st8" cx="241.6" cy="1445.3" rx="31.5" ry="81.5"/><path class="st7" d="M204 1450.2s-22.3-8.2 4.5-18.6c0 0 11.7-6.9 23.7 5.8 0 0 8.2-18.2 26.8-12.4 0 0 26.8.3 28.2 8.2 0 0 2.1 9.6-9.6 12.1 0 0 14.8 14.8-10.3 18.2 0 0-24.4 6.5-30.5-8.6 0 0-.3 17.2-30.2 13.4-.2.1-35.6-6.5-2.6-18.1z"/><ellipse transform="matrix(.082 -.997 .997 .082 -1137.009 1696.789)" class="st7" cx="352.4" cy="1465.5" rx="33" ry="81.5"/><ellipse transform="matrix(.082 -.997 .997 .082 -1130.971 1685.924)" class="st8" cx="349.5" cy="1456.8" rx="33" ry="81.5"/><path class="st7" d="M387 1468.9s23.6-2.9-.1-19.1c0 0-9.8-9.4-24.4.2 0 0-3.8-19.6-23.2-18.2 0 0-26.2-5.8-29.3 1.5 0 0-4.2 8.9 6.6 13.9 0 0-17.8 11 5.8 20.1 0 0 22.2 12 31.8-1.3 0 0-3.6 16.8 26.3 20-.1 0 35.9 1.8 6.5-17.1z"/></g><g id="burger_2_"><path class="st9" d="M170.9 1374.5s-.9.5-2.1 1.3c-3.7 2.6-9.6 8.4.7 13.1 0 0-24.7 6.1-11.7 18.4 0 0-13.6 22.2 4.7 22.2 0 0-3.7 20.6 16.8 14.5 0 0 6.2 11.6 16.7 7.6 0 0-7.6 12.3 88.6 5.4 0 0 80.3 8.4 138.3-3.1 0 0 9.9 11.5 21.4-2.3 0 0 21.4 3.1 22.9-9.2 0 0 17.6-6.9 7.6-22.2 0 0 11.5-6.1-1.5-13.7 0 0 .7-22.2-18.4-21.4 0 0-174.4-27.3-285.1-10.2"/><path class="st3" d="M212.1 1484.5s-9.2-68-14.5-78.7c0 0-35.6-22.9-26.6-31.4 0 0 70.1-58.1 240.6-17.6 0 0 41.3 6.1 48.5 30.5 0 0-97.4 26.9-136.4 26.1 0 0-25.2 7.6-30.5 14.4-.1.1-33.8 44.5-81.1 56.7z"/><ellipse class="st10" cx="213.9" cy="1420.4" rx="7.8" ry="8.9"/><ellipse class="st11" cx="301.4" cy="1439.8" rx="7.8" ry="7.5"/><ellipse class="st11" cx="334.5" cy="1445.1" rx="7.8" ry="5.6"/><path class="st11" d="M364.9 1439.5s11 9.7 19.4-2.3c0 0 34.1 7.8 27.8-12.6"/><path class="st10" d="M213.9 1397.8s-12.1-8.2-11.5-19.1c0 0 4.5-13.1-6.4-10.7 0 0-13.3 5.7-2.7 19 .1.1 6.6 9.6 20.6 10.8zm131.4-46.2s46.6-2.3 84.6 19.6c0 0-.2 5.1-5.3 4.7 0 0-28.4-19-79.3-17.6 0 0-9.6-3.5 0-6.7z"/></g><g id="top_2_"><path class="st2" d="M426.9 1292.7c5.5 5 15.8 15.2 19.7 21.5 11.8 19.2 17.3 33.5 13.1 55.6-3 16.1-41.6 18-45.3 18.2-61.2 1.5-81.5 4.3-146.3 3.5-16.4-.2-76.8-3.4-85.1-8.4-8.3-5.1-21.8-9.1-24.5-18.5-5-17.3 5.3-35.4 17.5-48.6 37-39.9 89-53.2 143.4-55.7 11.5-.5 26.7.1 38.1 1.9 18 2.8 34.4 9.6 50.6 18.1 6.8 3.4 13.2 7.3 18.8 12.4z"/><path class="st10" d="M216.5 1316.1c0 3.4-3.1 6.2-7 6.2-3.8 0-18.9-2.8-18.9-6.2s15.1-6.2 18.9-6.2 7 2.7 7 6.2zm40.4-4.2c-.9-3.3 1.5-6.8 5.2-7.7 3.8-.9 19-1.9 19.8 1.4.9 3.3-13.1 9.7-16.8 10.7-3.6.8-7.3-1-8.2-4.4zm-12.6-26.9c-.8-3.3 1.5-6.8 5.2-7.7 3.8-.9 19-1.9 19.8 1.4.8 3.3-13.1 9.7-16.8 10.7-3.7.9-7.4-1.1-8.2-4.4zm71.5 16.7c-2.2 2.6-6.4 2.8-9.3.3-2.9-2.5-12.8-14.2-10.6-16.9 2.2-2.6 15.5 4.8 18.5 7.3 3 2.6 3.6 6.7 1.4 9.3zm34.7-15.6c-2.7 2.1-6.8 1.3-9.2-1.7-2.3-3-9.4-16.6-6.8-18.7 2.7-2.1 14.1 8 16.5 11.1s2.3 7.2-.5 9.3zm10.8 33c-1.3 3.2-5.2 4.6-8.8 3.2-3.6-1.4-16.5-9.6-15.3-12.8 1.3-3.2 16.3-.2 19.8 1.3 3.7 1.4 5.5 5.1 4.3 8.3zm37.2-38.8c2.1 2.7 1.2 6.8-1.9 9.2-3.1 2.3-16.8 9-18.9 6.3-2.1-2.7 8.4-14 11.5-16.3 3.1-2.3 7.2-2 9.3.8zm.9 33.7c1-3.3 4.8-5.1 8.4-4 3.7 1.1 17.4 8 16.3 11.3-1 3.3-16.2 1.7-19.9.6-3.5-1-5.7-4.6-4.8-7.9z"/></g><g id="bottom_3_"><path class="st2" d="M160.5 2028.7s2.8-4.2 14.7-6.5c56.1-10.9 149.3-33.2 269.7 8 5.8 2 16.2 19.4 14.8 22.6 0 0 7.4 53.2-71.3 60.6 0 0-62 6.8-155.1-3.1s-82.1-73.5-72.8-81.6z"/><path class="st3" d="M164.5 2026.3s-14.8 21.4 66.1 40.8c0 0 59.8 18.6 183.9-.9 0 0 49.6-5.4 30.5-36"/></g><g id="lettuce_3_"><path class="st4" d="M294 2036.2c1.5 5.8 7.6 9.8 13.5 9.2 5.9-.7 10.9-6.1 11.1-12.1 5.2 4.8 11.3 9.8 18.5 9.8 7.2-.1 13.9-8.6 9.8-14.4 5.7 3.8 12.1 6.6 18.7 8 5.5 1.3 11.8 1.5 16.3-1.9 4.4-3.3 5.8-9.4 5.4-14.9-.7-9.2-5.8-17.8-12.5-24.1-6.7-6.4-14.9-11-23.3-15-36.8-17.9-77.7-27.3-118.6-27.4-5.8 0-11.7.2-17.2 1.9-5.1 1.6-9.7 4.5-14.2 7.4-6.8 4.4-18.9 6.5-25.5 11.2-8.7 6.2-12.5 15.9-14.3 26.4-1.2 6.8 3.6 15.6 10.4 14.5-5.2 4.6-8.4 11.6-7.3 18.4 1.1 6.8 7.4 12.7 14.3 12.3 6.9-.4 12.5-8.4 9.7-14.7.1 2.5.1 5.1.1 7.6 5.2 3.5 11.2 5.8 17.4 6.6 3.7.5 7.6.5 10.8-1.3s5.4-5.8 4.2-9.3c2.8 9.8 16.9 14.1 24.7 7.6 5.4 7.9 19.2 7.5 24.1-.7 1.3 5.4 8 8.2 13.3 6.7 5-1.6 8.9-6.5 10.6-11.8z"/><path class="st5" d="M278.3 1987.2c-1.1-5.9 2.1-11.6 5.2-16.7 1.1-1.7 2.2-3.6 3.6-5s3.1-2.5 4.8-3.4c23.4-13.3 52.7-13.9 78.3-5.8 25.7 8.1 48.2 24.1 68 42.4 6.1 5.6 12.2 11.9 14.7 19.8 1.5 5 1.6 10.2 1.3 15.4-.2 3.3-.9 7.3-4 8.7-2.2 1-4.8.1-7.2-.3-2.4-.5-5.4-.3-6.6 1.9-.5.9-.5 1.9-.9 2.9-1.1 3.7-5.6 5.5-9.4 4.7s-6.8-3.5-9.3-6.4c-2.3 5-7.1 8.6-12.5 9.5-5.4.9-11.1-1.1-14.9-5-.7-.8-1.7-1.7-2.7-1.5-.6.1-1 .6-1.5 1-2.9 2.7-7.7 2.8-11.3.9-3.6-1.9-6-5.4-7.5-9.1-1.5 3.5-3.8 7.6-7.6 7.6-1.4 0-2.7-.6-4-1.3-8.8-5.4-11-17-12.3-27.3-22.2 2.7-45.5-6.7-59.6-24-2-2.8-4-5.6-4.6-9z"/><path class="st6" d="M296.3 1986.3c15.9-.6 31.8-1.1 47.6-1.5 9.9-.2 20.1-.3 29.3 3.1 9.4 3.5 17.2 10.3 24.8 16.8 7.9 6.9 16.1 14.2 19.8 24.1m-57.3-42.6c2.5 13.5 11.9 25.4 24.2 31.3m-22-32.3c7.7-.4 22.2-1.5 29.9-.2 7.6 1.3 15.1 4.6 20.2 10.5m-98.9-9.3c2.3 4.4 4.2 7.8 7.8 11.1 3.6 3.3 8.9 5.3 13.6 3.8m74.1 13.8c11.2 1.2 22.2 4.2 32.5 8.8m-168.5-38.6c-27.9 4.4-48.9 11.8-73.2 26.3-5.5 3.3-11.4 7.4-12.4 13.8m40.7-28.1c-12.9-2.5-22.8-2.5-35.8-1.1m35.8 1.1c6.4 9.2 13.2 22.5 12.7 33.8m24.7-44.8c.7 5 4.8 8.8 7 13.4 4 8.2 1.3 18.1-2.5 26.3m-5.4-39.3c.2-3.9-4.2-5.2-7.6-7.1-3.3-2-7.4-2.7-11.3-3.1-8.2-.9-16.6-1.1-24.9-.5"/></g><g id="tomato_3_"><ellipse transform="matrix(-.17 -.985 .985 -.17 -1631.364 2505.209)" class="st7" cx="238.9" cy="1939.3" rx="31.5" ry="81.5"/><ellipse transform="matrix(-.17 -.985 .985 -.17 -1624.307 2496.814)" class="st8" cx="238.9" cy="1932.2" rx="31.5" ry="81.5"/><path class="st7" d="M201.3 1937.1s-22.3-8.2 4.5-18.6c0 0 11.7-6.9 23.7 5.8 0 0 8.2-18.2 26.8-12.4 0 0 26.8.3 28.2 8.2 0 0 2.1 9.6-9.6 12.1 0 0 14.8 14.8-10.3 18.2 0 0-24.4 6.5-30.5-8.6 0 0-.3 17.2-30.2 13.4-.2 0-35.6-6.4-2.6-18.1z"/><ellipse transform="matrix(.082 -.997 .997 .082 -1624.686 2141.13)" class="st7" cx="349.7" cy="1952.3" rx="33" ry="81.5"/><ellipse transform="matrix(.082 -.997 .997 .082 -1618.719 2130.322)" class="st8" cx="346.8" cy="1943.7" rx="33" ry="81.5"/><path class="st7" d="M384.3 1955.7s23.6-2.9-.1-19.1c0 0-9.8-9.4-24.4.2 0 0-3.8-19.6-23.2-18.2 0 0-26.2-5.8-29.3 1.5 0 0-4.2 8.9 6.6 13.9 0 0-17.8 11 5.8 20.1 0 0 22.2 12 31.8-1.3 0 0-3.6 16.8 26.3 20-.1.1 35.9 1.9 6.5-17.1z"/></g><g id="burger_3_"><path class="st9" d="M168.2 1842.6s-.9.5-2.1 1.3c-3.7 2.6-9.6 8.4.7 13.1 0 0-24.7 6.1-11.7 18.4 0 0-13.6 22.2 4.7 22.2 0 0-3.7 20.6 16.8 14.5 0 0 6.2 11.6 16.7 7.6 0 0-7.6 12.3 88.6 5.4 0 0 80.3 8.4 138.3-3.1 0 0 9.9 11.5 21.4-2.3 0 0 21.4 3.1 22.9-9.2 0 0 17.6-6.9 7.6-22.2 0 0 11.5-6.1-1.5-13.7 0 0 .7-22.2-18.4-21.4 0 0-174.4-27.3-285.1-10.2"/><path class="st3" d="M209.4 1952.6s-9.2-68-14.5-78.7c0 0-35.6-22.9-26.6-31.4 0 0 70.1-58.1 240.6-17.6 0 0 41.3 6.1 48.5 30.5 0 0-97.4 26.9-136.4 26.1 0 0-25.2 7.6-30.5 14.4-.1.1-33.8 44.5-81.1 56.7z"/><ellipse class="st10" cx="211.2" cy="1888.5" rx="7.8" ry="8.9"/><ellipse class="st11" cx="298.7" cy="1907.9" rx="7.8" ry="7.5"/><ellipse class="st11" cx="331.8" cy="1913.2" rx="7.8" ry="5.6"/><path class="st11" d="M362.3 1907.6s11 9.7 19.4-2.3c0 0 34.1 7.8 27.8-12.6"/><path class="st10" d="M211.2 1865.9s-12.1-8.2-11.5-19.1c0 0 4.5-13.1-6.4-10.7 0 0-13.3 5.7-2.7 19 .2.1 6.7 9.6 20.6 10.8zm131.4-46.2s46.6-2.3 84.6 19.6c0 0-.2 5.1-5.3 4.7 0 0-28.4-19-79.3-17.6 0 0-9.5-3.5 0-6.7z"/></g><g id="top_3_"><path class="st2" d="M424.2 1742.7c5.5 5 15.8 15.2 19.7 21.5 11.8 19.2 17.3 33.5 13.1 55.6-3 16.1-41.6 18-45.3 18.2-61.2 1.5-81.5 4.3-146.3 3.5-16.4-.2-76.8-3.4-85.1-8.4-8.3-5.1-21.8-9.1-24.5-18.5-5-17.3 5.3-35.4 17.5-48.6 37-39.9 89-53.2 143.4-55.7 11.5-.5 26.7.1 38.1 1.9 18 2.8 34.4 9.6 50.6 18.1 6.8 3.4 13.2 7.3 18.8 12.4z"/><path class="st10" d="M213.8 1766.1c0 3.4-3.1 6.2-7 6.2-3.8 0-18.9-2.8-18.9-6.2s15.1-6.2 18.9-6.2c3.9-.1 7 2.7 7 6.2zm40.5-4.2c-.9-3.3 1.5-6.8 5.2-7.7 3.8-.9 19-1.9 19.8 1.4.9 3.3-13.1 9.7-16.8 10.7-3.7.9-7.4-1-8.2-4.4zm-12.7-26.9c-.8-3.3 1.5-6.8 5.2-7.7s19-1.9 19.8 1.4c.8 3.3-13.1 9.7-16.8 10.7-3.7.9-7.4-1.1-8.2-4.4zm71.6 16.8c-2.2 2.6-6.4 2.8-9.3.3-2.9-2.5-12.8-14.2-10.6-16.9 2.2-2.6 15.5 4.8 18.5 7.3s3.6 6.6 1.4 9.3zm34.7-15.7c-2.7 2.1-6.8 1.3-9.2-1.7-2.3-3-9.4-16.6-6.8-18.7 2.7-2.1 14.1 8 16.5 11.1 2.5 3 2.2 7.2-.5 9.3zm10.7 33c-1.3 3.2-5.2 4.6-8.8 3.2-3.6-1.4-16.5-9.6-15.3-12.8 1.3-3.2 16.3-.2 19.8 1.3 3.7 1.4 5.6 5.1 4.3 8.3zm37.2-38.8c2.1 2.7 1.2 6.8-1.9 9.2-3.1 2.3-16.8 9-18.9 6.3-2.1-2.7 8.4-14 11.5-16.3 3.1-2.3 7.3-2 9.3.8zm1 33.7c1-3.3 4.8-5.1 8.4-4 3.7 1.1 17.4 8 16.3 11.3-1 3.3-16.2 1.7-19.9.6-3.6-1.1-5.8-4.6-4.8-7.9z"/></g><g id="bottom_4_"><path class="st2" d="M163.2 2566.3s2.8-4.2 14.7-6.5c56.1-10.9 149.3-33.2 269.7 8 5.8 2 16.2 19.4 14.8 22.6 0 0 7.4 53.2-71.3 60.6 0 0-62 6.8-155.1-3.1s-82.1-73.5-72.8-81.6z"/><path class="st3" d="M167.2 2563.9s-14.8 21.4 66.1 40.8c0 0 59.8 18.6 183.9-.9 0 0 49.6-5.4 30.5-36"/></g><g id="lettuce_4_"><path class="st4" d="M296.7 2570.4c1.5 5.8 7.6 9.8 13.5 9.2 5.9-.7 10.9-6.1 11.1-12.1 5.2 4.8 11.3 9.8 18.5 9.8 7.2-.1 13.9-8.6 9.8-14.4 5.7 3.8 12.1 6.6 18.7 8 5.5 1.3 11.8 1.5 16.3-1.9 4.4-3.3 5.8-9.4 5.4-14.9-.7-9.2-5.8-17.8-12.5-24.1-6.7-6.4-14.9-11-23.3-15-36.8-17.9-77.7-27.3-118.6-27.4-5.8 0-11.7.2-17.2 1.9-5.1 1.6-9.7 4.5-14.2 7.4-6.8 4.4-18.9 6.5-25.5 11.2-8.7 6.2-12.5 15.9-14.3 26.4-1.2 6.8 3.6 15.6 10.4 14.5-5.2 4.6-8.4 11.6-7.3 18.4 1.1 6.8 7.4 12.7 14.3 12.3 6.9-.4 12.5-8.4 9.7-14.7.1 2.5.1 5.1.1 7.6 5.2 3.5 11.2 5.8 17.4 6.6 3.7.5 7.6.5 10.8-1.3 3.2-1.8 5.4-5.8 4.2-9.3 2.8 9.8 16.9 14.1 24.7 7.6 5.4 7.9 19.2 7.5 24.1-.7 1.3 5.4 8 8.2 13.3 6.7 5-1.6 8.8-6.6 10.6-11.8z"/><path class="st5" d="M281 2521.4c-1.1-5.9 2.1-11.6 5.2-16.7 1.1-1.7 2.2-3.6 3.6-5s3.1-2.5 4.8-3.4c23.4-13.3 52.7-13.9 78.3-5.8 25.7 8.1 48.2 24.1 68 42.4 6.1 5.6 12.2 11.9 14.7 19.8 1.5 5 1.5 10.2 1.3 15.4-.2 3.3-.9 7.3-4 8.7-2.2 1-4.8.1-7.2-.3s-5.4-.3-6.6 1.9c-.5.9-.5 1.9-.9 2.9-1.1 3.7-5.6 5.5-9.4 4.7-3.8-.8-6.8-3.5-9.3-6.4-2.3 5-7.1 8.6-12.5 9.5-5.4.9-11.1-1.1-14.9-5-.7-.8-1.7-1.7-2.7-1.5-.6.1-1 .6-1.5 1-2.9 2.7-7.7 2.8-11.3.9-3.6-1.9-6-5.4-7.5-9.1-1.5 3.5-3.8 7.6-7.6 7.6-1.4 0-2.7-.6-4-1.3-8.8-5.4-11-17-12.3-27.3-22.2 2.7-45.5-6.7-59.6-24-2-2.8-4-5.7-4.6-9z"/><path class="st6" d="M299 2514.4c15.9-.6 31.8-1.1 47.6-1.5 9.9-.2 20.1-.3 29.3 3.1 9.4 3.5 17.2 10.3 24.8 16.8 7.9 6.9 16.1 14.2 19.8 24.1m-57.3-42.6c2.5 13.5 11.9 25.4 24.2 31.3m-22-32.3c7.7-.4 22.2-1.5 29.9-.2 7.6 1.3 15.1 4.6 20.2 10.5m-98.9-9.3c2.3 4.4 4.2 7.8 7.8 11.1 3.6 3.3 8.9 5.3 13.6 3.8m74 13.9c11.2 1.2 22.2 4.2 32.5 8.8m-168.4-38.7c-27.9 4.4-48.9 11.8-73.2 26.3-5.5 3.3-11.4 7.4-12.4 13.8m40.7-28.1c-12.9-2.5-22.8-2.5-35.8-1.1m35.8 1.1c6.4 9.2 13.2 22.5 12.7 33.8m24.6-44.8c.7 5 4.8 8.8 7 13.4 4 8.2 1.3 18.1-2.5 26.3m-5.3-39.2c.2-3.9-4.2-5.2-7.6-7.1-3.3-2-7.4-2.7-11.3-3.1-8.2-.9-16.6-1.1-24.9-.5"/></g><g id="tomato_4_"><ellipse transform="matrix(-.17 -.985 .985 -.17 -2141.323 3117.273)" class="st7" cx="241.6" cy="2460" rx="31.5" ry="81.5"/><ellipse transform="matrix(-.17 -.985 .985 -.17 -2127.054 3100.342)" class="st8" cx="241.6" cy="2445.6" rx="31.5" ry="81.5"/><path class="st7" d="M204 2457.8s-22.3-8.2 4.5-18.6c0 0 11.7-6.9 23.7 5.8 0 0 8.2-18.2 26.8-12.4 0 0 26.8.3 28.2 8.2 0 0 2.1 9.6-9.6 12.1 0 0 14.8 14.8-10.3 18.2 0 0-24.4 6.5-30.5-8.6 0 0-.3 17.2-30.2 13.4-.2.1-35.6-6.4-2.6-18.1z"/><ellipse transform="matrix(.082 -.997 .997 .082 -2141.249 2621.96)" class="st7" cx="352.4" cy="2473.1" rx="33" ry="81.5"/><ellipse transform="matrix(.082 -.997 .997 .082 -2135.282 2611.152)" class="st8" cx="349.5" cy="2464.5" rx="33" ry="81.5"/><path class="st7" d="M387 2476.5s23.6-2.9-.1-19.1c0 0-9.8-9.4-24.4.2 0 0-3.8-19.6-23.2-18.2 0 0-26.2-5.8-29.3 1.5 0 0-4.2 8.9 6.6 13.9 0 0-17.8 11 5.8 20.1 0 0 22.2 12 31.8-1.3 0 0-3.6 16.8 26.3 20-.1 0 35.9 1.8 6.5-17.1z"/></g><g id="burger_4_"><path class="st9" d="M170.9 2352.6s-.9.5-2.1 1.3c-3.7 2.6-9.6 8.4.7 13.1 0 0-24.7 6.1-11.7 18.4 0 0-13.6 22.2 4.7 22.2 0 0-3.7 20.6 16.8 14.5 0 0 6.2 11.6 16.7 7.6 0 0-7.6 12.3 88.6 5.4 0 0 80.3 8.4 138.3-3.1 0 0 9.9 11.5 21.4-2.3 0 0 21.4 3.1 22.9-9.2 0 0 17.6-6.9 7.6-22.2 0 0 11.5-6.1-1.5-13.7 0 0 .7-22.2-18.4-21.4 0 0-174.4-27.3-285.1-10.2"/><path class="st3" d="M212.1 2462.6s-9.2-68-14.5-78.7c0 0-35.6-22.9-26.6-31.4 0 0 70.1-58.1 240.6-17.6 0 0 41.3 6.1 48.5 30.5 0 0-97.4 26.9-136.4 26.1 0 0-25.2 7.6-30.5 14.4-.1.2-33.8 44.5-81.1 56.7z"/><ellipse class="st10" cx="213.9" cy="2398.5" rx="7.8" ry="8.9"/><ellipse class="st11" cx="301.4" cy="2417.9" rx="7.8" ry="7.5"/><ellipse class="st11" cx="334.5" cy="2423.2" rx="7.8" ry="5.6"/><path class="st11" d="M364.9 2417.7s11 9.7 19.4-2.3c0 0 34.1 7.8 27.8-12.6"/><path class="st10" d="M213.9 2375.9s-12.1-8.2-11.5-19.1c0 0 4.5-13.1-6.4-10.7 0 0-13.3 5.7-2.7 19 .1.2 6.6 9.7 20.6 10.8zm131.4-46.2s46.6-2.3 84.6 19.6c0 0-.2 5.1-5.3 4.7 0 0-28.4-19-79.3-17.6 0 0-9.6-3.5 0-6.7z"/></g><g id="top_4_"><path class="st2" d="M426.9 2228.7c5.5 5 15.8 15.2 19.7 21.5 11.8 19.2 17.3 33.5 13.1 55.6-3 16.1-41.6 18-45.3 18.2-61.2 1.5-81.5 4.3-146.3 3.5-16.4-.2-76.8-3.4-85.1-8.4-8.3-5.1-21.8-9.1-24.5-18.5-5-17.3 5.3-35.4 17.5-48.6 37-39.9 89-53.2 143.4-55.7 11.5-.5 26.7.1 38.1 1.9 18 2.8 34.4 9.6 50.6 18.1 6.8 3.5 13.2 7.3 18.8 12.4z"/><path class="st10" d="M216.5 2252.1c0 3.4-3.1 6.2-7 6.2-3.8 0-18.9-2.8-18.9-6.2s15.1-6.2 18.9-6.2 7 2.8 7 6.2zm40.4-4.2c-.9-3.3 1.5-6.8 5.2-7.7 3.8-.9 19-1.9 19.8 1.4.8 3.3-13.1 9.7-16.8 10.7-3.6.9-7.3-1-8.2-4.4zm-12.6-26.9c-.8-3.3 1.5-6.8 5.2-7.7 3.8-.9 19-1.9 19.8 1.4.8 3.3-13.1 9.7-16.8 10.7-3.7.9-7.4-1.1-8.2-4.4zm71.5 16.8c-2.2 2.6-6.4 2.8-9.3.3s-12.8-14.2-10.6-16.9c2.2-2.6 15.5 4.8 18.5 7.3s3.6 6.7 1.4 9.3zm34.7-15.7c-2.7 2.1-6.8 1.3-9.2-1.7-2.3-3-9.4-16.6-6.8-18.7 2.7-2.1 14.1 8 16.5 11.1 2.6 3 2.3 7.2-.5 9.3zm10.8 33c-1.3 3.2-5.2 4.6-8.8 3.2-3.6-1.4-16.5-9.6-15.3-12.8s16.3-.2 19.8 1.3c3.6 1.5 5.5 5.2 4.3 8.3zm37.2-38.8c2.1 2.7 1.2 6.8-1.9 9.2-3.1 2.3-16.8 9-18.9 6.3-2.1-2.7 8.4-14 11.5-16.3s7.2-1.9 9.3.8zm.9 33.7c1-3.3 4.8-5.1 8.4-4 3.7 1.1 17.4 8 16.3 11.3-1 3.3-16.2 1.7-19.9.6-3.5-1.1-5.7-4.6-4.8-7.9z"/></g><g id="bottom_5_"><path class="st2" d="M163.2 3093.8s2.8-4.2 14.7-6.5c56.1-10.9 149.3-33.2 269.7 8 5.8 2 16.2 19.4 14.8 22.6 0 0 7.4 53.2-71.3 60.6 0 0-62 6.8-155.1-3.1s-82.1-73.5-72.8-81.6z"/><path class="st3" d="M167.2 3091.4s-14.8 21.4 66.1 40.8c0 0 59.8 18.6 183.9-.9 0 0 49.6-5.4 30.5-36"/></g><g id="lettuce_5_"><path class="st4" d="M296.7 3084.6c1.5 5.8 7.6 9.8 13.5 9.2 5.9-.7 10.9-6.1 11.1-12.1 5.2 4.8 11.3 9.8 18.5 9.8 7.2-.1 13.9-8.6 9.8-14.4 5.7 3.8 12.1 6.6 18.7 8 5.5 1.3 11.8 1.5 16.3-1.9 4.4-3.3 5.8-9.4 5.4-14.9-.7-9.2-5.8-17.8-12.5-24.1-6.7-6.4-14.9-11-23.3-15-36.8-17.9-77.7-27.3-118.6-27.4-5.8 0-11.7.2-17.2 1.9-5.1 1.6-9.7 4.5-14.2 7.4-6.8 4.4-18.9 6.5-25.5 11.2-8.7 6.2-12.5 15.9-14.3 26.4-1.2 6.8 3.6 15.6 10.4 14.5-5.2 4.6-8.4 11.6-7.3 18.4 1.1 6.8 7.4 12.7 14.3 12.3 6.9-.4 12.5-8.4 9.7-14.7.1 2.5.1 5.1.1 7.6 5.2 3.5 11.2 5.8 17.4 6.6 3.7.5 7.6.5 10.8-1.3 3.2-1.8 5.4-5.8 4.2-9.3 2.8 9.8 16.9 14.1 24.7 7.6 5.4 7.9 19.2 7.5 24.1-.7 1.3 5.4 8 8.2 13.3 6.7 5-1.7 8.8-6.6 10.6-11.8z"/><path class="st5" d="M281 3035.5c-1.1-5.9 2.1-11.6 5.2-16.7 1.1-1.7 2.2-3.6 3.6-5s3.1-2.5 4.8-3.4c23.4-13.3 52.7-13.9 78.3-5.8 25.7 8.1 48.2 24.1 68 42.4 6.1 5.6 12.2 11.9 14.7 19.8 1.5 5 1.5 10.2 1.3 15.4-.2 3.3-.9 7.3-4 8.7-2.2 1-4.8.1-7.2-.3-2.4-.5-5.4-.3-6.6 1.9-.5.9-.5 1.9-.9 2.9-1.1 3.7-5.6 5.5-9.4 4.7-3.8-.8-6.8-3.5-9.3-6.4-2.3 5-7.1 8.6-12.5 9.5-5.4.9-11.1-1.1-14.9-5-.7-.8-1.7-1.7-2.7-1.5-.6.1-1 .6-1.5 1-2.9 2.7-7.7 2.8-11.3.9-3.6-1.9-6-5.4-7.5-9.1-1.5 3.5-3.8 7.6-7.6 7.6-1.4 0-2.7-.6-4-1.3-8.8-5.4-11-17-12.3-27.3-22.2 2.7-45.5-6.7-59.6-24-2-2.8-4-5.6-4.6-9z"/><path class="st6" d="M299 3028.5c15.9-.6 31.8-1.1 47.6-1.5 9.9-.2 20.1-.3 29.3 3.1 9.4 3.5 17.2 10.3 24.8 16.8 7.9 6.9 16.1 14.2 19.8 24.1m-57.3-42.5c2.5 13.5 11.9 25.4 24.2 31.3m-22-32.4c7.7-.4 22.2-1.5 29.9-.2 7.6 1.3 15.1 4.6 20.2 10.5m-98.9-9.2c2.3 4.4 4.2 7.8 7.8 11.1 3.6 3.3 8.9 5.3 13.6 3.8m74 13.8c11.2 1.2 22.2 4.2 32.5 8.8m-168.4-38.7c-27.9 4.4-48.9 11.8-73.2 26.3-5.5 3.3-11.4 7.4-12.4 13.8m40.7-28.1c-12.9-2.5-22.8-2.5-35.8-1.1m35.8 1.1c6.4 9.2 13.2 22.5 12.7 33.8m24.6-44.8c.7 5 4.8 8.8 7 13.4 4 8.2 1.3 18.1-2.5 26.3m-5.3-39.3c.2-3.9-4.2-5.2-7.6-7.1-3.3-2-7.4-2.7-11.3-3.1-8.2-.9-16.6-1.1-24.9-.5"/></g><g id="tomato_5_"><ellipse transform="matrix(-.17 -.985 .985 -.17 -2634.732 3703.338)" class="st7" cx="241.6" cy="2960.8" rx="31.5" ry="81.5"/><ellipse transform="matrix(-.17 -.985 .985 -.17 -2627.727 3695.031)" class="st8" cx="241.6" cy="2953.7" rx="31.5" ry="81.5"/><path class="st7" d="M204 2958.5s-22.3-8.2 4.5-18.6c0 0 11.7-6.9 23.7 5.8 0 0 8.2-18.2 26.8-12.4 0 0 26.8.3 28.2 8.2 0 0 2.1 9.6-9.6 12.1 0 0 14.8 14.8-10.3 18.2 0 0-24.4 6.5-30.5-8.6 0 0-.3 17.2-30.2 13.4-.2.2-35.6-6.3-2.6-18.1z"/><ellipse transform="matrix(.082 -.997 .997 .082 -2640.311 3081.724)" class="st7" cx="352.4" cy="2973.8" rx="33" ry="81.5"/><ellipse transform="matrix(.082 -.997 .997 .082 -2634.272 3070.86)" class="st8" cx="349.5" cy="2965.1" rx="33" ry="81.5"/><path class="st7" d="M387 2977.2s23.6-2.9-.1-19.1c0 0-9.8-9.4-24.4.2 0 0-3.8-19.6-23.2-18.2 0 0-26.2-5.8-29.3 1.5 0 0-4.2 8.9 6.6 13.9 0 0-17.8 11 5.8 20.1 0 0 22.2 12 31.8-1.3 0 0-3.6 16.8 26.3 20-.1.1 35.9 1.9 6.5-17.1z"/></g><g id="burger_5_"><path class="st9" d="M170.9 2830.5s-.9.5-2.1 1.3c-3.7 2.6-9.6 8.4.7 13.1 0 0-24.7 6.1-11.7 18.4 0 0-13.6 22.2 4.7 22.2 0 0-3.7 20.6 16.8 14.5 0 0 6.2 11.6 16.7 7.6 0 0-7.6 12.3 88.6 5.4 0 0 80.3 8.4 138.3-3.1 0 0 9.9 11.5 21.4-2.3 0 0 21.4 3.1 22.9-9.2 0 0 17.6-6.9 7.6-22.2 0 0 11.5-6.1-1.5-13.7 0 0 .7-22.2-18.4-21.4 0 0-174.4-27.3-285.1-10.2"/><path class="st3" d="M212.1 2940.6s-9.2-68-14.5-78.7c0 0-35.6-22.9-26.6-31.4 0 0 70.1-58.1 240.6-17.6 0 0 41.3 6.1 48.5 30.5 0 0-97.4 26.9-136.4 26.1 0 0-25.2 7.6-30.5 14.4-.1.1-33.8 44.4-81.1 56.7z"/><ellipse class="st10" cx="213.9" cy="2876.4" rx="7.8" ry="8.9"/><ellipse class="st11" cx="301.4" cy="2895.8" rx="7.8" ry="7.5"/><ellipse class="st11" cx="334.5" cy="2901.2" rx="7.8" ry="5.6"/><path class="st11" d="M364.9 2895.6s11 9.7 19.4-2.3c0 0 34.1 7.8 27.8-12.6"/><path class="st10" d="M213.9 2853.9s-12.1-8.2-11.5-19.1c0 0 4.5-13.1-6.4-10.7 0 0-13.3 5.7-2.7 19 .1.1 6.6 9.6 20.6 10.8zm131.4-46.3s46.6-2.3 84.6 19.6c0 0-.2 5.1-5.3 4.7 0 0-28.4-19-79.3-17.6 0 .1-9.6-3.4 0-6.7z"/></g><g id="top_5_"><path class="st2" d="M426.9 2693.2c5.5 5 15.8 15.2 19.7 21.5 11.8 19.2 17.3 33.5 13.1 55.6-3 16.1-41.6 18-45.3 18.2-61.2 1.5-81.5 4.3-146.3 3.5-16.4-.2-76.8-3.4-85.1-8.4-8.3-5.1-21.8-9.1-24.5-18.5-5-17.3 5.3-35.4 17.5-48.6 37-39.9 89-53.2 143.4-55.7 11.5-.5 26.7.1 38.1 1.9 18 2.8 34.4 9.6 50.6 18.1 6.8 3.5 13.2 7.3 18.8 12.4z"/><path class="st10" d="M216.5 2716.6c0 3.4-3.1 6.2-7 6.2-3.8 0-18.9-2.8-18.9-6.2s15.1-6.2 18.9-6.2 7 2.8 7 6.2zm40.4-4.1c-.9-3.3 1.5-6.8 5.2-7.7 3.8-.9 19-1.9 19.8 1.4.8 3.3-13.1 9.7-16.8 10.7-3.6.8-7.3-1.2-8.2-4.4zm-12.6-27c-.8-3.3 1.5-6.8 5.2-7.7 3.8-.9 19-1.9 19.8 1.4.8 3.3-13.1 9.7-16.8 10.7-3.7.9-7.4-1.1-8.2-4.4zm71.5 16.8c-2.2 2.6-6.4 2.8-9.3.3s-12.8-14.2-10.6-16.9c2.2-2.6 15.5 4.8 18.5 7.3s3.6 6.7 1.4 9.3zm34.7-15.7c-2.7 2.1-6.8 1.3-9.2-1.7-2.3-3-9.4-16.6-6.8-18.7 2.7-2.1 14.1 8 16.5 11.1 2.6 3.1 2.3 7.2-.5 9.3zm10.8 33.1c-1.3 3.2-5.2 4.6-8.8 3.2-3.6-1.4-16.5-9.6-15.3-12.8s16.3-.2 19.8 1.3c3.6 1.5 5.5 5.1 4.3 8.3zm37.2-38.9c2.1 2.7 1.2 6.8-1.9 9.2-3.1 2.3-16.8 9-18.9 6.3-2.1-2.7 8.4-14 11.5-16.3 3.1-2.2 7.2-1.9 9.3.8zm.9 33.7c1-3.3 4.8-5.1 8.4-4 3.7 1.1 17.4 8 16.3 11.3-1 3.3-16.2 1.7-19.9.6-3.5-1-5.7-4.6-4.8-7.9z"/></g></g></svg>