<?xml version="1.0" encoding="utf-8"?>
<!-- Generator: Adobe Illustrator 18.1.1, SVG Export Plug-In . SVG Version: 6.00 Build 0)  -->
<!DOCTYPE svg PUBLIC "-//W3C//DTD SVG 1.1//EN" "http://www.w3.org/Graphics/SVG/1.1/DTD/svg11.dtd">
<svg version="1.1" xmlns="http://www.w3.org/2000/svg" xmlns:xlink="http://www.w3.org/1999/xlink" x="0px" y="0px"
	 viewBox="0 0 613 3820.4" style="enable-background:new 0 0 613 3820.4;" xml:space="preserve">
<style type="text/css">
	.st0{display:none;}
	.st1{display:inline;fill:none;}
	.st2{display:inline;}
	.st3{fill:#F5DC75;}
	.st4{fill:#FDC43D;}
	.st5{fill:#00F670;}
	.st6{fill:#6EBF5B;}
	.st7{fill:none;stroke:#FFFFFF;stroke-width:5;stroke-linecap:round;stroke-miterlimit:10;}
	.st8{fill:#EC2226;}
	.st9{fill:#EA4A24;}
	.st10{fill:#87662D;}
	.st11{fill:#FFFFFF;}
	.st12{fill:none;stroke:#FFFFFF;stroke-width:4;stroke-miterlimit:10;}
</style>
<g id="Layer_2" class="st0">
	<rect x="1257.1" y="1061.5" class="st1" width="107.4" height="322"/>
	<g class="st2">
		<path d="M1274.5,1110.2c0.3,0.2,1,0.5,1.7,0.5c1.3,0,1.8-0.9,1.8-1.5c0-1.1-1-1.6-2-1.6h-0.6v-0.8h0.6c0.8,0,1.7-0.4,1.7-1.3
			c0-0.6-0.4-1.2-1.4-1.2c-0.6,0-1.2,0.3-1.6,0.5l-0.3-0.8c0.4-0.3,1.2-0.6,2.1-0.6c1.5,0,2.2,0.9,2.2,1.9c0,0.8-0.5,1.5-1.4,1.8v0
			c1,0.2,1.7,0.9,1.7,2c0,1.2-1,2.3-2.8,2.3c-0.9,0-1.6-0.3-2-0.5L1274.5,1110.2z"/>
		<path d="M1280.4,1111.4v-0.6l0.8-0.8c2-1.9,2.9-2.9,2.9-4.1c0-0.8-0.4-1.5-1.5-1.5c-0.7,0-1.3,0.4-1.7,0.7l-0.3-0.7
			c0.5-0.4,1.3-0.8,2.2-0.8c1.7,0,2.4,1.2,2.4,2.3c0,1.4-1,2.6-2.7,4.2l-0.6,0.6v0h3.5v0.9H1280.4z"/>
		<path d="M1286.6,1111.4v-0.6l0.8-0.8c2-1.9,2.9-2.9,2.9-4.1c0-0.8-0.4-1.5-1.5-1.5c-0.7,0-1.3,0.4-1.7,0.7l-0.3-0.7
			c0.5-0.4,1.3-0.8,2.2-0.8c1.7,0,2.4,1.2,2.4,2.3c0,1.4-1,2.6-2.7,4.2l-0.6,0.6v0h3.5v0.9H1286.6z"/>
	</g>
	<rect x="1255.7" y="1381.4" class="st1" width="107.4" height="370"/>
	<g class="st2">
		<path d="M1273.1,1437.5c0.3,0.2,1,0.6,1.7,0.6c1.3,0,1.8-1,1.8-1.7c0-1.3-1-1.8-2-1.8h-0.6v-0.9h0.6c0.8,0,1.7-0.5,1.7-1.5
			c0-0.7-0.4-1.4-1.4-1.4c-0.6,0-1.2,0.3-1.6,0.6l-0.3-0.9c0.4-0.3,1.2-0.7,2.1-0.7c1.5,0,2.2,1,2.2,2.1c0,0.9-0.5,1.7-1.4,2.1v0
			c1,0.2,1.7,1,1.7,2.3c0,1.4-1,2.7-2.8,2.7c-0.9,0-1.6-0.3-2-0.6L1273.1,1437.5z"/>
		<path d="M1284.1,1429.9v0.8l-3.4,8.2h-1.1l3.4-7.9v0h-3.8v-1H1284.1z"/>
		<path d="M1290.4,1434.3c0,3-1,4.7-2.7,4.7c-1.5,0-2.6-1.6-2.6-4.6c0-3,1.1-4.7,2.7-4.7C1289.5,1429.8,1290.4,1431.4,1290.4,1434.3
			z M1286.2,1434.4c0,2.3,0.6,3.7,1.6,3.7c1.1,0,1.6-1.4,1.6-3.7c0-2.2-0.5-3.7-1.6-3.7C1286.8,1430.7,1286.2,1432,1286.2,1434.4z"
			/>
	</g>
	<rect x="1257.1" y="1754.4" class="st1" width="107.4" height="397"/>
	<g class="st2">
		<path d="M1274.5,1814.6c0.3,0.2,1,0.6,1.7,0.6c1.3,0,1.8-1.1,1.8-1.9c0-1.3-1-1.9-2-1.9h-0.6v-1h0.6c0.8,0,1.7-0.5,1.7-1.6
			c0-0.8-0.4-1.5-1.4-1.5c-0.6,0-1.2,0.3-1.6,0.6l-0.3-0.9c0.4-0.4,1.2-0.7,2.1-0.7c1.5,0,2.2,1.1,2.2,2.3c0,1-0.5,1.9-1.4,2.3v0
			c1,0.2,1.7,1.1,1.7,2.5c0,1.5-1,2.9-2.8,2.9c-0.9,0-1.6-0.3-2-0.7L1274.5,1814.6z"/>
		<path d="M1281,1815.1c0.2,0,0.5,0,0.9,0c0.6-0.1,1.2-0.4,1.6-0.9c0.5-0.6,0.9-1.4,1-2.5h0c-0.4,0.7-1.1,1-1.8,1
			c-1.4,0-2.3-1.3-2.3-2.9c0-1.8,1.1-3.4,2.7-3.4s2.6,1.6,2.6,4.1c0,2.1-0.6,3.6-1.3,4.5c-0.6,0.7-1.4,1.2-2.3,1.3
			c-0.4,0.1-0.7,0.1-1,0.1V1815.1z M1281.4,1809.6c0,1.2,0.6,2,1.5,2c0.7,0,1.3-0.4,1.5-1c0.1-0.1,0.1-0.3,0.1-0.5
			c0-1.6-0.5-2.9-1.6-2.9C1282.1,1807.3,1281.4,1808.3,1281.4,1809.6z"/>
		<path d="M1291.7,1806.4v0.9l-3.4,8.8h-1.1l3.4-8.5v0h-3.8v-1.1H1291.7z"/>
	</g>
	<rect x="1257.1" y="2146.4" class="st1" width="107.4" height="505"/>
	<g class="st2">
		<path d="M1278.9,2214h-3l-0.3,3.1c0.2,0,0.3-0.1,0.6-0.1c0.6,0,1.2,0.2,1.7,0.7c0.6,0.5,1.1,1.6,1.1,3.1c0,2.4-1.2,4.2-2.9,4.2
			c-0.9,0-1.6-0.4-1.9-0.8l0.3-1.3c0.3,0.3,1,0.7,1.7,0.7c1,0,1.8-1,1.8-2.7c0-1.6-0.7-2.7-2.2-2.7c-0.5,0-0.8,0.1-1.1,0.1l0.5-5.9
			h3.7V2214z"/>
		<path d="M1285.6,2218.6c0,4.2-1,6.5-2.7,6.5c-1.5,0-2.6-2.2-2.6-6.3c0-4.1,1.1-6.4,2.7-6.4
			C1284.7,2212.4,1285.6,2214.7,1285.6,2218.6z M1281.4,2218.8c0,3.2,0.6,5,1.6,5c1.1,0,1.6-2,1.6-5.1c0-3-0.5-5-1.6-5
			C1282.1,2213.7,1281.4,2215.4,1281.4,2218.8z"/>
		<path d="M1291.2,2214h-3l-0.3,3.1c0.2,0,0.3-0.1,0.6-0.1c0.6,0,1.2,0.2,1.7,0.7c0.6,0.5,1.1,1.6,1.1,3.1c0,2.4-1.2,4.2-2.9,4.2
			c-0.9,0-1.6-0.4-1.9-0.8l0.3-1.3c0.3,0.3,1,0.7,1.7,0.7c1,0,1.8-1,1.8-2.7c0-1.6-0.7-2.7-2.2-2.7c-0.5,0-0.8,0.1-1.1,0.1l0.5-5.9
			h3.7V2214z"/>
	</g>
	<rect x="1257.1" y="2650.4" class="st1" width="107.4" height="556"/>
	<g class="st2">
		<path d="M1278.9,2724.8h-3l-0.3,3.5c0.2,0,0.3-0.1,0.6-0.1c0.6,0,1.2,0.2,1.7,0.7c0.6,0.6,1.1,1.8,1.1,3.4c0,2.6-1.2,4.6-2.9,4.6
			c-0.9,0-1.6-0.4-1.9-0.8l0.3-1.4c0.3,0.3,1,0.7,1.7,0.7c1,0,1.8-1.1,1.8-2.9c0-1.7-0.7-3-2.2-3c-0.5,0-0.8,0.1-1.1,0.1l0.5-6.5
			h3.7V2724.8z"/>
		<path d="M1285.1,2724.8h-3l-0.3,3.5c0.2,0,0.3-0.1,0.6-0.1c0.6,0,1.2,0.2,1.7,0.7c0.6,0.6,1.1,1.8,1.1,3.4c0,2.6-1.2,4.6-2.9,4.6
			c-0.9,0-1.6-0.4-1.9-0.8l0.3-1.4c0.3,0.3,1,0.7,1.7,0.7c1,0,1.8-1.1,1.8-2.9c0-1.7-0.7-3-2.2-3c-0.5,0-0.8,0.1-1.1,0.1l0.5-6.5
			h3.7V2724.8z"/>
		<path d="M1291,2724.6c-0.2,0-0.5,0-0.8,0.1c-1.7,0.5-2.5,2.5-2.7,4.8h0c0.4-0.9,1-1.6,1.9-1.6c1.4,0,2.4,1.7,2.4,4.4
			c0,2.5-1,4.8-2.6,4.8c-1.7,0-2.7-2.2-2.7-5.7c0-2.7,0.5-4.7,1.3-6.1c0.6-1.1,1.5-1.8,2.5-2c0.3-0.1,0.6-0.1,0.8-0.1V2724.6z
			 M1290.7,2732.3c0-1.9-0.6-3.1-1.6-3.1c-0.6,0-1.2,0.7-1.5,1.7c-0.1,0.2-0.1,0.5-0.1,0.8c0,2.2,0.6,3.9,1.7,3.9
			C1290.1,2735.6,1290.7,2734.3,1290.7,2732.3z"/>
	</g>
	<rect x="1257.1" y="3205.9" class="st1" width="107.4" height="628"/>
	<g class="st2">
		<path d="M1278.7,3289.6c-0.2,0-0.5,0-0.8,0.1c-1.7,0.5-2.5,2.9-2.7,5.4h0c0.4-1,1-1.8,1.9-1.8c1.4,0,2.4,2,2.4,4.9
			c0,2.8-1,5.4-2.6,5.4c-1.7,0-2.7-2.5-2.7-6.5c0-3,0.5-5.4,1.3-6.9c0.6-1.2,1.5-2,2.5-2.2c0.3-0.1,0.6-0.1,0.8-0.1V3289.6z
			 M1278.4,3298.4c0-2.2-0.6-3.5-1.6-3.5c-0.6,0-1.2,0.7-1.5,1.9c-0.1,0.2-0.1,0.5-0.1,0.9c0,2.5,0.6,4.4,1.7,4.4
			C1277.8,3302.1,1278.4,3300.6,1278.4,3298.4z"/>
		<path d="M1280.4,3303.4v-1.3l0.8-1.6c2-3.7,2.9-5.7,2.9-8c0-1.5-0.4-3-1.5-3c-0.7,0-1.3,0.7-1.7,1.3l-0.3-1.5
			c0.5-0.9,1.3-1.5,2.2-1.5c1.7,0,2.4,2.2,2.4,4.4c0,2.8-1,5.1-2.7,8.2l-0.6,1.1v0h3.5v1.7H1280.4z"/>
		<path d="M1288,3295.4c-0.9-0.8-1.2-2.1-1.2-3.4c0-2.4,1-4,2.4-4c1.5,0,2.3,1.8,2.3,3.7c0,1.3-0.3,2.7-1.3,3.6v0.1
			c1,0.7,1.6,2.1,1.6,3.9c0,2.7-1.2,4.4-2.7,4.4c-1.6,0-2.6-1.9-2.6-4.1C1286.5,3297.7,1287.1,3296.3,1288,3295.4L1288,3295.4z
			 M1290.7,3299.5c0-1.8-0.7-2.7-1.7-3.3c-0.9,0.5-1.4,1.7-1.4,3.2c0,1.5,0.6,2.9,1.6,2.9C1290.1,3302.2,1290.7,3301,1290.7,3299.5z
			 M1287.8,3291.8c0,1.5,0.6,2.3,1.5,2.8c0.7-0.4,1.2-1.4,1.2-2.8c0-1.2-0.4-2.5-1.3-2.5C1288.3,3289.4,1287.8,3290.5,1287.8,3291.8
			z"/>
	</g>
</g>
<g id="Layer_1">
	<g id="bottom">
		<g>
			<path class="st3" d="M165.9,541.7c0,0,2.8-4.2,14.7-6.5c56.1-10.9,149.3-33.2,269.7,8c5.8,2,16.2,19.4,14.8,22.6
				c0,0,7.4,53.2-71.3,60.6c0,0-62,6.8-155.1-3.1C145.7,613.5,156.6,549.8,165.9,541.7z"/>
			<path class="st4" d="M169.9,539.2c0,0-14.8,21.4,66.1,40.8c0,0,59.8,18.6,183.9-0.9c0,0,49.6-5.4,30.5-36"/>
		</g>
	</g>
	<g id="lettuce">
		<g>
			<path class="st5" d="M299.4,585.3c1.5,5.8,7.6,9.8,13.5,9.2c5.9-0.7,10.9-6.1,11.1-12.1c5.2,4.8,11.3,9.8,18.5,9.8
				c7.2-0.1,13.9-8.6,9.8-14.4c5.7,3.8,12.1,6.6,18.7,8c5.5,1.3,11.8,1.5,16.3-1.9c4.4-3.3,5.8-9.4,5.4-14.9
				c-0.7-9.2-5.8-17.8-12.5-24.1c-6.7-6.4-14.9-11-23.3-15c-36.8-17.9-77.7-27.3-118.6-27.4c-5.8,0-11.7,0.2-17.2,1.9
				c-5.1,1.6-9.7,4.5-14.2,7.4c-6.8,4.4-18.9,6.5-25.5,11.2c-8.7,6.2-12.5,15.9-14.3,26.4c-1.2,6.8,3.6,15.6,10.4,14.5
				c-5.2,4.6-8.4,11.6-7.3,18.4c1.1,6.8,7.4,12.7,14.3,12.3c6.9-0.4,12.5-8.4,9.7-14.7c0.1,2.5,0.1,5.1,0.1,7.6
				c5.2,3.5,11.2,5.8,17.4,6.6c3.7,0.5,7.6,0.5,10.8-1.3c3.2-1.8,5.4-5.8,4.2-9.3c2.8,9.8,16.9,14.1,24.7,7.6
				c5.4,7.9,19.2,7.5,24.1-0.7c1.3,5.4,8,8.2,13.3,6.7C293.8,595.5,297.6,590.6,299.4,585.3z"/>
			<path class="st6" d="M283.7,536.4c-1.1-5.9,2.1-11.6,5.2-16.7c1.1-1.7,2.2-3.6,3.6-5c1.4-1.4,3.1-2.5,4.8-3.4
				c23.4-13.3,52.7-13.9,78.3-5.8c25.7,8.1,48.2,24.1,68,42.4c6.1,5.6,12.2,11.9,14.7,19.8c1.5,5,1.5,10.2,1.3,15.4
				c-0.2,3.3-0.9,7.3-4,8.7c-2.2,1-4.8,0.1-7.2-0.3c-2.4-0.5-5.4-0.3-6.6,1.9c-0.5,0.9-0.5,1.9-0.9,2.9c-1.1,3.7-5.6,5.5-9.4,4.7
				s-6.8-3.5-9.3-6.4c-2.3,5-7.1,8.6-12.5,9.5c-5.4,0.9-11.1-1.1-14.9-5c-0.7-0.8-1.7-1.7-2.7-1.5c-0.6,0.1-1,0.6-1.5,1
				c-2.9,2.7-7.7,2.8-11.3,0.9c-3.6-1.9-6-5.4-7.5-9.1c-1.5,3.5-3.8,7.6-7.6,7.6c-1.4,0-2.7-0.6-4-1.3c-8.8-5.4-11-17-12.3-27.3
				c-22.2,2.7-45.5-6.7-59.6-24C286.3,542.5,284.3,539.6,283.7,536.4z"/>
		</g>
		<path class="st7" d="M301.6,529.4c15.9-0.6,31.8-1.1,47.6-1.5c9.9-0.2,20.1-0.3,29.3,3.1c9.4,3.5,17.2,10.3,24.8,16.8
			c7.9,6.9,16.1,14.2,19.8,24.1"/>
		<path class="st7" d="M365.9,529.3c2.5,13.5,11.9,25.4,24.2,31.3"/>
		<path class="st7" d="M368.1,528.3c7.7-0.4,22.2-1.5,29.9-0.2s15.1,4.6,20.2,10.5"/>
		<path class="st7" d="M319.3,529.3c2.3,4.4,4.2,7.8,7.8,11.1s8.9,5.3,13.6,3.8"/>
		<path class="st7" d="M414.7,558c11.2,1.2,22.2,4.2,32.5,8.8"/>
		<path class="st7" d="M278.8,528.1c-27.9,4.4-48.9,11.8-73.2,26.3c-5.5,3.3-11.4,7.4-12.4,13.8"/>
		<path class="st7" d="M233.9,540.1c-12.9-2.5-22.8-2.5-35.8-1.1"/>
		<path class="st7" d="M233.9,540.1c6.4,9.2,13.2,22.5,12.7,33.8"/>
		<path class="st7" d="M271.2,529.2c0.7,5,4.8,8.8,7,13.4c4,8.2,1.3,18.1-2.5,26.3"/>
		<path class="st7" d="M270.4,529.6c0.2-3.9-4.2-5.2-7.6-7.1c-3.3-2-7.4-2.7-11.3-3.1c-8.2-0.9-16.6-1.1-24.9-0.5"/>
	</g>
	<g id="tomato">
		
			<ellipse transform="matrix(-0.1704 -0.9854 0.9854 -0.1704 -229.7871 853.2123)" class="st8" cx="244.3" cy="523.3" rx="31.5" ry="81.5"/>
		
			<ellipse transform="matrix(-0.1704 -0.9854 0.9854 -0.1704 -222.7299 844.8175)" class="st9" cx="244.3" cy="516.2" rx="31.5" ry="81.5"/>
		<path class="st8" d="M206.6,521.1c0,0-22.3-8.2,4.5-18.6c0,0,11.7-6.9,23.7,5.8c0,0,8.2-18.2,26.8-12.4c0,0,26.8,0.3,28.2,8.2
			c0,0,2.1,9.6-9.6,12.1c0,0,14.8,14.8-10.3,18.2c0,0-24.4,6.5-30.5-8.6c0,0-0.3,17.2-30.2,13.4
			C209.1,539.2,173.7,532.7,206.6,521.1z"/>
		
			<ellipse transform="matrix(8.182696e-02 -0.9966 0.9966 8.182696e-02 -208.4972 846.3386)" class="st8" cx="355.1" cy="536.3" rx="33" ry="81.5"/>
		
			<ellipse transform="matrix(8.182696e-02 -0.9966 0.9966 8.182696e-02 -202.5301 835.53)" class="st9" cx="352.2" cy="527.7" rx="33" ry="81.5"/>
		<path class="st8" d="M389.7,539.7c0,0,23.6-2.9-0.1-19.1c0,0-9.8-9.4-24.4,0.2c0,0-3.8-19.6-23.2-18.2c0,0-26.2-5.8-29.3,1.5
			c0,0-4.2,8.9,6.6,13.9c0,0-17.8,11,5.8,20.1c0,0,22.2,12,31.8-1.3c0,0-3.6,16.8,26.3,20C383.1,556.9,419.1,558.7,389.7,539.7z"/>
	</g>
	<g id="burger">
		<g>
			<path class="st10" d="M173.6,461.4c0,0-0.9,0.5-2.1,1.3c-3.7,2.6-9.6,8.4,0.7,13.1c0,0-24.7,6.1-11.7,18.4
				c0,0-13.6,22.2,4.7,22.2c0,0-3.7,20.6,16.8,14.5c0,0,6.2,11.6,16.7,7.6c0,0-7.6,12.3,88.6,5.4c0,0,80.3,8.4,138.3-3.1
				c0,0,9.9,11.5,21.4-2.3c0,0,21.4,3.1,22.9-9.2c0,0,17.6-6.9,7.6-22.2c0,0,11.5-6.1-1.5-13.7c0,0,0.7-22.2-18.4-21.4
				c0,0-174.4-27.3-285.1-10.2"/>
			<path class="st4" d="M214.7,571.5c0,0-9.2-68-14.5-78.7c0,0-35.6-22.9-26.6-31.4c0,0,70.1-58.1,240.6-17.6
				c0,0,41.3,6.1,48.5,30.5c0,0-97.4,26.9-136.4,26.1c0,0-25.2,7.6-30.5,14.4C295.7,514.9,262.1,559.2,214.7,571.5z"/>
			<ellipse class="st11" cx="216.6" cy="507.4" rx="7.8" ry="8.9"/>
			<ellipse class="st12" cx="304.1" cy="526.7" rx="7.8" ry="7.5"/>
			<ellipse class="st12" cx="337.2" cy="532.1" rx="7.8" ry="5.6"/>
			<path class="st12" d="M367.6,526.4c0,0,11,9.7,19.4-2.3c0,0,34.1,7.8,27.8-12.6"/>
			<path class="st11" d="M216.6,484.8c0,0-12.1-8.2-11.5-19.1c0,0,4.5-13.1-6.4-10.7c0,0-13.3,5.7-2.7,19
				C196.1,474.1,202.6,483.6,216.6,484.8z"/>
			<path class="st11" d="M348,438.5c0,0,46.6-2.3,84.6,19.6c0,0-0.2,5.1-5.3,4.7c0,0-28.4-19-79.3-17.6
				C348,445.2,338.4,441.8,348,438.5z"/>
		</g>
	</g>
	<g id="top">
		<g>
			<path class="st3" d="M429.6,391c5.5,5,15.8,15.2,19.7,21.5c11.8,19.2,17.3,33.5,13.1,55.6c-3,16.1-41.6,18-45.3,18.2
				c-61.2,1.5-81.5,4.3-146.3,3.5c-16.4-0.2-76.8-3.4-85.1-8.4c-8.3-5.1-21.8-9.1-24.5-18.5c-5-17.3,5.3-35.4,17.5-48.6
				c37-39.9,89-53.2,143.4-55.7c11.5-0.5,26.7,0.1,38.1,1.9c18,2.8,34.4,9.6,50.6,18.1C417.6,382.1,424,386,429.6,391z"/>
			<path class="st11" d="M219.2,414.4c0,3.4-3.1,6.2-7,6.2c-3.8,0-18.9-2.8-18.9-6.2c0-3.4,15.1-6.2,18.9-6.2S219.2,411,219.2,414.4
				z"/>
			<path class="st11" d="M259.6,410.3c-0.9-3.3,1.5-6.8,5.2-7.7c3.8-0.9,19-1.9,19.8,1.4c0.9,3.3-13.1,9.7-16.8,10.7
				C264.2,415.5,260.4,413.6,259.6,410.3z"/>
			<path class="st11" d="M247,383.3c-0.8-3.3,1.5-6.8,5.2-7.7c3.8-0.9,19-1.9,19.8,1.4c0.8,3.3-13.1,9.7-16.8,10.7
				S247.8,386.6,247,383.3z"/>
			<path class="st11" d="M318.5,400.1c-2.2,2.6-6.4,2.8-9.3,0.3s-12.8-14.2-10.6-16.9c2.2-2.6,15.5,4.8,18.5,7.3
				C320.1,393.3,320.7,397.5,318.5,400.1z"/>
			<path class="st11" d="M353.2,384.4c-2.7,2.1-6.8,1.3-9.2-1.7c-2.3-3-9.4-16.6-6.8-18.7c2.7-2.1,14.1,8,16.5,11.1
				C356.2,378.1,356,382.3,353.2,384.4z"/>
			<path class="st11" d="M363.9,417.5c-1.3,3.2-5.2,4.6-8.8,3.2s-16.5-9.6-15.3-12.8c1.3-3.2,16.3-0.2,19.8,1.3
				S365.2,414.3,363.9,417.5z"/>
			<path class="st11" d="M401.2,378.7c2.1,2.7,1.2,6.8-1.9,9.2c-3.1,2.3-16.8,9-18.9,6.3c-2.1-2.7,8.4-14,11.5-16.3
				C395,375.6,399.1,375.9,401.2,378.7z"/>
			<path class="st11" d="M402.1,412.3c1-3.3,4.8-5.1,8.4-4c3.7,1.1,17.4,8,16.3,11.3c-1,3.3-16.2,1.7-19.9,0.6
				C403.4,419.1,401.2,415.6,402.1,412.3z"/>
		</g>
		<g id="drops">
			<path class="st8" d="M511.4,546.8c0,0,19.6-38.4,52.4-26.3c0,0,23.6,8.2,15.1,28.9c0,0-5.4,14-24.4,3.6c0,0-11.1-16.3-32.2-10.9
				C522.3,542.1,512.2,544.2,511.4,546.8z"/>
			<path class="st8" d="M500.8,570.5c0,0,54.5-0.1,58.4,42.9c0,0-1,20.6-24.2,15.9c0,0-18.3-3.5-11.9-25
				C523.2,604.3,531.2,580.4,500.8,570.5z"/>
			<path class="st11" d="M539.3,591.4c0,0,26.1,18.1,6,31.4c-0.9,0.5-1.8,0.9-2.8,0.9c-2.5,0.1-7.6-0.3-10.3-3.3
				C532.3,620.4,561,621.2,539.3,591.4z"/>
			<path class="st4" d="M133.7,570.9c0,0-53.9-7.8-63.9,34.2c0,0-1.9,20.6,21.7,19.2c0,0,18.6-0.8,15.3-23
				C106.8,601.2,102.3,576.5,133.7,570.9z"/>
			<path class="st11" d="M92.6,586.2c0,0-28.3,14.2-10.5,30.3c0.7,0.7,1.7,1.1,2.7,1.3c2.5,0.4,7.6,0.8,10.6-1.9
				C95.5,615.9,66.9,612.6,92.6,586.2z"/>
			<path class="st11" d="M552.7,525.5c0,0,19.2-3.4,23,14.3c0,0,1.9,2.8-5.4,11.2C570.3,550.9,575.2,534.1,552.7,525.5z"/>
		</g>
	</g>
	<g id="bottom_1_">
		<g>
			<path class="st3" d="M167.7,1176.9c0,0,2.8-4.2,14.7-6.5c56.1-10.9,149.3-33.2,269.7,8c5.8,2,16.2,19.4,14.8,22.6
				c0,0,7.4,53.2-71.3,60.6c0,0-62,6.8-155.1-3.1S158.4,1185,167.7,1176.9z"/>
			<path class="st4" d="M171.7,1174.5c0,0-14.8,21.4,66.1,40.8c0,0,59.8,18.6,183.9-0.9c0,0,49.6-5.4,30.5-36"/>
		</g>
	</g>
	<g id="lettuce_1_">
		<g>
			<path class="st5" d="M301.2,1213.9c1.5,5.8,7.6,9.8,13.5,9.2c5.9-0.7,10.9-6.1,11.1-12.1c5.2,4.8,11.3,9.8,18.5,9.8
				c7.2-0.1,13.9-8.6,9.8-14.4c5.7,3.8,12.1,6.6,18.7,8c5.5,1.3,11.8,1.5,16.3-1.9c4.4-3.3,5.8-9.4,5.4-14.9
				c-0.7-9.2-5.8-17.8-12.5-24.1c-6.7-6.4-14.9-11-23.3-15c-36.8-17.9-77.7-27.3-118.6-27.4c-5.8,0-11.7,0.2-17.2,1.9
				c-5.1,1.6-9.7,4.5-14.2,7.4c-6.8,4.4-18.9,6.5-25.5,11.2c-8.7,6.2-12.5,15.9-14.3,26.4c-1.2,6.8,3.6,15.6,10.4,14.5
				c-5.2,4.6-8.4,11.6-7.3,18.4c1.1,6.8,7.4,12.7,14.3,12.3c6.9-0.4,12.5-8.4,9.7-14.7c0.1,2.5,0.1,5.1,0.1,7.6
				c5.2,3.5,11.2,5.8,17.4,6.6c3.7,0.5,7.6,0.5,10.8-1.3c3.2-1.8,5.4-5.8,4.2-9.3c2.8,9.8,16.9,14.1,24.7,7.6
				c5.4,7.9,19.2,7.5,24.1-0.7c1.3,5.4,8,8.2,13.3,6.7C295.6,1224.2,299.4,1219.2,301.2,1213.9z"/>
			<path class="st6" d="M285.5,1164.9c-1.1-5.9,2.1-11.6,5.2-16.7c1.1-1.7,2.2-3.6,3.6-5c1.4-1.4,3.1-2.5,4.8-3.4
				c23.4-13.3,52.7-13.9,78.3-5.8c25.7,8.1,48.2,24.1,68,42.4c6.1,5.6,12.2,11.9,14.7,19.8c1.5,5,1.5,10.2,1.3,15.4
				c-0.2,3.3-0.9,7.3-4,8.7c-2.2,1-4.8,0.1-7.2-0.3c-2.4-0.5-5.4-0.3-6.6,1.9c-0.5,0.9-0.5,1.9-0.9,2.9c-1.1,3.7-5.6,5.5-9.4,4.7
				s-6.8-3.5-9.3-6.4c-2.3,5-7.1,8.6-12.5,9.5c-5.4,0.9-11.1-1.1-14.9-5c-0.7-0.8-1.7-1.7-2.7-1.5c-0.6,0.1-1,0.6-1.5,1
				c-2.9,2.7-7.7,2.8-11.3,0.9c-3.6-1.9-6-5.4-7.5-9.1c-1.5,3.5-3.8,7.6-7.6,7.6c-1.4,0-2.7-0.6-4-1.3c-8.8-5.4-11-17-12.3-27.3
				c-22.2,2.7-45.5-6.7-59.6-24C288.1,1171.1,286.1,1168.2,285.5,1164.9z"/>
		</g>
		<path class="st7" d="M303.4,1158c15.9-0.6,31.8-1.1,47.6-1.5c9.9-0.2,20.1-0.3,29.3,3.1c9.4,3.5,17.2,10.3,24.8,16.8
			c7.9,6.9,16.1,14.2,19.8,24.1"/>
		<path class="st7" d="M367.7,1157.8c2.5,13.5,11.9,25.4,24.2,31.3"/>
		<path class="st7" d="M369.9,1156.8c7.7-0.4,22.2-1.5,29.9-0.2c7.6,1.3,15.1,4.6,20.2,10.5"/>
		<path class="st7" d="M321.1,1157.8c2.3,4.4,4.2,7.8,7.8,11.1c3.6,3.3,8.9,5.3,13.6,3.8"/>
		<path class="st7" d="M416.5,1186.6c11.2,1.2,22.2,4.2,32.5,8.8"/>
		<path class="st7" d="M280.6,1156.7c-27.9,4.4-48.9,11.8-73.2,26.3c-5.5,3.3-11.4,7.4-12.4,13.8"/>
		<path class="st7" d="M235.7,1168.7c-12.9-2.5-22.8-2.5-35.8-1.1"/>
		<path class="st7" d="M235.7,1168.7c6.4,9.2,13.2,22.5,12.7,33.8"/>
		<path class="st7" d="M273,1157.8c0.7,5,4.8,8.8,7,13.4c4,8.2,1.3,18.1-2.5,26.3"/>
		<path class="st7" d="M272.2,1158.2c0.2-3.9-4.2-5.2-7.6-7.1c-3.4-1.9-7.4-2.7-11.3-3.1c-8.2-0.9-16.6-1.1-24.9-0.5"/>
	</g>
	<g id="tomato_1_">
		
			<ellipse transform="matrix(-0.1704 -0.9854 0.9854 -0.1704 -839.0674 1581.1687)" class="st8" cx="246.1" cy="1143.8" rx="31.5" ry="81.5"/>
		
			<ellipse transform="matrix(-0.1704 -0.9854 0.9854 -0.1704 -832.0618 1572.8623)" class="st9" cx="246.1" cy="1136.7" rx="31.5" ry="81.5"/>
		<path class="st8" d="M208.4,1141.5c0,0-22.3-8.2,4.5-18.6c0,0,11.7-6.9,23.7,5.8c0,0,8.2-18.2,26.8-12.4c0,0,26.8,0.3,28.2,8.2
			c0,0,2.1,9.6-9.6,12.1c0,0,14.8,14.8-10.3,18.2c0,0-24.4,6.5-30.5-8.6c0,0-0.3,17.2-30.2,13.4
			C210.9,1159.8,175.5,1153.3,208.4,1141.5z"/>
		
			<ellipse transform="matrix(8.182696e-02 -0.9966 0.9966 8.182696e-02 -825.2842 1417.8907)" class="st8" cx="356.9" cy="1156.9" rx="33" ry="81.5"/>
		
			<ellipse transform="matrix(8.182696e-02 -0.9966 0.9966 8.182696e-02 -819.3171 1407.0822)" class="st9" cx="354" cy="1148.2" rx="33" ry="81.5"/>
		<path class="st8" d="M391.5,1160.2c0,0,23.6-2.9-0.1-19.1c0,0-9.8-9.4-24.4,0.2c0,0-3.8-19.6-23.2-18.2c0,0-26.2-5.8-29.3,1.5
			c0,0-4.2,8.9,6.6,13.9c0,0-17.8,11,5.8,20.1c0,0,22.2,12,31.8-1.3c0,0-3.6,16.8,26.3,20C384.9,1177.4,420.9,1179.2,391.5,1160.2z"
			/>
	</g>
	<g id="burger_1_">
		<g>
			<path class="st10" d="M175.4,1075.2c0,0-0.9,0.5-2.1,1.3c-3.7,2.6-9.6,8.4,0.7,13.1c0,0-24.7,6.1-11.7,18.4
				c0,0-13.6,22.2,4.7,22.2c0,0-3.7,20.6,16.8,14.5c0,0,6.2,11.6,16.7,7.6c0,0-7.6,12.3,88.6,5.4c0,0,80.3,8.4,138.3-3.1
				c0,0,9.9,11.5,21.4-2.3c0,0,21.4,3.1,22.9-9.2c0,0,17.6-6.9,7.6-22.2c0,0,11.5-6.1-1.5-13.7c0,0,0.7-22.2-18.4-21.4
				c0,0-174.4-27.3-285.1-10.2"/>
			<path class="st4" d="M216.6,1185.3c0,0-9.2-68-14.5-78.7c0,0-35.6-22.9-26.6-31.4c0,0,70.1-58.1,240.6-17.6
				c0,0,41.3,6.1,48.5,30.5c0,0-97.4,26.9-136.4,26.1c0,0-25.2,7.6-30.5,14.4C297.6,1128.7,263.9,1173,216.6,1185.3z"/>
			<ellipse class="st11" cx="218.4" cy="1121.1" rx="7.8" ry="8.9"/>
			<ellipse class="st12" cx="305.9" cy="1140.5" rx="7.8" ry="7.5"/>
			<ellipse class="st12" cx="339" cy="1145.9" rx="7.8" ry="5.6"/>
			<path class="st12" d="M369.4,1140.3c0,0,11,9.7,19.4-2.3c0,0,34.1,7.8,27.8-12.6"/>
			<path class="st11" d="M218.4,1098.6c0,0-12.1-8.2-11.5-19.1c0,0,4.5-13.1-6.4-10.7c0,0-13.3,5.7-2.7,19
				C197.9,1087.9,204.4,1097.4,218.4,1098.6z"/>
			<path class="st11" d="M349.8,1052.3c0,0,46.6-2.3,84.6,19.6c0,0-0.2,5.1-5.3,4.7c0,0-28.4-19-79.3-17.6
				C349.8,1059.1,340.2,1055.6,349.8,1052.3z"/>
		</g>
	</g>
	<g id="top_1_">
		<g>
			<path class="st3" d="M431.4,1000.1c5.5,5,15.8,15.2,19.7,21.5c11.8,19.2,17.3,33.5,13.1,55.6c-3,16.1-41.6,18-45.3,18.2
				c-61.2,1.5-81.5,4.3-146.3,3.5c-16.4-0.2-76.8-3.4-85.1-8.4c-8.3-5.1-21.8-9.1-24.5-18.5c-5-17.3,5.3-35.4,17.5-48.6
				c37-39.9,89-53.2,143.4-55.7c11.5-0.5,26.7,0.1,38.1,1.9c18,2.8,34.4,9.6,50.6,18.1C419.4,991.2,425.8,995,431.4,1000.1z"/>
			<path class="st11" d="M221,1023.6c0,3.4-3.1,6.2-7,6.2s-18.9-2.8-18.9-6.2c0-3.4,15.1-6.2,18.9-6.2
				C217.8,1017.3,221,1020.1,221,1023.6z"/>
			<path class="st11" d="M261.4,1019.3c-0.9-3.3,1.5-6.8,5.2-7.7c3.8-0.9,19-1.9,19.8,1.4s-13.1,9.7-16.8,10.7
				C266,1024.6,262.2,1022.7,261.4,1019.3z"/>
			<path class="st11" d="M248.8,992.4c-0.8-3.3,1.5-6.8,5.2-7.7c3.7-0.9,19-1.9,19.8,1.4c0.8,3.3-13.1,9.7-16.8,10.7
				C253.3,997.7,249.6,995.8,248.8,992.4z"/>
			<path class="st11" d="M320.3,1009.2c-2.2,2.6-6.4,2.8-9.3,0.3s-12.8-14.2-10.6-16.9c2.2-2.6,15.5,4.8,18.5,7.3
				C321.9,1002.5,322.5,1006.6,320.3,1009.2z"/>
			<path class="st11" d="M355,993.6c-2.7,2.1-6.8,1.3-9.2-1.7c-2.3-3-9.4-16.6-6.8-18.7c2.7-2.1,14.1,8,16.5,11.1
				C358,987.3,357.8,991.4,355,993.6z"/>
			<path class="st11" d="M365.8,1026.6c-1.3,3.2-5.2,4.6-8.8,3.2c-3.6-1.4-16.5-9.6-15.3-12.8s16.3-0.2,19.8,1.3
				C365.2,1019.7,367,1023.4,365.8,1026.6z"/>
			<path class="st11" d="M403,987.8c2.1,2.7,1.2,6.8-1.9,9.2c-3.1,2.3-16.8,9-18.9,6.3c-2.1-2.7,8.4-14,11.5-16.3
				C396.8,984.6,400.9,985,403,987.8z"/>
			<path class="st11" d="M403.9,1021.4c1-3.3,4.8-5.1,8.4-4c3.7,1.1,17.4,8,16.3,11.3c-1,3.3-16.2,1.7-19.9,0.6
				C405.2,1028.3,403,1024.7,403.9,1021.4z"/>
		</g>
		<g id="drops_1_">
			<path class="st8" d="M484.4,1138.9c0,0,19.6-38.4,52.4-26.3c0,0,23.6,8.2,15.1,28.9c0,0-5.4,14-24.4,3.6c0,0-11.1-16.3-32.2-10.9
				C495.3,1134.2,485.1,1136.3,484.4,1138.9z"/>
			<path class="st8" d="M473.8,1162.6c0,0,54.5-0.1,58.4,42.9c0,0-1,20.6-24.2,15.9c0,0-18.3-3.5-11.9-25
				C496.2,1196.4,504.1,1172.6,473.8,1162.6z"/>
			<path class="st11" d="M512.3,1183.6c0,0,26.1,18.1,6,31.4c-0.9,0.5-1.8,0.9-2.8,0.9c-2.5,0.1-7.6-0.3-10.3-3.3
				C505.2,1212.6,534,1213.4,512.3,1183.6z"/>
			<path class="st4" d="M172.3,1148c0,0-53.9-7.8-63.9,34.2c0,0-1.9,20.6,21.7,19.2c0,0,18.6-0.8,15.3-23
				C145.3,1178.3,140.9,1153.6,172.3,1148z"/>
			<path class="st11" d="M131.3,1163.4c0,0-28.3,14.2-10.5,30.3c0.7,0.7,1.7,1.1,2.7,1.3c2.5,0.4,7.6,0.8,10.6-1.9
				C134.1,1193.1,105.5,1189.7,131.3,1163.4z"/>
			<path class="st11" d="M525.7,1117.6c0,0,19.2-3.4,23,14.3c0,0,1.9,2.8-5.4,11.2C543.2,1143.1,548.2,1126.3,525.7,1117.6z"/>
		</g>
	</g>
	<g id="bottom_2_">
		<g>
			<path class="st3" d="M168,1816.3c0,0,2.8-4.2,14.7-6.5c56.1-10.9,149.3-33.2,269.7,8c5.8,2,16.2,19.4,14.8,22.6
				c0,0,7.4,53.2-71.3,60.6c0,0-62,6.8-155.1-3.1S158.6,1824.4,168,1816.3z"/>
			<path class="st4" d="M171.9,1813.9c0,0-14.8,21.4,66.1,40.8c0,0,59.8,18.6,183.9-0.9c0,0,49.6-5.4,30.5-36"/>
		</g>
	</g>
	<g id="lettuce_2_">
		<g>
			<path class="st5" d="M301.4,1840.6c1.5,5.8,7.6,9.8,13.5,9.2c5.9-0.7,10.9-6.1,11.1-12.1c5.2,4.8,11.3,9.8,18.5,9.8
				c7.2-0.1,13.9-8.6,9.8-14.4c5.7,3.8,12.1,6.6,18.7,8c5.5,1.3,11.8,1.5,16.3-1.9c4.4-3.3,5.8-9.4,5.4-14.9
				c-0.7-9.2-5.8-17.8-12.5-24.1c-6.7-6.4-14.9-11-23.3-15c-36.8-17.9-77.7-27.3-118.6-27.4c-5.8,0-11.7,0.2-17.2,1.9
				c-5.1,1.6-9.7,4.5-14.2,7.4c-6.8,4.4-18.9,6.5-25.5,11.2c-8.7,6.2-12.5,15.9-14.3,26.4c-1.2,6.8,3.6,15.6,10.4,14.5
				c-5.2,4.6-8.4,11.6-7.3,18.4c1.1,6.8,7.4,12.7,14.3,12.3c6.9-0.4,12.5-8.4,9.7-14.7c0.1,2.5,0.1,5.1,0.1,7.6
				c5.2,3.5,11.2,5.8,17.4,6.6c3.7,0.5,7.6,0.5,10.8-1.3c3.2-1.8,5.4-5.8,4.2-9.3c2.8,9.8,16.9,14.1,24.7,7.6
				c5.4,7.9,19.2,7.5,24.1-0.7c1.3,5.4,8,8.2,13.3,6.7C295.9,1850.8,299.7,1845.9,301.4,1840.6z"/>
			<path class="st6" d="M285.7,1791.6c-1.1-5.9,2.1-11.6,5.2-16.7c1.1-1.7,2.2-3.6,3.6-5c1.4-1.4,3.1-2.5,4.8-3.4
				c23.4-13.3,52.7-13.9,78.3-5.8c25.7,8.1,48.2,24.1,68,42.4c6.1,5.6,12.2,11.9,14.7,19.8c1.5,5,1.6,10.2,1.3,15.4
				c-0.2,3.3-0.9,7.3-4,8.7c-2.2,1-4.8,0.1-7.2-0.3c-2.4-0.5-5.4-0.3-6.6,1.9c-0.5,0.9-0.5,1.9-0.9,2.9c-1.1,3.7-5.6,5.5-9.4,4.7
				c-3.8-0.8-6.8-3.5-9.3-6.4c-2.3,5-7.1,8.6-12.5,9.5c-5.4,0.9-11.1-1.1-14.9-5c-0.7-0.8-1.7-1.7-2.7-1.5c-0.6,0.1-1,0.6-1.5,1
				c-2.9,2.7-7.7,2.8-11.3,0.9s-6-5.4-7.5-9.1c-1.5,3.5-3.8,7.6-7.6,7.6c-1.4,0-2.7-0.6-4-1.3c-8.8-5.4-11-17-12.3-27.3
				c-22.2,2.7-45.5-6.7-59.6-24C288.4,1797.8,286.3,1794.9,285.7,1791.6z"/>
		</g>
		<path class="st7" d="M303.7,1784.6c15.9-0.6,31.8-1.1,47.6-1.5c9.9-0.2,20.1-0.3,29.3,3.1c9.4,3.5,17.2,10.3,24.8,16.8
			c7.9,6.9,16.1,14.2,19.8,24.1"/>
		<path class="st7" d="M367.9,1784.5c2.5,13.5,11.9,25.4,24.2,31.3"/>
		<path class="st7" d="M370.2,1783.5c7.7-0.4,22.2-1.5,29.9-0.2c7.6,1.3,15.1,4.6,20.2,10.5"/>
		<path class="st7" d="M321.3,1784.5c2.3,4.4,4.2,7.8,7.8,11.1c3.6,3.3,8.9,5.3,13.6,3.8"/>
		<path class="st7" d="M416.8,1813.3c11.2,1.2,22.2,4.2,32.5,8.8"/>
		<path class="st7" d="M280.8,1783.4c-27.9,4.4-48.9,11.8-73.2,26.3c-5.5,3.3-11.4,7.4-12.4,13.8"/>
		<path class="st7" d="M236,1795.4c-12.9-2.5-22.8-2.5-35.8-1.1"/>
		<path class="st7" d="M236,1795.4c6.4,9.2,13.2,22.5,12.7,33.8"/>
		<path class="st7" d="M273.3,1784.4c0.7,5,4.8,8.8,7,13.4c4,8.2,1.3,18.1-2.5,26.3"/>
		<path class="st7" d="M272.4,1784.8c0.2-3.9-4.2-5.2-7.6-7.1c-3.4-1.9-7.4-2.7-11.3-3.1c-8.2-0.9-16.6-1.1-24.9-0.5"/>
	</g>
	<g id="tomato_2_">
		
			<ellipse transform="matrix(-0.1704 -0.9854 0.9854 -0.1704 -1451.0151 2308.6116)" class="st8" cx="246.3" cy="1765.1" rx="31.5" ry="81.5"/>
		
			<ellipse transform="matrix(-0.1704 -0.9854 0.9854 -0.1704 -1444.0096 2300.3052)" class="st9" cx="246.3" cy="1758" rx="31.5" ry="81.5"/>
		<path class="st8" d="M208.7,1762.9c0,0-22.3-8.2,4.5-18.6c0,0,11.7-6.9,23.7,5.8c0,0,8.2-18.2,26.8-12.4c0,0,26.8,0.3,28.2,8.2
			c0,0,2.1,9.6-9.6,12.1c0,0,14.8,14.8-10.3,18.2c0,0-24.4,6.5-30.5-8.6c0,0-0.3,17.2-30.2,13.4
			C211.1,1781.1,175.7,1774.5,208.7,1762.9z"/>
		
			<ellipse transform="matrix(8.182696e-02 -0.9966 0.9966 8.182696e-02 -1444.3036 1988.6208)" class="st8" cx="357.1" cy="1778.2" rx="33" ry="81.5"/>
		
			<ellipse transform="matrix(8.182696e-02 -0.9966 0.9966 8.182696e-02 -1438.2648 1977.7563)" class="st9" cx="354.3" cy="1769.5" rx="33" ry="81.5"/>
		<path class="st8" d="M391.7,1781.6c0,0,23.6-2.9-0.1-19.1c0,0-9.8-9.4-24.4,0.2c0,0-3.8-19.6-23.2-18.2c0,0-26.2-5.8-29.3,1.5
			c0,0-4.2,8.9,6.6,13.9c0,0-17.8,11,5.8,20.1c0,0,22.2,12,31.8-1.3c0,0-3.6,16.8,26.3,20C385.2,1798.7,421.1,1800.5,391.7,1781.6z"
			/>
	</g>
	<g id="burger_2_">
		<g>
			<path class="st10" d="M175.7,1687.2c0,0-0.9,0.5-2.1,1.3c-3.7,2.6-9.6,8.4,0.7,13.1c0,0-24.7,6.1-11.7,18.4
				c0,0-13.6,22.2,4.7,22.2c0,0-3.7,20.6,16.8,14.5c0,0,6.2,11.6,16.7,7.6c0,0-7.6,12.3,88.6,5.4c0,0,80.3,8.4,138.3-3.1
				c0,0,9.9,11.5,21.4-2.3c0,0,21.4,3.1,22.9-9.2c0,0,17.6-6.9,7.6-22.2c0,0,11.5-6.1-1.5-13.7c0,0,0.7-22.2-18.4-21.4
				c0,0-174.4-27.3-285.1-10.2"/>
			<path class="st4" d="M216.8,1797.2c0,0-9.2-68-14.5-78.7c0,0-35.6-22.9-26.6-31.4c0,0,70.1-58.1,240.6-17.6
				c0,0,41.3,6.1,48.5,30.5c0,0-97.4,26.9-136.4,26.1c0,0-25.2,7.6-30.5,14.4C297.8,1740.6,264.2,1785,216.8,1797.2z"/>
			<ellipse class="st11" cx="218.6" cy="1733.1" rx="7.8" ry="8.9"/>
			<ellipse class="st12" cx="306.1" cy="1752.5" rx="7.8" ry="7.5"/>
			<ellipse class="st12" cx="339.3" cy="1757.8" rx="7.8" ry="5.6"/>
			<path class="st12" d="M369.7,1752.2c0,0,11,9.7,19.4-2.3c0,0,34.1,7.8,27.8-12.6"/>
			<path class="st11" d="M218.6,1710.5c0,0-12.1-8.2-11.5-19.1c0,0,4.5-13.1-6.4-10.7c0,0-13.3,5.7-2.7,19
				C198.2,1699.8,204.7,1709.3,218.6,1710.5z"/>
			<path class="st11" d="M350.1,1664.3c0,0,46.6-2.3,84.6,19.6c0,0-0.2,5.1-5.3,4.7c0,0-28.4-19-79.3-17.6
				C350.1,1671,340.5,1667.5,350.1,1664.3z"/>
		</g>
	</g>
	<g id="top_2_">
		<g>
			<path class="st3" d="M431.7,1605.4c5.5,5,15.8,15.2,19.7,21.5c11.8,19.2,17.3,33.5,13.1,55.6c-3,16.1-41.6,18-45.3,18.2
				c-61.2,1.5-81.5,4.3-146.3,3.5c-16.4-0.2-76.8-3.4-85.1-8.4c-8.3-5.1-21.8-9.1-24.5-18.5c-5-17.3,5.3-35.4,17.5-48.6
				c37-39.9,89-53.2,143.4-55.7c11.5-0.5,26.7,0.1,38.1,1.9c18,2.8,34.4,9.6,50.6,18.1C419.7,1596.4,426,1600.3,431.7,1605.4z"/>
			<path class="st11" d="M221.2,1628.7c0,3.4-3.1,6.2-7,6.2c-3.8,0-18.9-2.8-18.9-6.2s15.1-6.2,18.9-6.2S221.2,1625.3,221.2,1628.7z
				"/>
			<path class="st11" d="M261.7,1624.6c-0.9-3.3,1.5-6.8,5.2-7.7c3.8-0.9,19-1.9,19.8,1.4c0.9,3.3-13.1,9.7-16.8,10.7
				C266.2,1629.8,262.5,1627.9,261.7,1624.6z"/>
			<path class="st11" d="M249,1597.7c-0.8-3.3,1.5-6.8,5.2-7.7c3.8-0.9,19-1.9,19.8,1.4c0.8,3.3-13.1,9.7-16.8,10.7
				C253.6,1603,249.8,1601,249,1597.7z"/>
			<path class="st11" d="M320.6,1614.4c-2.2,2.6-6.4,2.8-9.3,0.3c-2.9-2.5-12.8-14.2-10.6-16.9c2.2-2.6,15.5,4.8,18.5,7.3
				C322.1,1607.6,322.8,1611.8,320.6,1614.4z"/>
			<path class="st11" d="M355.3,1598.8c-2.7,2.1-6.8,1.3-9.2-1.7c-2.3-3-9.4-16.6-6.8-18.7c2.7-2.1,14.1,8,16.5,11.1
				C358.3,1592.5,358,1596.7,355.3,1598.8z"/>
			<path class="st11" d="M366,1631.8c-1.3,3.2-5.2,4.6-8.8,3.2c-3.6-1.4-16.5-9.6-15.3-12.8c1.3-3.2,16.3-0.2,19.8,1.3
				C365.4,1624.9,367.3,1628.6,366,1631.8z"/>
			<path class="st11" d="M403.2,1593c2.1,2.7,1.2,6.8-1.9,9.2c-3.1,2.3-16.8,9-18.9,6.3c-2.1-2.7,8.4-14,11.5-16.3
				C397,1589.9,401.2,1590.2,403.2,1593z"/>
			<path class="st11" d="M404.2,1626.7c1-3.3,4.8-5.1,8.4-4c3.7,1.1,17.4,8,16.3,11.3c-1,3.3-16.2,1.7-19.9,0.6
				C405.4,1633.6,403.2,1630,404.2,1626.7z"/>
		</g>
		<g id="drops_2_">
		</g>
	</g>
	<g id="bottom_3_">
		<g>
			<path class="st3" d="M165.3,2456.2c0,0,2.8-4.2,14.7-6.5c56.1-10.9,149.3-33.2,269.7,8c5.8,2,16.2,19.4,14.8,22.6
				c0,0,7.4,53.2-71.3,60.6c0,0-62,6.8-155.1-3.1C145,2528,156,2464.3,165.3,2456.2z"/>
			<path class="st4" d="M169.2,2453.8c0,0-14.8,21.4,66.1,40.8c0,0,59.8,18.6,183.9-0.9c0,0,49.6-5.4,30.5-36"/>
		</g>
	</g>
	<g id="lettuce_3_">
		<g>
			<path class="st5" d="M298.7,2463.7c1.5,5.8,7.6,9.8,13.5,9.2s10.9-6.1,11.1-12.1c5.2,4.8,11.3,9.8,18.5,9.8
				c7.2-0.1,13.9-8.6,9.8-14.4c5.7,3.8,12.1,6.6,18.7,8c5.5,1.3,11.8,1.5,16.3-1.9c4.4-3.3,5.8-9.4,5.4-14.9
				c-0.7-9.2-5.8-17.8-12.5-24.1c-6.7-6.4-14.9-11-23.3-15c-36.8-17.9-77.7-27.3-118.6-27.4c-5.8,0-11.7,0.2-17.2,1.9
				c-5.1,1.6-9.7,4.5-14.2,7.4c-6.8,4.4-18.9,6.5-25.5,11.2c-8.7,6.2-12.5,15.9-14.3,26.4c-1.2,6.8,3.6,15.6,10.4,14.5
				c-5.2,4.6-8.4,11.6-7.3,18.4c1.1,6.8,7.4,12.7,14.3,12.3c6.9-0.4,12.5-8.4,9.7-14.7c0.1,2.5,0.1,5.1,0.1,7.6
				c5.2,3.5,11.2,5.8,17.4,6.6c3.7,0.5,7.6,0.5,10.8-1.3c3.2-1.8,5.4-5.8,4.2-9.3c2.8,9.8,16.9,14.1,24.7,7.6
				c5.4,7.9,19.2,7.5,24.1-0.7c1.3,5.4,8,8.2,13.3,6.7C293.2,2473.9,297,2469,298.7,2463.7z"/>
			<path class="st6" d="M283.1,2414.7c-1.1-5.9,2.1-11.6,5.2-16.7c1.1-1.7,2.2-3.6,3.6-5c1.4-1.4,3.1-2.5,4.8-3.4
				c23.4-13.3,52.7-13.9,78.3-5.8s48.2,24.1,68,42.4c6.1,5.6,12.2,11.9,14.7,19.8c1.5,5,1.6,10.2,1.3,15.4c-0.2,3.3-0.9,7.3-4,8.7
				c-2.2,1-4.8,0.1-7.2-0.3c-2.4-0.5-5.4-0.3-6.6,1.9c-0.5,0.9-0.5,1.9-0.9,2.9c-1.1,3.7-5.6,5.5-9.4,4.7c-3.8-0.8-6.8-3.5-9.3-6.4
				c-2.3,5-7.1,8.6-12.5,9.5c-5.4,0.9-11.1-1.1-14.9-5c-0.7-0.8-1.7-1.7-2.7-1.5c-0.6,0.1-1,0.6-1.5,1c-2.9,2.7-7.7,2.8-11.3,0.9
				c-3.6-1.9-6-5.4-7.5-9.1c-1.5,3.5-3.8,7.6-7.6,7.6c-1.4,0-2.7-0.6-4-1.3c-8.8-5.4-11-17-12.3-27.3c-22.2,2.7-45.5-6.7-59.6-24
				C285.7,2420.9,283.7,2418,283.1,2414.7z"/>
		</g>
		<path class="st7" d="M301,2413.8c15.9-0.6,31.8-1.1,47.6-1.5c9.9-0.2,20.1-0.3,29.3,3.1c9.4,3.5,17.2,10.3,24.8,16.8
			c7.9,6.9,16.1,14.2,19.8,24.1"/>
		<path class="st7" d="M365.3,2413.6c2.5,13.5,11.9,25.4,24.2,31.3"/>
		<path class="st7" d="M367.5,2412.6c7.7-0.4,22.2-1.5,29.9-0.2c7.6,1.3,15.1,4.6,20.2,10.5"/>
		<path class="st7" d="M318.6,2413.6c2.3,4.4,4.2,7.8,7.8,11.1s8.9,5.3,13.6,3.8"/>
		<path class="st7" d="M414.1,2442.4c11.2,1.2,22.2,4.2,32.5,8.8"/>
		<path class="st7" d="M278.2,2412.5c-27.9,4.4-48.9,11.8-73.2,26.3c-5.5,3.3-11.4,7.4-12.4,13.8"/>
		<path class="st7" d="M233.3,2424.5c-12.9-2.5-22.8-2.5-35.8-1.1"/>
		<path class="st7" d="M233.3,2424.5c6.4,9.2,13.2,22.5,12.7,33.8"/>
		<path class="st7" d="M270.6,2413.6c0.7,5,4.8,8.8,7,13.4c4,8.2,1.3,18.1-2.5,26.3"/>
		<path class="st7" d="M269.7,2414c0.2-3.9-4.2-5.2-7.6-7.1c-3.3-2-7.4-2.7-11.3-3.1c-8.2-0.9-16.6-1.1-24.9-0.5"/>
	</g>
	<g id="tomato_3_">
		
			<ellipse transform="matrix(-0.1704 -0.9854 0.9854 -0.1704 -2047.0121 3010.1616)" class="st8" cx="243.6" cy="2366.8" rx="31.5" ry="81.5"/>
		
			<ellipse transform="matrix(-0.1704 -0.9854 0.9854 -0.1704 -2039.9548 3001.7666)" class="st9" cx="243.6" cy="2359.6" rx="31.5" ry="81.5"/>
		<path class="st8" d="M206,2364.5c0,0-22.3-8.2,4.5-18.6c0,0,11.7-6.9,23.7,5.8c0,0,8.2-18.2,26.8-12.4c0,0,26.8,0.3,28.2,8.2
			c0,0,2.1,9.6-9.6,12.1c0,0,14.8,14.8-10.3,18.2c0,0-24.4,6.5-30.5-8.6c0,0-0.3,17.2-30.2,13.4
			C208.4,2382.7,173.1,2376.2,206,2364.5z"/>
		
			<ellipse transform="matrix(8.182696e-02 -0.9966 0.9966 8.182696e-02 -2046.3473 2538.3252)" class="st8" cx="354.5" cy="2379.8" rx="33" ry="81.5"/>
		
			<ellipse transform="matrix(8.182696e-02 -0.9966 0.9966 8.182696e-02 -2040.3801 2527.5164)" class="st9" cx="351.6" cy="2371.1" rx="33" ry="81.5"/>
		<path class="st8" d="M389,2383.2c0,0,23.6-2.9-0.1-19.1c0,0-9.8-9.4-24.4,0.2c0,0-3.8-19.6-23.2-18.2c0,0-26.2-5.8-29.3,1.5
			c0,0-4.2,8.9,6.6,13.9c0,0-17.8,11,5.8,20.1c0,0,22.2,12,31.8-1.3c0,0-3.6,16.8,26.3,20C382.5,2400.3,418.5,2402.1,389,2383.2z"/>
	</g>
	<g id="burger_3_">
		<g>
			<path class="st10" d="M173,2270c0,0-0.9,0.5-2.1,1.3c-3.7,2.6-9.6,8.4,0.7,13.1c0,0-24.7,6.1-11.7,18.4c0,0-13.6,22.2,4.7,22.2
				c0,0-3.7,20.6,16.8,14.5c0,0,6.2,11.6,16.7,7.6c0,0-7.6,12.3,88.6,5.4c0,0,80.3,8.4,138.3-3.1c0,0,9.9,11.5,21.4-2.3
				c0,0,21.4,3.1,22.9-9.2c0,0,17.6-6.9,7.6-22.2c0,0,11.5-6.1-1.5-13.7c0,0,0.7-22.2-18.4-21.4c0,0-174.4-27.3-285.1-10.2"/>
			<path class="st4" d="M214.1,2380.1c0,0-9.2-68-14.5-78.7c0,0-35.6-22.9-26.6-31.4c0,0,70.1-58.1,240.6-17.6
				c0,0,41.3,6.1,48.5,30.5c0,0-97.4,26.9-136.4,26.1c0,0-25.2,7.6-30.5,14.4C295.1,2323.5,261.5,2367.8,214.1,2380.1z"/>
			<ellipse class="st11" cx="215.9" cy="2315.9" rx="7.8" ry="8.9"/>
			<ellipse class="st12" cx="303.4" cy="2335.3" rx="7.8" ry="7.5"/>
			<ellipse class="st12" cx="336.6" cy="2340.7" rx="7.8" ry="5.6"/>
			<path class="st12" d="M367,2335.1c0,0,11,9.7,19.4-2.3c0,0,34.1,7.8,27.8-12.6"/>
			<path class="st11" d="M215.9,2293.4c0,0-12.1-8.2-11.5-19.1c0,0,4.5-13.1-6.4-10.7c0,0-13.3,5.7-2.7,19
				C195.5,2282.7,202,2292.2,215.9,2293.4z"/>
			<path class="st11" d="M347.4,2247.1c0,0,46.6-2.3,84.6,19.6c0,0-0.2,5.1-5.3,4.7c0,0-28.4-19-79.3-17.6
				C347.4,2253.9,337.8,2250.4,347.4,2247.1z"/>
		</g>
	</g>
	<g id="top_3_">
		<g>
			<path class="st3" d="M429,2170.1c5.5,5,15.8,15.2,19.7,21.5c11.8,19.2,17.3,33.5,13.1,55.6c-3,16.1-41.6,18-45.3,18.2
				c-61.2,1.5-81.5,4.3-146.3,3.5c-16.4-0.2-76.8-3.4-85.1-8.4c-8.3-5.1-21.8-9.1-24.5-18.5c-5-17.3,5.3-35.4,17.5-48.6
				c37-39.9,89-53.2,143.4-55.7c11.5-0.5,26.7,0.1,38.1,1.9c18,2.8,34.4,9.6,50.6,18.1C417,2161.1,423.3,2165,429,2170.1z"/>
			<path class="st11" d="M218.5,2193.5c0,3.4-3.1,6.2-7,6.2c-3.8,0-18.9-2.8-18.9-6.2c0-3.4,15.1-6.2,18.9-6.2
				S218.5,2190.1,218.5,2193.5z"/>
			<path class="st11" d="M259,2189.3c-0.9-3.3,1.5-6.8,5.2-7.7c3.8-0.9,19-1.9,19.8,1.4c0.9,3.3-13.1,9.7-16.8,10.7
				C263.6,2194.6,259.8,2192.7,259,2189.3z"/>
			<path class="st11" d="M246.3,2162.4c-0.8-3.3,1.5-6.8,5.2-7.7c3.7-0.9,19-1.9,19.8,1.4c0.8,3.3-13.1,9.7-16.8,10.7
				S247.1,2165.8,246.3,2162.4z"/>
			<path class="st11" d="M317.9,2179.2c-2.2,2.6-6.4,2.8-9.3,0.3c-2.9-2.5-12.8-14.2-10.6-16.9c2.2-2.6,15.5,4.8,18.5,7.3
				C319.5,2172.4,320.1,2176.6,317.9,2179.2z"/>
			<path class="st11" d="M352.6,2163.6c-2.7,2.1-6.8,1.3-9.2-1.7c-2.3-3-9.4-16.6-6.8-18.7c2.7-2.1,14.1,8,16.5,11.1
				C355.6,2157.3,355.3,2161.4,352.6,2163.6z"/>
			<path class="st11" d="M363.3,2196.6c-1.3,3.2-5.2,4.6-8.8,3.2s-16.5-9.6-15.3-12.8c1.3-3.2,16.3-0.2,19.8,1.3
				C362.7,2189.7,364.6,2193.4,363.3,2196.6z"/>
			<path class="st11" d="M400.6,2157.7c2.1,2.7,1.2,6.8-1.9,9.2c-3.1,2.3-16.8,9-18.9,6.3c-2.1-2.7,8.4-14,11.5-16.3
				S398.5,2155,400.6,2157.7z"/>
			<path class="st11" d="M401.5,2191.4c1-3.3,4.8-5.1,8.4-4c3.7,1.1,17.4,8,16.3,11.3c-1,3.3-16.2,1.7-19.9,0.6
				C402.8,2198.3,400.6,2194.7,401.5,2191.4z"/>
		</g>
		<g id="drops_3_">
		</g>
	</g>
	<g id="bottom_4_">
		<g>
			<path class="st3" d="M168,3092.7c0,0,2.8-4.2,14.7-6.5c56.1-10.9,149.3-33.2,269.7,8c5.8,2,16.2,19.4,14.8,22.6
				c0,0,7.4,53.2-71.3,60.6c0,0-62,6.8-155.1-3.1S158.6,3100.8,168,3092.7z"/>
			<path class="st4" d="M171.9,3090.3c0,0-14.8,21.4,66.1,40.8c0,0,59.8,18.6,183.9-0.9c0,0,49.6-5.4,30.5-36"/>
		</g>
	</g>
	<g id="lettuce_4_">
		<g>
			<path class="st5" d="M301.4,3096.9c1.5,5.8,7.6,9.8,13.5,9.2c5.9-0.7,10.9-6.1,11.1-12.1c5.2,4.8,11.3,9.8,18.5,9.8
				c7.2-0.1,13.9-8.6,9.8-14.4c5.7,3.8,12.1,6.6,18.7,8c5.5,1.3,11.8,1.5,16.3-1.9c4.4-3.3,5.8-9.4,5.4-14.9
				c-0.7-9.2-5.8-17.8-12.5-24.1c-6.7-6.4-14.9-11-23.3-15c-36.8-17.9-77.7-27.3-118.6-27.4c-5.8,0-11.7,0.2-17.2,1.9
				c-5.1,1.6-9.7,4.5-14.2,7.4c-6.8,4.4-18.9,6.5-25.5,11.2c-8.7,6.2-12.5,15.9-14.3,26.4c-1.2,6.8,3.6,15.6,10.4,14.5
				c-5.2,4.6-8.4,11.6-7.3,18.4c1.1,6.8,7.4,12.7,14.3,12.3c6.9-0.4,12.5-8.4,9.7-14.7c0.1,2.5,0.1,5.1,0.1,7.6
				c5.2,3.5,11.2,5.8,17.4,6.6c3.7,0.5,7.6,0.5,10.8-1.3c3.2-1.8,5.4-5.8,4.2-9.3c2.8,9.8,16.9,14.1,24.7,7.6
				c5.4,7.9,19.2,7.5,24.1-0.7c1.3,5.4,8,8.2,13.3,6.7C295.9,3107,299.7,3102.1,301.4,3096.9z"/>
			<path class="st6" d="M285.7,3047.8c-1.1-5.9,2.1-11.6,5.2-16.7c1.1-1.7,2.2-3.6,3.6-5c1.4-1.4,3.1-2.5,4.8-3.4
				c23.4-13.3,52.7-13.9,78.3-5.8c25.7,8.1,48.2,24.1,68,42.4c6.1,5.6,12.2,11.9,14.7,19.8c1.5,5,1.5,10.2,1.3,15.4
				c-0.2,3.3-0.9,7.3-4,8.7c-2.2,1-4.8,0.1-7.2-0.3c-2.4-0.5-5.4-0.3-6.6,1.9c-0.5,0.9-0.5,1.9-0.9,2.9c-1.1,3.7-5.6,5.5-9.4,4.7
				c-3.8-0.8-6.8-3.5-9.3-6.4c-2.3,5-7.1,8.6-12.5,9.5c-5.4,0.9-11.1-1.1-14.9-5c-0.7-0.8-1.7-1.7-2.7-1.5c-0.6,0.1-1,0.6-1.5,1
				c-2.9,2.7-7.7,2.8-11.3,0.9c-3.6-1.9-6-5.4-7.5-9.1c-1.5,3.5-3.8,7.6-7.6,7.6c-1.4,0-2.7-0.6-4-1.3c-8.8-5.4-11-17-12.3-27.3
				c-22.2,2.7-45.5-6.7-59.6-24C288.4,3054.1,286.3,3051.2,285.7,3047.8z"/>
		</g>
		<path class="st7" d="M303.7,3040.9c15.9-0.6,31.8-1.1,47.6-1.5c9.9-0.2,20.1-0.3,29.3,3.1c9.4,3.5,17.2,10.3,24.8,16.8
			c7.9,6.9,16.1,14.2,19.8,24.1"/>
		<path class="st7" d="M367.9,3040.8c2.5,13.5,11.9,25.4,24.2,31.3"/>
		<path class="st7" d="M370.2,3039.7c7.7-0.4,22.2-1.5,29.9-0.2c7.6,1.3,15.1,4.6,20.2,10.5"/>
		<path class="st7" d="M321.3,3040.8c2.3,4.4,4.2,7.8,7.8,11.1c3.6,3.3,8.9,5.3,13.6,3.8"/>
		<path class="st7" d="M416.8,3069.5c11.2,1.2,22.2,4.2,32.5,8.8"/>
		<path class="st7" d="M280.8,3039.6c-27.9,4.4-48.9,11.8-73.2,26.3c-5.5,3.3-11.4,7.4-12.4,13.8"/>
		<path class="st7" d="M236,3051.6c-12.9-2.5-22.8-2.5-35.8-1.1"/>
		<path class="st7" d="M236,3051.6c6.4,9.2,13.2,22.5,12.7,33.8"/>
		<path class="st7" d="M273.3,3040.7c0.7,5,4.8,8.8,7,13.4c4,8.2,1.3,18.1-2.5,26.3"/>
		<path class="st7" d="M272.4,3041.1c0.2-3.9-4.2-5.2-7.6-7.1c-3.3-2-7.4-2.7-11.3-3.1c-8.2-0.9-16.6-1.1-24.9-0.5"/>
	</g>
	<g id="tomato_4_">
		
			<ellipse transform="matrix(-0.1704 -0.9854 0.9854 -0.1704 -2654.5239 3738.0947)" class="st8" cx="246.3" cy="2986.5" rx="31.5" ry="81.5"/>
		
			<ellipse transform="matrix(-0.1704 -0.9854 0.9854 -0.1704 -2640.2549 3721.1638)" class="st9" cx="246.3" cy="2972" rx="31.5" ry="81.5"/>
		<path class="st8" d="M208.7,2984.2c0,0-22.3-8.2,4.5-18.6c0,0,11.7-6.9,23.7,5.8c0,0,8.2-18.2,26.8-12.4c0,0,26.8,0.3,28.2,8.2
			c0,0,2.1,9.6-9.6,12.1c0,0,14.8,14.8-10.3,18.2c0,0-24.4,6.5-30.5-8.6c0,0-0.3,17.2-30.2,13.4
			C211.1,3002.5,175.7,2996,208.7,2984.2z"/>
		
			<ellipse transform="matrix(8.182696e-02 -0.9966 0.9966 8.182696e-02 -2661.5789 3110.0544)" class="st8" cx="357.1" cy="2999.6" rx="33" ry="81.5"/>
		
			<ellipse transform="matrix(8.182696e-02 -0.9966 0.9966 8.182696e-02 -2655.6113 3099.2456)" class="st9" cx="354.3" cy="2990.9" rx="33" ry="81.5"/>
		<path class="st8" d="M391.7,3002.9c0,0,23.6-2.9-0.1-19.1c0,0-9.8-9.4-24.4,0.2c0,0-3.8-19.6-23.2-18.2c0,0-26.2-5.8-29.3,1.5
			c0,0-4.2,8.9,6.6,13.9c0,0-17.8,11,5.8,20.1c0,0,22.2,12,31.8-1.3c0,0-3.6,16.8,26.3,20C385.2,3020.1,421.1,3021.9,391.7,3002.9z"
			/>
	</g>
	<g id="burger_4_">
		<g>
			<path class="st10" d="M175.7,2879.1c0,0-0.9,0.5-2.1,1.3c-3.7,2.6-9.6,8.4,0.7,13.1c0,0-24.7,6.1-11.7,18.4
				c0,0-13.6,22.2,4.7,22.2c0,0-3.7,20.6,16.8,14.5c0,0,6.2,11.6,16.7,7.6c0,0-7.6,12.3,88.6,5.4c0,0,80.3,8.4,138.3-3.1
				c0,0,9.9,11.5,21.4-2.3c0,0,21.4,3.1,22.9-9.2c0,0,17.6-6.9,7.6-22.2c0,0,11.5-6.1-1.5-13.7c0,0,0.7-22.2-18.4-21.4
				c0,0-174.4-27.3-285.1-10.2"/>
			<path class="st4" d="M216.8,2989.1c0,0-9.2-68-14.5-78.7c0,0-35.6-22.9-26.6-31.4c0,0,70.1-58.1,240.6-17.6
				c0,0,41.3,6.1,48.5,30.5c0,0-97.4,26.9-136.4,26.1c0,0-25.2,7.6-30.5,14.4C297.8,2932.5,264.2,2976.9,216.8,2989.1z"/>
			<ellipse class="st11" cx="218.6" cy="2925" rx="7.8" ry="8.9"/>
			<ellipse class="st12" cx="306.1" cy="2944.4" rx="7.8" ry="7.5"/>
			<ellipse class="st12" cx="339.3" cy="2949.7" rx="7.8" ry="5.6"/>
			<path class="st12" d="M369.7,2944.1c0,0,11,9.7,19.4-2.3c0,0,34.1,7.8,27.8-12.6"/>
			<path class="st11" d="M218.6,2902.4c0,0-12.1-8.2-11.5-19.1c0,0,4.5-13.1-6.4-10.7c0,0-13.3,5.7-2.7,19
				C198.2,2891.7,204.7,2901.2,218.6,2902.4z"/>
			<path class="st11" d="M350.1,2856.1c0,0,46.6-2.3,84.6,19.6c0,0-0.2,5.1-5.3,4.7c0,0-28.4-19-79.3-17.6
				C350.1,2862.8,340.5,2859.4,350.1,2856.1z"/>
		</g>
	</g>
	<g id="top_4_">
		<g>
			<path class="st3" d="M431.7,2755.1c5.5,5,15.8,15.2,19.7,21.5c11.8,19.2,17.3,33.5,13.1,55.6c-3,16.1-41.6,18-45.3,18.2
				c-61.2,1.5-81.5,4.3-146.3,3.5c-16.4-0.2-76.8-3.4-85.1-8.4c-8.3-5.1-21.8-9.1-24.5-18.5c-5-17.3,5.3-35.4,17.5-48.6
				c37-39.9,89-53.2,143.4-55.7c11.5-0.5,26.7,0.1,38.1,1.9c18,2.8,34.4,9.6,50.6,18.1C419.7,2746.2,426,2750.1,431.7,2755.1z"/>
			<path class="st11" d="M221.2,2778.6c0,3.4-3.1,6.2-7,6.2c-3.8,0-18.9-2.8-18.9-6.2s15.1-6.2,18.9-6.2S221.2,2775.2,221.2,2778.6z
				"/>
			<path class="st11" d="M261.7,2774.3c-0.9-3.3,1.5-6.8,5.2-7.7c3.8-0.9,19-1.9,19.8,1.4c0.8,3.3-13.1,9.7-16.8,10.7
				C266.2,2779.6,262.5,2777.7,261.7,2774.3z"/>
			<path class="st11" d="M249,2747.4c-0.8-3.3,1.5-6.8,5.2-7.7c3.8-0.9,19-1.9,19.8,1.4c0.8,3.3-13.1,9.7-16.8,10.7
				C253.6,2752.7,249.8,2750.8,249,2747.4z"/>
			<path class="st11" d="M320.6,2764.2c-2.2,2.6-6.4,2.8-9.3,0.3c-2.9-2.5-12.8-14.2-10.6-16.9c2.2-2.6,15.5,4.8,18.5,7.3
				C322.1,2757.5,322.8,2761.6,320.6,2764.2z"/>
			<path class="st11" d="M355.3,2748.6c-2.7,2.1-6.8,1.3-9.2-1.7c-2.3-3-9.4-16.6-6.8-18.7c2.7-2.1,14.1,8,16.5,11.1
				C358.3,2742.3,358,2746.5,355.3,2748.6z"/>
			<path class="st11" d="M366,2781.6c-1.3,3.2-5.2,4.6-8.8,3.2c-3.6-1.4-16.5-9.6-15.3-12.8c1.3-3.2,16.3-0.2,19.8,1.3
				C365.3,2774.7,367.3,2778.4,366,2781.6z"/>
			<path class="st11" d="M403.2,2742.8c2.1,2.7,1.2,6.8-1.9,9.2c-3.1,2.3-16.8,9-18.9,6.3s8.4-14,11.5-16.3S401.2,2740,403.2,2742.8
				z"/>
			<path class="st11" d="M404.2,2776.4c1-3.3,4.8-5.1,8.4-4c3.7,1.1,17.4,8,16.3,11.3c-1,3.3-16.2,1.7-19.9,0.6
				C405.5,2783.3,403.2,2779.7,404.2,2776.4z"/>
		</g>
	</g>
	<g id="bottom_5_">
		<g>
			<path class="st3" d="M168,3728.2c0,0,2.8-4.2,14.7-6.5c56.1-10.9,149.3-33.2,269.7,8c5.8,2,16.2,19.4,14.8,22.6
				c0,0,7.4,53.2-71.3,60.6c0,0-62,6.8-155.1-3.1C147.7,3800.1,158.6,3736.4,168,3728.2z"/>
			<path class="st4" d="M171.9,3725.8c0,0-14.8,21.4,66.1,40.8c0,0,59.8,18.6,183.9-0.9c0,0,49.6-5.4,30.5-36"/>
		</g>
	</g>
	<g id="lettuce_5_">
		<g>
			<path class="st5" d="M301.4,3719c1.5,5.8,7.6,9.8,13.5,9.2c5.9-0.7,10.9-6.1,11.1-12.1c5.2,4.8,11.3,9.8,18.5,9.8
				c7.2-0.1,13.9-8.6,9.8-14.4c5.7,3.8,12.1,6.6,18.7,8c5.5,1.3,11.8,1.5,16.3-1.9c4.4-3.3,5.8-9.4,5.4-14.9
				c-0.7-9.2-5.8-17.8-12.5-24.1c-6.7-6.4-14.9-11-23.3-15c-36.8-17.9-77.7-27.3-118.6-27.4c-5.8,0-11.7,0.2-17.2,1.9
				c-5.1,1.6-9.7,4.5-14.2,7.4c-6.8,4.4-18.9,6.5-25.5,11.2c-8.7,6.2-12.5,15.9-14.3,26.4c-1.2,6.8,3.6,15.6,10.4,14.5
				c-5.2,4.6-8.4,11.6-7.3,18.4c1.1,6.8,7.4,12.7,14.3,12.3c6.9-0.4,12.5-8.4,9.7-14.7c0.1,2.5,0.1,5.1,0.1,7.6
				c5.2,3.5,11.2,5.8,17.4,6.6c3.7,0.5,7.6,0.5,10.8-1.3c3.2-1.8,5.4-5.8,4.2-9.3c2.8,9.8,16.9,14.1,24.7,7.6
				c5.4,7.9,19.2,7.5,24.1-0.7c1.3,5.4,8,8.2,13.3,6.7C295.9,3729.1,299.7,3724.2,301.4,3719z"/>
			<path class="st6" d="M285.7,3670c-1.1-5.9,2.1-11.6,5.2-16.7c1.1-1.7,2.2-3.6,3.6-5c1.4-1.4,3.1-2.5,4.8-3.4
				c23.4-13.3,52.7-13.9,78.3-5.8c25.7,8.1,48.2,24.1,68,42.4c6.1,5.6,12.2,11.9,14.7,19.8c1.5,5,1.5,10.2,1.3,15.4
				c-0.2,3.3-0.9,7.3-4,8.7c-2.2,1-4.8,0.1-7.2-0.3s-5.4-0.3-6.6,1.9c-0.5,0.9-0.5,1.9-0.9,2.9c-1.1,3.7-5.6,5.5-9.4,4.7
				c-3.8-0.8-6.8-3.5-9.3-6.4c-2.3,5-7.1,8.6-12.5,9.5c-5.4,0.9-11.1-1.1-14.9-5c-0.7-0.8-1.7-1.7-2.7-1.5c-0.6,0.1-1,0.6-1.5,1
				c-2.9,2.7-7.7,2.8-11.3,0.9c-3.6-1.9-6-5.4-7.5-9.1c-1.5,3.5-3.8,7.6-7.6,7.6c-1.4,0-2.7-0.6-4-1.3c-8.8-5.4-11-17-12.3-27.3
				c-22.2,2.7-45.5-6.7-59.6-24C288.4,3676.2,286.3,3673.3,285.7,3670z"/>
		</g>
		<path class="st7" d="M303.7,3663c15.9-0.6,31.8-1.1,47.6-1.5c9.9-0.2,20.1-0.3,29.3,3.1c9.4,3.5,17.2,10.3,24.8,16.8
			c7.9,6.9,16.1,14.2,19.8,24.1"/>
		<path class="st7" d="M367.9,3662.9c2.5,13.5,11.9,25.4,24.2,31.3"/>
		<path class="st7" d="M370.2,3661.9c7.7-0.4,22.2-1.5,29.9-0.2c7.6,1.3,15.1,4.6,20.2,10.5"/>
		<path class="st7" d="M321.3,3662.9c2.3,4.4,4.2,7.8,7.8,11.1c3.6,3.3,8.9,5.3,13.6,3.8"/>
		<path class="st7" d="M416.8,3691.7c11.2,1.2,22.2,4.2,32.5,8.8"/>
		<path class="st7" d="M280.8,3661.7c-27.9,4.4-48.9,11.8-73.2,26.3c-5.5,3.3-11.4,7.4-12.4,13.8"/>
		<path class="st7" d="M236,3673.7c-12.9-2.5-22.8-2.5-35.8-1.1"/>
		<path class="st7" d="M236,3673.7c6.4,9.2,13.2,22.5,12.7,33.8"/>
		<path class="st7" d="M273.3,3662.8c0.7,5,4.8,8.8,7,13.4c4,8.2,1.3,18.1-2.5,26.3"/>
		<path class="st7" d="M272.4,3663.2c0.2-3.9-4.2-5.2-7.6-7.1c-3.3-2-7.4-2.7-11.3-3.1c-8.2-0.9-16.6-1.1-24.9-0.5"/>
	</g>
	<g id="tomato_5_">
		
			<ellipse transform="matrix(-0.1704 -0.9854 0.9854 -0.1704 -3254.3533 4450.5625)" class="st8" cx="246.3" cy="3595.2" rx="31.5" ry="81.5"/>
		
			<ellipse transform="matrix(-0.1704 -0.9854 0.9854 -0.1704 -3247.3477 4442.2563)" class="st9" cx="246.3" cy="3588.1" rx="31.5" ry="81.5"/>
		<path class="st8" d="M208.7,3593c0,0-22.3-8.2,4.5-18.6c0,0,11.7-6.9,23.7,5.8c0,0,8.2-18.2,26.8-12.4c0,0,26.8,0.3,28.2,8.2
			c0,0,2.1,9.6-9.6,12.1c0,0,14.8,14.8-10.3,18.2c0,0-24.4,6.5-30.5-8.6c0,0-0.3,17.2-30.2,13.4
			C211.1,3611.2,175.7,3604.7,208.7,3593z"/>
		
			<ellipse transform="matrix(8.182696e-02 -0.9966 0.9966 8.182696e-02 -3268.2783 3668.9807)" class="st8" cx="357.1" cy="3608.3" rx="33" ry="81.5"/>
		
			<ellipse transform="matrix(8.182696e-02 -0.9966 0.9966 8.182696e-02 -3262.2395 3658.1162)" class="st9" cx="354.3" cy="3599.6" rx="33" ry="81.5"/>
		<path class="st8" d="M391.7,3611.7c0,0,23.6-2.9-0.1-19.1c0,0-9.8-9.4-24.4,0.2c0,0-3.8-19.6-23.2-18.2c0,0-26.2-5.8-29.3,1.5
			c0,0-4.2,8.9,6.6,13.9c0,0-17.8,11,5.8,20.1c0,0,22.2,12,31.8-1.3c0,0-3.6,16.8,26.3,20C385.2,3628.8,421.1,3630.6,391.7,3611.7z"
			/>
	</g>
	<g id="burger_5_">
		<g>
			<path class="st10" d="M175.7,3465c0,0-0.9,0.5-2.1,1.3c-3.7,2.6-9.6,8.4,0.7,13.1c0,0-24.7,6.1-11.7,18.4c0,0-13.6,22.2,4.7,22.2
				c0,0-3.7,20.6,16.8,14.5c0,0,6.2,11.6,16.7,7.6c0,0-7.6,12.3,88.6,5.4c0,0,80.3,8.4,138.3-3.1c0,0,9.9,11.5,21.4-2.3
				c0,0,21.4,3.1,22.9-9.2c0,0,17.6-6.9,7.6-22.2c0,0,11.5-6.1-1.5-13.7c0,0,0.7-22.2-18.4-21.4c0,0-174.4-27.3-285.1-10.2"/>
			<path class="st4" d="M216.8,3575c0,0-9.2-68-14.5-78.7c0,0-35.6-22.9-26.6-31.4c0,0,70.1-58.1,240.6-17.6c0,0,41.3,6.1,48.5,30.5
				c0,0-97.4,26.9-136.4,26.1c0,0-25.2,7.6-30.5,14.4C297.8,3518.4,264.2,3562.8,216.8,3575z"/>
			<ellipse class="st11" cx="218.6" cy="3510.8" rx="7.8" ry="8.9"/>
			<ellipse class="st12" cx="306.1" cy="3530.3" rx="7.8" ry="7.5"/>
			<ellipse class="st12" cx="339.3" cy="3535.6" rx="7.8" ry="5.6"/>
			<path class="st12" d="M369.7,3530c0,0,11,9.7,19.4-2.3c0,0,34.1,7.8,27.8-12.6"/>
			<path class="st11" d="M218.6,3488.3c0,0-12.1-8.2-11.5-19.1c0,0,4.5-13.1-6.4-10.7c0,0-13.3,5.7-2.7,19
				C198.2,3477.6,204.7,3487.1,218.6,3488.3z"/>
			<path class="st11" d="M350.1,3442c0,0,46.6-2.3,84.6,19.6c0,0-0.2,5.1-5.3,4.7c0,0-28.4-19-79.3-17.6
				C350.1,3448.8,340.5,3445.3,350.1,3442z"/>
		</g>
	</g>
	<g id="top_5_">
		<g>
			<path class="st3" d="M431.7,3327.7c5.5,5,15.8,15.2,19.7,21.5c11.8,19.2,17.3,33.5,13.1,55.6c-3,16.1-41.6,18-45.3,18.2
				c-61.2,1.5-81.5,4.3-146.3,3.5c-16.4-0.2-76.8-3.4-85.1-8.4c-8.3-5.1-21.8-9.1-24.5-18.5c-5-17.3,5.3-35.4,17.5-48.6
				c37-39.9,89-53.2,143.4-55.7c11.5-0.5,26.7,0.1,38.1,1.9c18,2.8,34.4,9.6,50.6,18.1C419.7,3318.7,426,3322.6,431.7,3327.7z"/>
			<path class="st11" d="M221.2,3351.1c0,3.4-3.1,6.2-7,6.2c-3.8,0-18.9-2.8-18.9-6.2s15.1-6.2,18.9-6.2S221.2,3347.6,221.2,3351.1z
				"/>
			<path class="st11" d="M261.7,3346.9c-0.9-3.3,1.5-6.8,5.2-7.7c3.8-0.9,19-1.9,19.8,1.4c0.8,3.3-13.1,9.7-16.8,10.7
				C266.2,3352.1,262.5,3350.2,261.7,3346.9z"/>
			<path class="st11" d="M249,3320c-0.8-3.3,1.5-6.8,5.2-7.7c3.8-0.9,19-1.9,19.8,1.4c0.8,3.3-13.1,9.7-16.8,10.7
				C253.6,3325.2,249.8,3323.3,249,3320z"/>
			<path class="st11" d="M320.6,3336.7c-2.2,2.6-6.4,2.8-9.3,0.3c-2.9-2.5-12.8-14.2-10.6-16.9c2.2-2.6,15.5,4.8,18.5,7.3
				C322.2,3330,322.8,3334.1,320.6,3336.7z"/>
			<path class="st11" d="M355.3,3321c-2.7,2.1-6.8,1.3-9.2-1.7c-2.3-3-9.4-16.6-6.8-18.7c2.7-2.1,14.1,8,16.5,11.1
				C358.3,3314.8,358,3319,355.3,3321z"/>
			<path class="st11" d="M366,3354.1c-1.3,3.2-5.2,4.6-8.8,3.2c-3.6-1.4-16.5-9.6-15.3-12.8c1.3-3.2,16.3-0.2,19.8,1.3
				C365.3,3347.3,367.3,3350.9,366,3354.1z"/>
			<path class="st11" d="M403.2,3315.3c2.1,2.7,1.2,6.8-1.9,9.2c-3.1,2.3-16.8,9-18.9,6.3c-2.1-2.7,8.4-14,11.5-16.3
				C397,3312.2,401.2,3312.5,403.2,3315.3z"/>
			<path class="st11" d="M404.2,3348.9c1-3.3,4.8-5.1,8.4-4c3.7,1.1,17.4,8,16.3,11.3c-1,3.3-16.2,1.7-19.9,0.6
				C405.5,3355.8,403.2,3352.3,404.2,3348.9z"/>
		</g>
		<g id="drops_4_">
		</g>
	</g>
	<g>
	</g>
	<g>
	</g>
	<g>
	</g>
	<g>
	</g>
	<g>
	</g>
	<g>
	</g>
	<g>
	</g>
	<g>
	</g>
	<g>
	</g>
	<g>
	</g>
	<g>
	</g>
</g>
</svg>
