<?xml version="1.0" encoding="utf-8"?>
<!-- Generator: Adobe Illustrator 18.1.1, SVG Export Plug-In . SVG Version: 6.00 Build 0)  -->
<!DOCTYPE svg PUBLIC "-//W3C//DTD SVG 1.1//EN" "http://www.w3.org/Graphics/SVG/1.1/DTD/svg11.dtd">
<svg version="1.1" xmlns="http://www.w3.org/2000/svg" xmlns:xlink="http://www.w3.org/1999/xlink" x="0px" y="0px"
	 viewBox="0 0 613 2772" style="enable-background:new 0 0 613 2772;" xml:space="preserve">
<style type="text/css">
	.st0{display:none;}
	.st1{display:inline;fill:none;}
	.st2{display:inline;}
	.st3{fill:#F5DC75;}
	.st4{fill:#FDC43D;}
	.st5{fill:#00F670;}
	.st6{fill:#6EBF5B;}
	.st7{fill:none;stroke:#FFFFFF;stroke-width:5;stroke-linecap:round;stroke-miterlimit:10;}
	.st8{fill:#EC2226;}
	.st9{fill:#EA4A24;}
	.st10{fill:#87662D;}
	.st11{fill:#FFFFFF;}
	.st12{fill:none;stroke:#FFFFFF;stroke-width:4;stroke-miterlimit:10;}
</style>
<g id="Layer_2" class="st0">
	<rect x="613" y="4" class="st1" width="107.4" height="322"/>
	<g class="st2">
		<path d="M630.4,52.8c0.3,0.2,1,0.5,1.7,0.5c1.3,0,1.8-0.9,1.8-1.5c0-1.1-1-1.6-2-1.6h-0.6v-0.8h0.6c0.8,0,1.7-0.4,1.7-1.3
			c0-0.6-0.4-1.2-1.4-1.2c-0.6,0-1.2,0.3-1.6,0.5l-0.3-0.8c0.4-0.3,1.2-0.6,2.1-0.6c1.5,0,2.2,0.9,2.2,1.9c0,0.8-0.5,1.5-1.4,1.8v0
			c1,0.2,1.7,0.9,1.7,2c0,1.2-1,2.3-2.8,2.3c-0.9,0-1.6-0.3-2-0.5L630.4,52.8z"/>
		<path d="M636.3,54v-0.6l0.8-0.8c2-1.9,2.9-2.9,2.9-4.1c0-0.8-0.4-1.5-1.5-1.5c-0.7,0-1.3,0.4-1.7,0.7l-0.3-0.7
			c0.5-0.4,1.3-0.8,2.2-0.8c1.7,0,2.4,1.2,2.4,2.3c0,1.4-1,2.6-2.7,4.2l-0.6,0.6v0h3.5V54H636.3z"/>
		<path d="M642.5,54v-0.6l0.8-0.8c2-1.9,2.9-2.9,2.9-4.1c0-0.8-0.4-1.5-1.5-1.5c-0.7,0-1.3,0.4-1.7,0.7l-0.3-0.7
			c0.5-0.4,1.3-0.8,2.2-0.8c1.7,0,2.4,1.2,2.4,2.3c0,1.4-1,2.6-2.7,4.2l-0.6,0.6v0h3.5V54H642.5z"/>
	</g>
	<rect x="611.6" y="324" class="st1" width="107.4" height="370"/>
	<g class="st2">
		<path d="M629,380c0.3,0.2,1,0.6,1.7,0.6c1.3,0,1.8-1,1.8-1.7c0-1.3-1-1.8-2-1.8h-0.6v-0.9h0.6c0.8,0,1.7-0.5,1.7-1.5
			c0-0.7-0.4-1.4-1.4-1.4c-0.6,0-1.2,0.3-1.6,0.6L629,373c0.4-0.3,1.2-0.7,2.1-0.7c1.5,0,2.2,1,2.2,2.1c0,0.9-0.5,1.7-1.4,2.1v0
			c1,0.2,1.7,1,1.7,2.3c0,1.4-1,2.7-2.8,2.7c-0.9,0-1.6-0.3-2-0.6L629,380z"/>
		<path d="M640,372.4v0.8l-3.4,8.2h-1.1l3.4-7.9v0h-3.8v-1H640z"/>
		<path d="M646.3,376.8c0,3-1,4.7-2.7,4.7c-1.5,0-2.6-1.6-2.6-4.6c0-3,1.1-4.7,2.7-4.7C645.3,372.3,646.3,374,646.3,376.8z M642,377
			c0,2.3,0.6,3.7,1.6,3.7c1.1,0,1.6-1.4,1.6-3.7c0-2.2-0.5-3.7-1.6-3.7C642.7,373.2,642,374.5,642,377z"/>
	</g>
	<rect x="613" y="697" class="st1" width="107.4" height="397"/>
	<g class="st2">
		<path d="M630.4,757.1c0.3,0.2,1,0.6,1.7,0.6c1.3,0,1.8-1.1,1.8-1.9c0-1.3-1-1.9-2-1.9h-0.6v-1h0.6c0.8,0,1.7-0.5,1.7-1.6
			c0-0.8-0.4-1.5-1.4-1.5c-0.6,0-1.2,0.3-1.6,0.6l-0.3-0.9c0.4-0.4,1.2-0.7,2.1-0.7c1.5,0,2.2,1.1,2.2,2.3c0,1-0.5,1.9-1.4,2.3v0
			c1,0.2,1.7,1.1,1.7,2.5c0,1.5-1,2.9-2.8,2.9c-0.9,0-1.6-0.3-2-0.7L630.4,757.1z"/>
		<path d="M636.9,757.7c0.2,0,0.5,0,0.9,0c0.6-0.1,1.2-0.4,1.6-0.9c0.5-0.6,0.9-1.4,1-2.5h0c-0.4,0.7-1.1,1-1.8,1
			c-1.4,0-2.3-1.3-2.3-2.9c0-1.8,1.1-3.4,2.7-3.4s2.6,1.6,2.6,4.1c0,2.1-0.6,3.6-1.3,4.5c-0.6,0.7-1.4,1.2-2.3,1.3
			c-0.4,0.1-0.7,0.1-1,0.1V757.7z M637.3,752.1c0,1.2,0.6,2,1.5,2c0.7,0,1.3-0.4,1.5-1c0.1-0.1,0.1-0.3,0.1-0.5
			c0-1.6-0.5-2.9-1.6-2.9C637.9,749.8,637.3,750.8,637.3,752.1z"/>
		<path d="M647.5,749v0.9l-3.4,8.8H643l3.4-8.5v0h-3.8V749H647.5z"/>
	</g>
	<rect x="613" y="1089" class="st1" width="107.4" height="505"/>
	<g class="st2">
		<path d="M634.8,1156.5h-3l-0.3,3.1c0.2,0,0.3-0.1,0.6-0.1c0.6,0,1.2,0.2,1.7,0.7c0.6,0.5,1.1,1.6,1.1,3.1c0,2.4-1.2,4.2-2.9,4.2
			c-0.9,0-1.6-0.4-1.9-0.8l0.3-1.3c0.3,0.3,1,0.7,1.7,0.7c1,0,1.8-1,1.8-2.7c0-1.6-0.7-2.7-2.2-2.7c-0.5,0-0.8,0.1-1.1,0.1l0.5-5.9
			h3.7V1156.5z"/>
		<path d="M641.5,1161.1c0,4.2-1,6.5-2.7,6.5c-1.5,0-2.6-2.2-2.6-6.3c0-4.1,1.1-6.4,2.7-6.4C640.6,1154.9,641.5,1157.2,641.5,1161.1
			z M637.3,1161.3c0,3.2,0.6,5,1.6,5c1.1,0,1.6-2,1.6-5.1c0-3-0.5-5-1.6-5C637.9,1156.2,637.3,1158,637.3,1161.3z"/>
		<path d="M647.1,1156.5h-3l-0.3,3.1c0.2,0,0.3-0.1,0.6-0.1c0.6,0,1.2,0.2,1.7,0.7c0.6,0.5,1.1,1.6,1.1,3.1c0,2.4-1.2,4.2-2.9,4.2
			c-0.9,0-1.6-0.4-1.9-0.8l0.3-1.3c0.3,0.3,1,0.7,1.7,0.7c1,0,1.8-1,1.8-2.7c0-1.6-0.7-2.7-2.2-2.7c-0.5,0-0.8,0.1-1.1,0.1l0.5-5.9
			h3.7V1156.5z"/>
	</g>
	<rect x="613" y="1593" class="st1" width="107.4" height="556"/>
	<g class="st2">
		<path d="M634.8,1667.3h-3l-0.3,3.5c0.2,0,0.3-0.1,0.6-0.1c0.6,0,1.2,0.2,1.7,0.7c0.6,0.6,1.1,1.8,1.1,3.4c0,2.6-1.2,4.6-2.9,4.6
			c-0.9,0-1.6-0.4-1.9-0.8l0.3-1.4c0.3,0.3,1,0.7,1.7,0.7c1,0,1.8-1.1,1.8-2.9c0-1.7-0.7-3-2.2-3c-0.5,0-0.8,0.1-1.1,0.1l0.5-6.5
			h3.7V1667.3z"/>
		<path d="M641,1667.3h-3l-0.3,3.5c0.2,0,0.3-0.1,0.6-0.1c0.6,0,1.2,0.2,1.7,0.7c0.6,0.6,1.1,1.8,1.1,3.4c0,2.6-1.2,4.6-2.9,4.6
			c-0.9,0-1.6-0.4-1.9-0.8l0.3-1.4c0.3,0.3,1,0.7,1.7,0.7c1,0,1.8-1.1,1.8-2.9c0-1.7-0.7-3-2.2-3c-0.5,0-0.8,0.1-1.1,0.1l0.5-6.5
			h3.7V1667.3z"/>
		<path d="M646.9,1667.1c-0.2,0-0.5,0-0.8,0.1c-1.7,0.5-2.5,2.5-2.7,4.8h0c0.4-0.9,1-1.6,1.9-1.6c1.4,0,2.4,1.7,2.4,4.4
			c0,2.5-1,4.8-2.6,4.8c-1.7,0-2.7-2.2-2.7-5.7c0-2.7,0.5-4.7,1.3-6.1c0.6-1.1,1.5-1.8,2.5-2c0.3-0.1,0.6-0.1,0.8-0.1V1667.1z
			 M646.6,1674.9c0-1.9-0.6-3.1-1.6-3.1c-0.6,0-1.2,0.7-1.5,1.7c-0.1,0.2-0.1,0.5-0.1,0.8c0,2.2,0.6,3.9,1.7,3.9
			C646,1678.1,646.6,1676.8,646.6,1674.9z"/>
	</g>
	<rect x="613" y="2148.4" class="st1" width="107.4" height="628"/>
	<g class="st2">
		<path d="M634.6,2232.2c-0.2,0-0.5,0-0.8,0.1c-1.7,0.5-2.5,2.9-2.7,5.4h0c0.4-1,1-1.8,1.9-1.8c1.4,0,2.4,2,2.4,4.9
			c0,2.8-1,5.4-2.6,5.4c-1.7,0-2.7-2.5-2.7-6.5c0-3,0.5-5.4,1.3-6.9c0.6-1.2,1.5-2,2.5-2.2c0.3-0.1,0.6-0.1,0.8-0.1V2232.2z
			 M634.3,2240.9c0-2.2-0.6-3.5-1.6-3.5c-0.6,0-1.2,0.7-1.5,1.9c-0.1,0.2-0.1,0.5-0.1,0.9c0,2.5,0.6,4.4,1.7,4.4
			C633.7,2244.6,634.3,2243.1,634.3,2240.9z"/>
		<path d="M636.3,2245.9v-1.3l0.8-1.6c2-3.7,2.9-5.7,2.9-8c0-1.5-0.4-3-1.5-3c-0.7,0-1.3,0.7-1.7,1.3l-0.3-1.5
			c0.5-0.9,1.3-1.5,2.2-1.5c1.7,0,2.4,2.2,2.4,4.4c0,2.8-1,5.1-2.7,8.2l-0.6,1.1v0h3.5v1.7H636.3z"/>
		<path d="M643.9,2237.9c-0.9-0.8-1.2-2.1-1.2-3.4c0-2.4,1-4,2.4-4c1.5,0,2.3,1.8,2.3,3.7c0,1.3-0.3,2.7-1.3,3.6v0.1
			c1,0.7,1.6,2.1,1.6,3.9c0,2.7-1.2,4.4-2.7,4.4c-1.6,0-2.6-1.9-2.6-4.1C642.4,2240.2,643,2238.8,643.9,2237.9L643.9,2237.9z
			 M646.6,2242c0-1.8-0.7-2.7-1.7-3.3c-0.9,0.5-1.4,1.7-1.4,3.2c0,1.5,0.6,2.9,1.6,2.9C646,2244.7,646.6,2243.5,646.6,2242z
			 M643.7,2234.4c0,1.5,0.6,2.3,1.5,2.8c0.7-0.4,1.2-1.4,1.2-2.8c0-1.2-0.4-2.5-1.3-2.5C644.1,2231.9,643.7,2233.1,643.7,2234.4z"/>
	</g>
</g>
<g id="Layer_1">
	<g id="bottom">
		<g>
			<path class="st3" d="M139.4,226.1c0,0,2.8-4.2,14.7-6.5c56.1-10.9,149.3-33.2,269.7,8c5.8,2,16.2,19.4,14.8,22.6
				c0,0,7.4,53.2-71.3,60.6c0,0-62,6.8-155.1-3.1C119.2,297.9,130.1,234.2,139.4,226.1z"/>
			<path class="st4" d="M143.4,223.7c0,0-14.8,21.4,66.1,40.8c0,0,59.8,18.6,183.9-0.9c0,0,49.6-5.4,30.5-36"/>
		</g>
	</g>
	<g id="lettuce">
		<g>
			<path class="st5" d="M272.9,269.8c1.5,5.8,7.6,9.8,13.5,9.2c5.9-0.7,10.9-6.1,11.1-12.1c5.2,4.8,11.3,9.8,18.5,9.8
				c7.2-0.1,13.9-8.6,9.8-14.4c5.7,3.8,12.1,6.6,18.7,8c5.5,1.3,11.8,1.5,16.3-1.9c4.4-3.3,5.8-9.4,5.4-14.9
				c-0.7-9.2-5.8-17.8-12.5-24.1c-6.7-6.4-14.9-11-23.3-15c-36.8-17.9-77.7-27.3-118.6-27.4c-5.8,0-11.7,0.2-17.2,1.9
				c-5.1,1.6-9.7,4.5-14.2,7.4c-6.8,4.4-18.9,6.5-25.5,11.2c-8.7,6.2-12.5,15.9-14.3,26.4c-1.2,6.8,3.6,15.6,10.4,14.5
				c-5.2,4.6-8.4,11.6-7.3,18.4c1.1,6.8,7.4,12.7,14.3,12.3s12.5-8.4,9.7-14.7c0.1,2.5,0.1,5.1,0.1,7.6c5.2,3.5,11.2,5.8,17.4,6.6
				c3.7,0.5,7.6,0.5,10.8-1.3c3.2-1.8,5.4-5.8,4.2-9.3c2.8,9.8,16.9,14.1,24.7,7.6c5.4,7.9,19.2,7.5,24.1-0.7
				c1.3,5.4,8,8.2,13.3,6.7C267.3,280,271.1,275.1,272.9,269.8z"/>
			<path class="st6" d="M257.2,220.8c-1.1-5.9,2.1-11.6,5.2-16.7c1.1-1.7,2.2-3.6,3.6-5c1.4-1.4,3.1-2.5,4.8-3.4
				c23.4-13.3,52.7-13.9,78.3-5.8c25.7,8.1,48.2,24.1,68,42.4c6.1,5.6,12.2,11.9,14.7,19.8c1.5,5,1.5,10.2,1.3,15.4
				c-0.2,3.3-0.9,7.3-4,8.7c-2.2,1-4.8,0.1-7.2-0.3c-2.4-0.5-5.4-0.3-6.6,1.9c-0.5,0.9-0.5,1.9-0.9,2.9c-1.1,3.7-5.6,5.5-9.4,4.7
				c-3.8-0.8-6.8-3.5-9.3-6.4c-2.3,5-7.1,8.6-12.5,9.5c-5.4,0.9-11.1-1.1-14.9-5c-0.7-0.8-1.7-1.7-2.7-1.5c-0.6,0.1-1,0.6-1.5,1
				c-2.9,2.7-7.7,2.8-11.3,0.9c-3.6-1.9-6-5.4-7.5-9.1c-1.5,3.5-3.8,7.6-7.6,7.6c-1.4,0-2.7-0.6-4-1.3c-8.8-5.4-11-17-12.3-27.3
				c-22.2,2.7-45.5-6.7-59.6-24C259.8,227,257.8,224.1,257.2,220.8z"/>
		</g>
		<path class="st7" d="M275.2,213.9c15.9-0.6,31.8-1.1,47.6-1.5c9.9-0.2,20.1-0.3,29.3,3.1c9.4,3.5,17.2,10.3,24.8,16.8
			c7.9,6.9,16.1,14.2,19.8,24.1"/>
		<path class="st7" d="M339.4,213.7c2.5,13.5,11.9,25.4,24.2,31.3"/>
		<path class="st7" d="M341.6,212.7c7.7-0.4,22.2-1.5,29.9-0.2s15.1,4.6,20.2,10.5"/>
		<path class="st7" d="M292.8,213.7c2.3,4.4,4.2,7.8,7.8,11.1c3.6,3.3,8.9,5.3,13.6,3.8"/>
		<path class="st7" d="M388.2,242.5c11.2,1.2,22.2,4.2,32.5,8.8"/>
		<path class="st7" d="M252.3,212.6c-27.9,4.4-48.9,11.8-73.2,26.3c-5.5,3.3-11.4,7.4-12.4,13.8"/>
		<path class="st7" d="M207.4,224.6c-12.9-2.5-22.8-2.5-35.8-1.1"/>
		<path class="st7" d="M207.4,224.6c6.4,9.2,13.2,22.5,12.7,33.8"/>
		<path class="st7" d="M244.7,213.7c0.7,5,4.8,8.8,7,13.4c4,8.2,1.3,18.1-2.5,26.3"/>
		<path class="st7" d="M243.9,214.1c0.2-3.9-4.2-5.2-7.6-7.1c-3.3-2-7.4-2.7-11.3-3.1c-8.2-0.9-16.6-1.1-24.9-0.5"/>
	</g>
	<g id="tomato">
		
			<ellipse transform="matrix(-0.1704 -0.9854 0.9854 -0.1704 50.133 457.832)" class="st8" cx="217.8" cy="207.8" rx="31.5" ry="81.5"/>
		
			<ellipse transform="matrix(-0.1704 -0.9854 0.9854 -0.1704 57.1902 449.4372)" class="st9" cx="217.8" cy="200.6" rx="31.5" ry="81.5"/>
		<path class="st8" d="M180.2,205.6c0,0-22.3-8.2,4.5-18.6c0,0,11.7-6.9,23.7,5.8c0,0,8.2-18.2,26.8-12.4c0,0,26.8,0.3,28.2,8.2
			c0,0,2.1,9.6-9.6,12.1c0,0,14.8,14.8-10.3,18.2c0,0-24.4,6.5-30.5-8.6c0,0-0.3,17.2-30.2,13.4
			C182.6,223.7,147.2,217.2,180.2,205.6z"/>
		
			<ellipse transform="matrix(8.182696e-02 -0.9966 0.9966 8.182696e-02 81.6576 530.2424)" class="st8" cx="328.6" cy="220.8" rx="33" ry="81.5"/>
		
			<ellipse transform="matrix(8.182696e-02 -0.9966 0.9966 8.182696e-02 87.6247 519.4338)" class="st9" cx="325.7" cy="212.2" rx="33" ry="81.5"/>
		<path class="st8" d="M363.2,224.2c0,0,23.6-2.9-0.1-19.1c0,0-9.8-9.4-24.4,0.2c0,0-3.8-19.6-23.2-18.2c0,0-26.2-5.8-29.3,1.5
			c0,0-4.2,8.9,6.6,13.9c0,0-17.8,11,5.8,20.1c0,0,22.2,12,31.8-1.3c0,0-3.6,16.8,26.3,20C356.6,241.3,392.6,243.1,363.2,224.2z"/>
	</g>
	<g id="burger">
		<g>
			<path class="st10" d="M147.1,145.9c0,0-0.9,0.5-2.1,1.3c-3.7,2.6-9.6,8.4,0.7,13.1c0,0-24.7,6.1-11.7,18.4
				c0,0-13.6,22.2,4.7,22.2c0,0-3.7,20.6,16.8,14.5c0,0,6.2,11.6,16.7,7.6c0,0-7.6,12.3,88.6,5.4c0,0,80.3,8.4,138.3-3.1
				c0,0,9.9,11.5,21.4-2.3c0,0,21.4,3.1,22.9-9.2c0,0,17.6-6.9,7.6-22.2c0,0,11.5-6.1-1.5-13.7c0,0,0.7-22.2-18.4-21.4
				c0,0-174.4-27.3-285.1-10.2"/>
			<path class="st4" d="M188.3,255.9c0,0-9.2-68-14.5-78.7c0,0-35.6-22.9-26.6-31.4c0,0,70.1-58.1,240.6-17.6
				c0,0,41.3,6.1,48.5,30.5c0,0-97.4,26.9-136.4,26.1c0,0-25.2,7.6-30.5,14.4C269.3,199.4,235.6,243.7,188.3,255.9z"/>
			<ellipse class="st11" cx="190.1" cy="191.8" rx="7.8" ry="8.9"/>
			<ellipse class="st12" cx="277.6" cy="211.2" rx="7.8" ry="7.5"/>
			<ellipse class="st12" cx="310.7" cy="216.5" rx="7.8" ry="5.6"/>
			<path class="st12" d="M341.2,210.9c0,0,11,9.7,19.4-2.3c0,0,34.1,7.8,27.8-12.6"/>
			<path class="st11" d="M190.1,169.3c0,0-12.1-8.2-11.5-19.1c0,0,4.5-13.1-6.4-10.7c0,0-13.3,5.7-2.7,19
				C169.6,158.5,176.1,168,190.1,169.3z"/>
			<path class="st11" d="M321.5,123c0,0,46.6-2.3,84.6,19.6c0,0-0.2,5.1-5.3,4.7c0,0-28.4-19-79.3-17.6
				C321.5,129.7,311.9,126.2,321.5,123z"/>
		</g>
	</g>
	<g id="top">
		<g>
			<path class="st3" d="M403.1,75.5c5.5,5,15.8,15.2,19.7,21.5c11.8,19.2,17.3,33.5,13.1,55.6c-3,16.1-41.6,18-45.3,18.2
				c-61.2,1.5-81.5,4.3-146.3,3.5c-16.4-0.2-76.8-3.4-85.1-8.4c-8.3-5.1-21.8-9.1-24.5-18.5c-5-17.3,5.3-35.4,17.5-48.6
				c37-39.9,89-53.2,143.4-55.7c11.5-0.5,26.7,0.1,38.1,1.9c18,2.8,34.4,9.6,50.6,18.1C391.1,66.5,397.5,70.4,403.1,75.5z"/>
			<path class="st11" d="M192.7,98.9c0,3.4-3.1,6.2-7,6.2c-3.8,0-18.9-2.8-18.9-6.2s15.1-6.2,18.9-6.2S192.7,95.5,192.7,98.9z"/>
			<path class="st11" d="M233.2,94.8c-0.9-3.3,1.5-6.8,5.2-7.7c3.8-0.9,19-1.9,19.8,1.4c0.9,3.3-13.1,9.7-16.8,10.7
				C237.7,100,234,98,233.2,94.8z"/>
			<path class="st11" d="M220.5,67.8c-0.8-3.3,1.5-6.8,5.2-7.7c3.8-0.9,19-1.9,19.8,1.4c0.8,3.3-13.1,9.7-16.8,10.7
				S221.3,71.1,220.5,67.8z"/>
			<path class="st11" d="M292,84.6c-2.2,2.6-6.4,2.8-9.3,0.3c-2.9-2.5-12.8-14.2-10.6-16.9c2.2-2.6,15.5,4.8,18.5,7.3
				C293.7,77.8,294.3,82,292,84.6z"/>
			<path class="st11" d="M326.7,68.9c-2.7,2.1-6.8,1.3-9.2-1.7c-2.3-3-9.4-16.6-6.8-18.7c2.7-2.1,14.1,8,16.5,11.1
				C329.8,62.6,329.5,66.8,326.7,68.9z"/>
			<path class="st11" d="M337.5,102c-1.3,3.2-5.2,4.6-8.8,3.2c-3.6-1.4-16.5-9.6-15.3-12.8c1.3-3.2,16.3-0.2,19.8,1.3
				C336.8,95.2,338.7,98.8,337.5,102z"/>
			<path class="st11" d="M374.7,63.1c2.1,2.7,1.2,6.8-1.9,9.2c-3.1,2.3-16.8,9-18.9,6.3c-2.1-2.7,8.4-14,11.5-16.3
				C368.5,60,372.6,60.4,374.7,63.1z"/>
			<path class="st11" d="M375.7,96.8c1-3.3,4.8-5.1,8.4-4c3.7,1.1,17.4,8,16.3,11.3c-1,3.3-16.2,1.7-19.9,0.6
				C376.9,103.6,374.7,100,375.7,96.8z"/>
		</g>
		<g id="drops">
			<path class="st8" d="M484.9,231.3c0,0,19.6-38.4,52.4-26.3c0,0,23.6,8.2,15.1,28.9c0,0-5.4,14-24.4,3.6c0,0-11.1-16.3-32.2-10.9
				C495.8,226.5,485.7,228.7,484.9,231.3z"/>
			<path class="st8" d="M474.3,254.9c0,0,54.5-0.1,58.4,42.9c0,0-1,20.6-24.2,15.9c0,0-18.3-3.5-11.9-25
				C496.7,288.8,504.7,264.9,474.3,254.9z"/>
			<path class="st11" d="M512.9,275.9c0,0,26.1,18.1,6,31.4c-0.9,0.5-1.8,0.9-2.8,0.9c-2.5,0.1-7.6-0.3-10.3-3.3
				C505.8,304.8,534.6,305.7,512.9,275.9z"/>
			<path class="st4" d="M107.2,255.4c0,0-53.9-7.8-63.9,34.2c0,0-1.9,20.6,21.7,19.2c0,0,18.6-0.8,15.3-23
				C80.3,285.7,75.8,261,107.2,255.4z"/>
			<path class="st11" d="M66.1,270.7c0,0-28.3,14.2-10.5,30.3c0.7,0.7,1.7,1.1,2.7,1.3c2.5,0.4,7.6,0.8,10.6-1.9
				C69,300.4,40.4,297.1,66.1,270.7z"/>
			<path class="st11" d="M526.3,210c0,0,19.2-3.4,23,14.3c0,0,1.9,2.8-5.4,11.2C543.8,235.4,548.7,218.6,526.3,210z"/>
		</g>
	</g>
	<g id="bottom_1_">
		<g>
			<path class="st3" d="M135,600.1c0,0,2.8-4.2,14.7-6.5c56.1-10.9,149.3-33.2,269.7,8c5.8,2,16.2,19.4,14.8,22.6
				c0,0,7.4,53.2-71.3,60.6c0,0-62,6.8-155.1-3.1C114.7,671.9,125.7,608.2,135,600.1z"/>
			<path class="st4" d="M138.9,597.7c0,0-14.8,21.4,66.1,40.8c0,0,59.8,18.6,183.9-0.9c0,0,49.6-5.4,30.5-36"/>
		</g>
	</g>
	<g id="lettuce_1_">
		<g>
			<path class="st5" d="M268.4,637.1c1.5,5.8,7.6,9.8,13.5,9.2c5.9-0.7,10.9-6.1,11.1-12.1c5.2,4.8,11.3,9.8,18.5,9.8
				c7.2-0.1,13.9-8.6,9.8-14.4c5.7,3.8,12.1,6.6,18.7,8c5.5,1.3,11.8,1.5,16.3-1.9c4.4-3.3,5.8-9.4,5.4-14.9
				c-0.7-9.2-5.8-17.8-12.5-24.1c-6.7-6.4-14.9-11-23.3-15c-36.8-17.9-77.7-27.3-118.6-27.4c-5.8,0-11.7,0.2-17.2,1.9
				c-5.1,1.6-9.7,4.5-14.2,7.4c-6.8,4.4-18.9,6.5-25.5,11.2c-8.7,6.2-12.5,15.9-14.3,26.4c-1.2,6.8,3.6,15.6,10.4,14.5
				c-5.2,4.6-8.4,11.6-7.3,18.4s7.4,12.7,14.3,12.3c6.9-0.4,12.5-8.4,9.7-14.7c0.1,2.5,0.1,5.1,0.1,7.6c5.2,3.5,11.2,5.8,17.4,6.6
				c3.7,0.5,7.6,0.5,10.8-1.3s5.4-5.8,4.2-9.3c2.8,9.8,16.9,14.1,24.7,7.6c5.4,7.9,19.2,7.5,24.1-0.7c1.3,5.4,8,8.2,13.3,6.7
				C262.9,647.3,266.7,642.4,268.4,637.1z"/>
			<path class="st6" d="M252.7,588.1c-1.1-5.9,2.1-11.6,5.2-16.7c1.1-1.7,2.2-3.6,3.6-5c1.4-1.4,3.1-2.5,4.8-3.4
				c23.4-13.3,52.7-13.9,78.3-5.8c25.7,8.1,48.2,24.1,68,42.4c6.1,5.6,12.2,11.9,14.7,19.8c1.5,5,1.5,10.2,1.3,15.4
				c-0.2,3.3-0.9,7.3-4,8.7c-2.2,1-4.8,0.1-7.2-0.3c-2.4-0.5-5.4-0.3-6.6,1.9c-0.5,0.9-0.5,1.9-0.9,2.9c-1.1,3.7-5.6,5.5-9.4,4.7
				c-3.8-0.8-6.8-3.5-9.3-6.4c-2.3,5-7.1,8.6-12.5,9.5c-5.4,0.9-11.1-1.1-14.9-5c-0.7-0.8-1.7-1.7-2.7-1.5c-0.6,0.1-1,0.6-1.5,1
				c-2.9,2.7-7.7,2.8-11.3,0.9c-3.6-1.9-6-5.4-7.5-9.1c-1.5,3.5-3.8,7.6-7.6,7.6c-1.4,0-2.7-0.6-4-1.3c-8.8-5.4-11-17-12.3-27.3
				c-22.2,2.7-45.5-6.7-59.6-24C255.4,594.3,253.4,591.4,252.7,588.1z"/>
		</g>
		<path class="st7" d="M270.7,581.1c15.9-0.6,31.8-1.1,47.6-1.5c9.9-0.2,20.1-0.3,29.3,3.1c9.4,3.5,17.2,10.3,24.8,16.8
			c7.9,6.9,16.1,14.2,19.8,24.1"/>
		<path class="st7" d="M335,581c2.5,13.5,11.9,25.4,24.2,31.3"/>
		<path class="st7" d="M337.2,580c7.7-0.4,22.2-1.5,29.9-0.2s15.1,4.6,20.2,10.5"/>
		<path class="st7" d="M288.3,581c2.3,4.4,4.2,7.8,7.8,11.1s8.9,5.3,13.6,3.8"/>
		<path class="st7" d="M383.8,609.7c11.2,1.2,22.2,4.2,32.5,8.8"/>
		<path class="st7" d="M247.9,579.9c-27.9,4.4-48.9,11.8-73.2,26.3c-5.5,3.3-11.4,7.4-12.4,13.8"/>
		<path class="st7" d="M203,591.9c-12.9-2.5-22.8-2.5-35.8-1.1"/>
		<path class="st7" d="M203,591.9c6.4,9.2,13.2,22.5,12.7,33.8"/>
		<path class="st7" d="M240.3,580.9c0.7,5,4.8,8.8,7,13.4c4,8.2,1.3,18.1-2.5,26.3"/>
		<path class="st7" d="M239.4,581.3c0.2-3.9-4.2-5.2-7.6-7.1c-3.4-1.9-7.4-2.7-11.3-3.1c-8.2-0.9-16.6-1.1-24.9-0.5"/>
	</g>
	<g id="tomato_1_">
		
			<ellipse transform="matrix(-0.1704 -0.9854 0.9854 -0.1704 -309.0029 873.792)" class="st8" cx="213.3" cy="567" rx="31.5" ry="81.5"/>
		
			<ellipse transform="matrix(-0.1704 -0.9854 0.9854 -0.1704 -301.9974 865.4856)" class="st9" cx="213.3" cy="559.9" rx="31.5" ry="81.5"/>
		<path class="st8" d="M175.7,564.7c0,0-22.3-8.2,4.5-18.6c0,0,11.7-6.9,23.7,5.8c0,0,8.2-18.2,26.8-12.4c0,0,26.8,0.3,28.2,8.2
			c0,0,2.1,9.6-9.6,12.1c0,0,14.8,14.8-10.3,18.2c0,0-24.4,6.5-30.5-8.6c0,0-0.3,17.2-30.2,13.4
			C178.1,582.9,142.7,576.4,175.7,564.7z"/>
		
			<ellipse transform="matrix(8.182696e-02 -0.9966 0.9966 8.182696e-02 -280.4598 855.633)" class="st8" cx="324.2" cy="580" rx="33" ry="81.5"/>
		
			<ellipse transform="matrix(8.182696e-02 -0.9966 0.9966 8.182696e-02 -274.4926 844.8243)" class="st9" cx="321.3" cy="571.4" rx="33" ry="81.5"/>
		<path class="st8" d="M358.7,583.4c0,0,23.6-2.9-0.1-19.1c0,0-9.8-9.4-24.4,0.2c0,0-3.8-19.6-23.2-18.2c0,0-26.2-5.8-29.3,1.5
			c0,0-4.2,8.9,6.6,13.9c0,0-17.8,11,5.8,20.1c0,0,22.2,12,31.8-1.3c0,0-3.6,16.8,26.3,20C352.2,600.6,388.1,602.4,358.7,583.4z"/>
	</g>
	<g id="burger_1_">
		<g>
			<path class="st10" d="M142.7,498.4c0,0-0.9,0.5-2.1,1.3c-3.7,2.6-9.6,8.4,0.7,13.1c0,0-24.7,6.1-11.7,18.4
				c0,0-13.6,22.2,4.7,22.2c0,0-3.7,20.6,16.8,14.5c0,0,6.2,11.6,16.7,7.6c0,0-7.6,12.3,88.6,5.4c0,0,80.3,8.4,138.3-3.1
				c0,0,9.9,11.5,21.4-2.3c0,0,21.4,3.1,22.9-9.2c0,0,17.6-6.9,7.6-22.2c0,0,11.5-6.1-1.5-13.7c0,0,0.7-22.2-18.4-21.4
				c0,0-174.4-27.3-285.1-10.2"/>
			<path class="st4" d="M183.8,608.5c0,0-9.2-68-14.5-78.7c0,0-35.6-22.9-26.6-31.4c0,0,70.1-58.1,240.6-17.6
				c0,0,41.3,6.1,48.5,30.5c0,0-97.4,26.9-136.4,26.1c0,0-25.2,7.6-30.5,14.4C264.8,551.9,231.2,596.2,183.8,608.5z"/>
			<ellipse class="st11" cx="185.6" cy="544.3" rx="7.8" ry="8.9"/>
			<ellipse class="st12" cx="273.1" cy="563.7" rx="7.8" ry="7.5"/>
			<ellipse class="st12" cx="306.3" cy="569.1" rx="7.8" ry="5.6"/>
			<path class="st12" d="M336.7,563.5c0,0,11,9.7,19.4-2.3c0,0,34.1,7.8,27.8-12.6"/>
			<path class="st11" d="M185.6,521.8c0,0-12.1-8.2-11.5-19.1c0,0,4.5-13.1-6.4-10.7c0,0-13.3,5.7-2.7,19
				C165.2,511.1,171.7,520.6,185.6,521.8z"/>
			<path class="st11" d="M317.1,475.5c0,0,46.6-2.3,84.6,19.6c0,0-0.2,5.1-5.3,4.7c0,0-28.4-19-79.3-17.6
				C317.1,482.3,307.5,478.8,317.1,475.5z"/>
		</g>
	</g>
	<g id="top_1_">
		<g>
			<path class="st3" d="M398.7,423.3c5.5,5,15.8,15.2,19.7,21.5c11.8,19.2,17.3,33.5,13.1,55.6c-3,16.1-41.6,18-45.3,18.2
				c-61.2,1.5-81.5,4.3-146.3,3.5c-16.4-0.2-76.8-3.4-85.1-8.4c-8.3-5.1-21.8-9.1-24.5-18.5c-5-17.3,5.3-35.4,17.5-48.6
				c37-39.9,89-53.2,143.4-55.7c11.5-0.5,26.7,0.1,38.1,1.9c18,2.8,34.4,9.6,50.6,18.1C386.7,414.4,393,418.2,398.7,423.3z"/>
			<path class="st11" d="M188.2,446.7c0,3.4-3.1,6.2-7,6.2c-3.8,0-18.9-2.8-18.9-6.2c0-3.4,15.1-6.2,18.9-6.2
				S188.2,443.3,188.2,446.7z"/>
			<path class="st11" d="M228.7,442.5c-0.9-3.3,1.5-6.8,5.2-7.7c3.8-0.9,19-1.9,19.8,1.4s-13.1,9.7-16.8,10.7
				C233.3,447.8,229.5,445.9,228.7,442.5z"/>
			<path class="st11" d="M216,415.6c-0.8-3.3,1.5-6.8,5.2-7.7c3.7-0.9,19-1.9,19.8,1.4c0.8,3.3-13.1,9.7-16.8,10.7
				C220.5,420.9,216.8,418.9,216,415.6z"/>
			<path class="st11" d="M287.6,432.4c-2.2,2.6-6.4,2.8-9.3,0.3c-2.9-2.5-12.8-14.2-10.6-16.9c2.2-2.6,15.5,4.8,18.5,7.3
				C289.2,425.6,289.8,429.7,287.6,432.4z"/>
			<path class="st11" d="M322.3,416.7c-2.7,2.1-6.8,1.3-9.2-1.7c-2.3-3-9.4-16.6-6.8-18.7c2.7-2.1,14.1,8,16.5,11.1
				C325.3,410.4,325,414.6,322.3,416.7z"/>
			<path class="st11" d="M333,449.8c-1.3,3.2-5.2,4.6-8.8,3.2s-16.5-9.6-15.3-12.8s16.3-0.2,19.8,1.3
				C332.4,442.9,334.3,446.6,333,449.8z"/>
			<path class="st11" d="M370.3,411c2.1,2.7,1.2,6.8-1.9,9.2c-3.1,2.3-16.8,9-18.9,6.3s8.4-14,11.5-16.3
				C364,407.8,368.2,408.2,370.3,411z"/>
			<path class="st11" d="M371.2,444.6c1-3.3,4.8-5.1,8.4-4c3.7,1.1,17.4,8,16.3,11.3c-1,3.3-16.2,1.7-19.9,0.6
				C372.5,451.4,370.3,447.9,371.2,444.6z"/>
		</g>
		<g id="drops_1_">
			<path class="st8" d="M451.7,562.1c0,0,19.6-38.4,52.4-26.3c0,0,23.6,8.2,15.1,28.9c0,0-5.4,14-24.4,3.6c0,0-11.1-16.3-32.2-10.9
				C462.6,557.4,452.4,559.5,451.7,562.1z"/>
			<path class="st8" d="M441.1,585.8c0,0,54.5-0.1,58.4,42.9c0,0-1,20.6-24.2,15.9c0,0-18.3-3.5-11.9-25
				C463.4,619.6,471.4,595.7,441.1,585.8z"/>
			<path class="st11" d="M479.5,606.8c0,0,26.1,18.1,6,31.4c-0.9,0.5-1.8,0.9-2.8,0.9c-2.5,0.1-7.6-0.3-10.3-3.3
				C472.5,635.7,501.3,636.5,479.5,606.8z"/>
			<path class="st4" d="M139.6,571.2c0,0-53.9-7.8-63.9,34.2c0,0-1.9,20.6,21.7,19.2c0,0,18.6-0.8,15.3-23
				C112.6,601.5,108.2,576.8,139.6,571.2z"/>
			<path class="st11" d="M98.5,586.6c0,0-28.3,14.2-10.5,30.3c0.7,0.7,1.7,1.1,2.7,1.3c2.5,0.4,7.6,0.8,10.6-1.9
				C101.3,616.2,72.7,612.9,98.5,586.6z"/>
			<path class="st11" d="M492.9,540.8c0,0,19.2-3.4,23,14.3c0,0,1.9,2.8-5.4,11.2C510.5,566.3,515.4,549.4,492.9,540.8z"/>
		</g>
	</g>
	<g id="bottom_2_">
		<g>
			<path class="st3" d="M149.5,992.3c0,0,2.8-4.2,14.7-6.5c56.1-10.9,149.3-33.2,269.7,8c5.8,2,16.2,19.4,14.8,22.6
				c0,0,7.4,53.2-71.3,60.6c0,0-62,6.8-155.1-3.1C129.3,1064.2,140.2,1000.4,149.5,992.3z"/>
			<path class="st4" d="M153.5,989.9c0,0-14.8,21.4,66.1,40.8c0,0,59.8,18.6,183.9-0.9c0,0,49.6-5.4,30.5-36"/>
		</g>
	</g>
	<g id="lettuce_2_">
		<g>
			<path class="st5" d="M283,1016.6c1.5,5.8,7.6,9.8,13.5,9.2c5.9-0.7,10.9-6.1,11.1-12.1c5.2,4.8,11.3,9.8,18.5,9.8
				c7.2-0.1,13.9-8.6,9.8-14.4c5.7,3.8,12.1,6.6,18.7,8c5.5,1.3,11.8,1.5,16.3-1.9c4.4-3.3,5.8-9.4,5.4-14.9
				c-0.7-9.2-5.8-17.8-12.5-24.1c-6.7-6.4-14.9-11-23.3-15c-36.8-17.9-77.7-27.3-118.6-27.4c-5.8,0-11.7,0.2-17.2,1.9
				c-5.1,1.6-9.7,4.5-14.2,7.4c-6.8,4.4-18.9,6.5-25.5,11.2c-8.7,6.2-12.5,15.9-14.3,26.4c-1.2,6.8,3.6,15.6,10.4,14.5
				c-5.2,4.6-8.4,11.6-7.3,18.4c1.1,6.8,7.4,12.7,14.3,12.3s12.5-8.4,9.7-14.7c0.1,2.5,0.1,5.1,0.1,7.6c5.2,3.5,11.2,5.8,17.4,6.6
				c3.7,0.5,7.6,0.5,10.8-1.3c3.2-1.8,5.4-5.8,4.2-9.3c2.8,9.8,16.9,14.1,24.7,7.6c5.4,7.9,19.2,7.5,24.1-0.7
				c1.3,5.4,8,8.2,13.3,6.7C277.4,1026.8,281.2,1021.9,283,1016.6z"/>
			<path class="st6" d="M267.3,967.6c-1.1-5.9,2.1-11.6,5.2-16.7c1.1-1.7,2.2-3.6,3.6-5c1.4-1.4,3.1-2.5,4.8-3.4
				c23.4-13.3,52.7-13.9,78.3-5.8s48.2,24.1,68,42.4c6.1,5.6,12.2,11.9,14.7,19.8c1.5,5,1.6,10.2,1.3,15.4c-0.2,3.3-0.9,7.3-4,8.7
				c-2.2,1-4.8,0.1-7.2-0.3c-2.4-0.5-5.4-0.3-6.6,1.9c-0.5,0.9-0.5,1.9-0.9,2.9c-1.1,3.7-5.6,5.5-9.4,4.7c-3.8-0.8-6.8-3.5-9.3-6.4
				c-2.3,5-7.1,8.6-12.5,9.5c-5.4,0.9-11.1-1.1-14.9-5c-0.7-0.8-1.7-1.7-2.7-1.5c-0.6,0.1-1,0.6-1.5,1c-2.9,2.7-7.7,2.8-11.3,0.9
				c-3.6-1.9-6-5.4-7.5-9.1c-1.5,3.5-3.8,7.6-7.6,7.6c-1.4,0-2.7-0.6-4-1.3c-8.8-5.4-11-17-12.3-27.3c-22.2,2.7-45.5-6.7-59.6-24
				C269.9,973.8,267.9,970.9,267.3,967.6z"/>
		</g>
		<path class="st7" d="M285.2,960.6c15.9-0.6,31.8-1.1,47.6-1.5c9.9-0.2,20.1-0.3,29.3,3.1c9.4,3.5,17.2,10.3,24.8,16.8
			c7.9,6.9,16.1,14.2,19.8,24.1"/>
		<path class="st7" d="M349.5,960.5c2.5,13.5,11.9,25.4,24.2,31.3"/>
		<path class="st7" d="M351.7,959.5c7.7-0.4,22.2-1.5,29.9-0.2c7.6,1.3,15.1,4.6,20.2,10.5"/>
		<path class="st7" d="M302.9,960.5c2.3,4.4,4.2,7.8,7.8,11.1c3.6,3.3,8.9,5.3,13.6,3.8"/>
		<path class="st7" d="M398.3,989.3c11.2,1.2,22.2,4.2,32.5,8.8"/>
		<path class="st7" d="M262.4,959.4c-27.9,4.4-48.9,11.8-73.2,26.3c-5.5,3.3-11.4,7.4-12.4,13.8"/>
		<path class="st7" d="M217.5,971.4c-12.9-2.5-22.8-2.5-35.8-1.1"/>
		<path class="st7" d="M217.5,971.4c6.4,9.2,13.2,22.5,12.7,33.8"/>
		<path class="st7" d="M254.8,960.4c0.7,5,4.8,8.8,7,13.4c4,8.2,1.3,18.1-2.5,26.3"/>
		<path class="st7" d="M254,960.8c0.2-3.9-4.2-5.2-7.6-7.1c-3.4-1.9-7.4-2.7-11.3-3.1c-8.2-0.9-16.6-1.1-24.9-0.5"/>
	</g>
	<g id="tomato_2_">
		
			<ellipse transform="matrix(-0.1704 -0.9854 0.9854 -0.1704 -660.6611 1326.0209)" class="st8" cx="227.9" cy="941.1" rx="31.5" ry="81.5"/>
		
			<ellipse transform="matrix(-0.1704 -0.9854 0.9854 -0.1704 -653.6556 1317.7145)" class="st9" cx="227.9" cy="934" rx="31.5" ry="81.5"/>
		<path class="st8" d="M190.2,938.9c0,0-22.3-8.2,4.5-18.6c0,0,11.7-6.9,23.7,5.8c0,0,8.2-18.2,26.8-12.4c0,0,26.8,0.3,28.2,8.2
			c0,0,2.1,9.6-9.6,12.1c0,0,14.8,14.8-10.3,18.2c0,0-24.4,6.5-30.5-8.6c0,0-0.3,17.2-30.2,13.4
			C192.7,957.1,157.3,950.5,190.2,938.9z"/>
		
			<ellipse transform="matrix(8.182696e-02 -0.9966 0.9966 8.182696e-02 -640.0081 1213.6541)" class="st8" cx="338.7" cy="954.2" rx="33" ry="81.5"/>
		
			<ellipse transform="matrix(8.182696e-02 -0.9966 0.9966 8.182696e-02 -633.9694 1202.7896)" class="st9" cx="335.8" cy="945.5" rx="33" ry="81.5"/>
		<path class="st8" d="M373.3,957.6c0,0,23.6-2.9-0.1-19.1c0,0-9.8-9.4-24.4,0.2c0,0-3.8-19.6-23.2-18.2c0,0-26.2-5.8-29.3,1.5
			c0,0-4.2,8.9,6.6,13.9c0,0-17.8,11,5.8,20.1c0,0,22.2,12,31.8-1.3c0,0-3.6,16.8,26.3,20C366.7,974.7,402.7,976.5,373.3,957.6z"/>
	</g>
	<g id="burger_2_">
		<g>
			<path class="st10" d="M157.2,863.2c0,0-0.9,0.5-2.1,1.3c-3.7,2.6-9.6,8.4,0.7,13.1c0,0-24.7,6.1-11.7,18.4
				c0,0-13.6,22.2,4.7,22.2c0,0-3.7,20.6,16.8,14.5c0,0,6.2,11.6,16.7,7.6c0,0-7.6,12.3,88.6,5.4c0,0,80.3,8.4,138.3-3.1
				c0,0,9.9,11.5,21.4-2.3c0,0,21.4,3.1,22.9-9.2c0,0,17.6-6.9,7.6-22.2c0,0,11.5-6.1-1.5-13.7c0,0,0.7-22.2-18.4-21.4
				c0,0-174.4-27.3-285.1-10.2"/>
			<path class="st4" d="M198.3,973.2c0,0-9.2-68-14.5-78.7c0,0-35.6-22.9-26.6-31.4c0,0,70.1-58.1,240.6-17.6
				c0,0,41.3,6.1,48.5,30.5c0,0-97.4,26.9-136.4,26.1c0,0-25.2,7.6-30.5,14.4C279.3,916.6,245.7,961,198.3,973.2z"/>
			<ellipse class="st11" cx="200.2" cy="909.1" rx="7.8" ry="8.9"/>
			<ellipse class="st12" cx="287.7" cy="928.5" rx="7.8" ry="7.5"/>
			<ellipse class="st12" cx="320.8" cy="933.8" rx="7.8" ry="5.6"/>
			<path class="st12" d="M351.2,928.2c0,0,11,9.7,19.4-2.3c0,0,34.1,7.8,27.8-12.6"/>
			<path class="st11" d="M200.2,886.5c0,0-12.1-8.2-11.5-19.1c0,0,4.5-13.1-6.4-10.7c0,0-13.3,5.7-2.7,19
				C179.7,875.8,186.2,885.3,200.2,886.5z"/>
			<path class="st11" d="M331.6,840.3c0,0,46.6-2.3,84.6,19.6c0,0-0.2,5.1-5.3,4.7c0,0-28.4-19-79.3-17.6
				C331.6,847,322,843.5,331.6,840.3z"/>
		</g>
	</g>
	<g id="top_2_">
		<g>
			<path class="st3" d="M413.2,781.4c5.5,5,15.8,15.2,19.7,21.5c11.8,19.2,17.3,33.5,13.1,55.6c-3,16.1-41.6,18-45.3,18.2
				c-61.2,1.5-81.5,4.3-146.3,3.5c-16.4-0.2-76.8-3.4-85.1-8.4c-8.3-5.1-21.8-9.1-24.5-18.5c-5-17.3,5.3-35.4,17.5-48.6
				c37-39.9,89-53.2,143.4-55.7c11.5-0.5,26.7,0.1,38.1,1.9c18,2.8,34.4,9.6,50.6,18.1C401.2,772.4,407.6,776.3,413.2,781.4z"/>
			<path class="st11" d="M202.8,804.7c0,3.4-3.1,6.2-7,6.2c-3.8,0-18.9-2.8-18.9-6.2s15.1-6.2,18.9-6.2S202.8,801.3,202.8,804.7z"/>
			<path class="st11" d="M243.2,800.6c-0.9-3.3,1.5-6.8,5.2-7.7c3.8-0.9,19-1.9,19.8,1.4c0.9,3.3-13.1,9.7-16.8,10.7
				C247.8,805.8,244,803.9,243.2,800.6z"/>
			<path class="st11" d="M230.6,773.7c-0.8-3.3,1.5-6.8,5.2-7.7c3.8-0.9,19-1.9,19.8,1.4c0.8,3.3-13.1,9.7-16.8,10.7
				C235.1,779,231.4,777,230.6,773.7z"/>
			<path class="st11" d="M302.1,790.4c-2.2,2.6-6.4,2.8-9.3,0.3c-2.9-2.5-12.8-14.2-10.6-16.9c2.2-2.6,15.5,4.8,18.5,7.3
				C303.7,783.6,304.3,787.8,302.1,790.4z"/>
			<path class="st11" d="M336.8,774.8c-2.7,2.1-6.8,1.3-9.2-1.7c-2.3-3-9.4-16.6-6.8-18.7c2.7-2.1,14.1,8,16.5,11.1
				S339.6,772.7,336.8,774.8z"/>
			<path class="st11" d="M347.5,807.8c-1.3,3.2-5.2,4.6-8.8,3.2c-3.6-1.4-16.5-9.6-15.3-12.8c1.3-3.2,16.3-0.2,19.8,1.3
				C346.9,800.9,348.8,804.6,347.5,807.8z"/>
			<path class="st11" d="M384.8,769c2.1,2.7,1.2,6.8-1.9,9.2c-3.1,2.3-16.8,9-18.9,6.3c-2.1-2.7,8.4-14,11.5-16.3
				C378.6,765.9,382.7,766.2,384.8,769z"/>
			<path class="st11" d="M385.7,802.7c1-3.3,4.8-5.1,8.4-4c3.7,1.1,17.4,8,16.3,11.3c-1,3.3-16.2,1.7-19.9,0.6
				C386.9,809.6,384.8,806,385.7,802.7z"/>
		</g>
		<g id="drops_2_">
		</g>
	</g>
	<g id="bottom_3_">
		<g>
			<path class="st3" d="M142.4,1497.7c0,0,2.8-4.2,14.7-6.5c56.1-10.9,149.3-33.2,269.7,8c5.8,2,16.2,19.4,14.8,22.6
				c0,0,7.4,53.2-71.3,60.6c0,0-62,6.8-155.1-3.1S133.1,1505.8,142.4,1497.7z"/>
			<path class="st4" d="M146.3,1495.3c0,0-14.8,21.4,66.1,40.8c0,0,59.8,18.6,183.9-0.9c0,0,49.6-5.4,30.5-36"/>
		</g>
	</g>
	<g id="lettuce_3_">
		<g>
			<path class="st5" d="M275.8,1505.2c1.5,5.8,7.6,9.8,13.5,9.2c5.9-0.7,10.9-6.1,11.1-12.1c5.2,4.8,11.3,9.8,18.5,9.8
				c7.2-0.1,13.9-8.6,9.8-14.4c5.7,3.8,12.1,6.6,18.7,8c5.5,1.3,11.8,1.5,16.3-1.9c4.4-3.3,5.8-9.4,5.4-14.9
				c-0.7-9.2-5.8-17.8-12.5-24.1c-6.7-6.4-14.9-11-23.3-15c-36.8-17.9-77.7-27.3-118.6-27.4c-5.8,0-11.7,0.2-17.2,1.9
				c-5.1,1.6-9.7,4.5-14.2,7.4c-6.8,4.4-18.9,6.5-25.5,11.2c-8.7,6.2-12.5,15.9-14.3,26.4c-1.2,6.8,3.6,15.6,10.4,14.5
				c-5.2,4.6-8.4,11.6-7.3,18.4c1.1,6.8,7.4,12.7,14.3,12.3c6.9-0.4,12.5-8.4,9.7-14.7c0.1,2.5,0.1,5.1,0.1,7.6
				c5.2,3.5,11.2,5.8,17.4,6.6c3.7,0.5,7.6,0.5,10.8-1.3c3.2-1.8,5.4-5.8,4.2-9.3c2.8,9.8,16.9,14.1,24.7,7.6
				c5.4,7.9,19.2,7.5,24.1-0.7c1.3,5.4,8,8.2,13.3,6.7C270.3,1515.4,274.1,1510.5,275.8,1505.2z"/>
			<path class="st6" d="M260.2,1456.2c-1.1-5.9,2.1-11.6,5.2-16.7c1.1-1.7,2.2-3.6,3.6-5c1.4-1.4,3.1-2.5,4.8-3.4
				c23.4-13.3,52.7-13.9,78.3-5.8c25.7,8.1,48.2,24.1,68,42.4c6.1,5.6,12.2,11.9,14.7,19.8c1.5,5,1.6,10.2,1.3,15.4
				c-0.2,3.3-0.9,7.3-4,8.7c-2.2,1-4.8,0.1-7.2-0.3c-2.4-0.5-5.4-0.3-6.6,1.9c-0.5,0.9-0.5,1.9-0.9,2.9c-1.1,3.7-5.6,5.5-9.4,4.7
				c-3.8-0.8-6.8-3.5-9.3-6.4c-2.3,5-7.1,8.6-12.5,9.5c-5.4,0.9-11.1-1.1-14.9-5c-0.7-0.8-1.7-1.7-2.7-1.5c-0.6,0.1-1,0.6-1.5,1
				c-2.9,2.7-7.7,2.8-11.3,0.9c-3.6-1.9-6-5.4-7.5-9.1c-1.5,3.5-3.8,7.6-7.6,7.6c-1.4,0-2.7-0.6-4-1.3c-8.8-5.4-11-17-12.3-27.3
				c-22.2,2.7-45.5-6.7-59.6-24C262.8,1462.4,260.8,1459.5,260.2,1456.2z"/>
		</g>
		<path class="st7" d="M278.1,1455.3c15.9-0.6,31.8-1.1,47.6-1.5c9.9-0.2,20.1-0.3,29.3,3.1c9.4,3.5,17.2,10.3,24.8,16.8
			c7.9,6.9,16.1,14.2,19.8,24.1"/>
		<path class="st7" d="M342.4,1455.2c2.5,13.5,11.9,25.4,24.2,31.3"/>
		<path class="st7" d="M344.6,1454.2c7.7-0.4,22.2-1.5,29.9-0.2c7.6,1.3,15.1,4.6,20.2,10.5"/>
		<path class="st7" d="M295.7,1455.2c2.3,4.4,4.2,7.8,7.8,11.1c3.6,3.3,8.9,5.3,13.6,3.8"/>
		<path class="st7" d="M391.2,1483.9c11.2,1.2,22.2,4.2,32.5,8.8"/>
		<path class="st7" d="M255.3,1454c-27.9,4.4-48.9,11.8-73.2,26.3c-5.5,3.3-11.4,7.4-12.4,13.8"/>
		<path class="st7" d="M210.4,1466c-12.9-2.5-22.8-2.5-35.8-1.1"/>
		<path class="st7" d="M210.4,1466c6.4,9.2,13.2,22.5,12.7,33.8"/>
		<path class="st7" d="M247.7,1455.1c0.7,5,4.8,8.8,7,13.4c4,8.2,1.3,18.1-2.5,26.3"/>
		<path class="st7" d="M246.8,1455.5c0.2-3.9-4.2-5.2-7.6-7.1c-3.3-2-7.4-2.7-11.3-3.1c-8.2-0.9-16.6-1.1-24.9-0.5"/>
	</g>
	<g id="tomato_3_">
		
			<ellipse transform="matrix(-0.1704 -0.9854 0.9854 -0.1704 -1129.358 1865.7974)" class="st8" cx="220.7" cy="1408.3" rx="31.5" ry="81.5"/>
		
			<ellipse transform="matrix(-0.1704 -0.9854 0.9854 -0.1704 -1122.3009 1857.4025)" class="st9" cx="220.7" cy="1401.1" rx="31.5" ry="81.5"/>
		<path class="st8" d="M183.1,1406.1c0,0-22.3-8.2,4.5-18.6c0,0,11.7-6.9,23.7,5.8c0,0,8.2-18.2,26.8-12.4c0,0,26.8,0.3,28.2,8.2
			c0,0,2.1,9.6-9.6,12.1c0,0,14.8,14.8-10.3,18.2c0,0-24.4,6.5-30.5-8.6c0,0-0.3,17.2-30.2,13.4
			C185.5,1424.2,150.1,1417.7,183.1,1406.1z"/>
		
			<ellipse transform="matrix(8.182696e-02 -0.9966 0.9966 8.182696e-02 -1112.1139 1635.4524)" class="st8" cx="331.6" cy="1421.3" rx="33" ry="81.5"/>
		
			<ellipse transform="matrix(8.182696e-02 -0.9966 0.9966 8.182696e-02 -1106.1467 1624.6437)" class="st9" cx="328.7" cy="1412.7" rx="33" ry="81.5"/>
		<path class="st8" d="M366.1,1424.7c0,0,23.6-2.9-0.1-19.1c0,0-9.8-9.4-24.4,0.2c0,0-3.8-19.6-23.2-18.2c0,0-26.2-5.8-29.3,1.5
			c0,0-4.2,8.9,6.6,13.9c0,0-17.8,11,5.8,20.1c0,0,22.2,12,31.8-1.3c0,0-3.6,16.8,26.3,20C359.6,1441.8,395.6,1443.6,366.1,1424.7z"
			/>
	</g>
	<g id="burger_3_">
		<g>
			<path class="st10" d="M150.1,1311.5c0,0-0.9,0.5-2.1,1.3c-3.7,2.6-9.6,8.4,0.7,13.1c0,0-24.7,6.1-11.7,18.4
				c0,0-13.6,22.2,4.7,22.2c0,0-3.7,20.6,16.8,14.5c0,0,6.2,11.6,16.7,7.6c0,0-7.6,12.3,88.6,5.4c0,0,80.3,8.4,138.3-3.1
				c0,0,9.9,11.5,21.4-2.3c0,0,21.4,3.1,22.9-9.2c0,0,17.6-6.9,7.6-22.2c0,0,11.5-6.1-1.5-13.7c0,0,0.7-22.2-18.4-21.4
				c0,0-174.4-27.3-285.1-10.2"/>
			<path class="st4" d="M191.2,1421.6c0,0-9.2-68-14.5-78.7c0,0-35.6-22.9-26.6-31.4c0,0,70.1-58.1,240.6-17.6
				c0,0,41.3,6.1,48.5,30.5c0,0-97.4,26.9-136.4,26.1c0,0-25.2,7.6-30.5,14.4C272.2,1365,238.6,1409.3,191.2,1421.6z"/>
			<ellipse class="st11" cx="193" cy="1357.4" rx="7.8" ry="8.9"/>
			<ellipse class="st12" cx="280.5" cy="1376.9" rx="7.8" ry="7.5"/>
			<ellipse class="st12" cx="313.7" cy="1382.2" rx="7.8" ry="5.6"/>
			<path class="st12" d="M344.1,1376.6c0,0,11,9.7,19.4-2.3c0,0,34.1,7.8,27.8-12.6"/>
			<path class="st11" d="M193,1334.9c0,0-12.1-8.2-11.5-19.1c0,0,4.5-13.1-6.4-10.7c0,0-13.3,5.7-2.7,19
				C172.6,1324.2,179.1,1333.7,193,1334.9z"/>
			<path class="st11" d="M324.5,1288.6c0,0,46.6-2.3,84.6,19.6c0,0-0.2,5.1-5.3,4.7c0,0-28.4-19-79.3-17.6
				C324.5,1295.4,314.9,1291.9,324.5,1288.6z"/>
		</g>
	</g>
	<g id="top_3_">
		<g>
			<path class="st3" d="M406.1,1211.6c5.5,5,15.8,15.2,19.7,21.5c11.8,19.2,17.3,33.5,13.1,55.6c-3,16.1-41.6,18-45.3,18.2
				c-61.2,1.5-81.5,4.3-146.3,3.5c-16.4-0.2-76.8-3.4-85.1-8.4c-8.3-5.1-21.8-9.1-24.5-18.5c-5-17.3,5.3-35.4,17.5-48.6
				c37-39.9,89-53.2,143.4-55.7c11.5-0.5,26.7,0.1,38.1,1.9c18,2.8,34.4,9.6,50.6,18.1C394.1,1202.7,400.4,1206.6,406.1,1211.6z"/>
			<path class="st11" d="M195.6,1235c0,3.4-3.1,6.2-7,6.2s-18.9-2.8-18.9-6.2s15.1-6.2,18.9-6.2S195.6,1231.6,195.6,1235z"/>
			<path class="st11" d="M236.1,1230.9c-0.9-3.3,1.5-6.8,5.2-7.7c3.8-0.9,19-1.9,19.8,1.4c0.9,3.3-13.1,9.7-16.8,10.7
				C240.7,1236.2,236.9,1234.2,236.1,1230.9z"/>
			<path class="st11" d="M223.4,1203.9c-0.8-3.3,1.5-6.8,5.2-7.7c3.7-0.9,19-1.9,19.8,1.4c0.8,3.3-13.1,9.7-16.8,10.7
				C227.9,1209.2,224.2,1207.3,223.4,1203.9z"/>
			<path class="st11" d="M295,1220.8c-2.2,2.6-6.4,2.8-9.3,0.3c-2.9-2.5-12.8-14.2-10.6-16.9c2.2-2.6,15.5,4.8,18.5,7.3
				C296.6,1213.9,297.2,1218.1,295,1220.8z"/>
			<path class="st11" d="M329.7,1205.1c-2.7,2.1-6.8,1.3-9.2-1.7c-2.3-3-9.4-16.6-6.8-18.7c2.7-2.1,14.1,8,16.5,11.1
				C332.7,1198.8,332.4,1202.9,329.7,1205.1z"/>
			<path class="st11" d="M340.4,1238.1c-1.3,3.2-5.2,4.6-8.8,3.2c-3.6-1.4-16.5-9.6-15.3-12.8c1.3-3.2,16.3-0.2,19.8,1.3
				C339.8,1231.2,341.7,1234.9,340.4,1238.1z"/>
			<path class="st11" d="M377.7,1199.2c2.1,2.7,1.2,6.8-1.9,9.2c-3.1,2.3-16.8,9-18.9,6.3c-2.1-2.7,8.4-14,11.5-16.3
				S375.6,1196.5,377.7,1199.2z"/>
			<path class="st11" d="M378.6,1232.9c1-3.3,4.8-5.1,8.4-4c3.7,1.1,17.4,8,16.3,11.3c-1,3.3-16.2,1.7-19.9,0.6
				C379.9,1239.8,377.7,1236.2,378.6,1232.9z"/>
		</g>
		<g id="drops_3_">
		</g>
	</g>
	<g id="bottom_4_">
		<g>
			<path class="st3" d="M142.6,2044.2c0,0,2.8-4.2,14.7-6.5c56.1-10.9,149.3-33.2,269.7,8c5.8,2,16.2,19.4,14.8,22.6
				c0,0,7.4,53.2-71.3,60.6c0,0-62,6.8-155.1-3.1S133.3,2052.3,142.6,2044.2z"/>
			<path class="st4" d="M146.6,2041.8c0,0-14.8,21.4,66.1,40.8c0,0,59.8,18.6,183.9-0.9c0,0,49.6-5.4,30.5-36"/>
		</g>
	</g>
	<g id="lettuce_4_">
		<g>
			<path class="st5" d="M276.1,2048.3c1.5,5.8,7.6,9.8,13.5,9.2c5.9-0.7,10.9-6.1,11.1-12.1c5.2,4.8,11.3,9.8,18.5,9.8
				c7.2-0.1,13.9-8.6,9.8-14.4c5.7,3.8,12.1,6.6,18.7,8c5.5,1.3,11.8,1.5,16.3-1.9c4.4-3.3,5.8-9.4,5.4-14.9
				c-0.7-9.2-5.8-17.8-12.5-24.1c-6.7-6.4-14.9-11-23.3-15c-36.8-17.9-77.7-27.3-118.6-27.4c-5.8,0-11.7,0.2-17.2,1.9
				c-5.1,1.6-9.7,4.5-14.2,7.4c-6.8,4.4-18.9,6.5-25.5,11.2c-8.7,6.2-12.5,15.9-14.3,26.4c-1.2,6.8,3.6,15.6,10.4,14.5
				c-5.2,4.6-8.4,11.6-7.3,18.4c1.1,6.8,7.4,12.7,14.3,12.3c6.9-0.4,12.5-8.4,9.7-14.7c0.1,2.5,0.1,5.1,0.1,7.6
				c5.2,3.5,11.2,5.8,17.4,6.6c3.7,0.5,7.6,0.5,10.8-1.3c3.2-1.8,5.4-5.8,4.2-9.3c2.8,9.8,16.9,14.1,24.7,7.6
				c5.4,7.9,19.2,7.5,24.1-0.7c1.3,5.4,8,8.2,13.3,6.7C270.5,2058.5,274.3,2053.6,276.1,2048.3z"/>
			<path class="st6" d="M260.4,1999.3c-1.1-5.9,2.1-11.6,5.2-16.7c1.1-1.7,2.2-3.6,3.6-5c1.4-1.4,3.1-2.5,4.8-3.4
				c23.4-13.3,52.7-13.9,78.3-5.8c25.7,8.1,48.2,24.1,68,42.4c6.1,5.6,12.2,11.9,14.7,19.8c1.5,5,1.5,10.2,1.3,15.4
				c-0.2,3.3-0.9,7.3-4,8.7c-2.2,1-4.8,0.1-7.2-0.3s-5.4-0.3-6.6,1.9c-0.5,0.9-0.5,1.9-0.9,2.9c-1.1,3.7-5.6,5.5-9.4,4.7
				s-6.8-3.5-9.3-6.4c-2.3,5-7.1,8.6-12.5,9.5c-5.4,0.9-11.1-1.1-14.9-5c-0.7-0.8-1.7-1.7-2.7-1.5c-0.6,0.1-1,0.6-1.5,1
				c-2.9,2.7-7.7,2.8-11.3,0.9c-3.6-1.9-6-5.4-7.5-9.1c-1.5,3.5-3.8,7.6-7.6,7.6c-1.4,0-2.7-0.6-4-1.3c-8.8-5.4-11-17-12.3-27.3
				c-22.2,2.7-45.5-6.7-59.6-24C263,2005.5,261,2002.7,260.4,1999.3z"/>
		</g>
		<path class="st7" d="M278.3,1992.3c15.9-0.6,31.8-1.1,47.6-1.5c9.9-0.2,20.1-0.3,29.3,3.1c9.4,3.5,17.2,10.3,24.8,16.8
			c7.9,6.9,16.1,14.2,19.8,24.1"/>
		<path class="st7" d="M342.6,1992.3c2.5,13.5,11.9,25.4,24.2,31.3"/>
		<path class="st7" d="M344.8,1991.2c7.7-0.4,22.2-1.5,29.9-0.2c7.6,1.3,15.1,4.6,20.2,10.5"/>
		<path class="st7" d="M296,1992.3c2.3,4.4,4.2,7.8,7.8,11.1c3.6,3.3,8.9,5.3,13.6,3.8"/>
		<path class="st7" d="M391.4,2021c11.2,1.2,22.2,4.2,32.5,8.8"/>
		<path class="st7" d="M255.5,1991.1c-27.9,4.4-48.9,11.8-73.2,26.3c-5.5,3.3-11.4,7.4-12.4,13.8"/>
		<path class="st7" d="M210.6,2003.1c-12.9-2.5-22.8-2.5-35.8-1.1"/>
		<path class="st7" d="M210.6,2003.1c6.4,9.2,13.2,22.5,12.7,33.8"/>
		<path class="st7" d="M247.9,1992.1c0.7,5,4.8,8.8,7,13.4c4,8.2,1.3,18.1-2.5,26.3"/>
		<path class="st7" d="M247.1,1992.6c0.2-3.9-4.2-5.2-7.6-7.1c-3.3-2-7.4-2.7-11.3-3.1c-8.2-0.9-16.6-1.1-24.9-0.5"/>
	</g>
	<g id="tomato_4_">
		
			<ellipse transform="matrix(-0.1704 -0.9854 0.9854 -0.1704 -1651.009 2485.9304)" class="st8" cx="221" cy="1938" rx="31.5" ry="81.5"/>
		
			<ellipse transform="matrix(-0.1704 -0.9854 0.9854 -0.1704 -1636.7397 2468.9995)" class="st9" cx="221" cy="1923.5" rx="31.5" ry="81.5"/>
		<path class="st8" d="M183.3,1935.7c0,0-22.3-8.2,4.5-18.6c0,0,11.7-6.9,23.7,5.8c0,0,8.2-18.2,26.8-12.4c0,0,26.8,0.3,28.2,8.2
			c0,0,2.1,9.6-9.6,12.1c0,0,14.8,14.8-10.3,18.2c0,0-24.4,6.5-30.5-8.6c0,0-0.3,17.2-30.2,13.4
			C185.8,1953.9,150.4,1947.4,183.3,1935.7z"/>
		
			<ellipse transform="matrix(8.182696e-02 -0.9966 0.9966 8.182696e-02 -1639.8517 2122.0647)" class="st8" cx="331.8" cy="1951" rx="33" ry="81.5"/>
		
			<ellipse transform="matrix(8.182696e-02 -0.9966 0.9966 8.182696e-02 -1633.8844 2111.2561)" class="st9" cx="328.9" cy="1942.4" rx="33" ry="81.5"/>
		<path class="st8" d="M366.4,1954.4c0,0,23.6-2.9-0.1-19.1c0,0-9.8-9.4-24.4,0.2c0,0-3.8-19.6-23.2-18.2c0,0-26.2-5.8-29.3,1.5
			c0,0-4.2,8.9,6.6,13.9c0,0-17.8,11,5.8,20.1c0,0,22.2,12,31.8-1.3c0,0-3.6,16.8,26.3,20C359.8,1971.6,395.8,1973.4,366.4,1954.4z"
			/>
	</g>
	<g id="burger_4_">
		<g>
			<path class="st10" d="M150.3,1830.5c0,0-0.9,0.5-2.1,1.3c-3.7,2.6-9.6,8.4,0.7,13.1c0,0-24.7,6.1-11.7,18.4
				c0,0-13.6,22.2,4.7,22.2c0,0-3.7,20.6,16.8,14.5c0,0,6.2,11.6,16.7,7.6c0,0-7.6,12.3,88.6,5.4c0,0,80.3,8.4,138.3-3.1
				c0,0,9.9,11.5,21.4-2.3c0,0,21.4,3.1,22.9-9.2c0,0,17.6-6.9,7.6-22.2c0,0,11.5-6.1-1.5-13.7c0,0,0.7-22.2-18.4-21.4
				c0,0-174.4-27.3-285.1-10.2"/>
			<path class="st4" d="M191.5,1940.5c0,0-9.2-68-14.5-78.7c0,0-35.6-22.9-26.6-31.4c0,0,70.1-58.1,240.6-17.6
				c0,0,41.3,6.1,48.5,30.5c0,0-97.4,26.9-136.4,26.1c0,0-25.2,7.6-30.5,14.4C272.4,1884,238.8,1928.4,191.5,1940.5z"/>
			<ellipse class="st11" cx="193.3" cy="1876.4" rx="7.8" ry="8.9"/>
			<ellipse class="st12" cx="280.8" cy="1895.9" rx="7.8" ry="7.5"/>
			<ellipse class="st12" cx="313.9" cy="1901.2" rx="7.8" ry="5.6"/>
			<path class="st12" d="M344.3,1895.6c0,0,11,9.7,19.4-2.3c0,0,34.1,7.8,27.8-12.6"/>
			<path class="st11" d="M193.3,1853.9c0,0-12.1-8.2-11.5-19.1c0,0,4.5-13.1-6.4-10.7c0,0-13.3,5.7-2.7,19
				C172.8,1843.2,179.3,1852.7,193.3,1853.9z"/>
			<path class="st11" d="M324.7,1807.6c0,0,46.6-2.3,84.6,19.6c0,0-0.2,5.1-5.3,4.7c0,0-28.4-19-79.3-17.6
				C324.7,1814.3,315.1,1810.8,324.7,1807.6z"/>
		</g>
	</g>
	<g id="top_4_">
		<g>
			<path class="st3" d="M406.3,1706.6c5.5,5,15.8,15.2,19.7,21.5c11.8,19.2,17.3,33.5,13.1,55.6c-3,16.1-41.6,18-45.3,18.2
				c-61.2,1.5-81.5,4.3-146.3,3.5c-16.4-0.2-76.8-3.4-85.1-8.4c-8.3-5.1-21.8-9.1-24.5-18.5c-5-17.3,5.3-35.4,17.5-48.6
				c37-39.9,89-53.2,143.4-55.7c11.5-0.5,26.7,0.1,38.1,1.9c18,2.8,34.4,9.6,50.6,18.1C394.3,1697.7,400.7,1701.6,406.3,1706.6z"/>
			<path class="st11" d="M195.9,1730c0,3.4-3.1,6.2-7,6.2c-3.8,0-18.9-2.8-18.9-6.2s15.1-6.2,18.9-6.2
				C192.7,1723.8,195.9,1726.6,195.9,1730z"/>
			<path class="st11" d="M236.3,1725.8c-0.9-3.3,1.5-6.8,5.2-7.7c3.8-0.9,19-1.9,19.8,1.4c0.8,3.3-13.1,9.7-16.8,10.7
				C240.9,1731.1,237.1,1729.2,236.3,1725.8z"/>
			<path class="st11" d="M223.7,1698.9c-0.8-3.3,1.5-6.8,5.2-7.7c3.8-0.9,19-1.9,19.8,1.4c0.8,3.3-13.1,9.7-16.8,10.7
				C228.2,1704.2,224.5,1702.2,223.7,1698.9z"/>
			<path class="st11" d="M295.2,1715.7c-2.2,2.6-6.4,2.8-9.3,0.3c-2.9-2.5-12.8-14.2-10.6-16.9c2.2-2.6,15.5,4.8,18.5,7.3
				C296.8,1708.9,297.4,1713.1,295.2,1715.7z"/>
			<path class="st11" d="M329.9,1700c-2.7,2.1-6.8,1.3-9.2-1.7c-2.3-3-9.4-16.6-6.8-18.7c2.7-2.1,14.1,8,16.5,11.1
				S332.7,1698,329.9,1700z"/>
			<path class="st11" d="M340.6,1733.1c-1.3,3.2-5.2,4.6-8.8,3.2c-3.6-1.4-16.5-9.6-15.3-12.8c1.3-3.2,16.3-0.2,19.8,1.3
				S341.9,1729.9,340.6,1733.1z"/>
			<path class="st11" d="M377.9,1694.3c2.1,2.7,1.2,6.8-1.9,9.2c-3.1,2.3-16.8,9-18.9,6.3c-2.1-2.7,8.4-14,11.5-16.3
				S375.8,1691.5,377.9,1694.3z"/>
			<path class="st11" d="M378.8,1727.9c1-3.3,4.8-5.1,8.4-4c3.7,1.1,17.4,8,16.3,11.3c-1,3.3-16.2,1.7-19.9,0.6
				C380.1,1734.7,377.9,1731.2,378.8,1727.9z"/>
		</g>
	</g>
	<g id="bottom_5_">
		<g>
			<path class="st3" d="M138.7,2672.9c0,0,2.8-4.2,14.7-6.5c56.1-10.9,149.3-33.2,269.7,8c5.8,2,16.2,19.4,14.8,22.6
				c0,0,7.4,53.2-71.3,60.6c0,0-62,6.8-155.1-3.1S129.3,2681,138.7,2672.9z"/>
			<path class="st4" d="M142.6,2670.5c0,0-14.8,21.4,66.1,40.8c0,0,59.8,18.6,183.9-0.9c0,0,49.6-5.4,30.5-36"/>
		</g>
	</g>
	<g id="lettuce_5_">
		<g>
			<path class="st5" d="M272.1,2663.7c1.5,5.8,7.6,9.8,13.5,9.2c5.9-0.7,10.9-6.1,11.1-12.1c5.2,4.8,11.3,9.8,18.5,9.8
				c7.2-0.1,13.9-8.6,9.8-14.4c5.7,3.8,12.1,6.6,18.7,8c5.5,1.3,11.8,1.5,16.3-1.9c4.4-3.3,5.8-9.4,5.4-14.9
				c-0.7-9.2-5.8-17.8-12.5-24.1c-6.7-6.4-14.9-11-23.3-15c-36.8-17.9-77.7-27.3-118.6-27.4c-5.8,0-11.7,0.2-17.2,1.9
				c-5.1,1.6-9.7,4.5-14.2,7.4c-6.8,4.4-18.9,6.5-25.5,11.2c-8.7,6.2-12.5,15.9-14.3,26.4c-1.2,6.8,3.6,15.6,10.4,14.5
				c-5.2,4.6-8.4,11.6-7.3,18.4c1.1,6.8,7.4,12.7,14.3,12.3s12.5-8.4,9.7-14.7c0.1,2.5,0.1,5.1,0.1,7.6c5.2,3.5,11.2,5.8,17.4,6.6
				c3.7,0.5,7.6,0.5,10.8-1.3c3.2-1.8,5.4-5.8,4.2-9.3c2.8,9.8,16.9,14.1,24.7,7.6c5.4,7.9,19.2,7.5,24.1-0.7
				c1.3,5.4,8,8.2,13.3,6.7C266.5,2673.8,270.4,2668.9,272.1,2663.7z"/>
			<path class="st6" d="M256.4,2614.7c-1.1-5.9,2.1-11.6,5.2-16.7c1.1-1.7,2.2-3.6,3.6-5c1.4-1.4,3.1-2.5,4.8-3.4
				c23.4-13.3,52.7-13.9,78.3-5.8s48.2,24.1,68,42.4c6.1,5.6,12.2,11.9,14.7,19.8c1.5,5,1.5,10.2,1.3,15.4c-0.2,3.3-0.9,7.3-4,8.7
				c-2.2,1-4.8,0.1-7.2-0.3c-2.4-0.5-5.4-0.3-6.6,1.9c-0.5,0.9-0.5,1.9-0.9,2.9c-1.1,3.7-5.6,5.5-9.4,4.7c-3.8-0.8-6.8-3.5-9.3-6.4
				c-2.3,5-7.1,8.6-12.5,9.5c-5.4,0.9-11.1-1.1-14.9-5c-0.7-0.8-1.7-1.7-2.7-1.5c-0.6,0.1-1,0.6-1.5,1c-2.9,2.7-7.7,2.8-11.3,0.9
				c-3.6-1.9-6-5.4-7.5-9.1c-1.5,3.5-3.8,7.6-7.6,7.6c-1.4,0-2.7-0.6-4-1.3c-8.8-5.4-11-17-12.3-27.3c-22.2,2.7-45.5-6.7-59.6-24
				C259,2620.9,257,2618,256.4,2614.7z"/>
		</g>
		<path class="st7" d="M274.4,2607.7c15.9-0.6,31.8-1.1,47.6-1.5c9.9-0.2,20.1-0.3,29.3,3.1c9.4,3.5,17.2,10.3,24.8,16.8
			c7.9,6.9,16.1,14.2,19.8,24.1"/>
		<path class="st7" d="M338.6,2607.6c2.5,13.5,11.9,25.4,24.2,31.3"/>
		<path class="st7" d="M340.8,2606.5c7.7-0.4,22.2-1.5,29.9-0.2s15.1,4.6,20.2,10.5"/>
		<path class="st7" d="M292,2607.6c2.3,4.4,4.2,7.8,7.8,11.1s8.9,5.3,13.6,3.8"/>
		<path class="st7" d="M387.5,2636.4c11.2,1.2,22.2,4.2,32.5,8.8"/>
		<path class="st7" d="M251.5,2606.4c-27.9,4.4-48.9,11.8-73.2,26.3c-5.5,3.3-11.4,7.4-12.4,13.8"/>
		<path class="st7" d="M206.7,2618.4c-12.9-2.5-22.8-2.5-35.8-1.1"/>
		<path class="st7" d="M206.7,2618.4c6.4,9.2,13.2,22.5,12.7,33.8"/>
		<path class="st7" d="M244,2607.5c0.7,5,4.8,8.8,7,13.4c4,8.2,1.3,18.1-2.5,26.3"/>
		<path class="st7" d="M243.1,2607.9c0.2-3.9-4.2-5.2-7.6-7.1c-3.3-2-7.4-2.7-11.3-3.1c-8.2-0.9-16.6-1.1-24.9-0.5"/>
	</g>
	<g id="tomato_5_">
		
			<ellipse transform="matrix(-0.1704 -0.9854 0.9854 -0.1704 -2248.7842 3186.5542)" class="st8" cx="217" cy="2539.9" rx="31.5" ry="81.5"/>
		
			<ellipse transform="matrix(-0.1704 -0.9854 0.9854 -0.1704 -2241.7786 3178.2476)" class="st9" cx="217" cy="2532.8" rx="31.5" ry="81.5"/>
		<path class="st8" d="M179.4,2537.7c0,0-22.3-8.2,4.5-18.6c0,0,11.7-6.9,23.7,5.8c0,0,8.2-18.2,26.8-12.4c0,0,26.8,0.3,28.2,8.2
			c0,0,2.1,9.6-9.6,12.1c0,0,14.8,14.8-10.3,18.2c0,0-24.4,6.5-30.5-8.6c0,0-0.3,17.2-30.2,13.4
			C181.8,2555.9,146.4,2549.4,179.4,2537.7z"/>
		
			<ellipse transform="matrix(8.182696e-02 -0.9966 0.9966 8.182696e-02 -2243.4221 2670.814)" class="st8" cx="327.8" cy="2553" rx="33" ry="81.5"/>
		
			<ellipse transform="matrix(8.182696e-02 -0.9966 0.9966 8.182696e-02 -2237.3833 2659.9495)" class="st9" cx="325" cy="2544.3" rx="33" ry="81.5"/>
		<path class="st8" d="M362.4,2556.4c0,0,23.6-2.9-0.1-19.1c0,0-9.8-9.4-24.4,0.2c0,0-3.8-19.6-23.2-18.2c0,0-26.2-5.8-29.3,1.5
			c0,0-4.2,8.9,6.6,13.9c0,0-17.8,11,5.8,20.1c0,0,22.2,12,31.8-1.3c0,0-3.6,16.8,26.3,20C355.9,2573.5,391.8,2575.3,362.4,2556.4z"
			/>
	</g>
	<g id="burger_5_">
		<g>
			<path class="st10" d="M146.4,2409.6c0,0-0.9,0.5-2.1,1.3c-3.7,2.6-9.6,8.4,0.7,13.1c0,0-24.7,6.1-11.7,18.4
				c0,0-13.6,22.2,4.7,22.2c0,0-3.7,20.6,16.8,14.5c0,0,6.2,11.6,16.7,7.6c0,0-7.6,12.3,88.6,5.4c0,0,80.3,8.4,138.3-3.1
				c0,0,9.9,11.5,21.4-2.3c0,0,21.4,3.1,22.9-9.2c0,0,17.6-6.9,7.6-22.2c0,0,11.5-6.1-1.5-13.7c0,0,0.7-22.2-18.4-21.4
				c0,0-174.4-27.3-285.1-10.2"/>
			<path class="st4" d="M187.5,2519.7c0,0-9.2-68-14.5-78.7c0,0-35.6-22.9-26.6-31.4c0,0,70.1-58.1,240.6-17.6
				c0,0,41.3,6.1,48.5,30.5c0,0-97.4,26.9-136.4,26.1c0,0-25.2,7.6-30.5,14.4C268.5,2463.1,234.9,2507.5,187.5,2519.7z"/>
			<ellipse class="st11" cx="189.3" cy="2455.5" rx="7.8" ry="8.9"/>
			<ellipse class="st12" cx="276.8" cy="2475" rx="7.8" ry="7.5"/>
			<ellipse class="st12" cx="310" cy="2480.3" rx="7.8" ry="5.6"/>
			<path class="st12" d="M340.4,2474.7c0,0,11,9.7,19.4-2.3c0,0,34.1,7.8,27.8-12.6"/>
			<path class="st11" d="M189.3,2433c0,0-12.1-8.2-11.5-19.1c0,0,4.5-13.1-6.4-10.7c0,0-13.3,5.7-2.7,19
				C168.9,2422.3,175.4,2431.8,189.3,2433z"/>
			<path class="st11" d="M320.7,2386.7c0,0,46.6-2.3,84.6,19.6c0,0-0.2,5.1-5.3,4.7c0,0-28.4-19-79.3-17.6
				C320.7,2393.5,311.2,2390,320.7,2386.7z"/>
		</g>
	</g>
	<g id="top_5_">
		<g>
			<path class="st3" d="M402.3,2272.4c5.5,5,15.8,15.2,19.7,21.5c11.8,19.2,17.3,33.5,13.1,55.6c-3,16.1-41.6,18-45.3,18.2
				c-61.2,1.5-81.5,4.3-146.3,3.5c-16.4-0.2-76.8-3.4-85.1-8.4c-8.3-5.1-21.8-9.1-24.5-18.5c-5-17.3,5.3-35.4,17.5-48.6
				c37-39.9,89-53.2,143.4-55.7c11.5-0.5,26.7,0.1,38.1,1.9c18,2.8,34.4,9.6,50.6,18.1C390.4,2263.4,396.7,2267.3,402.3,2272.4z"/>
			<path class="st11" d="M191.9,2295.8c0,3.4-3.1,6.2-7,6.2c-3.8,0-18.9-2.8-18.9-6.2s15.1-6.2,18.9-6.2
				C188.8,2289.5,191.9,2292.3,191.9,2295.8z"/>
			<path class="st11" d="M232.4,2291.6c-0.9-3.3,1.5-6.8,5.2-7.7s19-1.9,19.8,1.4c0.8,3.3-13.1,9.7-16.8,10.7
				C236.9,2296.8,233.2,2294.9,232.4,2291.6z"/>
			<path class="st11" d="M219.7,2264.7c-0.8-3.3,1.5-6.8,5.2-7.7c3.8-0.9,19-1.9,19.8,1.4c0.8,3.3-13.1,9.7-16.8,10.7
				C224.3,2269.9,220.5,2268,219.7,2264.7z"/>
			<path class="st11" d="M291.3,2281.4c-2.2,2.6-6.4,2.8-9.3,0.3c-2.9-2.5-12.8-14.2-10.6-16.9c2.2-2.6,15.5,4.8,18.5,7.3
				C292.9,2274.7,293.5,2278.8,291.3,2281.4z"/>
			<path class="st11" d="M326,2265.7c-2.7,2.1-6.8,1.3-9.2-1.7c-2.3-3-9.4-16.6-6.8-18.7c2.7-2.1,14.1,8,16.5,11.1
				C329,2259.5,328.7,2263.7,326,2265.7z"/>
			<path class="st11" d="M336.7,2298.8c-1.3,3.2-5.2,4.6-8.8,3.2c-3.6-1.4-16.5-9.6-15.3-12.8c1.3-3.2,16.3-0.2,19.8,1.3
				C336,2292,338,2295.6,336.7,2298.8z"/>
			<path class="st11" d="M373.9,2260c2.1,2.7,1.2,6.8-1.9,9.2c-3.1,2.3-16.8,9-18.9,6.3c-2.1-2.7,8.4-14,11.5-16.3
				C367.7,2256.9,371.9,2257.2,373.9,2260z"/>
			<path class="st11" d="M374.9,2293.6c1-3.3,4.8-5.1,8.4-4c3.7,1.1,17.4,8,16.3,11.3c-1,3.3-16.2,1.7-19.9,0.6
				C376.1,2300.5,373.9,2297,374.9,2293.6z"/>
		</g>
		<g id="drops_4_">
		</g>
	</g>
	<g>
	</g>
	<g>
	</g>
	<g>
	</g>
	<g>
	</g>
	<g>
	</g>
	<g>
	</g>
	<g>
	</g>
	<g>
	</g>
	<g>
	</g>
	<g>
	</g>
	<g>
	</g>
</g>
</svg>
