<?xml version="1.0" encoding="utf-8"?>
<!-- Generator: Adobe Illustrator 18.1.1, SVG Export Plug-In . SVG Version: 6.00 Build 0)  -->
<!DOCTYPE svg PUBLIC "-//W3C//DTD SVG 1.1//EN" "http://www.w3.org/Graphics/SVG/1.1/DTD/svg11.dtd">
<svg version="1.1" id="Layer_1" xmlns="http://www.w3.org/2000/svg" xmlns:xlink="http://www.w3.org/1999/xlink" x="0px" y="0px"
	 viewBox="0 0 2048 1536" enable-background="new 0 0 2048 1536" xml:space="preserve">
<g id="Layer_2" display="none">
	<rect x="1406.2" y="426.8" display="inline" fill="none" width="43.2" height="129.5"/>
	<g display="inline">
		<path d="M1413.2,446.4c0.1,0.1,0.4,0.2,0.7,0.2c0.5,0,0.7-0.4,0.7-0.6c0-0.4-0.4-0.6-0.8-0.6h-0.2V445h0.2c0.3,0,0.7-0.2,0.7-0.5
			c0-0.2-0.2-0.5-0.6-0.5c-0.2,0-0.5,0.1-0.6,0.2l-0.1-0.3c0.2-0.1,0.5-0.2,0.8-0.2c0.6,0,0.9,0.4,0.9,0.8c0,0.3-0.2,0.6-0.6,0.7
			l0,0c0.4,0.1,0.7,0.4,0.7,0.8c0,0.5-0.4,0.9-1.1,0.9c-0.4,0-0.6-0.1-0.8-0.2L1413.2,446.4z"/>
		<path d="M1415.6,446.8v-0.2l0.3-0.3c0.8-0.8,1.2-1.2,1.2-1.6c0-0.3-0.2-0.6-0.6-0.6c-0.3,0-0.5,0.2-0.7,0.3l-0.1-0.3
			c0.2-0.2,0.5-0.3,0.9-0.3c0.7,0,1,0.5,1,0.9c0,0.6-0.4,1-1.1,1.7l-0.2,0.2l0,0h1.4v0.4L1415.6,446.8L1415.6,446.8z"/>
		<path d="M1418.1,446.8v-0.2l0.3-0.3c0.8-0.8,1.2-1.2,1.2-1.6c0-0.3-0.2-0.6-0.6-0.6c-0.3,0-0.5,0.2-0.7,0.3l-0.1-0.3
			c0.2-0.2,0.5-0.3,0.9-0.3c0.7,0,1,0.5,1,0.9c0,0.6-0.4,1-1.1,1.7l-0.2,0.2l0,0h1.4v0.4L1418.1,446.8L1418.1,446.8z"/>
	</g>
	<rect x="1405.6" y="555.4" display="inline" fill="none" width="43.2" height="148.8"/>
	<g display="inline">
		<path d="M1412.6,578c0.1,0.1,0.4,0.2,0.7,0.2c0.5,0,0.7-0.4,0.7-0.7c0-0.5-0.4-0.7-0.8-0.7h-0.2v-0.4h0.2c0.3,0,0.7-0.2,0.7-0.6
			c0-0.3-0.2-0.6-0.6-0.6c-0.2,0-0.5,0.1-0.6,0.2l-0.1-0.4c0.2-0.1,0.5-0.3,0.8-0.3c0.6,0,0.9,0.4,0.9,0.8c0,0.4-0.2,0.7-0.6,0.8
			l0,0c0.4,0.1,0.7,0.4,0.7,0.9c0,0.6-0.4,1.1-1.1,1.1c-0.4,0-0.6-0.1-0.8-0.2L1412.6,578z"/>
		<path d="M1417,574.9v0.3l-1.4,3.3h-0.4l1.4-3.2l0,0h-1.5v-0.4L1417,574.9L1417,574.9z"/>
		<path d="M1419.6,576.7c0,1.2-0.4,1.9-1.1,1.9c-0.6,0-1-0.6-1-1.8c0-1.2,0.4-1.9,1.1-1.9C1419.2,574.9,1419.6,575.5,1419.6,576.7z
			 M1417.9,576.7c0,0.9,0.2,1.5,0.6,1.5c0.4,0,0.6-0.6,0.6-1.5c0-0.9-0.2-1.5-0.6-1.5C1418.1,575.2,1417.9,575.7,1417.9,576.7z"/>
	</g>
	<rect x="1406.2" y="705.4" display="inline" fill="none" width="43.2" height="159.6"/>
	<g display="inline">
		<path d="M1413.2,729.6c0.1,0.1,0.4,0.2,0.7,0.2c0.5,0,0.7-0.4,0.7-0.8c0-0.5-0.4-0.8-0.8-0.8h-0.2v-0.4h0.2c0.3,0,0.7-0.2,0.7-0.6
			c0-0.3-0.2-0.6-0.6-0.6c-0.2,0-0.5,0.1-0.6,0.2l-0.1-0.4c0.2-0.2,0.5-0.3,0.8-0.3c0.6,0,0.9,0.4,0.9,0.9c0,0.4-0.2,0.8-0.6,0.9
			l0,0c0.4,0.1,0.7,0.4,0.7,1c0,0.6-0.4,1.2-1.1,1.2c-0.4,0-0.6-0.1-0.8-0.3L1413.2,729.6z"/>
		<path d="M1415.8,729.8c0.1,0,0.2,0,0.4,0c0.2,0,0.5-0.2,0.6-0.4c0.2-0.2,0.4-0.6,0.4-1l0,0c-0.2,0.3-0.4,0.4-0.7,0.4
			c-0.6,0-0.9-0.5-0.9-1.2c0-0.7,0.4-1.4,1.1-1.4c0.6,0,1,0.6,1,1.6c0,0.8-0.2,1.4-0.5,1.8c-0.2,0.3-0.6,0.5-0.9,0.5
			c-0.2,0-0.3,0-0.4,0L1415.8,729.8L1415.8,729.8z M1416,727.6c0,0.5,0.2,0.8,0.6,0.8c0.3,0,0.5-0.2,0.6-0.4c0,0,0-0.1,0-0.2
			c0-0.6-0.2-1.2-0.6-1.2C1416.2,726.6,1416,727,1416,727.6z"/>
		<path d="M1420.1,726.3v0.4l-1.4,3.5h-0.4l1.4-3.4l0,0h-1.5v-0.4L1420.1,726.3L1420.1,726.3z"/>
	</g>
	<rect x="1406.2" y="863" display="inline" fill="none" width="43.2" height="203"/>
	<g display="inline">
		<path d="M1415,890.1h-1.2l-0.1,1.2c0.1,0,0.1,0,0.2,0c0.2,0,0.5,0.1,0.7,0.3c0.2,0.2,0.4,0.6,0.4,1.2c0,1-0.5,1.7-1.2,1.7
			c-0.4,0-0.6-0.2-0.8-0.3l0.1-0.5c0.1,0.1,0.4,0.3,0.7,0.3c0.4,0,0.7-0.4,0.7-1.1c0-0.6-0.3-1.1-0.9-1.1c-0.2,0-0.3,0-0.4,0
			l0.2-2.4h1.5L1415,890.1L1415,890.1z"/>
		<path d="M1417.6,892c0,1.7-0.4,2.6-1.1,2.6c-0.6,0-1-0.9-1-2.5s0.4-2.6,1.1-2.6C1417.3,889.5,1417.6,890.4,1417.6,892z
			 M1416,892.1c0,1.3,0.2,2,0.6,2c0.4,0,0.6-0.8,0.6-2.1c0-1.2-0.2-2-0.6-2C1416.2,890,1416,890.7,1416,892.1z"/>
		<path d="M1419.9,890.1h-1.2l-0.1,1.2c0.1,0,0.1,0,0.2,0c0.2,0,0.5,0.1,0.7,0.3c0.2,0.2,0.4,0.6,0.4,1.2c0,1-0.5,1.7-1.2,1.7
			c-0.4,0-0.6-0.2-0.8-0.3l0.1-0.5c0.1,0.1,0.4,0.3,0.7,0.3c0.4,0,0.7-0.4,0.7-1.1c0-0.6-0.3-1.1-0.9-1.1c-0.2,0-0.3,0-0.4,0
			l0.2-2.4h1.5L1419.9,890.1L1419.9,890.1z"/>
	</g>
	<rect x="1406.2" y="1065.6" display="inline" fill="none" width="43.2" height="223.5"/>
	<g display="inline">
		<path d="M1415,1095.5h-1.2l-0.1,1.4c0.1,0,0.1,0,0.2,0c0.2,0,0.5,0.1,0.7,0.3c0.2,0.2,0.4,0.7,0.4,1.4c0,1-0.5,1.8-1.2,1.8
			c-0.4,0-0.6-0.2-0.8-0.3l0.1-0.6c0.1,0.1,0.4,0.3,0.7,0.3c0.4,0,0.7-0.4,0.7-1.2c0-0.7-0.3-1.2-0.9-1.2c-0.2,0-0.3,0-0.4,0
			l0.2-2.6h1.5L1415,1095.5L1415,1095.5z"/>
		<path d="M1417.4,1095.5h-1.2l-0.1,1.4c0.1,0,0.1,0,0.2,0c0.2,0,0.5,0.1,0.7,0.3c0.2,0.2,0.4,0.7,0.4,1.4c0,1-0.5,1.8-1.2,1.8
			c-0.4,0-0.6-0.2-0.8-0.3l0.1-0.6c0.1,0.1,0.4,0.3,0.7,0.3c0.4,0,0.7-0.4,0.7-1.2c0-0.7-0.3-1.2-0.9-1.2c-0.2,0-0.3,0-0.4,0
			l0.2-2.6h1.5L1417.4,1095.5L1417.4,1095.5z"/>
		<path d="M1419.8,1095.4c-0.1,0-0.2,0-0.3,0c-0.7,0.2-1,1-1.1,1.9l0,0c0.2-0.4,0.4-0.6,0.8-0.6c0.6,0,1,0.7,1,1.8
			c0,1-0.4,1.9-1,1.9c-0.7,0-1.1-0.9-1.1-2.3c0-1.1,0.2-1.9,0.5-2.5c0.2-0.4,0.6-0.7,1-0.8c0.1,0,0.2,0,0.3,0L1419.8,1095.4
			L1419.8,1095.4z M1419.7,1098.5c0-0.8-0.2-1.2-0.6-1.2c-0.2,0-0.5,0.3-0.6,0.7c0,0.1,0,0.2,0,0.3c0,0.9,0.2,1.6,0.7,1.6
			C1419.5,1099.9,1419.7,1099.3,1419.7,1098.5z"/>
	</g>
	<rect x="1406.2" y="1288.9" display="inline" fill="none" width="43.2" height="252.5"/>
	<g display="inline">
		<path d="M1414.9,1322.6c-0.1,0-0.2,0-0.3,0c-0.7,0.2-1,1.2-1.1,2.2l0,0c0.2-0.4,0.4-0.7,0.8-0.7c0.6,0,1,0.8,1,2
			c0,1.1-0.4,2.2-1,2.2c-0.7,0-1.1-1-1.1-2.6c0-1.2,0.2-2.2,0.5-2.8c0.2-0.5,0.6-0.8,1-0.9c0.1,0,0.2,0,0.3,0L1414.9,1322.6
			L1414.9,1322.6z M1414.8,1326.1c0-0.9-0.2-1.4-0.6-1.4c-0.2,0-0.5,0.3-0.6,0.8c0,0.1,0,0.2,0,0.4c0,1,0.2,1.8,0.7,1.8
			C1414.5,1327.6,1414.8,1327,1414.8,1326.1z"/>
		<path d="M1415.6,1328.1v-0.5l0.3-0.6c0.8-1.5,1.2-2.3,1.2-3.2c0-0.6-0.2-1.2-0.6-1.2c-0.3,0-0.5,0.3-0.7,0.5l-0.1-0.6
			c0.2-0.4,0.5-0.6,0.9-0.6c0.7,0,1,0.9,1,1.8c0,1.1-0.4,2.1-1.1,3.3l-0.2,0.4l0,0h1.4v0.7L1415.6,1328.1L1415.6,1328.1z"/>
		<path d="M1418.6,1324.9c-0.4-0.3-0.5-0.8-0.5-1.4c0-1,0.4-1.6,1-1.6c0.6,0,0.9,0.7,0.9,1.5c0,0.5-0.1,1.1-0.5,1.4v0
			c0.4,0.3,0.6,0.8,0.6,1.6c0,1.1-0.5,1.8-1.1,1.8c-0.6,0-1-0.8-1-1.6C1418,1325.8,1418.3,1325.3,1418.6,1324.9L1418.6,1324.9z
			 M1419.7,1326.6c0-0.7-0.3-1.1-0.7-1.3c-0.4,0.2-0.6,0.7-0.6,1.3c0,0.6,0.2,1.2,0.6,1.2
			C1419.5,1327.7,1419.7,1327.2,1419.7,1326.6z M1418.5,1323.5c0,0.6,0.2,0.9,0.6,1.1c0.3-0.2,0.5-0.6,0.5-1.1c0-0.5-0.2-1-0.5-1
			C1418.7,1322.5,1418.5,1323,1418.5,1323.5z"/>
	</g>
</g>
<g id="Layer_1_1_">
	<g id="bottom">
		<g>
			<path fill="#F5DC75" d="M967.5,217.8c0,0,1.1-1.7,5.9-2.6c22.6-4.4,60-13.3,108.4,3.2c2.3,0.8,6.5,7.8,6,9.1
				c0,0,3,21.4-28.7,24.4c0,0-24.9,2.7-62.4-1.2C959.3,246.7,963.7,221,967.5,217.8z"/>
			<path fill="#FDC43D" d="M969.1,216.8c0,0-6,8.6,26.6,16.4c0,0,24,7.5,73.9-0.4c0,0,19.9-2.2,12.3-14.5"/>
		</g>
	</g>
	<g id="lettuce">
		<g>
			<path fill="#00F670" d="M1021.1,235.3c0.6,2.3,3.1,3.9,5.4,3.7c2.4-0.3,4.4-2.5,4.5-4.9c2.1,1.9,4.5,3.9,7.4,3.9
				c2.9,0,5.6-3.5,3.9-5.8c2.3,1.5,4.9,2.7,7.5,3.2c2.2,0.5,4.7,0.6,6.6-0.8c1.8-1.3,2.3-3.8,2.2-6c-0.3-3.7-2.3-7.2-5-9.7
				c-2.7-2.6-6-4.4-9.4-6c-14.8-7.2-31.2-11-47.7-11c-2.3,0-4.7,0.1-6.9,0.8c-2.1,0.6-3.9,1.8-5.7,3c-2.7,1.8-7.6,2.6-10.3,4.5
				c-3.5,2.5-5,6.4-5.7,10.6c-0.5,2.7,1.4,6.3,4.2,5.8c-2.1,1.8-3.4,4.7-2.9,7.4c0.4,2.7,3,5.1,5.7,4.9c2.8-0.2,5-3.4,3.9-5.9
				c0,1,0,2.1,0,3.1c2.1,1.4,4.5,2.3,7,2.7c1.5,0.2,3.1,0.2,4.3-0.5c1.3-0.7,2.2-2.3,1.7-3.7c1.1,3.9,6.8,5.7,9.9,3.1
				c2.2,3.2,7.7,3,9.7-0.3c0.5,2.2,3.2,3.3,5.3,2.7C1018.9,239.4,1020.4,237.5,1021.1,235.3z"/>
			<path fill="#6EBF5B" d="M1014.8,215.7c-0.4-2.4,0.8-4.7,2.1-6.7c0.4-0.7,0.9-1.4,1.4-2s1.2-1,1.9-1.4c9.4-5.3,21.2-5.6,31.5-2.3
				c10.3,3.3,19.4,9.7,27.3,17c2.5,2.3,4.9,4.8,5.9,8c0.6,2,0.6,4.1,0.5,6.2c-0.1,1.3-0.4,2.9-1.6,3.5c-0.9,0.4-1.9,0-2.9-0.1
				c-1-0.2-2.2-0.1-2.7,0.8c-0.2,0.4-0.2,0.8-0.4,1.2c-0.4,1.5-2.3,2.2-3.8,1.9c-1.5-0.3-2.7-1.4-3.7-2.6c-0.9,2-2.9,3.5-5,3.8
				c-2.2,0.4-4.5-0.4-6-2c-0.3-0.3-0.7-0.7-1.1-0.6c-0.2,0-0.4,0.2-0.6,0.4c-1.2,1.1-3.1,1.1-4.5,0.4c-1.4-0.8-2.4-2.2-3-3.7
				c-0.6,1.4-1.5,3.1-3.1,3.1c-0.6,0-1.1-0.2-1.6-0.5c-3.5-2.2-4.4-6.8-4.9-11c-8.9,1.1-18.3-2.7-24-9.6
				C1015.9,218.1,1015.1,216.9,1014.8,215.7z"/>
		</g>
		<path fill="none" stroke="#FFFFFF" stroke-width="5" stroke-linecap="round" stroke-miterlimit="10" d="M1022,212.8
			c6.4-0.2,12.8-0.4,19.1-0.6c4-0.1,8.1-0.1,11.8,1.2c3.8,1.4,6.9,4.1,10,6.8c3.2,2.8,6.5,5.7,8,9.7"/>
		<path fill="none" stroke="#FFFFFF" stroke-width="5" stroke-linecap="round" stroke-miterlimit="10" d="M1047.9,212.8
			c1,5.4,4.8,10.2,9.7,12.6"/>
		<path fill="none" stroke="#FFFFFF" stroke-width="5" stroke-linecap="round" stroke-miterlimit="10" d="M1048.8,212.4
			c3.1-0.2,8.9-0.6,12-0.1c3.1,0.5,6.1,1.8,8.1,4.2"/>
		<path fill="none" stroke="#FFFFFF" stroke-width="5" stroke-linecap="round" stroke-miterlimit="10" d="M1029.1,212.8
			c0.9,1.8,1.7,3.1,3.1,4.5s3.6,2.1,5.5,1.5"/>
		<path fill="none" stroke="#FFFFFF" stroke-width="5" stroke-linecap="round" stroke-miterlimit="10" d="M1067.5,224.3
			c4.5,0.5,8.9,1.7,13.1,3.5"/>
		<path fill="none" stroke="#FFFFFF" stroke-width="5" stroke-linecap="round" stroke-miterlimit="10" d="M1012.9,212.3
			c-11.2,1.8-19.7,4.7-29.4,10.6c-2.2,1.3-4.6,3-5,5.5"/>
		<path fill="none" stroke="#FFFFFF" stroke-width="5" stroke-linecap="round" stroke-miterlimit="10" d="M994.8,217.1
			c-5.2-1-9.2-1-14.4-0.4"/>
		<path fill="none" stroke="#FFFFFF" stroke-width="5" stroke-linecap="round" stroke-miterlimit="10" d="M994.8,217.1
			c2.6,3.7,5.3,9,5.1,13.6"/>
		<path fill="none" stroke="#FFFFFF" stroke-width="5" stroke-linecap="round" stroke-miterlimit="10" d="M1009.8,212.8
			c0.3,2,1.9,3.5,2.8,5.4c1.6,3.3,0.5,7.3-1,10.6"/>
		<path fill="none" stroke="#FFFFFF" stroke-width="5" stroke-linecap="round" stroke-miterlimit="10" d="M1009.5,212.9
			c0.1-1.6-1.7-2.1-3.1-2.9c-1.3-0.8-3-1.1-4.5-1.2c-3.3-0.4-6.7-0.4-10-0.2"/>
	</g>
	<g id="tomato">
		
			<ellipse transform="matrix(-0.9854 0.1704 -0.1704 -0.9854 2019.1813 247.4977)" fill="#EC2226" cx="999" cy="210.4" rx="32.8" ry="12.7"/>
		
			<ellipse transform="matrix(-0.9854 0.1704 -0.1704 -0.9854 2018.7377 241.7581)" fill="#EA4A24" cx="999" cy="207.5" rx="32.8" ry="12.7"/>
		<path fill="#EC2226" d="M983.8,209.5c0,0-9-3.3,1.8-7.5c0,0,4.7-2.8,9.5,2.3c0,0,3.3-7.3,10.8-5c0,0,10.8,0.1,11.3,3.3
			c0,0,0.8,3.9-3.9,4.9c0,0,6,6-4.1,7.3c0,0-9.8,2.6-12.3-3.5c0,0-0.1,6.9-12.1,5.4C984.8,216.8,970.6,214.2,983.8,209.5z"/>
		
			<ellipse transform="matrix(-0.9966 -8.183084e-02 8.183084e-02 -0.9966 2065.8831 515.9336)" fill="#EC2226" cx="1043.5" cy="215.6" rx="32.8" ry="13.3"/>
		
			<ellipse transform="matrix(-0.9966 -8.183084e-02 8.183084e-02 -0.9966 2063.886 508.9186)" fill="#EA4A24" cx="1042.4" cy="212.2" rx="32.8" ry="13.3"/>
		<path fill="#EC2226" d="M1057.5,217c0,0,9.5-1.2,0-7.7c0,0-3.9-3.8-9.8,0.1c0,0-1.5-7.9-9.3-7.3c0,0-10.5-2.3-11.8,0.6
			c0,0-1.7,3.6,2.7,5.6c0,0-7.2,4.4,2.3,8.1c0,0,8.9,4.8,12.8-0.5c0,0-1.4,6.8,10.6,8C1054.8,223.9,1069.3,224.6,1057.5,217z"/>
	</g>
	<g id="burger">
		<g>
			<path fill="#87662D" d="M970.6,185.5c0,0-0.4,0.2-0.8,0.5c-1.5,1-3.9,3.4,0.3,5.3c0,0-9.9,2.5-4.7,7.4c0,0-5.5,8.9,1.9,8.9
				c0,0-1.5,8.3,6.8,5.8c0,0,2.5,4.7,6.7,3.1c0,0-3.1,4.9,35.6,2.2c0,0,32.3,3.4,55.6-1.2c0,0,4,4.6,8.6-0.9c0,0,8.6,1.2,9.2-3.7
				c0,0,7.1-2.8,3.1-8.9c0,0,4.6-2.5-0.6-5.5c0,0,0.3-8.9-7.4-8.6c0,0-70.1-11-114.6-4.1"/>
			<path fill="#FDC43D" d="M987.1,229.8c0,0-3.7-27.3-5.8-31.6c0,0-14.3-9.2-10.7-12.6c0,0,28.2-23.4,96.7-7.1
				c0,0,16.6,2.5,19.5,12.3c0,0-39.2,10.8-54.8,10.5c0,0-10.1,3.1-12.3,5.8C1019.7,207,1006.1,224.8,987.1,229.8z"/>
			<ellipse fill="#FFFFFF" cx="987.9" cy="204" rx="3.1" ry="3.6"/>
			<ellipse fill="none" stroke="#FFFFFF" stroke-width="4" stroke-miterlimit="10" cx="1023" cy="211.8" rx="3.1" ry="3"/>
			<ellipse fill="none" stroke="#FFFFFF" stroke-width="4" stroke-miterlimit="10" cx="1036.3" cy="213.9" rx="3.1" ry="2.3"/>
			<path fill="none" stroke="#FFFFFF" stroke-width="4" stroke-miterlimit="10" d="M1048.6,211.6c0,0,4.4,3.9,7.8-0.9
				c0,0,13.7,3.1,11.2-5.1"/>
			<path fill="#FFFFFF" d="M987.9,194.9c0,0-4.9-3.3-4.6-7.7c0,0,1.8-5.3-2.6-4.3c0,0-5.3,2.3-1.1,7.6
				C979.6,190.6,982.2,194.4,987.9,194.9z"/>
			<path fill="#FFFFFF" d="M1040.7,176.3c0,0,18.7-0.9,34,7.9c0,0-0.1,2.1-2.1,1.9c0,0-11.4-7.6-31.9-7.1
				C1040.7,179,1036.8,177.6,1040.7,176.3z"/>
		</g>
	</g>
	<g id="top">
		<g>
			<path fill="#F5DC75" d="M1073.5,157.2c2.2,2,6.4,6.1,7.9,8.6c4.7,7.7,7,13.5,5.3,22.4c-1.2,6.5-16.7,7.2-18.2,7.3
				c-24.6,0.6-32.8,1.7-58.8,1.4c-6.6-0.1-30.9-1.4-34.2-3.4c-3.3-2.1-8.8-3.7-9.9-7.4c-2-7,2.1-14.2,7-19.5
				c14.9-16,35.8-21.4,57.7-22.4c4.6-0.2,10.7,0,15.3,0.8c7.2,1.1,13.8,3.9,20.3,7.3C1068.7,153.6,1071.2,155.2,1073.5,157.2z"/>
			<path fill="#FFFFFF" d="M988.9,166.6c0,1.4-1.2,2.5-2.8,2.5c-1.5,0-7.6-1.1-7.6-2.5c0-1.4,6.1-2.5,7.6-2.5
				C987.6,164.1,988.9,165.2,988.9,166.6z"/>
			<path fill="#FFFFFF" d="M1005.1,165c-0.4-1.3,0.6-2.7,2.1-3.1c1.5-0.4,7.6-0.8,8,0.6c0.4,1.3-5.3,3.9-6.8,4.3
				C1007,167.1,1005.5,166.3,1005.1,165z"/>
			<path fill="#FFFFFF" d="M1000.1,154.1c-0.3-1.3,0.6-2.7,2.1-3.1c1.5-0.4,7.6-0.8,8,0.6c0.3,1.3-5.3,3.9-6.8,4.3
				C1001.9,156.3,1000.4,155.4,1000.1,154.1z"/>
			<path fill="#FFFFFF" d="M1028.8,160.9c-0.9,1-2.6,1.1-3.7,0.1c-1.2-1-5.1-5.7-4.3-6.8c0.9-1,6.2,1.9,7.4,2.9
				S1029.7,159.8,1028.8,160.9z"/>
			<path fill="#FFFFFF" d="M1042.8,154.5c-1.1,0.8-2.7,0.5-3.7-0.7c-0.9-1.2-3.8-6.7-2.7-7.5c1.1-0.8,5.7,3.2,6.6,4.5
				C1044,152,1043.9,153.7,1042.8,154.5z"/>
			<path fill="#FFFFFF" d="M1047.1,167.9c-0.5,1.3-2.1,1.8-3.5,1.3c-1.4-0.6-6.6-3.9-6.2-5.1c0.5-1.3,6.6-0.1,8,0.5
				C1046.8,165.1,1047.6,166.6,1047.1,167.9z"/>
			<path fill="#FFFFFF" d="M1062.1,152.3c0.8,1.1,0.5,2.7-0.8,3.7c-1.2,0.9-6.8,3.6-7.6,2.5c-0.8-1.1,3.4-5.6,4.6-6.6
				S1061.2,151.1,1062.1,152.3z"/>
			<path fill="#FFFFFF" d="M1062.4,165.8c0.4-1.3,1.9-2.1,3.4-1.6c1.5,0.4,7,3.2,6.6,4.5c-0.4,1.3-6.5,0.7-8,0.2
				C1063,168.5,1062.1,167.1,1062.4,165.8z"/>
		</g>
		<g id="drops">
			<path fill="#EC2226" d="M1106.4,219.8c0,0,7.9-15.4,21.1-10.6c0,0,9.5,3.3,6.1,11.6c0,0-2.2,5.6-9.8,1.4c0,0-4.5-6.6-12.9-4.4
				C1110.8,218,1106.7,218.8,1106.4,219.8z"/>
			<path fill="#EC2226" d="M1102.1,229.4c0,0,21.9,0,23.5,17.2c0,0-0.4,8.3-9.7,6.4c0,0-7.4-1.4-4.8-10.1
				C1111.1,243,1114.3,233.4,1102.1,229.4z"/>
			<path fill="#FFFFFF" d="M1117.6,237.8c0,0,10.5,7.3,2.4,12.6c-0.4,0.2-0.7,0.4-1.1,0.4c-1,0-3.1-0.1-4.1-1.3
				C1114.8,249.4,1126.3,249.8,1117.6,237.8z"/>
			<path fill="#FDC43D" d="M954.5,229.5c0,0-21.7-3.1-25.7,13.8c0,0-0.8,8.3,8.7,7.7c0,0,7.5-0.3,6.2-9.2
				C943.7,241.7,941.9,231.8,954.5,229.5z"/>
			<path fill="#FFFFFF" d="M938,235.7c0,0-11.4,5.7-4.2,12.2c0.3,0.3,0.7,0.4,1.1,0.5c1,0.2,3.1,0.3,4.3-0.8
				C939.2,247.6,927.7,246.3,938,235.7z"/>
			<path fill="#FFFFFF" d="M1123,211.3c0,0,7.7-1.4,9.2,5.7c0,0,0.8,1.1-2.2,4.5C1130.1,221.5,1132,214.7,1123,211.3z"/>
		</g>
	</g>
	<g id="bottom_1_">
		<g>
			<path fill="#F5DC75" d="M968.2,473.2c0,0,1.1-1.7,5.9-2.6c22.6-4.4,60-13.3,108.4,3.2c2.3,0.8,6.5,7.8,6,9.1
				c0,0,3,21.4-28.7,24.4c0,0-24.9,2.7-62.4-1.2C960,502,964.5,476.4,968.2,473.2z"/>
			<path fill="#FDC43D" d="M969.8,472.2c0,0-6,8.6,26.6,16.4c0,0,24,7.5,73.9-0.4c0,0,19.9-2.2,12.3-14.5"/>
		</g>
	</g>
	<g id="lettuce_1_">
		<g>
			<path fill="#00F670" d="M1021.9,488.1c0.6,2.3,3.1,3.9,5.4,3.7c2.4-0.3,4.4-2.5,4.5-4.9c2.1,1.9,4.5,3.9,7.4,3.9
				c2.9,0,5.6-3.5,3.9-5.8c2.3,1.5,4.9,2.7,7.5,3.2c2.2,0.5,4.7,0.6,6.6-0.8c1.8-1.3,2.3-3.8,2.2-6c-0.3-3.7-2.3-7.2-5-9.7
				c-2.7-2.6-6-4.4-9.4-6c-14.8-7.2-31.2-11-47.7-11c-2.3,0-4.7,0.1-6.9,0.8c-2.1,0.6-3.9,1.8-5.7,3c-2.7,1.8-7.6,2.6-10.3,4.5
				c-3.5,2.5-5,6.4-5.7,10.6c-0.5,2.7,1.4,6.3,4.2,5.8c-2.1,1.8-3.4,4.7-2.9,7.4s3,5.1,5.7,4.9c2.8-0.2,5-3.4,3.9-5.9
				c0,1,0,2.1,0,3.1c2.1,1.4,4.5,2.3,7,2.7c1.5,0.2,3.1,0.2,4.3-0.5c1.3-0.7,2.2-2.3,1.7-3.7c1.1,3.9,6.8,5.7,9.9,3.1
				c2.2,3.2,7.7,3,9.7-0.3c0.5,2.2,3.2,3.3,5.3,2.7C1019.6,492.2,1021.1,490.2,1021.9,488.1z"/>
			<path fill="#6EBF5B" d="M1015.6,468.4c-0.4-2.4,0.8-4.7,2.1-6.7c0.4-0.7,0.9-1.4,1.4-2c0.6-0.6,1.2-1,1.9-1.4
				c9.4-5.3,21.2-5.6,31.5-2.3c10.3,3.3,19.4,9.7,27.3,17c2.5,2.3,4.9,4.8,5.9,8c0.6,2,0.6,4.1,0.5,6.2c-0.1,1.3-0.4,2.9-1.6,3.5
				c-0.9,0.4-1.9,0-2.9-0.1c-1-0.2-2.2-0.1-2.7,0.8c-0.2,0.4-0.2,0.8-0.4,1.2c-0.4,1.5-2.3,2.2-3.8,1.9c-1.5-0.3-2.7-1.4-3.7-2.6
				c-0.9,2-2.9,3.5-5,3.8c-2.2,0.4-4.5-0.4-6-2c-0.3-0.3-0.7-0.7-1.1-0.6c-0.2,0-0.4,0.2-0.6,0.4c-1.2,1.1-3.1,1.1-4.5,0.4
				s-2.4-2.2-3-3.7c-0.6,1.4-1.5,3.1-3.1,3.1c-0.6,0-1.1-0.2-1.6-0.5c-3.5-2.2-4.4-6.8-4.9-11c-8.9,1.1-18.3-2.7-24-9.6
				C1016.6,470.8,1015.8,469.7,1015.6,468.4z"/>
		</g>
		<path fill="none" stroke="#FFFFFF" stroke-width="5" stroke-linecap="round" stroke-miterlimit="10" d="M1022.8,465.6
			c6.4-0.2,12.8-0.4,19.1-0.6c4-0.1,8.1-0.1,11.8,1.2c3.8,1.4,6.9,4.1,10,6.8c3.2,2.8,6.5,5.7,8,9.7"/>
		<path fill="none" stroke="#FFFFFF" stroke-width="5" stroke-linecap="round" stroke-miterlimit="10" d="M1048.6,465.5
			c1,5.4,4.8,10.2,9.7,12.6"/>
		<path fill="none" stroke="#FFFFFF" stroke-width="5" stroke-linecap="round" stroke-miterlimit="10" d="M1049.5,465.1
			c3.1-0.2,8.9-0.6,12-0.1c3.1,0.5,6.1,1.8,8.1,4.2"/>
		<path fill="none" stroke="#FFFFFF" stroke-width="5" stroke-linecap="round" stroke-miterlimit="10" d="M1029.9,465.5
			c0.9,1.8,1.7,3.1,3.1,4.5c1.4,1.3,3.6,2.1,5.5,1.5"/>
		<path fill="none" stroke="#FFFFFF" stroke-width="5" stroke-linecap="round" stroke-miterlimit="10" d="M1068.2,477.1
			c4.5,0.5,8.9,1.7,13.1,3.5"/>
		<path fill="none" stroke="#FFFFFF" stroke-width="5" stroke-linecap="round" stroke-miterlimit="10" d="M1013.6,465.1
			c-11.2,1.8-19.7,4.7-29.4,10.6c-2.2,1.3-4.6,3-5,5.5"/>
		<path fill="none" stroke="#FFFFFF" stroke-width="5" stroke-linecap="round" stroke-miterlimit="10" d="M995.5,469.9
			c-5.2-1-9.2-1-14.4-0.4"/>
		<path fill="none" stroke="#FFFFFF" stroke-width="5" stroke-linecap="round" stroke-miterlimit="10" d="M995.5,469.9
			c2.6,3.7,5.3,9,5.1,13.6"/>
		<path fill="none" stroke="#FFFFFF" stroke-width="5" stroke-linecap="round" stroke-miterlimit="10" d="M1010.5,465.5
			c0.3,2,1.9,3.5,2.8,5.4c1.6,3.3,0.5,7.3-1,10.6"/>
		<path fill="none" stroke="#FFFFFF" stroke-width="5" stroke-linecap="round" stroke-miterlimit="10" d="M1010.2,465.7
			c0.1-1.6-1.7-2.1-3.1-2.9c-1.4-0.8-3-1.1-4.5-1.2c-3.3-0.4-6.7-0.4-10-0.2"/>
	</g>
	<g id="tomato_1_">
		
			<ellipse transform="matrix(-0.9854 0.1704 -0.1704 -0.9854 2063.1667 742.6286)" fill="#EC2226" cx="999.7" cy="459.9" rx="32.8" ry="12.7"/>
		
			<ellipse transform="matrix(-0.9854 0.1704 -0.1704 -0.9854 2062.688 736.9634)" fill="#EA4A24" cx="999.7" cy="457" rx="32.8" ry="12.7"/>
		<path fill="#EC2226" d="M984.6,458.9c0,0-9-3.3,1.8-7.5c0,0,4.7-2.8,9.5,2.3c0,0,3.3-7.3,10.8-5c0,0,10.8,0.1,11.3,3.3
			c0,0,0.8,3.9-3.9,4.9c0,0,6,6-4.1,7.3c0,0-9.8,2.6-12.3-3.5c0,0-0.1,6.9-12.1,5.4C985.6,466.3,971.3,463.7,984.6,458.9z"/>
		
			<ellipse transform="matrix(-0.9966 -8.183084e-02 8.183084e-02 -0.9966 2046.9524 1014.1367)" fill="#EC2226" cx="1044.3" cy="465.1" rx="32.8" ry="13.3"/>
		
			<ellipse transform="matrix(-0.9966 -8.183084e-02 8.183084e-02 -0.9966 2044.8757 1007.1119)" fill="#EA4A24" cx="1043.1" cy="461.7" rx="32.8" ry="13.3"/>
		<path fill="#EC2226" d="M1058.2,466.5c0,0,9.5-1.2,0-7.7c0,0-3.9-3.8-9.8,0.1c0,0-1.5-7.9-9.3-7.3c0,0-10.5-2.3-11.8,0.6
			c0,0-1.7,3.6,2.7,5.6c0,0-7.2,4.4,2.3,8.1c0,0,8.9,4.8,12.8-0.5c0,0-1.4,6.8,10.6,8C1055.5,473.4,1070,474.1,1058.2,466.5z"/>
	</g>
	<g id="burger_1_">
		<g>
			<path fill="#87662D" d="M971.3,432.3c0,0-0.4,0.2-0.8,0.5c-1.5,1-3.9,3.4,0.3,5.3c0,0-9.9,2.5-4.7,7.4c0,0-5.5,8.9,1.9,8.9
				c0,0-1.5,8.3,6.8,5.8c0,0,2.5,4.7,6.7,3.1c0,0-3.1,4.9,35.6,2.2c0,0,32.3,3.4,55.6-1.2c0,0,4,4.6,8.6-0.9c0,0,8.6,1.2,9.2-3.7
				c0,0,7.1-2.8,3.1-8.9c0,0,4.6-2.5-0.6-5.5c0,0,0.3-8.9-7.4-8.6c0,0-70.1-11-114.6-4.1"/>
			<path fill="#FDC43D" d="M987.9,476.6c0,0-3.7-27.3-5.8-31.6c0,0-14.3-9.2-10.7-12.6c0,0,28.2-23.4,96.7-7.1
				c0,0,16.6,2.5,19.5,12.3c0,0-39.2,10.8-54.8,10.5c0,0-10.1,3.1-12.3,5.8C1020.4,453.8,1006.9,471.6,987.9,476.6z"/>
			<ellipse fill="#FFFFFF" cx="988.6" cy="450.7" rx="3.1" ry="3.6"/>
			<ellipse fill="none" stroke="#FFFFFF" stroke-width="4" stroke-miterlimit="10" cx="1023.8" cy="458.5" rx="3.1" ry="3"/>
			<ellipse fill="none" stroke="#FFFFFF" stroke-width="4" stroke-miterlimit="10" cx="1037.1" cy="460.7" rx="3.1" ry="2.3"/>
			<path fill="none" stroke="#FFFFFF" stroke-width="4" stroke-miterlimit="10" d="M1049.3,458.5c0,0,4.4,3.9,7.8-0.9
				c0,0,13.7,3.1,11.2-5.1"/>
			<path fill="#FFFFFF" d="M988.6,441.7c0,0-4.9-3.3-4.6-7.7c0,0,1.8-5.3-2.6-4.3c0,0-5.3,2.3-1.1,7.6
				C980.3,437.4,983,441.2,988.6,441.7z"/>
			<path fill="#FFFFFF" d="M1041.4,423.1c0,0,18.7-0.9,34,7.9c0,0-0.1,2.1-2.1,1.9c0,0-11.4-7.6-31.9-7.1
				C1041.4,425.8,1037.5,424.4,1041.4,423.1z"/>
		</g>
	</g>
	<g id="top_1_">
		<g>
			<path fill="#F5DC75" d="M1074.2,402.1c2.2,2,6.4,6.1,7.9,8.6c4.7,7.7,7,13.5,5.3,22.4c-1.2,6.5-16.7,7.2-18.2,7.3
				c-24.6,0.6-32.8,1.7-58.8,1.4c-6.6-0.1-30.9-1.4-34.2-3.4c-3.3-2.1-8.8-3.7-9.9-7.4c-2-7,2.1-14.2,7-19.5
				c14.9-16,35.8-21.4,57.7-22.4c4.6-0.2,10.7,0,15.3,0.8c7.2,1.1,13.8,3.9,20.3,7.3C1069.4,398.5,1072,400,1074.2,402.1z"/>
			<path fill="#FFFFFF" d="M989.6,411.5c0,1.4-1.2,2.5-2.8,2.5s-7.6-1.1-7.6-2.5s6.1-2.5,7.6-2.5C988.3,409,989.6,410.1,989.6,411.5
				z"/>
			<path fill="#FFFFFF" d="M1005.9,409.8c-0.4-1.3,0.6-2.7,2.1-3.1c1.5-0.4,7.6-0.8,8,0.6c0.3,1.3-5.3,3.9-6.8,4.3
				C1007.7,411.9,1006.2,411.2,1005.9,409.8z"/>
			<path fill="#FFFFFF" d="M1000.8,399c-0.3-1.3,0.6-2.7,2.1-3.1c1.5-0.4,7.6-0.8,8,0.6c0.3,1.3-5.3,3.9-6.8,4.3
				C1002.6,401.1,1001.1,400.4,1000.8,399z"/>
			<path fill="#FFFFFF" d="M1029.5,405.8c-0.9,1-2.6,1.1-3.7,0.1c-1.2-1-5.1-5.7-4.3-6.8c0.9-1,6.2,1.9,7.4,2.9
				C1030.2,403.1,1030.4,404.7,1029.5,405.8z"/>
			<path fill="#FFFFFF" d="M1043.5,399.5c-1.1,0.8-2.7,0.5-3.7-0.7c-0.9-1.2-3.8-6.7-2.7-7.5c1.1-0.8,5.7,3.2,6.6,4.5
				C1044.7,396.9,1044.6,398.6,1043.5,399.5z"/>
			<path fill="#FFFFFF" d="M1047.8,412.7c-0.5,1.3-2.1,1.8-3.5,1.3c-1.4-0.6-6.6-3.9-6.2-5.1s6.6-0.1,8,0.5
				C1047.6,410,1048.3,411.5,1047.8,412.7z"/>
			<path fill="#FFFFFF" d="M1062.8,397.1c0.8,1.1,0.5,2.7-0.8,3.7c-1.2,0.9-6.8,3.6-7.6,2.5c-0.8-1.1,3.4-5.6,4.6-6.6
				C1060.3,395.9,1062,396,1062.8,397.1z"/>
			<path fill="#FFFFFF" d="M1063.2,410.7c0.4-1.3,1.9-2.1,3.4-1.6c1.5,0.4,7,3.2,6.6,4.5c-0.4,1.3-6.5,0.7-8,0.2
				C1063.7,413.4,1062.8,412,1063.2,410.7z"/>
		</g>
		<g id="drops_1_">
			<path fill="#EC2226" d="M1095.5,457.9c0,0,7.9-15.4,21.1-10.6c0,0,9.5,3.3,6.1,11.6c0,0-2.2,5.6-9.8,1.4c0,0-4.5-6.6-12.9-4.4
				C1099.9,456,1095.8,456.9,1095.5,457.9z"/>
			<path fill="#EC2226" d="M1091.3,467.4c0,0,21.9,0,23.5,17.2c0,0-0.4,8.3-9.7,6.4c0,0-7.4-1.4-4.8-10.1
				C1100.3,481,1103.4,471.4,1091.3,467.4z"/>
			<path fill="#FFFFFF" d="M1106.7,475.9c0,0,10.5,7.3,2.4,12.6c-0.4,0.2-0.7,0.4-1.1,0.4c-1,0-3.1-0.1-4.1-1.3
				C1103.9,487.5,1115.5,487.9,1106.7,475.9z"/>
			<path fill="#FDC43D" d="M970,461.6c0,0-21.7-3.1-25.7,13.8c0,0-0.8,8.3,8.7,7.7c0,0,7.5-0.3,6.2-9.2
				C959.2,473.7,957.4,463.8,970,461.6z"/>
			<path fill="#FFFFFF" d="M953.6,467.7c0,0-11.4,5.7-4.2,12.2c0.3,0.3,0.7,0.4,1.1,0.5c1,0.2,3.1,0.3,4.3-0.8
				C954.7,479.7,943.2,478.3,953.6,467.7z"/>
			<path fill="#FFFFFF" d="M1112.1,449.3c0,0,7.7-1.4,9.2,5.7c0,0,0.8,1.1-2.2,4.5C1119.2,459.6,1121.2,452.8,1112.1,449.3z"/>
		</g>
	</g>
	<g id="bottom_2_">
		<g>
			<path fill="#F5DC75" d="M968.3,730.2c0,0,1.1-1.7,5.9-2.6c22.6-4.4,60-13.3,108.4,3.2c2.3,0.8,6.5,7.8,6,9.1
				c0,0,3,21.4-28.7,24.4c0,0-24.9,2.7-62.4-1.2C960.2,759.1,964.5,733.5,968.3,730.2z"/>
			<path fill="#FDC43D" d="M969.9,729.3c0,0-6,8.6,26.6,16.4c0,0,24,7.5,73.9-0.4c0,0,19.9-2.2,12.3-14.5"/>
		</g>
	</g>
	<g id="lettuce_2_">
		<g>
			<path fill="#00F670" d="M1021.9,740c0.6,2.3,3.1,3.9,5.4,3.7c2.4-0.3,4.4-2.5,4.5-4.9c2.1,1.9,4.5,3.9,7.4,3.9
				c2.9,0,5.6-3.5,3.9-5.8c2.3,1.5,4.9,2.7,7.5,3.2c2.2,0.5,4.7,0.6,6.6-0.8c1.8-1.3,2.3-3.8,2.2-6c-0.3-3.7-2.3-7.2-5-9.7
				c-2.7-2.6-6-4.4-9.4-6c-14.8-7.2-31.2-11-47.7-11c-2.3,0-4.7,0.1-6.9,0.8c-2.1,0.6-3.9,1.8-5.7,3c-2.7,1.8-7.6,2.6-10.3,4.5
				c-3.5,2.5-5,6.4-5.7,10.6c-0.5,2.7,1.4,6.3,4.2,5.8c-2.1,1.8-3.4,4.7-2.9,7.4c0.4,2.7,3,5.1,5.7,4.9s5-3.4,3.9-5.9
				c0,1,0,2.1,0,3.1c2.1,1.4,4.5,2.3,7,2.7c1.5,0.2,3.1,0.2,4.3-0.5s2.2-2.3,1.7-3.7c1.1,3.9,6.8,5.7,9.9,3.1c2.2,3.2,7.7,3,9.7-0.3
				c0.5,2.2,3.2,3.3,5.3,2.7C1019.7,744.1,1021.3,742.1,1021.9,740z"/>
			<path fill="#6EBF5B" d="M1015.6,720.3c-0.4-2.4,0.8-4.7,2.1-6.7c0.4-0.7,0.9-1.4,1.4-2c0.6-0.6,1.2-1,1.9-1.4
				c9.4-5.3,21.2-5.6,31.5-2.3c10.3,3.3,19.4,9.7,27.3,17c2.5,2.3,4.9,4.8,5.9,8c0.6,2,0.6,4.1,0.5,6.2c-0.1,1.3-0.4,2.9-1.6,3.5
				c-0.9,0.4-1.9,0-2.9-0.1c-1-0.2-2.2-0.1-2.7,0.8c-0.2,0.4-0.2,0.8-0.4,1.2c-0.4,1.5-2.3,2.2-3.8,1.9c-1.5-0.3-2.7-1.4-3.7-2.6
				c-0.9,2-2.9,3.5-5,3.8c-2.2,0.4-4.5-0.4-6-2c-0.3-0.3-0.7-0.7-1.1-0.6c-0.2,0-0.4,0.2-0.6,0.4c-1.2,1.1-3.1,1.1-4.5,0.4
				c-1.4-0.8-2.4-2.2-3-3.7c-0.6,1.4-1.5,3.1-3.1,3.1c-0.6,0-1.1-0.2-1.6-0.5c-3.5-2.2-4.4-6.8-4.9-11c-8.9,1.1-18.3-2.7-24-9.6
				C1016.7,722.8,1015.9,721.6,1015.6,720.3z"/>
		</g>
		<path fill="none" stroke="#FFFFFF" stroke-width="5" stroke-linecap="round" stroke-miterlimit="10" d="M1022.9,717.5
			c6.4-0.2,12.8-0.4,19.1-0.6c4-0.1,8.1-0.1,11.8,1.2c3.8,1.4,6.9,4.1,10,6.8c3.2,2.8,6.5,5.7,8,9.7"/>
		<path fill="none" stroke="#FFFFFF" stroke-width="5" stroke-linecap="round" stroke-miterlimit="10" d="M1048.7,717.5
			c1,5.4,4.8,10.2,9.7,12.6"/>
		<path fill="none" stroke="#FFFFFF" stroke-width="5" stroke-linecap="round" stroke-miterlimit="10" d="M1049.6,717.1
			c3.1-0.2,8.9-0.6,12-0.1c3.1,0.5,6.1,1.8,8.1,4.2"/>
		<path fill="none" stroke="#FFFFFF" stroke-width="5" stroke-linecap="round" stroke-miterlimit="10" d="M1030,717.5
			c0.9,1.8,1.7,3.1,3.1,4.5s3.6,2.1,5.5,1.5"/>
		<path fill="none" stroke="#FFFFFF" stroke-width="5" stroke-linecap="round" stroke-miterlimit="10" d="M1068.3,729
			c4.5,0.5,8.9,1.7,13.1,3.5"/>
		<path fill="none" stroke="#FFFFFF" stroke-width="5" stroke-linecap="round" stroke-miterlimit="10" d="M1013.7,717
			c-11.2,1.8-19.7,4.7-29.4,10.6c-2.2,1.3-4.6,3-5,5.5"/>
		<path fill="none" stroke="#FFFFFF" stroke-width="5" stroke-linecap="round" stroke-miterlimit="10" d="M995.7,721.8
			c-5.2-1-9.2-1-14.4-0.4"/>
		<path fill="none" stroke="#FFFFFF" stroke-width="5" stroke-linecap="round" stroke-miterlimit="10" d="M995.7,721.8
			c2.6,3.7,5.3,9,5.1,13.6"/>
		<path fill="none" stroke="#FFFFFF" stroke-width="5" stroke-linecap="round" stroke-miterlimit="10" d="M1010.7,717.4
			c0.3,2,1.9,3.5,2.8,5.4c1.6,3.3,0.5,7.3-1,10.6"/>
		<path fill="none" stroke="#FFFFFF" stroke-width="5" stroke-linecap="round" stroke-miterlimit="10" d="M1010.3,717.6
			c0.1-1.6-1.7-2.1-3.1-2.9c-1.4-0.8-3-1.1-4.5-1.2c-3.3-0.4-6.7-0.4-10-0.2"/>
	</g>
	<g id="tomato_2_">
		
			<ellipse transform="matrix(-0.9854 0.1704 -0.1704 -0.9854 2105.9333 1238.6095)" fill="#EC2226" cx="999.8" cy="709.7" rx="32.8" ry="12.7"/>
		
			<ellipse transform="matrix(-0.9854 0.1704 -0.1704 -0.9854 2105.4543 1232.9442)" fill="#EA4A24" cx="999.8" cy="706.8" rx="32.8" ry="12.7"/>
		<path fill="#EC2226" d="M984.7,708.8c0,0-9-3.3,1.8-7.5c0,0,4.7-2.8,9.5,2.3c0,0,3.3-7.3,10.8-5c0,0,10.8,0.1,11.3,3.3
			c0,0,0.8,3.9-3.9,4.9c0,0,6,6-4.1,7.3c0,0-9.8,2.6-12.3-3.5c0,0-0.1,6.9-12.1,5.4C985.6,716.1,971.4,713.4,984.7,708.8z"/>
		
			<ellipse transform="matrix(-0.9966 -8.183084e-02 8.183084e-02 -0.9966 2026.6573 1512.951)" fill="#EC2226" cx="1044.3" cy="714.9" rx="32.8" ry="13.3"/>
		
			<ellipse transform="matrix(-0.9966 -8.183084e-02 8.183084e-02 -0.9966 2024.6499 1505.804)" fill="#EA4A24" cx="1043.2" cy="711.4" rx="32.8" ry="13.3"/>
		<path fill="#EC2226" d="M1058.3,716.3c0,0,9.5-1.2,0-7.7c0,0-3.9-3.8-9.8,0.1c0,0-1.5-7.9-9.3-7.3c0,0-10.5-2.3-11.8,0.6
			c0,0-1.7,3.6,2.7,5.6c0,0-7.2,4.4,2.3,8.1c0,0,8.9,4.8,12.8-0.5c0,0-1.4,6.8,10.6,8C1055.6,723.2,1070.1,723.9,1058.3,716.3z"/>
	</g>
	<g id="burger_2_">
		<g>
			<path fill="#87662D" d="M971.4,678.3c0,0-0.4,0.2-0.8,0.5c-1.5,1-3.9,3.4,0.3,5.3c0,0-9.9,2.5-4.7,7.4c0,0-5.5,8.9,1.9,8.9
				c0,0-1.5,8.3,6.8,5.8c0,0,2.5,4.7,6.7,3.1c0,0-3.1,4.9,35.6,2.2c0,0,32.3,3.4,55.6-1.2c0,0,4,4.6,8.6-0.9c0,0,8.6,1.2,9.2-3.7
				c0,0,7.1-2.8,3.1-8.9c0,0,4.6-2.5-0.6-5.5c0,0,0.3-8.9-7.4-8.6c0,0-70.1-11-114.6-4.1"/>
			<path fill="#FDC43D" d="M987.9,722.6c0,0-3.7-27.3-5.8-31.6c0,0-14.3-9.2-10.7-12.6c0,0,28.2-23.4,96.7-7.1
				c0,0,16.6,2.5,19.5,12.3c0,0-39.2,10.8-54.8,10.5c0,0-10.1,3.1-12.3,5.8C1020.5,699.8,1007,717.7,987.9,722.6z"/>
			<ellipse fill="#FFFFFF" cx="988.7" cy="696.8" rx="3.1" ry="3.6"/>
			<ellipse fill="none" stroke="#FFFFFF" stroke-width="4" stroke-miterlimit="10" cx="1023.8" cy="704.6" rx="3.1" ry="3"/>
			<ellipse fill="none" stroke="#FFFFFF" stroke-width="4" stroke-miterlimit="10" cx="1037.2" cy="706.7" rx="3.1" ry="2.3"/>
			<path fill="none" stroke="#FFFFFF" stroke-width="4" stroke-miterlimit="10" d="M1049.4,704.5c0,0,4.4,3.9,7.8-0.9
				c0,0,13.7,3.1,11.2-5.1"/>
			<path fill="#FFFFFF" d="M988.7,687.7c0,0-4.9-3.3-4.6-7.7c0,0,1.8-5.3-2.6-4.3c0,0-5.3,2.3-1.1,7.6
				C980.5,683.4,983.1,687.2,988.7,687.7z"/>
			<path fill="#FFFFFF" d="M1041.5,669.1c0,0,18.7-0.9,34,7.9c0,0-0.1,2.1-2.1,1.9c0,0-11.4-7.6-31.9-7.1
				C1041.5,671.8,1037.7,670.4,1041.5,669.1z"/>
		</g>
	</g>
	<g id="top_2_">
		<g>
			<path fill="#F5DC75" d="M1074.3,645.5c2.2,2,6.4,6.1,7.9,8.6c4.7,7.7,7,13.5,5.3,22.4c-1.2,6.5-16.7,7.2-18.2,7.3
				c-24.6,0.6-32.8,1.7-58.8,1.4c-6.6-0.1-30.9-1.4-34.2-3.4c-3.3-2.1-8.8-3.7-9.9-7.4c-2-7,2.1-14.2,7-19.5
				c14.9-16,35.8-21.4,57.7-22.4c4.6-0.2,10.7,0,15.3,0.8c7.2,1.1,13.8,3.9,20.3,7.3C1069.5,641.8,1072,643.4,1074.3,645.5z"/>
			<path fill="#FFFFFF" d="M989.7,654.8c0,1.4-1.2,2.5-2.8,2.5c-1.5,0-7.6-1.1-7.6-2.5s6.1-2.5,7.6-2.5S989.7,653.5,989.7,654.8z"/>
			<path fill="#FFFFFF" d="M1006,653.2c-0.4-1.3,0.6-2.7,2.1-3.1c1.5-0.4,7.6-0.8,8,0.6c0.4,1.3-5.3,3.9-6.8,4.3
				C1007.8,655.3,1006.3,654.5,1006,653.2z"/>
			<path fill="#FFFFFF" d="M1000.9,642.4c-0.3-1.3,0.6-2.7,2.1-3.1c1.5-0.4,7.6-0.8,8,0.6s-5.3,3.9-6.8,4.3
				C1002.7,644.5,1001.2,643.7,1000.9,642.4z"/>
			<path fill="#FFFFFF" d="M1029.7,649.1c-0.9,1-2.6,1.1-3.7,0.1c-1.2-1-5.1-5.7-4.3-6.8c0.9-1,6.2,1.9,7.4,2.9
				C1030.3,646.3,1030.6,648,1029.7,649.1z"/>
			<path fill="#FFFFFF" d="M1043.6,642.8c-1.1,0.8-2.7,0.5-3.7-0.7c-0.9-1.2-3.8-6.7-2.7-7.5c1.1-0.8,5.7,3.2,6.6,4.5
				C1044.8,640.3,1044.7,642,1043.6,642.8z"/>
			<path fill="#FFFFFF" d="M1047.9,656.1c-0.5,1.3-2.1,1.8-3.5,1.3s-6.6-3.9-6.2-5.1c0.5-1.3,6.6-0.1,8,0.5
				C1047.7,653.3,1048.4,654.8,1047.9,656.1z"/>
			<path fill="#FFFFFF" d="M1062.9,640.5c0.8,1.1,0.5,2.7-0.8,3.7c-1.2,0.9-6.8,3.6-7.6,2.5c-0.8-1.1,3.4-5.6,4.6-6.6
				C1060.4,639.2,1062.1,639.3,1062.9,640.5z"/>
			<path fill="#FFFFFF" d="M1063.3,654c0.4-1.3,1.9-2.1,3.4-1.6c1.5,0.4,7,3.2,6.6,4.5c-0.4,1.3-6.5,0.7-8,0.2
				C1063.8,656.8,1062.9,655.3,1063.3,654z"/>
		</g>
		<g id="drops_2_">
		</g>
	</g>
	<g id="bottom_3_">
		<g>
			<path fill="#F5DC75" d="M967.2,987.5c0,0,1.1-1.7,5.9-2.6c22.6-4.4,60-13.3,108.4,3.2c2.3,0.8,6.5,7.8,6,9.1
				c0,0,3,21.4-28.7,24.4c0,0-24.9,2.7-62.4-1.2C959.1,1016.4,963.5,990.8,967.2,987.5z"/>
			<path fill="#FDC43D" d="M968.8,986.6c0,0-6,8.6,26.6,16.4c0,0,24,7.5,73.9-0.4c0,0,19.9-2.2,12.3-14.5"/>
		</g>
	</g>
	<g id="lettuce_3_">
		<g>
			<path fill="#00F670" d="M1020.9,990.5c0.6,2.3,3.1,3.9,5.4,3.7c2.4-0.2,4.4-2.5,4.5-4.9c2.1,1.9,4.5,3.9,7.4,3.9
				c2.9,0,5.6-3.5,3.9-5.8c2.3,1.5,4.9,2.7,7.5,3.2c2.2,0.5,4.7,0.6,6.6-0.8c1.8-1.3,2.3-3.8,2.2-6c-0.3-3.7-2.3-7.2-5-9.7
				c-2.7-2.6-6-4.4-9.4-6c-14.8-7.2-31.2-11-47.7-11c-2.3,0-4.7,0.1-6.9,0.8c-2.1,0.6-3.9,1.8-5.7,3c-2.7,1.8-7.6,2.6-10.3,4.5
				c-3.5,2.5-5,6.4-5.7,10.6c-0.5,2.7,1.4,6.3,4.2,5.8c-2.1,1.8-3.4,4.7-2.9,7.4c0.4,2.7,3,5.1,5.7,4.9c2.8-0.2,5-3.4,3.9-5.9
				c0,1,0,2.1,0,3.1c2.1,1.4,4.5,2.3,7,2.7c1.5,0.2,3.1,0.2,4.3-0.5c1.3-0.7,2.2-2.3,1.7-3.7c1.1,3.9,6.8,5.7,9.9,3.1
				c2.2,3.2,7.7,3,9.7-0.3c0.5,2.2,3.2,3.3,5.3,2.7C1018.7,994.6,1020.2,992.7,1020.9,990.5z"/>
			<path fill="#6EBF5B" d="M1014.6,970.8c-0.4-2.4,0.8-4.7,2.1-6.7c0.4-0.7,0.9-1.4,1.4-2c0.6-0.6,1.2-1,1.9-1.4
				c9.4-5.3,21.2-5.6,31.5-2.3c10.3,3.3,19.4,9.7,27.3,17c2.5,2.3,4.9,4.8,5.9,8c0.6,2,0.6,4.1,0.5,6.2c-0.1,1.3-0.4,2.9-1.6,3.5
				c-0.9,0.4-1.9,0-2.9-0.1c-1-0.2-2.2-0.1-2.7,0.8c-0.2,0.4-0.2,0.8-0.4,1.2c-0.4,1.5-2.3,2.2-3.8,1.9s-2.7-1.4-3.7-2.6
				c-0.9,2-2.9,3.5-5,3.8c-2.2,0.4-4.5-0.4-6-2c-0.3-0.3-0.7-0.7-1.1-0.6c-0.2,0-0.4,0.2-0.6,0.4c-1.2,1.1-3.1,1.1-4.5,0.4
				c-1.4-0.8-2.4-2.2-3-3.7c-0.6,1.4-1.5,3.1-3.1,3.1c-0.6,0-1.1-0.2-1.6-0.5c-3.5-2.2-4.4-6.8-4.9-11c-8.9,1.1-18.3-2.7-24-9.6
				C1015.6,973.3,1014.8,972.2,1014.6,970.8z"/>
		</g>
		<path fill="none" stroke="#FFFFFF" stroke-width="5" stroke-linecap="round" stroke-miterlimit="10" d="M1021.8,970.5
			c6.4-0.2,12.8-0.4,19.1-0.6c4-0.1,8.1-0.1,11.8,1.2c3.8,1.4,6.9,4.1,10,6.8c3.2,2.8,6.5,5.7,8,9.7"/>
		<path fill="none" stroke="#FFFFFF" stroke-width="5" stroke-linecap="round" stroke-miterlimit="10" d="M1047.6,970.4
			c1,5.4,4.8,10.2,9.7,12.6"/>
		<path fill="none" stroke="#FFFFFF" stroke-width="5" stroke-linecap="round" stroke-miterlimit="10" d="M1048.5,970
			c3.1-0.2,8.9-0.6,12-0.1c3.1,0.5,6.1,1.8,8.1,4.2"/>
		<path fill="none" stroke="#FFFFFF" stroke-width="5" stroke-linecap="round" stroke-miterlimit="10" d="M1028.9,970.4
			c0.9,1.8,1.7,3.1,3.1,4.5s3.6,2.1,5.5,1.5"/>
		<path fill="none" stroke="#FFFFFF" stroke-width="5" stroke-linecap="round" stroke-miterlimit="10" d="M1067.3,982
			c4.5,0.5,8.9,1.7,13.1,3.5"/>
		<path fill="none" stroke="#FFFFFF" stroke-width="5" stroke-linecap="round" stroke-miterlimit="10" d="M1012.6,970
			c-11.2,1.8-19.7,4.7-29.4,10.6c-2.2,1.3-4.6,3-5,5.5"/>
		<path fill="none" stroke="#FFFFFF" stroke-width="5" stroke-linecap="round" stroke-miterlimit="10" d="M994.6,974.8
			c-5.2-1-9.2-1-14.4-0.4"/>
		<path fill="none" stroke="#FFFFFF" stroke-width="5" stroke-linecap="round" stroke-miterlimit="10" d="M994.6,974.8
			c2.6,3.7,5.3,9,5.1,13.6"/>
		<path fill="none" stroke="#FFFFFF" stroke-width="5" stroke-linecap="round" stroke-miterlimit="10" d="M1009.6,970.4
			c0.3,2,1.9,3.5,2.8,5.4c1.6,3.3,0.5,7.3-1,10.6"/>
		<path fill="none" stroke="#FFFFFF" stroke-width="5" stroke-linecap="round" stroke-miterlimit="10" d="M1009.2,970.6
			c0.1-1.6-1.7-2.1-3.1-2.9c-1.3-0.8-3-1.1-4.5-1.2c-3.3-0.4-6.7-0.4-10-0.2"/>
	</g>
	<g id="tomato_3_">
		
			<ellipse transform="matrix(-0.9854 0.1704 -0.1704 -0.9854 2145.0608 1719.0656)" fill="#EC2226" cx="998.8" cy="951.6" rx="32.8" ry="12.7"/>
		
			<ellipse transform="matrix(-0.9854 0.1704 -0.1704 -0.9854 2144.5396 1713.3464)" fill="#EA4A24" cx="998.7" cy="948.7" rx="32.8" ry="12.7"/>
		<path fill="#EC2226" d="M983.6,950.7c0,0-9-3.3,1.8-7.5c0,0,4.7-2.8,9.5,2.3c0,0,3.3-7.3,10.8-5c0,0,10.8,0.1,11.3,3.3
			c0,0,0.8,3.9-3.9,4.9c0,0,6,6-4.1,7.3c0,0-9.8,2.6-12.3-3.5c0,0-0.1,6.9-12.1,5.4C984.6,958,970.4,955.4,983.6,950.7z"/>
		
			<ellipse transform="matrix(-0.9966 -8.183084e-02 8.183084e-02 -0.9966 2004.6981 1995.738)" fill="#EC2226" cx="1043.2" cy="956.8" rx="32.8" ry="13.3"/>
		
			<ellipse transform="matrix(-0.9966 -8.183084e-02 8.183084e-02 -0.9966 2002.6215 1988.713)" fill="#EA4A24" cx="1042.1" cy="953.3" rx="32.8" ry="13.3"/>
		<path fill="#EC2226" d="M1057.2,958.2c0,0,9.5-1.2,0-7.7c0,0-3.9-3.8-9.8,0.1c0,0-1.5-7.9-9.3-7.3c0,0-10.5-2.3-11.8,0.6
			c0,0-1.7,3.6,2.7,5.6c0,0-7.2,4.4,2.3,8.1c0,0,8.9,4.8,12.8-0.5c0,0-1.4,6.8,10.6,8C1054.6,965,1069,965.8,1057.2,958.2z"/>
	</g>
	<g id="burger_3_">
		<g>
			<path fill="#87662D" d="M970.3,912.7c0,0-0.4,0.2-0.8,0.5c-1.5,1-3.9,3.4,0.3,5.3c0,0-9.9,2.5-4.7,7.4c0,0-5.5,8.9,1.9,8.9
				c0,0-1.5,8.3,6.8,5.8c0,0,2.5,4.7,6.7,3.1c0,0-3.1,4.9,35.6,2.2c0,0,32.3,3.4,55.6-1.2c0,0,4,4.6,8.6-0.9c0,0,8.6,1.2,9.2-3.7
				c0,0,7.1-2.8,3.1-8.9c0,0,4.6-2.5-0.6-5.5c0,0,0.3-8.9-7.4-8.6c0,0-70.1-11-114.6-4.1"/>
			<path fill="#FDC43D" d="M986.9,956.9c0,0-3.7-27.3-5.8-31.6c0,0-14.3-9.2-10.7-12.6c0,0,28.2-23.4,96.7-7.1
				c0,0,16.6,2.5,19.5,12.3c0,0-39.2,10.8-54.8,10.5c0,0-10.1,3.1-12.3,5.8C1019.4,934.2,1005.9,952,986.9,956.9z"/>
			<ellipse fill="#FFFFFF" cx="987.6" cy="931.1" rx="3.1" ry="3.6"/>
			<ellipse fill="none" stroke="#FFFFFF" stroke-width="4" stroke-miterlimit="10" cx="1022.8" cy="938.9" rx="3.1" ry="3"/>
			<ellipse fill="none" stroke="#FFFFFF" stroke-width="4" stroke-miterlimit="10" cx="1036.1" cy="941.1" rx="3.1" ry="2.3"/>
			<path fill="none" stroke="#FFFFFF" stroke-width="4" stroke-miterlimit="10" d="M1048.3,938.8c0,0,4.4,3.9,7.8-0.9
				c0,0,13.7,3.1,11.2-5.1"/>
			<path fill="#FFFFFF" d="M987.6,922.1c0,0-4.9-3.3-4.6-7.7c0,0,1.8-5.3-2.6-4.3c0,0-5.3,2.3-1.1,7.6
				C979.4,917.8,982,921.6,987.6,922.1z"/>
			<path fill="#FFFFFF" d="M1040.4,903.5c0,0,18.7-0.9,34,7.9c0,0-0.1,2.1-2.1,1.9c0,0-11.4-7.6-31.9-7.1
				C1040.4,906.2,1036.6,904.8,1040.4,903.5z"/>
		</g>
	</g>
	<g id="top_3_">
		<g>
			<path fill="#F5DC75" d="M1073.3,872.5c2.2,2,6.4,6.1,7.9,8.6c4.7,7.7,7,13.5,5.3,22.4c-1.2,6.5-16.7,7.2-18.2,7.3
				c-24.6,0.6-32.8,1.7-58.8,1.4c-6.6-0.1-30.9-1.4-34.2-3.4c-3.3-2.1-8.8-3.7-9.9-7.4c-2-7,2.1-14.2,7-19.5
				c14.9-16,35.8-21.4,57.7-22.4c4.6-0.2,10.7,0,15.3,0.8c7.2,1.1,13.8,3.9,20.3,7.3C1068.4,868.9,1071,870.4,1073.3,872.5z"/>
			<path fill="#FFFFFF" d="M988.6,881.9c0,1.4-1.2,2.5-2.8,2.5c-1.5,0-7.6-1.1-7.6-2.5s6.1-2.5,7.6-2.5
				C987.3,879.4,988.6,880.5,988.6,881.9z"/>
			<path fill="#FFFFFF" d="M1004.9,880.2c-0.4-1.3,0.6-2.7,2.1-3.1c1.5-0.4,7.6-0.8,8,0.6c0.4,1.3-5.3,3.9-6.8,4.3
				C1006.8,882.3,1005.2,881.6,1004.9,880.2z"/>
			<path fill="#FFFFFF" d="M999.8,869.4c-0.3-1.3,0.6-2.7,2.1-3.1c1.5-0.4,7.6-0.8,8,0.6c0.3,1.3-5.3,3.9-6.8,4.3
				S1000.1,870.8,999.8,869.4z"/>
			<path fill="#FFFFFF" d="M1028.6,876.2c-0.9,1-2.6,1.1-3.7,0.1c-1.2-1-5.1-5.7-4.3-6.8c0.9-1,6.2,1.9,7.4,2.9
				C1029.2,873.4,1029.5,875.1,1028.6,876.2z"/>
			<path fill="#FFFFFF" d="M1042.5,869.9c-1.1,0.8-2.7,0.5-3.7-0.7c-0.9-1.2-3.8-6.7-2.7-7.5c1.1-0.8,5.7,3.2,6.6,4.5
				C1043.7,867.3,1043.6,869,1042.5,869.9z"/>
			<path fill="#FFFFFF" d="M1046.8,883.1c-0.5,1.3-2.1,1.8-3.5,1.3s-6.6-3.9-6.2-5.1c0.5-1.3,6.6-0.1,8,0.5
				C1046.6,880.4,1047.4,881.9,1046.8,883.1z"/>
			<path fill="#FFFFFF" d="M1061.8,867.5c0.8,1.1,0.5,2.7-0.8,3.7c-1.2,0.9-6.8,3.6-7.6,2.5c-0.8-1.1,3.4-5.6,4.6-6.6
				S1061,866.4,1061.8,867.5z"/>
			<path fill="#FFFFFF" d="M1062.2,881.1c0.4-1.3,1.9-2.1,3.4-1.6c1.5,0.4,7,3.2,6.6,4.5c-0.4,1.3-6.5,0.7-8,0.2
				C1062.7,883.8,1061.8,882.4,1062.2,881.1z"/>
		</g>
		<g id="drops_3_">
		</g>
	</g>
	<g id="bottom_4_">
		<g>
			<path fill="#F5DC75" d="M968.3,1243.4c0,0,1.1-1.7,5.9-2.6c22.6-4.4,60-13.3,108.4,3.2c2.3,0.8,6.5,7.8,6,9.1
				c0,0,3,21.4-28.7,24.4c0,0-24.9,2.7-62.4-1.2C960.2,1272.3,964.5,1246.7,968.3,1243.4z"/>
			<path fill="#FDC43D" d="M969.9,1242.5c0,0-6,8.6,26.6,16.4c0,0,24,7.5,73.9-0.4c0,0,19.9-2.2,12.3-14.5"/>
		</g>
	</g>
	<g id="lettuce_4_">
		<g>
			<path fill="#00F670" d="M1021.9,1245.1c0.6,2.3,3.1,3.9,5.4,3.7c2.4-0.3,4.4-2.5,4.5-4.9c2.1,1.9,4.5,3.9,7.4,3.9
				c2.9,0,5.6-3.5,3.9-5.8c2.3,1.5,4.9,2.7,7.5,3.2c2.2,0.5,4.7,0.6,6.6-0.8c1.8-1.3,2.3-3.8,2.2-6c-0.3-3.7-2.3-7.2-5-9.7
				c-2.7-2.6-6-4.4-9.4-6c-14.8-7.2-31.2-11-47.7-11c-2.3,0-4.7,0.1-6.9,0.8c-2.1,0.6-3.9,1.8-5.7,3c-2.7,1.8-7.6,2.6-10.3,4.5
				c-3.5,2.5-5,6.4-5.7,10.6c-0.5,2.7,1.4,6.3,4.2,5.8c-2.1,1.8-3.4,4.7-2.9,7.4c0.4,2.7,3,5.1,5.7,4.9c2.8-0.2,5-3.4,3.9-5.9
				c0,1,0,2.1,0,3.1c2.1,1.4,4.5,2.3,7,2.7c1.5,0.2,3.1,0.2,4.3-0.5c1.3-0.7,2.2-2.3,1.7-3.7c1.1,3.9,6.8,5.7,9.9,3.1
				c2.2,3.2,7.7,3,9.7-0.3c0.5,2.2,3.2,3.3,5.3,2.7C1019.7,1249.2,1021.3,1247.2,1021.9,1245.1z"/>
			<path fill="#6EBF5B" d="M1015.6,1225.4c-0.4-2.4,0.8-4.7,2.1-6.7c0.4-0.7,0.9-1.4,1.4-2c0.6-0.6,1.2-1,1.9-1.4
				c9.4-5.3,21.2-5.6,31.5-2.3c10.3,3.3,19.4,9.7,27.3,17c2.5,2.3,4.9,4.8,5.9,8c0.6,2,0.6,4.1,0.5,6.2c-0.1,1.3-0.4,2.9-1.6,3.5
				c-0.9,0.4-1.9,0-2.9-0.1c-1-0.2-2.2-0.1-2.7,0.8c-0.2,0.4-0.2,0.8-0.4,1.2c-0.4,1.5-2.3,2.2-3.8,1.9c-1.5-0.3-2.7-1.4-3.7-2.6
				c-0.9,2-2.9,3.5-5,3.8c-2.2,0.4-4.5-0.4-6-2c-0.3-0.3-0.7-0.7-1.1-0.6c-0.2,0-0.4,0.2-0.6,0.4c-1.2,1.1-3.1,1.1-4.5,0.4
				c-1.4-0.8-2.4-2.2-3-3.7c-0.6,1.4-1.5,3.1-3.1,3.1c-0.6,0-1.1-0.2-1.6-0.5c-3.5-2.2-4.4-6.8-4.9-11c-8.9,1.1-18.3-2.7-24-9.6
				C1016.7,1227.9,1015.9,1226.7,1015.6,1225.4z"/>
		</g>
		<path fill="none" stroke="#FFFFFF" stroke-width="5" stroke-linecap="round" stroke-miterlimit="10" d="M1022.9,1222.6
			c6.4-0.2,12.8-0.4,19.1-0.6c4-0.1,8.1-0.1,11.8,1.2c3.8,1.4,6.9,4.1,10,6.8c3.2,2.8,6.5,5.7,8,9.7"/>
		<path fill="none" stroke="#FFFFFF" stroke-width="5" stroke-linecap="round" stroke-miterlimit="10" d="M1048.7,1222.6
			c1,5.4,4.8,10.2,9.7,12.6"/>
		<path fill="none" stroke="#FFFFFF" stroke-width="5" stroke-linecap="round" stroke-miterlimit="10" d="M1049.6,1222.1
			c3.1-0.2,8.9-0.6,12-0.1c3.1,0.5,6.1,1.8,8.1,4.2"/>
		<path fill="none" stroke="#FFFFFF" stroke-width="5" stroke-linecap="round" stroke-miterlimit="10" d="M1030,1222.6
			c0.9,1.8,1.7,3.1,3.1,4.5s3.6,2.1,5.5,1.5"/>
		<path fill="none" stroke="#FFFFFF" stroke-width="5" stroke-linecap="round" stroke-miterlimit="10" d="M1068.3,1234.1
			c4.5,0.5,8.9,1.7,13.1,3.5"/>
		<path fill="none" stroke="#FFFFFF" stroke-width="5" stroke-linecap="round" stroke-miterlimit="10" d="M1013.7,1222.1
			c-11.2,1.8-19.7,4.7-29.4,10.6c-2.2,1.3-4.6,3-5,5.5"/>
		<path fill="none" stroke="#FFFFFF" stroke-width="5" stroke-linecap="round" stroke-miterlimit="10" d="M995.7,1226.9
			c-5.2-1-9.2-1-14.4-0.4"/>
		<path fill="none" stroke="#FFFFFF" stroke-width="5" stroke-linecap="round" stroke-miterlimit="10" d="M995.7,1226.9
			c2.6,3.7,5.3,9,5.1,13.6"/>
		<path fill="none" stroke="#FFFFFF" stroke-width="5" stroke-linecap="round" stroke-miterlimit="10" d="M1010.7,1222.5
			c0.3,2,1.9,3.5,2.8,5.4c1.6,3.3,0.5,7.3-1,10.6"/>
		<path fill="none" stroke="#FFFFFF" stroke-width="5" stroke-linecap="round" stroke-miterlimit="10" d="M1010.3,1222.7
			c0.1-1.6-1.7-2.1-3.1-2.9c-1.3-0.8-3-1.1-4.5-1.2c-3.3-0.4-6.7-0.4-10-0.2"/>
	</g>
	<g id="tomato_4_">
		
			<ellipse transform="matrix(-0.9854 0.1704 -0.1704 -0.9854 2189.6531 2213.5225)" fill="#EC2226" cx="999.8" cy="1200.7" rx="32.8" ry="12.7"/>
		
			<ellipse transform="matrix(-0.9854 0.1704 -0.1704 -0.9854 2188.647 2201.9812)" fill="#EA4A24" cx="999.8" cy="1194.9" rx="32.8" ry="12.7"/>
		<path fill="#EC2226" d="M984.7,1199.8c0,0-9-3.3,1.8-7.5c0,0,4.7-2.8,9.5,2.3c0,0,3.3-7.3,10.8-5c0,0,10.8,0.1,11.3,3.3
			c0,0,0.8,3.9-3.9,4.9c0,0,6,6-4.1,7.3c0,0-9.8,2.6-12.3-3.5c0,0-0.1,6.9-12.1,5.4C985.6,1207.2,971.4,1204.5,984.7,1199.8z"/>
		
			<ellipse transform="matrix(-0.9966 -8.183084e-02 8.183084e-02 -0.9966 1986.4513 2493.4177)" fill="#EC2226" cx="1044.3" cy="1206" rx="32.8" ry="13.3"/>
		
			<ellipse transform="matrix(-0.9966 -8.183084e-02 8.183084e-02 -0.9966 1984.3845 2486.313)" fill="#EA4A24" cx="1043.1" cy="1202.5" rx="32.8" ry="13.3"/>
		<path fill="#EC2226" d="M1058.3,1207.3c0,0,9.5-1.2,0-7.7c0,0-3.9-3.8-9.8,0.1c0,0-1.5-7.9-9.3-7.3c0,0-10.5-2.3-11.8,0.6
			c0,0-1.7,3.6,2.7,5.6c0,0-7.2,4.4,2.3,8.1c0,0,8.9,4.8,12.8-0.5c0,0-1.4,6.8,10.6,8C1055.6,1214.2,1070.1,1215,1058.3,1207.3z"/>
	</g>
	<g id="burger_4_">
		<g>
			<path fill="#87662D" d="M971.4,1157.5c0,0-0.4,0.2-0.8,0.5c-1.5,1-3.9,3.4,0.3,5.3c0,0-9.9,2.5-4.7,7.4c0,0-5.5,8.9,1.9,8.9
				c0,0-1.5,8.3,6.8,5.8c0,0,2.5,4.7,6.7,3.1c0,0-3.1,4.9,35.6,2.2c0,0,32.3,3.4,55.6-1.2c0,0,4,4.6,8.6-0.9c0,0,8.6,1.2,9.2-3.7
				c0,0,7.1-2.8,3.1-8.9c0,0,4.6-2.5-0.6-5.5c0,0,0.3-8.9-7.4-8.6c0,0-70.1-11-114.6-4.1"/>
			<path fill="#FDC43D" d="M987.9,1201.8c0,0-3.7-27.3-5.8-31.6c0,0-14.3-9.2-10.7-12.6c0,0,28.2-23.4,96.7-7.1
				c0,0,16.6,2.5,19.5,12.3c0,0-39.2,10.8-54.8,10.5c0,0-10.1,3.1-12.3,5.8C1020.5,1179,1007,1196.9,987.9,1201.8z"/>
			<ellipse fill="#FFFFFF" cx="988.7" cy="1176" rx="3.1" ry="3.6"/>
			<ellipse fill="none" stroke="#FFFFFF" stroke-width="4" stroke-miterlimit="10" cx="1023.8" cy="1183.8" rx="3.1" ry="3"/>
			<ellipse fill="none" stroke="#FFFFFF" stroke-width="4" stroke-miterlimit="10" cx="1037.2" cy="1185.9" rx="3.1" ry="2.3"/>
			<path fill="none" stroke="#FFFFFF" stroke-width="4" stroke-miterlimit="10" d="M1049.4,1183.7c0,0,4.4,3.9,7.8-0.9
				c0,0,13.7,3.1,11.2-5.1"/>
			<path fill="#FFFFFF" d="M988.7,1166.9c0,0-4.9-3.3-4.6-7.7c0,0,1.8-5.3-2.6-4.3c0,0-5.3,2.3-1.1,7.6
				C980.5,1162.6,983.1,1166.4,988.7,1166.9z"/>
			<path fill="#FFFFFF" d="M1041.5,1148.3c0,0,18.7-0.9,34,7.9c0,0-0.1,2.1-2.1,1.9c0,0-11.4-7.6-31.9-7.1
				C1041.5,1151,1037.7,1149.6,1041.5,1148.3z"/>
		</g>
	</g>
	<g id="top_4_">
		<g>
			<path fill="#F5DC75" d="M1074.3,1107.7c2.2,2,6.4,6.1,7.9,8.6c4.7,7.7,7,13.5,5.3,22.4c-1.2,6.5-16.7,7.2-18.2,7.3
				c-24.6,0.6-32.8,1.7-58.8,1.4c-6.6-0.1-30.9-1.4-34.2-3.4c-3.3-2.1-8.8-3.7-9.9-7.4c-2-7,2.1-14.2,7-19.5
				c14.9-16,35.8-21.4,57.7-22.4c4.6-0.2,10.7,0,15.3,0.8c7.2,1.1,13.8,3.9,20.3,7.3C1069.5,1104.1,1072,1105.7,1074.3,1107.7z"/>
			<path fill="#FFFFFF" d="M989.7,1117.1c0,1.4-1.2,2.5-2.8,2.5c-1.5,0-7.6-1.1-7.6-2.5s6.1-2.5,7.6-2.5S989.7,1115.8,989.7,1117.1z
				"/>
			<path fill="#FFFFFF" d="M1006,1115.4c-0.4-1.3,0.6-2.7,2.1-3.1c1.5-0.4,7.6-0.8,8,0.6c0.3,1.3-5.3,3.9-6.8,4.3
				C1007.8,1117.5,1006.3,1116.8,1006,1115.4z"/>
			<path fill="#FFFFFF" d="M1000.9,1104.6c-0.3-1.3,0.6-2.7,2.1-3.1c1.5-0.4,7.6-0.8,8,0.6s-5.3,3.9-6.8,4.3
				C1002.7,1106.7,1001.2,1106,1000.9,1104.6z"/>
			<path fill="#FFFFFF" d="M1029.7,1111.4c-0.9,1-2.6,1.1-3.7,0.1c-1.2-1-5.1-5.7-4.3-6.8c0.9-1,6.2,1.9,7.4,2.9
				C1030.3,1108.7,1030.6,1110.3,1029.7,1111.4z"/>
			<path fill="#FFFFFF" d="M1043.6,1105.1c-1.1,0.8-2.7,0.5-3.7-0.7c-0.9-1.2-3.8-6.7-2.7-7.5c1.1-0.8,5.7,3.2,6.6,4.5
				C1044.8,1102.5,1044.7,1104.2,1043.6,1105.1z"/>
			<path fill="#FFFFFF" d="M1047.9,1118.3c-0.5,1.3-2.1,1.8-3.5,1.3c-1.4-0.6-6.6-3.9-6.2-5.1c0.5-1.3,6.6-0.1,8,0.5
				C1047.6,1115.6,1048.4,1117.1,1047.9,1118.3z"/>
			<path fill="#FFFFFF" d="M1062.9,1102.7c0.8,1.1,0.5,2.7-0.8,3.7c-1.2,0.9-6.8,3.6-7.6,2.5c-0.8-1.1,3.4-5.6,4.6-6.6
				C1060.4,1101.5,1062.1,1101.6,1062.9,1102.7z"/>
			<path fill="#FFFFFF" d="M1063.3,1116.3c0.4-1.3,1.9-2.1,3.4-1.6c1.5,0.4,7,3.2,6.6,4.5c-0.4,1.3-6.5,0.7-8,0.2
				C1063.8,1119,1062.9,1117.6,1063.3,1116.3z"/>
		</g>
	</g>
	<g id="bottom_5_">
		<g>
			<path fill="#F5DC75" d="M968.3,1498.9c0,0,1.1-1.7,5.9-2.6c22.6-4.4,60-13.3,108.4,3.2c2.3,0.8,6.5,7.8,6,9.1
				c0,0,3,21.4-28.7,24.4c0,0-24.9,2.7-62.4-1.2C960.2,1527.8,964.5,1502.2,968.3,1498.9z"/>
			<path fill="#FDC43D" d="M969.9,1498c0,0-6,8.6,26.6,16.4c0,0,24,7.5,73.9-0.4c0,0,19.9-2.2,12.3-14.5"/>
		</g>
	</g>
	<g id="lettuce_5_">
		<g>
			<path fill="#00F670" d="M1021.9,1495.2c0.6,2.3,3.1,3.9,5.4,3.7c2.4-0.3,4.4-2.5,4.5-4.9c2.1,1.9,4.5,3.9,7.4,3.9
				c2.9,0,5.6-3.5,3.9-5.8c2.3,1.5,4.9,2.7,7.5,3.2c2.2,0.5,4.7,0.6,6.6-0.8c1.8-1.3,2.3-3.8,2.2-6c-0.3-3.7-2.3-7.2-5-9.7
				c-2.7-2.6-6-4.4-9.4-6c-14.8-7.2-31.2-11-47.7-11c-2.3,0-4.7,0.1-6.9,0.8c-2.1,0.6-3.9,1.8-5.7,3c-2.7,1.8-7.6,2.6-10.3,4.5
				c-3.5,2.5-5,6.4-5.7,10.6c-0.5,2.7,1.4,6.3,4.2,5.8c-2.1,1.8-3.4,4.7-2.9,7.4c0.4,2.7,3,5.1,5.7,4.9c2.8-0.2,5-3.4,3.9-5.9
				c0,1,0,2.1,0,3.1c2.1,1.4,4.5,2.3,7,2.7c1.5,0.2,3.1,0.2,4.3-0.5c1.3-0.7,2.2-2.3,1.7-3.7c1.1,3.9,6.8,5.7,9.9,3.1
				c2.2,3.2,7.7,3,9.7-0.3c0.5,2.2,3.2,3.3,5.3,2.7C1019.7,1499.3,1021.3,1497.3,1021.9,1495.2z"/>
			<path fill="#6EBF5B" d="M1015.6,1475.5c-0.4-2.4,0.8-4.7,2.1-6.7c0.4-0.7,0.9-1.4,1.4-2c0.6-0.6,1.2-1,1.9-1.4
				c9.4-5.3,21.2-5.6,31.5-2.3c10.3,3.3,19.4,9.7,27.3,17c2.5,2.3,4.9,4.8,5.9,8c0.6,2,0.6,4.1,0.5,6.2c-0.1,1.3-0.4,2.9-1.6,3.5
				c-0.9,0.4-1.9,0-2.9-0.1c-1-0.2-2.2-0.1-2.7,0.8c-0.2,0.4-0.2,0.8-0.4,1.2c-0.4,1.5-2.3,2.2-3.8,1.9c-1.5-0.3-2.7-1.4-3.7-2.6
				c-0.9,2-2.9,3.5-5,3.8c-2.2,0.4-4.5-0.4-6-2c-0.3-0.3-0.7-0.7-1.1-0.6c-0.2,0-0.4,0.2-0.6,0.4c-1.2,1.1-3.1,1.1-4.5,0.4
				c-1.4-0.8-2.4-2.2-3-3.7c-0.6,1.4-1.5,3.1-3.1,3.1c-0.6,0-1.1-0.2-1.6-0.5c-3.5-2.2-4.4-6.8-4.9-11c-8.9,1.1-18.3-2.7-24-9.6
				C1016.7,1478,1015.9,1476.9,1015.6,1475.5z"/>
		</g>
		<path fill="none" stroke="#FFFFFF" stroke-width="5" stroke-linecap="round" stroke-miterlimit="10" d="M1022.9,1472.7
			c6.4-0.2,12.8-0.4,19.1-0.6c4-0.1,8.1-0.1,11.8,1.2c3.8,1.4,6.9,4.1,10,6.8c3.2,2.8,6.5,5.7,8,9.7"/>
		<path fill="none" stroke="#FFFFFF" stroke-width="5" stroke-linecap="round" stroke-miterlimit="10" d="M1048.7,1472.7
			c1,5.4,4.8,10.2,9.7,12.6"/>
		<path fill="none" stroke="#FFFFFF" stroke-width="5" stroke-linecap="round" stroke-miterlimit="10" d="M1049.6,1472.3
			c3.1-0.2,8.9-0.6,12-0.1c3.1,0.5,6.1,1.8,8.1,4.2"/>
		<path fill="none" stroke="#FFFFFF" stroke-width="5" stroke-linecap="round" stroke-miterlimit="10" d="M1030,1472.7
			c0.9,1.8,1.7,3.1,3.1,4.5s3.6,2.1,5.5,1.5"/>
		<path fill="none" stroke="#FFFFFF" stroke-width="5" stroke-linecap="round" stroke-miterlimit="10" d="M1068.3,1484.3
			c4.5,0.5,8.9,1.7,13.1,3.5"/>
		<path fill="none" stroke="#FFFFFF" stroke-width="5" stroke-linecap="round" stroke-miterlimit="10" d="M1013.7,1472.2
			c-11.2,1.8-19.7,4.7-29.4,10.6c-2.2,1.3-4.6,3-5,5.5"/>
		<path fill="none" stroke="#FFFFFF" stroke-width="5" stroke-linecap="round" stroke-miterlimit="10" d="M995.7,1477
			c-5.2-1-9.2-1-14.4-0.4"/>
		<path fill="none" stroke="#FFFFFF" stroke-width="5" stroke-linecap="round" stroke-miterlimit="10" d="M995.7,1477
			c2.6,3.7,5.3,9,5.1,13.6"/>
		<path fill="none" stroke="#FFFFFF" stroke-width="5" stroke-linecap="round" stroke-miterlimit="10" d="M1010.7,1472.6
			c0.3,2,1.9,3.5,2.8,5.4c1.6,3.3,0.5,7.3-1,10.6"/>
		<path fill="none" stroke="#FFFFFF" stroke-width="5" stroke-linecap="round" stroke-miterlimit="10" d="M1010.3,1472.8
			c0.1-1.6-1.7-2.1-3.1-2.9c-1.3-0.8-3-1.1-4.5-1.2c-3.3-0.4-6.7-0.4-10-0.2"/>
	</g>
	<g id="tomato_5_">
		
			<ellipse transform="matrix(-0.9854 0.1704 -0.1704 -0.9854 2231.3438 2699.439)" fill="#EC2226" cx="999.8" cy="1445.5" rx="32.8" ry="12.7"/>
		
			<ellipse transform="matrix(-0.9854 0.1704 -0.1704 -0.9854 2230.8652 2693.7739)" fill="#EA4A24" cx="999.8" cy="1442.6" rx="32.8" ry="12.7"/>
		<path fill="#EC2226" d="M984.7,1444.6c0,0-9-3.3,1.8-7.5c0,0,4.7-2.8,9.5,2.3c0,0,3.3-7.3,10.8-5c0,0,10.8,0.1,11.3,3.3
			c0,0,0.8,3.9-3.9,4.9c0,0,6,6-4.1,7.3c0,0-9.8,2.6-12.3-3.5c0,0-0.1,6.9-12.1,5.4C985.6,1451.9,971.4,1449.3,984.7,1444.6z"/>
		
			<ellipse transform="matrix(-0.9966 -8.183084e-02 8.183084e-02 -0.9966 1966.3682 2982.0806)" fill="#EC2226" cx="1044.3" cy="1450.7" rx="32.8" ry="13.3"/>
		
			<ellipse transform="matrix(-0.9966 -8.183084e-02 8.183084e-02 -0.9966 1964.3607 2974.9336)" fill="#EA4A24" cx="1043.1" cy="1447.2" rx="32.8" ry="13.3"/>
		<path fill="#EC2226" d="M1058.3,1452.1c0,0,9.5-1.2,0-7.7c0,0-3.9-3.8-9.8,0.1c0,0-1.5-7.9-9.3-7.3c0,0-10.5-2.3-11.8,0.6
			c0,0-1.7,3.6,2.7,5.6c0,0-7.2,4.4,2.3,8.1c0,0,8.9,4.8,12.8-0.5c0,0-1.4,6.8,10.6,8C1055.6,1459,1070.1,1459.7,1058.3,1452.1z"/>
	</g>
	<g id="burger_5_">
		<g>
			<path fill="#87662D" d="M971.4,1393.1c0,0-0.4,0.2-0.8,0.5c-1.5,1-3.9,3.4,0.3,5.3c0,0-9.9,2.5-4.7,7.4c0,0-5.5,8.9,1.9,8.9
				c0,0-1.5,8.3,6.8,5.8c0,0,2.5,4.7,6.7,3.1c0,0-3.1,4.9,35.6,2.2c0,0,32.3,3.4,55.6-1.2c0,0,4,4.6,8.6-0.9c0,0,8.6,1.2,9.2-3.7
				c0,0,7.1-2.8,3.1-8.9c0,0,4.6-2.5-0.6-5.5c0,0,0.3-8.9-7.4-8.6c0,0-70.1-11-114.6-4.1"/>
			<path fill="#FDC43D" d="M987.9,1437.3c0,0-3.7-27.3-5.8-31.6c0,0-14.3-9.2-10.7-12.6c0,0,28.2-23.4,96.7-7.1
				c0,0,16.6,2.5,19.5,12.3c0,0-39.2,10.8-54.8,10.5c0,0-10.1,3.1-12.3,5.8C1020.5,1414.6,1007,1432.4,987.9,1437.3z"/>
			<ellipse fill="#FFFFFF" cx="988.7" cy="1411.5" rx="3.1" ry="3.6"/>
			<ellipse fill="none" stroke="#FFFFFF" stroke-width="4" stroke-miterlimit="10" cx="1023.8" cy="1419.4" rx="3.1" ry="3"/>
			<ellipse fill="none" stroke="#FFFFFF" stroke-width="4" stroke-miterlimit="10" cx="1037.2" cy="1421.5" rx="3.1" ry="2.3"/>
			<path fill="none" stroke="#FFFFFF" stroke-width="4" stroke-miterlimit="10" d="M1049.4,1419.2c0,0,4.4,3.9,7.8-0.9
				c0,0,13.7,3.1,11.2-5.1"/>
			<path fill="#FFFFFF" d="M988.7,1402.5c0,0-4.9-3.3-4.6-7.7c0,0,1.8-5.3-2.6-4.3c0,0-5.3,2.3-1.1,7.6
				C980.5,1398.2,983.1,1402,988.7,1402.5z"/>
			<path fill="#FFFFFF" d="M1041.5,1383.9c0,0,18.7-0.9,34,7.9c0,0-0.1,2.1-2.1,1.9c0,0-11.4-7.6-31.9-7.1
				C1041.5,1386.6,1037.7,1385.2,1041.5,1383.9z"/>
		</g>
	</g>
	<g id="top_5_">
		<g>
			<path fill="#F5DC75" d="M1074.3,1337.9c2.2,2,6.4,6.1,7.9,8.6c4.7,7.7,7,13.5,5.3,22.4c-1.2,6.5-16.7,7.2-18.2,7.3
				c-24.6,0.6-32.8,1.7-58.8,1.4c-6.6-0.1-30.9-1.4-34.2-3.4c-3.3-2.1-8.8-3.7-9.9-7.4c-2-7,2.1-14.2,7-19.5
				c14.9-16,35.8-21.4,57.7-22.4c4.6-0.2,10.7,0,15.3,0.8c7.2,1.1,13.8,3.9,20.3,7.3C1069.5,1334.3,1072,1335.9,1074.3,1337.9z"/>
			<path fill="#FFFFFF" d="M989.7,1347.3c0,1.4-1.2,2.5-2.8,2.5c-1.5,0-7.6-1.1-7.6-2.5s6.1-2.5,7.6-2.5S989.7,1345.9,989.7,1347.3z
				"/>
			<path fill="#FFFFFF" d="M1006,1345.6c-0.4-1.3,0.6-2.7,2.1-3.1c1.5-0.4,7.6-0.8,8,0.6s-5.3,3.9-6.8,4.3
				C1007.8,1347.7,1006.3,1347,1006,1345.6z"/>
			<path fill="#FFFFFF" d="M1000.9,1334.8c-0.3-1.3,0.6-2.7,2.1-3.1c1.5-0.4,7.6-0.8,8,0.6s-5.3,3.9-6.8,4.3
				C1002.7,1336.9,1001.2,1336.1,1000.9,1334.8z"/>
			<path fill="#FFFFFF" d="M1029.7,1341.5c-0.9,1-2.6,1.1-3.7,0.1c-1.2-1-5.1-5.7-4.3-6.8c0.9-1,6.2,1.9,7.4,2.9
				C1030.3,1338.8,1030.6,1340.5,1029.7,1341.5z"/>
			<path fill="#FFFFFF" d="M1043.6,1335.2c-1.1,0.8-2.7,0.5-3.7-0.7c-0.9-1.2-3.8-6.7-2.7-7.5c1.1-0.8,5.7,3.2,6.6,4.5
				C1044.8,1332.7,1044.7,1334.4,1043.6,1335.2z"/>
			<path fill="#FFFFFF" d="M1047.9,1348.5c-0.5,1.3-2.1,1.8-3.5,1.3c-1.4-0.6-6.6-3.9-6.2-5.1c0.5-1.3,6.6-0.1,8,0.5
				C1047.6,1345.8,1048.4,1347.2,1047.9,1348.5z"/>
			<path fill="#FFFFFF" d="M1062.9,1332.9c0.8,1.1,0.5,2.7-0.8,3.7c-1.2,0.9-6.8,3.6-7.6,2.5c-0.8-1.1,3.4-5.6,4.6-6.6
				C1060.4,1331.7,1062.1,1331.8,1062.9,1332.9z"/>
			<path fill="#FFFFFF" d="M1063.3,1346.4c0.4-1.3,1.9-2.1,3.4-1.6c1.5,0.4,7,3.2,6.6,4.5c-0.4,1.3-6.5,0.7-8,0.2
				C1063.8,1349.2,1062.9,1347.8,1063.3,1346.4z"/>
		</g>
		<g id="drops_4_">
		</g>
	</g>
</g>
</svg>
