<?xml version="1.0" encoding="utf-8"?>
<!-- Generator: Adobe Illustrator 18.1.1, SVG Export Plug-In . SVG Version: 6.00 Build 0)  -->
<!DOCTYPE svg PUBLIC "-//W3C//DTD SVG 1.1//EN" "http://www.w3.org/Graphics/SVG/1.1/DTD/svg11.dtd">
<svg version="1.1" id="Layer_1" xmlns="http://www.w3.org/2000/svg" xmlns:xlink="http://www.w3.org/1999/xlink" x="0px" y="0px"
	 viewBox="0 0 594 3186" style="enable-background:new 0 0 594 3186;" xml:space="preserve">
<style type="text/css">
	.st0{fill:#F5DC75;}
	.st1{fill:#FDC43D;}
	.st2{fill:#00F670;}
	.st3{fill:#6EBF5B;}
	.st4{fill:none;stroke:#FFFFFF;stroke-width:5;stroke-linecap:round;stroke-miterlimit:10;}
	.st5{fill:#EC2226;}
	.st6{fill:#EA4A24;}
	.st7{fill:#87662D;}
	.st8{fill:#FFFFFF;}
	.st9{fill:none;stroke:#FFFFFF;stroke-width:4;stroke-miterlimit:10;}
</style>
<g id="bottom">
	<g>
		<path class="st0" d="M156.4,438.2c0,0,2.8-4.2,14.7-6.5c56.1-10.9,149.3-33.2,269.7,8c5.8,2,16.2,19.4,14.8,22.6
			c0,0,7.4,53.2-71.3,60.6c0,0-62,6.8-155.1-3.1C136.2,510,147.1,446.3,156.4,438.2z"/>
		<path class="st1" d="M160.4,435.7c0,0-14.8,21.4,66.1,40.8c0,0,59.8,18.6,183.9-0.9c0,0,49.6-5.4,30.5-36"/>
	</g>
</g>
<g id="lettuce">
	<g>
		<path class="st2" d="M289.9,481.8c1.5,5.8,7.6,9.8,13.5,9.2c5.9-0.7,10.9-6.1,11.1-12.1c5.2,4.8,11.3,9.8,18.5,9.8
			c7.2-0.1,13.9-8.6,9.8-14.4c5.7,3.8,12.1,6.6,18.7,8c5.5,1.3,11.8,1.5,16.3-1.9c4.4-3.3,5.8-9.4,5.4-14.9
			c-0.7-9.2-5.8-17.8-12.5-24.1c-6.7-6.4-14.9-11-23.3-15c-36.8-17.9-77.7-27.3-118.6-27.4c-5.8,0-11.7,0.2-17.2,1.9
			c-5.1,1.6-9.7,4.5-14.2,7.4c-6.8,4.4-18.9,6.5-25.5,11.2c-8.7,6.2-12.5,15.9-14.3,26.4c-1.2,6.8,3.6,15.6,10.4,14.5
			c-5.2,4.6-8.4,11.6-7.3,18.4c1.1,6.8,7.4,12.7,14.3,12.3s12.5-8.4,9.7-14.7c0.1,2.5,0.1,5.1,0.1,7.6c5.2,3.5,11.2,5.8,17.4,6.6
			c3.7,0.5,7.6,0.5,10.8-1.3c3.2-1.8,5.4-5.8,4.2-9.3c2.8,9.8,16.9,14.1,24.7,7.6c5.4,7.9,19.2,7.5,24.1-0.7c1.3,5.4,8,8.2,13.3,6.7
			C284.3,492,288.1,487.1,289.9,481.8z"/>
		<path class="st3" d="M274.2,432.9c-1.1-5.9,2.1-11.6,5.2-16.7c1.1-1.7,2.2-3.6,3.6-5c1.4-1.4,3.1-2.5,4.8-3.4
			c23.4-13.3,52.7-13.9,78.3-5.8c25.7,8.1,48.2,24.1,68,42.4c6.1,5.6,12.2,11.9,14.7,19.8c1.5,5,1.5,10.2,1.3,15.4
			c-0.2,3.3-0.9,7.3-4,8.7c-2.2,1-4.8,0.1-7.2-0.3c-2.4-0.5-5.4-0.3-6.6,1.9c-0.5,0.9-0.5,1.9-0.9,2.9c-1.1,3.7-5.6,5.5-9.4,4.7
			c-3.8-0.8-6.8-3.5-9.3-6.4c-2.3,5-7.1,8.6-12.5,9.5c-5.4,0.9-11.1-1.1-14.9-5c-0.7-0.8-1.7-1.7-2.7-1.5c-0.6,0.1-1,0.6-1.5,1
			c-2.9,2.7-7.7,2.8-11.3,0.9c-3.6-1.9-6-5.4-7.5-9.1c-1.5,3.5-3.8,7.6-7.6,7.6c-1.4,0-2.7-0.6-4-1.3c-8.8-5.4-11-17-12.3-27.3
			c-22.2,2.7-45.5-6.7-59.6-24C276.8,439,274.8,436.1,274.2,432.9z"/>
	</g>
	<path class="st4" d="M292.1,425.9c15.9-0.6,31.8-1.1,47.6-1.5c9.9-0.2,20.1-0.3,29.3,3.1c9.4,3.5,17.2,10.3,24.8,16.8
		c7.9,6.9,16.1,14.2,19.8,24.1"/>
	<path class="st4" d="M356.4,425.8c2.5,13.5,11.9,25.4,24.2,31.3"/>
	<path class="st4" d="M358.6,424.8c7.7-0.4,22.2-1.5,29.9-0.2s15.1,4.6,20.2,10.5"/>
	<path class="st4" d="M309.8,425.8c2.3,4.4,4.2,7.8,7.8,11.1c3.6,3.3,8.9,5.3,13.6,3.8"/>
	<path class="st4" d="M405.2,454.5c11.2,1.2,22.2,4.2,32.5,8.8"/>
	<path class="st4" d="M269.3,424.6c-27.9,4.4-48.9,11.8-73.2,26.3c-5.5,3.3-11.4,7.4-12.4,13.8"/>
	<path class="st4" d="M224.4,436.6c-12.9-2.5-22.8-2.5-35.8-1.1"/>
	<path class="st4" d="M224.4,436.6c6.4,9.2,13.2,22.5,12.7,33.8"/>
	<path class="st4" d="M261.7,425.7c0.7,5,4.8,8.8,7,13.4c4,8.2,1.3,18.1-2.5,26.3"/>
	<path class="st4" d="M260.9,426.1c0.2-3.9-4.2-5.2-7.6-7.1c-3.3-2-7.4-2.7-11.3-3.1c-8.2-0.9-16.6-1.1-24.9-0.5"/>
</g>
<g id="tomato">
	
		<ellipse transform="matrix(-0.1704 -0.9854 0.9854 -0.1704 -138.9227 722.7191)" class="st5" cx="234.8" cy="419.8" rx="31.5" ry="81.5"/>
	
		<ellipse transform="matrix(-0.1704 -0.9854 0.9854 -0.1704 -131.8654 714.3243)" class="st6" cx="234.8" cy="412.7" rx="31.5" ry="81.5"/>
	<path class="st5" d="M197.1,417.6c0,0-22.3-8.2,4.5-18.6c0,0,11.7-6.9,23.7,5.8c0,0,8.2-18.2,26.8-12.4c0,0,26.8,0.3,28.2,8.2
		c0,0,2.1,9.6-9.6,12.1c0,0,14.8,14.8-10.3,18.2c0,0-24.4,6.5-30.5-8.6c0,0-0.3,17.2-30.2,13.4C199.6,435.7,164.2,429.2,197.1,417.6
		z"/>
	
		<ellipse transform="matrix(8.182696e-02 -0.9966 0.9966 8.182696e-02 -114.0702 741.8425)" class="st5" cx="345.6" cy="432.8" rx="33" ry="81.5"/>
	
		<ellipse transform="matrix(8.182696e-02 -0.9966 0.9966 8.182696e-02 -108.103 731.0339)" class="st6" cx="342.7" cy="424.2" rx="33" ry="81.5"/>
	<path class="st5" d="M380.2,436.2c0,0,23.6-2.9-0.1-19.1c0,0-9.8-9.4-24.4,0.2c0,0-3.8-19.6-23.2-18.2c0,0-26.2-5.8-29.3,1.5
		c0,0-4.2,8.9,6.6,13.9c0,0-17.8,11,5.8,20.1c0,0,22.2,12,31.8-1.3c0,0-3.6,16.8,26.3,20C373.6,453.4,409.6,455.2,380.2,436.2z"/>
</g>
<g id="burger">
	<g>
		<path class="st7" d="M164.1,357.9c0,0-0.9,0.5-2.1,1.3c-3.7,2.6-9.6,8.4,0.7,13.1c0,0-24.7,6.1-11.7,18.4c0,0-13.6,22.2,4.7,22.2
			c0,0-3.7,20.6,16.8,14.5c0,0,6.2,11.6,16.7,7.6c0,0-7.6,12.3,88.6,5.4c0,0,80.3,8.4,138.3-3.1c0,0,9.9,11.5,21.4-2.3
			c0,0,21.4,3.1,22.9-9.2c0,0,17.6-6.9,7.6-22.2c0,0,11.5-6.1-1.5-13.7c0,0,0.7-22.2-18.4-21.4c0,0-174.4-27.3-285.1-10.2"/>
		<path class="st1" d="M205.2,468c0,0-9.2-68-14.5-78.7c0,0-35.6-22.9-26.6-31.4c0,0,70.1-58.1,240.6-17.6c0,0,41.3,6.1,48.5,30.5
			c0,0-97.4,26.9-136.4,26.1c0,0-25.2,7.6-30.5,14.4C286.2,411.4,252.6,455.7,205.2,468z"/>
		<ellipse class="st8" cx="207.1" cy="403.9" rx="7.8" ry="8.9"/>
		<ellipse class="st9" cx="294.6" cy="423.2" rx="7.8" ry="7.5"/>
		<ellipse class="st9" cx="327.7" cy="428.6" rx="7.8" ry="5.6"/>
		<path class="st9" d="M358.1,423c0,0,11,9.7,19.4-2.3c0,0,34.1,7.8,27.8-12.6"/>
		<path class="st8" d="M207.1,381.3c0,0-12.1-8.2-11.5-19.1c0,0,4.5-13.1-6.4-10.7c0,0-13.3,5.7-2.7,19
			C186.6,370.6,193.1,380.1,207.1,381.3z"/>
		<path class="st8" d="M338.5,335c0,0,46.6-2.3,84.6,19.6c0,0-0.2,5.1-5.3,4.7c0,0-28.4-19-79.3-17.6
			C338.5,341.8,328.9,338.3,338.5,335z"/>
	</g>
</g>
<g id="top">
	<g>
		<path class="st0" d="M420.1,287.6c5.5,5,15.8,15.2,19.7,21.5c11.8,19.2,17.3,33.5,13.1,55.6c-3,16.1-41.6,18-45.3,18.2
			c-61.2,1.5-81.5,4.3-146.3,3.5c-16.4-0.2-76.8-3.4-85.1-8.4c-8.3-5.1-21.8-9.1-24.5-18.5c-5-17.3,5.3-35.4,17.5-48.6
			c37-39.9,89-53.2,143.4-55.7c11.5-0.5,26.7,0.1,38.1,1.9c18,2.8,34.4,9.6,50.6,18.1C408.1,278.6,414.5,282.5,420.1,287.6z"/>
		<path class="st8" d="M209.7,310.9c0,3.4-3.1,6.2-7,6.2c-3.8,0-18.9-2.8-18.9-6.2s15.1-6.2,18.9-6.2S209.7,307.5,209.7,310.9z"/>
		<path class="st8" d="M250.1,306.8c-0.9-3.3,1.5-6.8,5.2-7.7c3.8-0.9,19-1.9,19.8,1.4c0.9,3.3-13.1,9.7-16.8,10.7
			C254.7,312,250.9,310.1,250.1,306.8z"/>
		<path class="st8" d="M237.5,279.8c-0.8-3.3,1.5-6.8,5.2-7.7c3.8-0.9,19-1.9,19.8,1.4c0.8,3.3-13.1,9.7-16.8,10.7
			S238.3,283.1,237.5,279.8z"/>
		<path class="st8" d="M309,296.6c-2.2,2.6-6.4,2.8-9.3,0.3s-12.8-14.2-10.6-16.9c2.2-2.6,15.5,4.8,18.5,7.3
			C310.6,289.8,311.2,294,309,296.6z"/>
		<path class="st8" d="M343.7,280.9c-2.7,2.1-6.8,1.3-9.2-1.7c-2.3-3-9.4-16.6-6.8-18.7c2.7-2.1,14.1,8,16.5,11.1
			C346.7,274.6,346.5,278.8,343.7,280.9z"/>
		<path class="st8" d="M354.4,314c-1.3,3.2-5.2,4.6-8.8,3.2s-16.5-9.6-15.3-12.8c1.3-3.2,16.3-0.2,19.8,1.3S355.7,310.8,354.4,314z"
			/>
		<path class="st8" d="M391.7,275.2c2.1,2.7,1.2,6.8-1.9,9.2c-3.1,2.3-16.8,9-18.9,6.3c-2.1-2.7,8.4-14,11.5-16.3
			C385.5,272.1,389.6,272.4,391.7,275.2z"/>
		<path class="st8" d="M392.6,308.8c1-3.3,4.8-5.1,8.4-4c3.7,1.1,17.4,8,16.3,11.3c-1,3.3-16.2,1.7-19.9,0.6
			C393.9,315.6,391.7,312.1,392.6,308.8z"/>
	</g>
	<g id="drops">
		<path class="st5" d="M501.9,443.3c0,0,19.6-38.4,52.4-26.3c0,0,23.6,8.2,15.1,28.9c0,0-5.4,14-24.4,3.6c0,0-11.1-16.3-32.2-10.9
			C512.8,438.6,502.7,440.7,501.9,443.3z"/>
		<path class="st5" d="M491.3,467c0,0,54.5-0.1,58.4,42.9c0,0-1,20.6-24.2,15.9c0,0-18.3-3.5-11.9-25
			C513.7,500.8,521.7,476.9,491.3,467z"/>
		<path class="st8" d="M529.8,487.9c0,0,26.1,18.1,6,31.4c-0.9,0.5-1.8,0.9-2.8,0.9c-2.5,0.1-7.6-0.3-10.3-3.3
			C522.8,516.9,551.5,517.7,529.8,487.9z"/>
		<path class="st1" d="M124.2,467.4c0,0-53.9-7.8-63.9,34.2c0,0-1.9,20.6,21.7,19.2c0,0,18.6-0.8,15.3-23
			C97.3,497.7,92.8,473,124.2,467.4z"/>
		<path class="st8" d="M83.1,482.7c0,0-28.3,14.2-10.5,30.3c0.7,0.7,1.7,1.1,2.7,1.3c2.5,0.4,7.6,0.8,10.6-1.9
			C86,512.4,57.4,509.1,83.1,482.7z"/>
		<path class="st8" d="M543.2,422c0,0,19.2-3.4,23,14.3c0,0,1.9,2.8-5.4,11.2C560.8,447.4,565.7,430.6,543.2,422z"/>
	</g>
</g>
<g id="bottom_1_">
	<g>
		<path class="st0" d="M158.2,970c0,0,2.8-4.2,14.7-6.5c56.1-10.9,149.3-33.2,269.7,8c5.8,2,16.2,19.4,14.8,22.6
			c0,0,7.4,53.2-71.3,60.6c0,0-62,6.8-155.1-3.1S148.9,978.1,158.2,970z"/>
		<path class="st1" d="M162.2,967.6c0,0-14.8,21.4,66.1,40.8c0,0,59.8,18.6,183.9-0.9c0,0,49.6-5.4,30.5-36"/>
	</g>
</g>
<g id="lettuce_1_">
	<g>
		<path class="st2" d="M291.7,1007c1.5,5.8,7.6,9.8,13.5,9.2c5.9-0.7,10.9-6.1,11.1-12.1c5.2,4.8,11.3,9.8,18.5,9.8
			c7.2-0.1,13.9-8.6,9.8-14.4c5.7,3.8,12.1,6.6,18.7,8c5.5,1.3,11.8,1.5,16.3-1.9c4.4-3.3,5.8-9.4,5.4-14.9
			c-0.7-9.2-5.8-17.8-12.5-24.1c-6.7-6.4-14.9-11-23.3-15c-36.8-17.9-77.7-27.3-118.6-27.4c-5.8,0-11.7,0.2-17.2,1.9
			c-5.1,1.6-9.7,4.5-14.2,7.4c-6.8,4.4-18.9,6.5-25.5,11.2c-8.7,6.2-12.5,15.9-14.3,26.4c-1.2,6.8,3.6,15.6,10.4,14.5
			c-5.2,4.6-8.4,11.6-7.3,18.4c1.1,6.8,7.4,12.7,14.3,12.3s12.5-8.4,9.7-14.7c0.1,2.5,0.1,5.1,0.1,7.6c5.2,3.5,11.2,5.8,17.4,6.6
			c3.7,0.5,7.6,0.5,10.8-1.3c3.2-1.8,5.4-5.8,4.2-9.3c2.8,9.8,16.9,14.1,24.7,7.6c5.4,7.9,19.2,7.5,24.1-0.7c1.3,5.4,8,8.2,13.3,6.7
			C286.1,1017.2,289.9,1012.2,291.7,1007z"/>
		<path class="st3" d="M276,958c-1.1-5.9,2.1-11.6,5.2-16.7c1.1-1.7,2.2-3.6,3.6-5c1.4-1.4,3.1-2.5,4.8-3.4
			c23.4-13.3,52.7-13.9,78.3-5.8c25.7,8.1,48.2,24.1,68,42.4c6.1,5.6,12.2,11.9,14.7,19.8c1.5,5,1.5,10.2,1.3,15.4
			c-0.2,3.3-0.9,7.3-4,8.7c-2.2,1-4.8,0.1-7.2-0.3c-2.4-0.5-5.4-0.3-6.6,1.9c-0.5,0.9-0.5,1.9-0.9,2.9c-1.1,3.7-5.6,5.5-9.4,4.7
			c-3.8-0.8-6.8-3.5-9.3-6.4c-2.3,5-7.1,8.6-12.5,9.5c-5.4,0.9-11.1-1.1-14.9-5c-0.7-0.8-1.7-1.7-2.7-1.5c-0.6,0.1-1,0.6-1.5,1
			c-2.9,2.7-7.7,2.8-11.3,0.9c-3.6-1.9-6-5.4-7.5-9.1c-1.5,3.5-3.8,7.6-7.6,7.6c-1.4,0-2.7-0.6-4-1.3c-8.8-5.4-11-17-12.3-27.3
			c-22.2,2.7-45.5-6.7-59.6-24C278.6,964.1,276.6,961.3,276,958z"/>
	</g>
	<path class="st4" d="M293.9,951c15.9-0.6,31.8-1.1,47.6-1.5c9.9-0.2,20.1-0.3,29.3,3.1c9.4,3.5,17.2,10.3,24.8,16.8
		c7.9,6.9,16.1,14.2,19.8,24.1"/>
	<path class="st4" d="M358.2,950.9c2.5,13.5,11.9,25.4,24.2,31.3"/>
	<path class="st4" d="M360.4,949.9c7.7-0.4,22.2-1.5,29.9-0.2c7.6,1.3,15.1,4.6,20.2,10.5"/>
	<path class="st4" d="M311.6,950.9c2.3,4.4,4.2,7.8,7.8,11.1s8.9,5.3,13.6,3.8"/>
	<path class="st4" d="M407,979.6c11.2,1.2,22.2,4.2,32.5,8.8"/>
	<path class="st4" d="M271.1,949.7c-27.9,4.4-48.9,11.8-73.2,26.3c-5.5,3.3-11.4,7.4-12.4,13.8"/>
	<path class="st4" d="M226.2,961.7c-12.9-2.5-22.8-2.5-35.8-1.1"/>
	<path class="st4" d="M226.2,961.7c6.4,9.2,13.2,22.5,12.7,33.8"/>
	<path class="st4" d="M263.5,950.8c0.7,5,4.8,8.8,7,13.4c4,8.2,1.3,18.1-2.5,26.3"/>
	<path class="st4" d="M262.7,951.2c0.2-3.9-4.2-5.2-7.6-7.1c-3.4-1.9-7.4-2.7-11.3-3.1c-8.2-0.9-16.6-1.1-24.9-0.5"/>
</g>
<g id="tomato_1_">
	
		<ellipse transform="matrix(-0.1704 -0.9854 0.9854 -0.1704 -646.2654 1329.5975)" class="st5" cx="236.6" cy="936.8" rx="31.5" ry="81.5"/>
	
		<ellipse transform="matrix(-0.1704 -0.9854 0.9854 -0.1704 -639.2599 1321.2911)" class="st6" cx="236.6" cy="929.7" rx="31.5" ry="81.5"/>
	<path class="st5" d="M198.9,934.6c0,0-22.3-8.2,4.5-18.6c0,0,11.7-6.9,23.7,5.8c0,0,8.2-18.2,26.8-12.4c0,0,26.8,0.3,28.2,8.2
		c0,0,2.1,9.6-9.6,12.1c0,0,14.8,14.8-10.3,18.2c0,0-24.4,6.5-30.5-8.6c0,0-0.3,17.2-30.2,13.4C201.4,952.8,166,946.3,198.9,934.6z"
		/>
	
		<ellipse transform="matrix(8.182696e-02 -0.9966 0.9966 8.182696e-02 -627.7537 1218.4093)" class="st5" cx="347.4" cy="949.9" rx="33" ry="81.5"/>
	
		<ellipse transform="matrix(8.182696e-02 -0.9966 0.9966 8.182696e-02 -621.7866 1207.6007)" class="st6" cx="344.5" cy="941.3" rx="33" ry="81.5"/>
	<path class="st5" d="M382,953.3c0,0,23.6-2.9-0.1-19.1c0,0-9.8-9.4-24.4,0.2c0,0-3.8-19.6-23.2-18.2c0,0-26.2-5.8-29.3,1.5
		c0,0-4.2,8.9,6.6,13.9c0,0-17.8,11,5.8,20.1c0,0,22.2,12,31.8-1.3c0,0-3.6,16.8,26.3,20C375.4,970.4,411.4,972.3,382,953.3z"/>
</g>
<g id="burger_1_">
	<g>
		<path class="st7" d="M165.9,868.3c0,0-0.9,0.5-2.1,1.3c-3.7,2.6-9.6,8.4,0.7,13.1c0,0-24.7,6.1-11.7,18.4c0,0-13.6,22.2,4.7,22.2
			c0,0-3.7,20.6,16.8,14.5c0,0,6.2,11.6,16.7,7.6c0,0-7.6,12.3,88.6,5.4c0,0,80.3,8.4,138.3-3.1c0,0,9.9,11.5,21.4-2.3
			c0,0,21.4,3.1,22.9-9.2c0,0,17.6-6.9,7.6-22.2c0,0,11.5-6.1-1.5-13.7c0,0,0.7-22.2-18.4-21.4c0,0-174.4-27.3-285.1-10.2"/>
		<path class="st1" d="M207.1,978.3c0,0-9.2-68-14.5-78.7c0,0-35.6-22.9-26.6-31.4c0,0,70.1-58.1,240.6-17.6c0,0,41.3,6.1,48.5,30.5
			c0,0-97.4,26.9-136.4,26.1c0,0-25.2,7.6-30.5,14.4C288.1,921.7,254.4,966.1,207.1,978.3z"/>
		<ellipse class="st8" cx="208.9" cy="914.2" rx="7.8" ry="8.9"/>
		<ellipse class="st9" cx="296.4" cy="933.6" rx="7.8" ry="7.5"/>
		<ellipse class="st9" cx="329.5" cy="939" rx="7.8" ry="5.6"/>
		<path class="st9" d="M359.9,933.3c0,0,11,9.7,19.4-2.3c0,0,34.1,7.8,27.8-12.6"/>
		<path class="st8" d="M208.9,891.7c0,0-12.1-8.2-11.5-19.1c0,0,4.5-13.1-6.4-10.7c0,0-13.3,5.7-2.7,19
			C188.4,880.9,194.9,890.4,208.9,891.7z"/>
		<path class="st8" d="M340.3,845.4c0,0,46.6-2.3,84.6,19.6c0,0-0.2,5.1-5.3,4.7c0,0-28.4-19-79.3-17.6
			C340.3,852.1,330.7,848.6,340.3,845.4z"/>
	</g>
</g>
<g id="top_1_">
	<g>
		<path class="st0" d="M421.9,793.2c5.5,5,15.8,15.2,19.7,21.5c11.8,19.2,17.3,33.5,13.1,55.6c-3,16.1-41.6,18-45.3,18.2
			c-61.2,1.5-81.5,4.3-146.3,3.5c-16.4-0.2-76.8-3.4-85.1-8.4c-8.3-5.1-21.8-9.1-24.5-18.5c-5-17.3,5.3-35.4,17.5-48.6
			c37-39.9,89-53.2,143.4-55.7c11.5-0.5,26.7,0.1,38.1,1.9c18,2.8,34.4,9.6,50.6,18.1C409.9,784.3,416.3,788.1,421.9,793.2z"/>
		<path class="st8" d="M211.5,816.6c0,3.4-3.1,6.2-7,6.2s-18.9-2.8-18.9-6.2s15.1-6.2,18.9-6.2C208.3,810.4,211.5,813.1,211.5,816.6
			z"/>
		<path class="st8" d="M251.9,812.4c-0.9-3.3,1.5-6.8,5.2-7.7c3.8-0.9,19-1.9,19.8,1.4c0.8,3.3-13.1,9.7-16.8,10.7
			C256.5,817.7,252.7,815.8,251.9,812.4z"/>
		<path class="st8" d="M239.3,785.5c-0.8-3.3,1.5-6.8,5.2-7.7s19-1.9,19.8,1.4c0.8,3.3-13.1,9.7-16.8,10.7S240.1,788.8,239.3,785.5z
			"/>
		<path class="st8" d="M310.8,802.3c-2.2,2.6-6.4,2.8-9.3,0.3s-12.8-14.2-10.6-16.9c2.2-2.6,15.5,4.8,18.5,7.3
			C312.4,795.5,313,799.6,310.8,802.3z"/>
		<path class="st8" d="M345.5,786.6c-2.7,2.1-6.8,1.3-9.2-1.7c-2.3-3-9.4-16.6-6.8-18.7c2.7-2.1,14.1,8,16.5,11.1
			C348.5,780.3,348.3,784.5,345.5,786.6z"/>
		<path class="st8" d="M356.3,819.6c-1.3,3.2-5.2,4.6-8.8,3.2c-3.6-1.4-16.5-9.6-15.3-12.8c1.3-3.2,16.3-0.2,19.8,1.3
			C355.7,812.7,357.5,816.5,356.3,819.6z"/>
		<path class="st8" d="M393.5,780.8c2.1,2.7,1.2,6.8-1.9,9.2c-3.1,2.3-16.8,9-18.9,6.3c-2.1-2.7,8.4-14,11.5-16.3
			C387.3,777.7,391.4,778.1,393.5,780.8z"/>
		<path class="st8" d="M394.4,814.5c1-3.3,4.8-5.1,8.4-4c3.7,1.1,17.4,8,16.3,11.3c-1,3.3-16.2,1.7-19.9,0.6
			C395.7,821.3,393.5,817.8,394.4,814.5z"/>
	</g>
	<g id="drops_1_">
		<path class="st5" d="M474.9,932c0,0,19.6-38.4,52.4-26.3c0,0,23.6,8.2,15.1,28.9c0,0-5.4,14-24.4,3.6c0,0-11.1-16.3-32.2-10.9
			C485.8,927.3,475.6,929.4,474.9,932z"/>
		<path class="st5" d="M464.3,955.6c0,0,54.5-0.1,58.4,42.9c0,0-1,20.6-24.2,15.9c0,0-18.3-3.5-11.9-25
			C486.7,989.5,494.6,965.6,464.3,955.6z"/>
		<path class="st8" d="M502.8,976.7c0,0,26.1,18.1,6,31.4c-0.9,0.5-1.8,0.9-2.8,0.9c-2.5,0.1-7.6-0.3-10.3-3.3
			C495.7,1005.6,524.5,1006.4,502.8,976.7z"/>
		<path class="st1" d="M162.8,941.1c0,0-53.9-7.8-63.9,34.2c0,0-1.9,20.6,21.7,19.2c0,0,18.6-0.8,15.3-23
			C135.8,971.4,131.4,946.7,162.8,941.1z"/>
		<path class="st8" d="M121.8,956.4c0,0-28.3,14.2-10.5,30.3c0.7,0.7,1.7,1.1,2.7,1.3c2.5,0.4,7.6,0.8,10.6-1.9
			C124.6,986.1,96,982.8,121.8,956.4z"/>
		<path class="st8" d="M516.2,910.7c0,0,19.2-3.4,23,14.3c0,0,1.9,2.8-5.4,11.2C533.7,936.1,538.7,919.3,516.2,910.7z"/>
	</g>
</g>
<g id="bottom_2_">
	<g>
		<path class="st0" d="M158.5,1501.4c0,0,2.8-4.2,14.7-6.5c56.1-10.9,149.3-33.2,269.7,8c5.8,2,16.2,19.4,14.8,22.6
			c0,0,7.4,53.2-71.3,60.6c0,0-62,6.8-155.1-3.1S149.1,1509.5,158.5,1501.4z"/>
		<path class="st1" d="M162.4,1499c0,0-14.8,21.4,66.1,40.8c0,0,59.8,18.6,183.9-0.9c0,0,49.6-5.4,30.5-36"/>
	</g>
</g>
<g id="lettuce_2_">
	<g>
		<path class="st2" d="M291.9,1525.6c1.5,5.8,7.6,9.8,13.5,9.2c5.9-0.7,10.9-6.1,11.1-12.1c5.2,4.8,11.3,9.8,18.5,9.8
			c7.2-0.1,13.9-8.6,9.8-14.4c5.7,3.8,12.1,6.6,18.7,8c5.5,1.3,11.8,1.5,16.3-1.9c4.4-3.3,5.8-9.4,5.4-14.9
			c-0.7-9.2-5.8-17.8-12.5-24.1c-6.7-6.4-14.9-11-23.3-15c-36.8-17.9-77.7-27.3-118.6-27.4c-5.8,0-11.7,0.2-17.2,1.9
			c-5.1,1.6-9.7,4.5-14.2,7.4c-6.8,4.4-18.9,6.5-25.5,11.2c-8.7,6.2-12.5,15.9-14.3,26.4c-1.2,6.8,3.6,15.6,10.4,14.5
			c-5.2,4.6-8.4,11.6-7.3,18.4c1.1,6.8,7.4,12.7,14.3,12.3c6.9-0.4,12.5-8.4,9.7-14.7c0.1,2.5,0.1,5.1,0.1,7.6
			c5.2,3.5,11.2,5.8,17.4,6.6c3.7,0.5,7.6,0.5,10.8-1.3c3.2-1.8,5.4-5.8,4.2-9.3c2.8,9.8,16.9,14.1,24.7,7.6
			c5.4,7.9,19.2,7.5,24.1-0.7c1.3,5.4,8,8.2,13.3,6.7C286.4,1535.9,290.2,1530.9,291.9,1525.6z"/>
		<path class="st3" d="M276.2,1476.7c-1.1-5.9,2.1-11.6,5.2-16.7c1.1-1.7,2.2-3.6,3.6-5c1.4-1.4,3.1-2.5,4.8-3.4
			c23.4-13.3,52.7-13.9,78.3-5.8c25.7,8.1,48.2,24.1,68,42.4c6.1,5.6,12.2,11.9,14.7,19.8c1.5,5,1.6,10.2,1.3,15.4
			c-0.2,3.3-0.9,7.3-4,8.7c-2.2,1-4.8,0.1-7.2-0.3c-2.4-0.5-5.4-0.3-6.6,1.9c-0.5,0.9-0.5,1.9-0.9,2.9c-1.1,3.7-5.6,5.5-9.4,4.7
			c-3.8-0.8-6.8-3.5-9.3-6.4c-2.3,5-7.1,8.6-12.5,9.5c-5.4,0.9-11.1-1.1-14.9-5c-0.7-0.8-1.7-1.7-2.7-1.5c-0.6,0.1-1,0.6-1.5,1
			c-2.9,2.7-7.7,2.8-11.3,0.9s-6-5.4-7.5-9.1c-1.5,3.5-3.8,7.6-7.6,7.6c-1.4,0-2.7-0.6-4-1.3c-8.8-5.4-11-17-12.3-27.3
			c-22.2,2.7-45.5-6.7-59.6-24C278.9,1482.8,276.8,1480,276.2,1476.7z"/>
	</g>
	<path class="st4" d="M294.2,1469.7c15.9-0.6,31.8-1.1,47.6-1.5c9.9-0.2,20.1-0.3,29.3,3.1c9.4,3.5,17.2,10.3,24.8,16.8
		c7.9,6.9,16.1,14.2,19.8,24.1"/>
	<path class="st4" d="M358.4,1469.6c2.5,13.5,11.9,25.4,24.2,31.3"/>
	<path class="st4" d="M360.7,1468.6c7.7-0.4,22.2-1.5,29.9-0.2c7.6,1.3,15.1,4.6,20.2,10.5"/>
	<path class="st4" d="M311.8,1469.6c2.3,4.4,4.2,7.8,7.8,11.1c3.6,3.3,8.9,5.3,13.6,3.8"/>
	<path class="st4" d="M407.3,1498.3c11.2,1.2,22.2,4.2,32.5,8.8"/>
	<path class="st4" d="M271.3,1468.4c-27.9,4.4-48.9,11.8-73.2,26.3c-5.5,3.3-11.4,7.4-12.4,13.8"/>
	<path class="st4" d="M226.5,1480.4c-12.9-2.5-22.8-2.5-35.8-1.1"/>
	<path class="st4" d="M226.5,1480.4c6.4,9.2,13.2,22.5,12.7,33.8"/>
	<path class="st4" d="M263.8,1469.5c0.7,5,4.8,8.8,7,13.4c4,8.2,1.3,18.1-2.5,26.3"/>
	<path class="st4" d="M262.9,1469.9c0.2-3.9-4.2-5.2-7.6-7.1s-7.4-2.7-11.3-3.1c-8.2-0.9-16.6-1.1-24.9-0.5"/>
</g>
<g id="tomato_2_">
	
		<ellipse transform="matrix(-0.1704 -0.9854 0.9854 -0.1704 -1151.7926 1930.6378)" class="st5" cx="236.8" cy="1450.2" rx="31.5" ry="81.5"/>
	
		<ellipse transform="matrix(-0.1704 -0.9854 0.9854 -0.1704 -1144.7871 1922.3314)" class="st6" cx="236.8" cy="1443.1" rx="31.5" ry="81.5"/>
	<path class="st5" d="M199.2,1447.9c0,0-22.3-8.2,4.5-18.6c0,0,11.7-6.9,23.7,5.8c0,0,8.2-18.2,26.8-12.4c0,0,26.8,0.3,28.2,8.2
		c0,0,2.1,9.6-9.6,12.1c0,0,14.8,14.8-10.3,18.2c0,0-24.4,6.5-30.5-8.6c0,0-0.3,17.2-30.2,13.4
		C201.6,1466.1,166.2,1459.6,199.2,1447.9z"/>
	
		<ellipse transform="matrix(8.182696e-02 -0.9966 0.9966 8.182696e-02 -1139.1351 1689.9768)" class="st5" cx="347.6" cy="1463.2" rx="33" ry="81.5"/>
	
		<ellipse transform="matrix(8.182696e-02 -0.9966 0.9966 8.182696e-02 -1133.0966 1679.1123)" class="st6" cx="344.8" cy="1454.5" rx="33" ry="81.5"/>
	<path class="st5" d="M382.2,1466.6c0,0,23.6-2.9-0.1-19.1c0,0-9.8-9.4-24.4,0.2c0,0-3.8-19.6-23.2-18.2c0,0-26.2-5.8-29.3,1.5
		c0,0-4.2,8.9,6.6,13.9c0,0-17.8,11,5.8,20.1c0,0,22.2,12,31.8-1.3c0,0-3.6,16.8,26.3,20C375.7,1483.8,411.6,1485.6,382.2,1466.6z"
		/>
</g>
<g id="burger_2_">
	<g>
		<path class="st7" d="M166.2,1372.2c0,0-0.9,0.5-2.1,1.3c-3.7,2.6-9.6,8.4,0.7,13.1c0,0-24.7,6.1-11.7,18.4c0,0-13.6,22.2,4.7,22.2
			c0,0-3.7,20.6,16.8,14.5c0,0,6.2,11.6,16.7,7.6c0,0-7.6,12.3,88.6,5.4c0,0,80.3,8.4,138.3-3.1c0,0,9.9,11.5,21.4-2.3
			c0,0,21.4,3.1,22.9-9.2c0,0,17.6-6.9,7.6-22.2c0,0,11.5-6.1-1.5-13.7c0,0,0.7-22.2-18.4-21.4c0,0-174.4-27.3-285.1-10.2"/>
		<path class="st1" d="M207.3,1482.2c0,0-9.2-68-14.5-78.7c0,0-35.6-22.9-26.6-31.4c0,0,70.1-58.1,240.6-17.6
			c0,0,41.3,6.1,48.5,30.5c0,0-97.4,26.9-136.4,26.1c0,0-25.2,7.6-30.5,14.4C288.3,1425.7,254.7,1470,207.3,1482.2z"/>
		<ellipse class="st8" cx="209.1" cy="1418.1" rx="7.8" ry="8.9"/>
		<ellipse class="st9" cx="296.6" cy="1437.5" rx="7.8" ry="7.5"/>
		<ellipse class="st9" cx="329.8" cy="1442.8" rx="7.8" ry="5.6"/>
		<path class="st9" d="M360.2,1437.3c0,0,11,9.7,19.4-2.3c0,0,34.1,7.8,27.8-12.6"/>
		<path class="st8" d="M209.1,1395.5c0,0-12.1-8.2-11.5-19.1c0,0,4.5-13.1-6.4-10.7c0,0-13.3,5.7-2.7,19
			C188.7,1384.9,195.2,1394.4,209.1,1395.5z"/>
		<path class="st8" d="M340.6,1349.3c0,0,46.6-2.3,84.6,19.6c0,0-0.2,5.1-5.3,4.7c0,0-28.4-19-79.3-17.6
			C340.6,1356,331,1352.5,340.6,1349.3z"/>
	</g>
</g>
<g id="top_2_">
	<g>
		<path class="st0" d="M422.2,1290.4c5.5,5,15.8,15.2,19.7,21.5c11.8,19.2,17.3,33.5,13.1,55.6c-3,16.1-41.6,18-45.3,18.2
			c-61.2,1.5-81.5,4.3-146.3,3.5c-16.4-0.2-76.8-3.4-85.1-8.4c-8.3-5.1-21.8-9.1-24.5-18.5c-5-17.3,5.3-35.4,17.5-48.6
			c37-39.9,89-53.2,143.4-55.7c11.5-0.5,26.7,0.1,38.1,1.9c18,2.8,34.4,9.6,50.6,18.1C410.2,1281.4,416.5,1285.3,422.2,1290.4z"/>
		<path class="st8" d="M211.7,1313.8c0,3.4-3.1,6.2-7,6.2c-3.8,0-18.9-2.8-18.9-6.2s15.1-6.2,18.9-6.2S211.7,1310.4,211.7,1313.8z"
			/>
		<path class="st8" d="M252.2,1309.6c-0.9-3.3,1.5-6.8,5.2-7.7c3.8-0.9,19-1.9,19.8,1.4c0.9,3.3-13.1,9.7-16.8,10.7
			C256.7,1314.9,253,1313,252.2,1309.6z"/>
		<path class="st8" d="M239.5,1282.7c-0.8-3.3,1.5-6.8,5.2-7.7c3.8-0.9,19-1.9,19.8,1.4c0.8,3.3-13.1,9.7-16.8,10.7
			C244.1,1288,240.3,1286.1,239.5,1282.7z"/>
		<path class="st8" d="M311.1,1299.5c-2.2,2.6-6.4,2.8-9.3,0.3c-2.9-2.5-12.8-14.2-10.6-16.9c2.2-2.6,15.5,4.8,18.5,7.3
			C312.6,1292.7,313.3,1296.9,311.1,1299.5z"/>
		<path class="st8" d="M345.8,1283.9c-2.7,2.1-6.8,1.3-9.2-1.7c-2.3-3-9.4-16.6-6.8-18.7c2.7-2.1,14.1,8,16.5,11.1
			C348.8,1277.6,348.5,1281.7,345.8,1283.9z"/>
		<path class="st8" d="M356.5,1316.9c-1.3,3.2-5.2,4.6-8.8,3.2c-3.6-1.4-16.5-9.6-15.3-12.8c1.3-3.2,16.3-0.2,19.8,1.3
			C355.9,1309.9,357.8,1313.7,356.5,1316.9z"/>
		<path class="st8" d="M393.7,1278c2.1,2.7,1.2,6.8-1.9,9.2c-3.1,2.3-16.8,9-18.9,6.3c-2.1-2.7,8.4-14,11.5-16.3
			C387.5,1274.9,391.7,1275.3,393.7,1278z"/>
		<path class="st8" d="M394.7,1311.7c1-3.3,4.8-5.1,8.4-4c3.7,1.1,17.4,8,16.3,11.3c-1,3.3-16.2,1.7-19.9,0.6
			C395.9,1318.6,393.7,1315,394.7,1311.7z"/>
	</g>
	<g id="drops_2_">
	</g>
</g>
<g id="bottom_3_">
	<g>
		<path class="st0" d="M155.8,2033.2c0,0,2.8-4.2,14.7-6.5c56.1-10.9,149.3-33.2,269.7,8c5.8,2,16.2,19.4,14.8,22.6
			c0,0,7.4,53.2-71.3,60.6c0,0-62,6.8-155.1-3.1S146.5,2041.3,155.8,2033.2z"/>
		<path class="st1" d="M159.7,2030.8c0,0-14.8,21.4,66.1,40.8c0,0,59.8,18.6,183.9-0.9c0,0,49.6-5.4,30.5-36"/>
	</g>
</g>
<g id="lettuce_3_">
	<g>
		<path class="st2" d="M289.2,2040.7c1.5,5.8,7.6,9.8,13.5,9.2s10.9-6.1,11.1-12.1c5.2,4.8,11.3,9.8,18.5,9.8
			c7.2-0.1,13.9-8.6,9.8-14.4c5.7,3.8,12.1,6.6,18.7,8c5.5,1.3,11.8,1.5,16.3-1.9c4.4-3.3,5.8-9.4,5.4-14.9
			c-0.7-9.2-5.8-17.8-12.5-24.1c-6.7-6.4-14.9-11-23.3-15c-36.8-17.9-77.7-27.3-118.6-27.4c-5.8,0-11.7,0.2-17.2,1.9
			c-5.1,1.6-9.7,4.5-14.2,7.4c-6.8,4.4-18.9,6.5-25.5,11.2c-8.7,6.2-12.5,15.9-14.3,26.4c-1.2,6.8,3.6,15.6,10.4,14.5
			c-5.2,4.6-8.4,11.6-7.3,18.4c1.1,6.8,7.4,12.7,14.3,12.3c6.9-0.4,12.5-8.4,9.7-14.7c0.1,2.5,0.1,5.1,0.1,7.6
			c5.2,3.5,11.2,5.8,17.4,6.6c3.7,0.5,7.6,0.5,10.8-1.3c3.2-1.8,5.4-5.8,4.2-9.3c2.8,9.8,16.9,14.1,24.7,7.6
			c5.4,7.9,19.2,7.5,24.1-0.7c1.3,5.4,8,8.2,13.3,6.7C283.7,2050.9,287.5,2046,289.2,2040.7z"/>
		<path class="st3" d="M273.6,1991.7c-1.1-5.9,2.1-11.6,5.2-16.7c1.1-1.7,2.2-3.6,3.6-5c1.4-1.4,3.1-2.5,4.8-3.4
			c23.4-13.3,52.7-13.9,78.3-5.8c25.7,8.1,48.2,24.1,68,42.4c6.1,5.6,12.2,11.9,14.7,19.8c1.5,5,1.6,10.2,1.3,15.4
			c-0.2,3.3-0.9,7.3-4,8.7c-2.2,1-4.8,0.1-7.2-0.3c-2.4-0.5-5.4-0.3-6.6,1.9c-0.5,0.9-0.5,1.9-0.9,2.9c-1.1,3.7-5.6,5.5-9.4,4.7
			s-6.8-3.5-9.3-6.4c-2.3,5-7.1,8.6-12.5,9.5c-5.4,0.9-11.1-1.1-14.9-5c-0.7-0.8-1.7-1.7-2.7-1.5c-0.6,0.1-1,0.6-1.5,1
			c-2.9,2.7-7.7,2.8-11.3,0.9c-3.6-1.9-6-5.4-7.5-9.1c-1.5,3.5-3.8,7.6-7.6,7.6c-1.4,0-2.7-0.6-4-1.3c-8.8-5.4-11-17-12.3-27.3
			c-22.2,2.7-45.5-6.7-59.6-24C276.2,1997.9,274.2,1995.1,273.6,1991.7z"/>
	</g>
	<path class="st4" d="M291.5,1990.8c15.9-0.6,31.8-1.1,47.6-1.5c9.9-0.2,20.1-0.3,29.3,3.1c9.4,3.5,17.2,10.3,24.8,16.8
		c7.9,6.9,16.1,14.2,19.8,24.1"/>
	<path class="st4" d="M355.8,1990.7c2.5,13.5,11.9,25.4,24.2,31.3"/>
	<path class="st4" d="M358,1989.7c7.7-0.4,22.2-1.5,29.9-0.2c7.6,1.3,15.1,4.6,20.2,10.5"/>
	<path class="st4" d="M309.1,1990.7c2.3,4.4,4.2,7.8,7.8,11.1c3.6,3.3,8.9,5.3,13.6,3.8"/>
	<path class="st4" d="M404.6,2019.4c11.2,1.2,22.2,4.2,32.5,8.8"/>
	<path class="st4" d="M268.7,1989.6c-27.9,4.4-48.9,11.8-73.2,26.3c-5.5,3.3-11.4,7.4-12.4,13.8"/>
	<path class="st4" d="M223.8,2001.6c-12.9-2.5-22.8-2.5-35.8-1.1"/>
	<path class="st4" d="M223.8,2001.6c6.4,9.2,13.2,22.5,12.7,33.8"/>
	<path class="st4" d="M261.1,1990.6c0.7,5,4.8,8.8,7,13.4c4,8.2,1.3,18.1-2.5,26.3"/>
	<path class="st4" d="M260.2,1991c0.2-3.9-4.2-5.2-7.6-7.1c-3.3-2-7.4-2.7-11.3-3.1c-8.2-0.9-16.6-1.1-24.9-0.5"/>
</g>
<g id="tomato_3_">
	
		<ellipse transform="matrix(-0.1704 -0.9854 0.9854 -0.1704 -1641.369 2505.7849)" class="st5" cx="234.1" cy="1943.8" rx="31.5" ry="81.5"/>
	
		<ellipse transform="matrix(-0.1704 -0.9854 0.9854 -0.1704 -1634.3118 2497.3899)" class="st6" cx="234.1" cy="1936.7" rx="31.5" ry="81.5"/>
	<path class="st5" d="M196.5,1941.6c0,0-22.3-8.2,4.5-18.6c0,0,11.7-6.9,23.7,5.8c0,0,8.2-18.2,26.8-12.4c0,0,26.8,0.3,28.2,8.2
		c0,0,2.1,9.6-9.6,12.1c0,0,14.8,14.8-10.3,18.2c0,0-24.4,6.5-30.5-8.6c0,0-0.3,17.2-30.2,13.4
		C198.9,1959.7,163.6,1953.3,196.5,1941.6z"/>
	
		<ellipse transform="matrix(8.182696e-02 -0.9966 0.9966 8.182696e-02 -1633.5411 2140.5183)" class="st5" cx="345" cy="1956.8" rx="33" ry="81.5"/>
	
		<ellipse transform="matrix(8.182696e-02 -0.9966 0.9966 8.182696e-02 -1627.574 2129.7097)" class="st6" cx="342.1" cy="1948.2" rx="33" ry="81.5"/>
	<path class="st5" d="M379.5,1960.2c0,0,23.6-2.9-0.1-19.1c0,0-9.8-9.4-24.4,0.2c0,0-3.8-19.6-23.2-18.2c0,0-26.2-5.8-29.3,1.5
		c0,0-4.2,8.9,6.6,13.9c0,0-17.8,11,5.8,20.1c0,0,22.2,12,31.8-1.3c0,0-3.6,16.8,26.3,20C373,1977.4,409,1979.2,379.5,1960.2z"/>
</g>
<g id="burger_3_">
	<g>
		<path class="st7" d="M163.5,1847.1c0,0-0.9,0.5-2.1,1.3c-3.7,2.6-9.6,8.4,0.7,13.1c0,0-24.7,6.1-11.7,18.4c0,0-13.6,22.2,4.7,22.2
			c0,0-3.7,20.6,16.8,14.5c0,0,6.2,11.6,16.7,7.6c0,0-7.6,12.3,88.6,5.4c0,0,80.3,8.4,138.3-3.1c0,0,9.9,11.5,21.4-2.3
			c0,0,21.4,3.1,22.9-9.2c0,0,17.6-6.9,7.6-22.2c0,0,11.5-6.1-1.5-13.7c0,0,0.7-22.2-18.4-21.4c0,0-174.4-27.3-285.1-10.2"/>
		<path class="st1" d="M204.6,1957.1c0,0-9.2-68-14.5-78.7c0,0-35.6-22.9-26.6-31.4c0,0,70.1-58.1,240.6-17.6
			c0,0,41.3,6.1,48.5,30.5c0,0-97.4,26.9-136.4,26.1c0,0-25.2,7.6-30.5,14.4C285.6,1900.5,252,1944.9,204.6,1957.1z"/>
		<ellipse class="st8" cx="206.4" cy="1893" rx="7.8" ry="8.9"/>
		<ellipse class="st9" cx="293.9" cy="1912.4" rx="7.8" ry="7.5"/>
		<ellipse class="st9" cx="327.1" cy="1917.7" rx="7.8" ry="5.6"/>
		<path class="st9" d="M357.5,1912.1c0,0,11,9.7,19.4-2.3c0,0,34.1,7.8,27.8-12.6"/>
		<path class="st8" d="M206.4,1870.4c0,0-12.1-8.2-11.5-19.1c0,0,4.5-13.1-6.4-10.7c0,0-13.3,5.7-2.7,19
			C186,1859.7,192.5,1869.2,206.4,1870.4z"/>
		<path class="st8" d="M337.9,1824.2c0,0,46.6-2.3,84.6,19.6c0,0-0.2,5.1-5.3,4.7c0,0-28.4-19-79.3-17.6
			C337.9,1830.9,328.3,1827.4,337.9,1824.2z"/>
	</g>
</g>
<g id="top_3_">
	<g>
		<path class="st0" d="M419.5,1747.2c5.5,5,15.8,15.2,19.7,21.5c11.8,19.2,17.3,33.5,13.1,55.6c-3,16.1-41.6,18-45.3,18.2
			c-61.2,1.5-81.5,4.3-146.3,3.5c-16.4-0.2-76.8-3.4-85.1-8.4c-8.3-5.1-21.8-9.1-24.5-18.5c-5-17.3,5.3-35.4,17.5-48.6
			c37-39.9,89-53.2,143.4-55.7c11.5-0.5,26.7,0.1,38.1,1.9c18,2.8,34.4,9.6,50.6,18.1C407.5,1738.2,413.8,1742.1,419.5,1747.2z"/>
		<path class="st8" d="M209,1770.6c0,3.4-3.1,6.2-7,6.2c-3.8,0-18.9-2.8-18.9-6.2s15.1-6.2,18.9-6.2S209,1767.1,209,1770.6z"/>
		<path class="st8" d="M249.5,1766.4c-0.9-3.3,1.5-6.8,5.2-7.7c3.8-0.9,19-1.9,19.8,1.4c0.9,3.3-13.1,9.7-16.8,10.7
			C254.1,1771.7,250.3,1769.8,249.5,1766.4z"/>
		<path class="st8" d="M236.8,1739.5c-0.8-3.3,1.5-6.8,5.2-7.7c3.7-0.9,19-1.9,19.8,1.4c0.8,3.3-13.1,9.7-16.8,10.7
			C241.3,1744.8,237.6,1742.8,236.8,1739.5z"/>
		<path class="st8" d="M308.4,1756.3c-2.2,2.6-6.4,2.8-9.3,0.3c-2.9-2.5-12.8-14.2-10.6-16.9c2.2-2.6,15.5,4.8,18.5,7.3
			C310,1749.5,310.6,1753.6,308.4,1756.3z"/>
		<path class="st8" d="M343.1,1740.6c-2.7,2.1-6.8,1.3-9.2-1.7c-2.3-3-9.4-16.6-6.8-18.7c2.7-2.1,14.1,8,16.5,11.1
			C346.1,1734.3,345.8,1738.5,343.1,1740.6z"/>
		<path class="st8" d="M353.8,1773.6c-1.3,3.2-5.2,4.6-8.8,3.2c-3.6-1.4-16.5-9.6-15.3-12.8c1.3-3.2,16.3-0.2,19.8,1.3
			C353.2,1766.7,355.1,1770.4,353.8,1773.6z"/>
		<path class="st8" d="M391.1,1734.8c2.1,2.7,1.2,6.8-1.9,9.2c-3.1,2.3-16.8,9-18.9,6.3c-2.1-2.7,8.4-14,11.5-16.3
			C384.8,1731.7,389,1732,391.1,1734.8z"/>
		<path class="st8" d="M392,1768.5c1-3.3,4.8-5.1,8.4-4c3.7,1.1,17.4,8,16.3,11.3c-1,3.3-16.2,1.7-19.9,0.6
			C393.3,1775.3,391.1,1771.8,392,1768.5z"/>
	</g>
	<g id="drops_3_">
	</g>
</g>
<g id="bottom_4_">
	<g>
		<path class="st0" d="M158.5,2563.4c0,0,2.8-4.2,14.7-6.5c56.1-10.9,149.3-33.2,269.7,8c5.8,2,16.2,19.4,14.8,22.6
			c0,0,7.4,53.2-71.3,60.6c0,0-62,6.8-155.1-3.1S149.1,2571.5,158.5,2563.4z"/>
		<path class="st1" d="M162.4,2561c0,0-14.8,21.4,66.1,40.8c0,0,59.8,18.6,183.9-0.9c0,0,49.6-5.4,30.5-36"/>
	</g>
</g>
<g id="lettuce_4_">
	<g>
		<path class="st2" d="M291.9,2567.5c1.5,5.8,7.6,9.8,13.5,9.2c5.9-0.7,10.9-6.1,11.1-12.1c5.2,4.8,11.3,9.8,18.5,9.8
			c7.2-0.1,13.9-8.6,9.8-14.4c5.7,3.8,12.1,6.6,18.7,8c5.5,1.3,11.8,1.5,16.3-1.9c4.4-3.3,5.8-9.4,5.4-14.9
			c-0.7-9.2-5.8-17.8-12.5-24.1c-6.7-6.4-14.9-11-23.3-15c-36.8-17.9-77.7-27.3-118.6-27.4c-5.8,0-11.7,0.2-17.2,1.9
			c-5.1,1.6-9.7,4.5-14.2,7.4c-6.8,4.4-18.9,6.5-25.5,11.2c-8.7,6.2-12.5,15.9-14.3,26.4c-1.2,6.8,3.6,15.6,10.4,14.5
			c-5.2,4.6-8.4,11.6-7.3,18.4c1.1,6.8,7.4,12.7,14.3,12.3c6.9-0.4,12.5-8.4,9.7-14.7c0.1,2.5,0.1,5.1,0.1,7.6
			c5.2,3.5,11.2,5.8,17.4,6.6c3.7,0.5,7.6,0.5,10.8-1.3c3.2-1.8,5.4-5.8,4.2-9.3c2.8,9.8,16.9,14.1,24.7,7.6
			c5.4,7.9,19.2,7.5,24.1-0.7c1.3,5.4,8,8.2,13.3,6.7C286.4,2577.7,290.2,2572.8,291.9,2567.5z"/>
		<path class="st3" d="M276.2,2518.5c-1.1-5.9,2.1-11.6,5.2-16.7c1.1-1.7,2.2-3.6,3.6-5c1.4-1.4,3.1-2.5,4.8-3.4
			c23.4-13.3,52.7-13.9,78.3-5.8c25.7,8.1,48.2,24.1,68,42.4c6.1,5.6,12.2,11.9,14.7,19.8c1.5,5,1.5,10.2,1.3,15.4
			c-0.2,3.3-0.9,7.3-4,8.7c-2.2,1-4.8,0.1-7.2-0.3s-5.4-0.3-6.6,1.9c-0.5,0.9-0.5,1.9-0.9,2.9c-1.1,3.7-5.6,5.5-9.4,4.7
			c-3.8-0.8-6.8-3.5-9.3-6.4c-2.3,5-7.1,8.6-12.5,9.5c-5.4,0.9-11.1-1.1-14.9-5c-0.7-0.8-1.7-1.7-2.7-1.5c-0.6,0.1-1,0.6-1.5,1
			c-2.9,2.7-7.7,2.8-11.3,0.9c-3.6-1.9-6-5.4-7.5-9.1c-1.5,3.5-3.8,7.6-7.6,7.6c-1.4,0-2.7-0.6-4-1.3c-8.8-5.4-11-17-12.3-27.3
			c-22.2,2.7-45.5-6.7-59.6-24C278.9,2524.7,276.8,2521.9,276.2,2518.5z"/>
	</g>
	<path class="st4" d="M294.2,2511.5c15.9-0.6,31.8-1.1,47.6-1.5c9.9-0.2,20.1-0.3,29.3,3.1c9.4,3.5,17.2,10.3,24.8,16.8
		c7.9,6.9,16.1,14.2,19.8,24.1"/>
	<path class="st4" d="M358.4,2511.5c2.5,13.5,11.9,25.4,24.2,31.3"/>
	<path class="st4" d="M360.7,2510.4c7.7-0.4,22.2-1.5,29.9-0.2c7.6,1.3,15.1,4.6,20.2,10.5"/>
	<path class="st4" d="M311.8,2511.5c2.3,4.4,4.2,7.8,7.8,11.1c3.6,3.3,8.9,5.3,13.6,3.8"/>
	<path class="st4" d="M407.3,2540.2c11.2,1.2,22.2,4.2,32.5,8.8"/>
	<path class="st4" d="M271.3,2510.3c-27.9,4.4-48.9,11.8-73.2,26.3c-5.5,3.3-11.4,7.4-12.4,13.8"/>
	<path class="st4" d="M226.5,2522.3c-12.9-2.5-22.8-2.5-35.8-1.1"/>
	<path class="st4" d="M226.5,2522.3c6.4,9.2,13.2,22.5,12.7,33.8"/>
	<path class="st4" d="M263.8,2511.3c0.7,5,4.8,8.8,7,13.4c4,8.2,1.3,18.1-2.5,26.3"/>
	<path class="st4" d="M262.9,2511.8c0.2-3.9-4.2-5.2-7.6-7.1c-3.3-2-7.4-2.7-11.3-3.1c-8.2-0.9-16.6-1.1-24.9-0.5"/>
</g>
<g id="tomato_4_">
	
		<ellipse transform="matrix(-0.1704 -0.9854 0.9854 -0.1704 -2144.0635 3109.2195)" class="st5" cx="236.8" cy="2457.2" rx="31.5" ry="81.5"/>
	
		<ellipse transform="matrix(-0.1704 -0.9854 0.9854 -0.1704 -2129.7944 3092.2886)" class="st6" cx="236.8" cy="2442.7" rx="31.5" ry="81.5"/>
	<path class="st5" d="M199.2,2454.9c0,0-22.3-8.2,4.5-18.6c0,0,11.7-6.9,23.7,5.8c0,0,8.2-18.2,26.8-12.4c0,0,26.8,0.3,28.2,8.2
		c0,0,2.1,9.6-9.6,12.1c0,0,14.8,14.8-10.3,18.2c0,0-24.4,6.5-30.5-8.6c0,0-0.3,17.2-30.2,13.4
		C201.6,2473.1,166.2,2466.6,199.2,2454.9z"/>
	
		<ellipse transform="matrix(8.182696e-02 -0.9966 0.9966 8.182696e-02 -2142.7561 2614.5786)" class="st5" cx="347.6" cy="2470.2" rx="33" ry="81.5"/>
	
		<ellipse transform="matrix(8.182696e-02 -0.9966 0.9966 8.182696e-02 -2136.7888 2603.77)" class="st6" cx="344.8" cy="2461.6" rx="33" ry="81.5"/>
	<path class="st5" d="M382.2,2473.6c0,0,23.6-2.9-0.1-19.1c0,0-9.8-9.4-24.4,0.2c0,0-3.8-19.6-23.2-18.2c0,0-26.2-5.8-29.3,1.5
		c0,0-4.2,8.9,6.6,13.9c0,0-17.8,11,5.8,20.1c0,0,22.2,12,31.8-1.3c0,0-3.6,16.8,26.3,20C375.7,2490.8,411.6,2492.6,382.2,2473.6z"
		/>
</g>
<g id="burger_4_">
	<g>
		<path class="st7" d="M166.2,2349.7c0,0-0.9,0.5-2.1,1.3c-3.7,2.6-9.6,8.4,0.7,13.1c0,0-24.7,6.1-11.7,18.4c0,0-13.6,22.2,4.7,22.2
			c0,0-3.7,20.6,16.8,14.5c0,0,6.2,11.6,16.7,7.6c0,0-7.6,12.3,88.6,5.4c0,0,80.3,8.4,138.3-3.1c0,0,9.9,11.5,21.4-2.3
			c0,0,21.4,3.1,22.9-9.2c0,0,17.6-6.9,7.6-22.2c0,0,11.5-6.1-1.5-13.7c0,0,0.7-22.2-18.4-21.4c0,0-174.4-27.3-285.1-10.2"/>
		<path class="st1" d="M207.3,2459.7c0,0-9.2-68-14.5-78.7c0,0-35.6-22.9-26.6-31.4c0,0,70.1-58.1,240.6-17.6
			c0,0,41.3,6.1,48.5,30.5c0,0-97.4,26.9-136.4,26.1c0,0-25.2,7.6-30.5,14.4C288.3,2403.2,254.7,2447.6,207.3,2459.7z"/>
		<ellipse class="st8" cx="209.1" cy="2395.6" rx="7.8" ry="8.9"/>
		<ellipse class="st9" cx="296.6" cy="2415.1" rx="7.8" ry="7.5"/>
		<ellipse class="st9" cx="329.8" cy="2420.4" rx="7.8" ry="5.6"/>
		<path class="st9" d="M360.2,2414.8c0,0,11,9.7,19.4-2.3c0,0,34.1,7.8,27.8-12.6"/>
		<path class="st8" d="M209.1,2373.1c0,0-12.1-8.2-11.5-19.1c0,0,4.5-13.1-6.4-10.7c0,0-13.3,5.7-2.7,19
			C188.7,2362.4,195.2,2371.9,209.1,2373.1z"/>
		<path class="st8" d="M340.6,2326.8c0,0,46.6-2.3,84.6,19.6c0,0-0.2,5.1-5.3,4.7c0,0-28.4-19-79.3-17.6
			C340.6,2333.5,331,2330,340.6,2326.8z"/>
	</g>
</g>
<g id="top_4_">
	<g>
		<path class="st0" d="M422.2,2225.8c5.5,5,15.8,15.2,19.7,21.5c11.8,19.2,17.3,33.5,13.1,55.6c-3,16.1-41.6,18-45.3,18.2
			c-61.2,1.5-81.5,4.3-146.3,3.5c-16.4-0.2-76.8-3.4-85.1-8.4c-8.3-5.1-21.8-9.1-24.5-18.5c-5-17.3,5.3-35.4,17.5-48.6
			c37-39.9,89-53.2,143.4-55.7c11.5-0.5,26.7,0.1,38.1,1.9c18,2.8,34.4,9.6,50.6,18.1C410.2,2216.9,416.5,2220.8,422.2,2225.8z"/>
		<path class="st8" d="M211.7,2249.2c0,3.4-3.1,6.2-7,6.2c-3.8,0-18.9-2.8-18.9-6.2s15.1-6.2,18.9-6.2S211.7,2245.8,211.7,2249.2z"
			/>
		<path class="st8" d="M252.2,2245c-0.9-3.3,1.5-6.8,5.2-7.7c3.8-0.9,19-1.9,19.8,1.4c0.8,3.3-13.1,9.7-16.8,10.7
			C256.7,2250.3,253,2248.4,252.2,2245z"/>
		<path class="st8" d="M239.5,2218.1c-0.8-3.3,1.5-6.8,5.2-7.7c3.8-0.9,19-1.9,19.8,1.4c0.8,3.3-13.1,9.7-16.8,10.7
			C244.1,2223.4,240.3,2221.4,239.5,2218.1z"/>
		<path class="st8" d="M311.1,2234.9c-2.2,2.6-6.4,2.8-9.3,0.3s-12.8-14.2-10.6-16.9c2.2-2.6,15.5,4.8,18.5,7.3
			S313.3,2232.3,311.1,2234.9z"/>
		<path class="st8" d="M345.8,2219.2c-2.7,2.1-6.8,1.3-9.2-1.7c-2.3-3-9.4-16.6-6.8-18.7c2.7-2.1,14.1,8,16.5,11.1
			C348.8,2212.9,348.5,2217.2,345.8,2219.2z"/>
		<path class="st8" d="M356.5,2252.3c-1.3,3.2-5.2,4.6-8.8,3.2c-3.6-1.4-16.5-9.6-15.3-12.8s16.3-0.2,19.8,1.3
			C355.8,2245.4,357.8,2249.1,356.5,2252.3z"/>
		<path class="st8" d="M393.7,2213.5c2.1,2.7,1.2,6.8-1.9,9.2c-3.1,2.3-16.8,9-18.9,6.3s8.4-14,11.5-16.3S391.7,2210.7,393.7,2213.5
			z"/>
		<path class="st8" d="M394.7,2247.1c1-3.3,4.8-5.1,8.4-4c3.7,1.1,17.4,8,16.3,11.3c-1,3.3-16.2,1.7-19.9,0.6
			C396,2253.9,393.7,2250.4,394.7,2247.1z"/>
	</g>
</g>
<g id="bottom_5_">
	<g>
		<path class="st0" d="M158.5,3098.3c0,0,2.8-4.2,14.7-6.5c56.1-10.9,149.3-33.2,269.7,8c5.8,2,16.2,19.4,14.8,22.6
			c0,0,7.4,53.2-71.3,60.6c0,0-62,6.8-155.1-3.1S149.1,3106.4,158.5,3098.3z"/>
		<path class="st1" d="M162.4,3095.9c0,0-14.8,21.4,66.1,40.8c0,0,59.8,18.6,183.9-0.9c0,0,49.6-5.4,30.5-36"/>
	</g>
</g>
<g id="lettuce_5_">
	<g>
		<path class="st2" d="M291.9,3089.1c1.5,5.8,7.6,9.8,13.5,9.2c5.9-0.7,10.9-6.1,11.1-12.1c5.2,4.8,11.3,9.8,18.5,9.8
			c7.2-0.1,13.9-8.6,9.8-14.4c5.7,3.8,12.1,6.6,18.7,8c5.5,1.3,11.8,1.5,16.3-1.9c4.4-3.3,5.8-9.4,5.4-14.9
			c-0.7-9.2-5.8-17.8-12.5-24.1c-6.7-6.4-14.9-11-23.3-15c-36.8-17.9-77.7-27.3-118.6-27.4c-5.8,0-11.7,0.2-17.2,1.9
			c-5.1,1.6-9.7,4.5-14.2,7.4c-6.8,4.4-18.9,6.5-25.5,11.2c-8.7,6.2-12.5,15.9-14.3,26.4c-1.2,6.8,3.6,15.6,10.4,14.5
			c-5.2,4.6-8.4,11.6-7.3,18.4c1.1,6.8,7.4,12.7,14.3,12.3c6.9-0.4,12.5-8.4,9.7-14.7c0.1,2.5,0.1,5.1,0.1,7.6
			c5.2,3.5,11.2,5.8,17.4,6.6c3.7,0.5,7.6,0.5,10.8-1.3c3.2-1.8,5.4-5.8,4.2-9.3c2.8,9.8,16.9,14.1,24.7,7.6
			c5.4,7.9,19.2,7.5,24.1-0.7c1.3,5.4,8,8.2,13.3,6.7C286.4,3099.2,290.2,3094.3,291.9,3089.1z"/>
		<path class="st3" d="M276.2,3040c-1.1-5.9,2.1-11.6,5.2-16.7c1.1-1.7,2.2-3.6,3.6-5c1.4-1.4,3.1-2.5,4.8-3.4
			c23.4-13.3,52.7-13.9,78.3-5.8c25.7,8.1,48.2,24.1,68,42.4c6.1,5.6,12.2,11.9,14.7,19.8c1.5,5,1.5,10.2,1.3,15.4
			c-0.2,3.3-0.9,7.3-4,8.7c-2.2,1-4.8,0.1-7.2-0.3c-2.4-0.5-5.4-0.3-6.6,1.9c-0.5,0.9-0.5,1.9-0.9,2.9c-1.1,3.7-5.6,5.5-9.4,4.7
			c-3.8-0.8-6.8-3.5-9.3-6.4c-2.3,5-7.1,8.6-12.5,9.5c-5.4,0.9-11.1-1.1-14.9-5c-0.7-0.8-1.7-1.7-2.7-1.5c-0.6,0.1-1,0.6-1.5,1
			c-2.9,2.7-7.7,2.8-11.3,0.9c-3.6-1.9-6-5.4-7.5-9.1c-1.5,3.5-3.8,7.6-7.6,7.6c-1.4,0-2.7-0.6-4-1.3c-8.8-5.4-11-17-12.3-27.3
			c-22.2,2.7-45.5-6.7-59.6-24C278.9,3046.2,276.8,3043.4,276.2,3040z"/>
	</g>
	<path class="st4" d="M294.2,3033c15.9-0.6,31.8-1.1,47.6-1.5c9.9-0.2,20.1-0.3,29.3,3.1c9.4,3.5,17.2,10.3,24.8,16.8
		c7.9,6.9,16.1,14.2,19.8,24.1"/>
	<path class="st4" d="M358.4,3033c2.5,13.5,11.9,25.4,24.2,31.3"/>
	<path class="st4" d="M360.7,3031.9c7.7-0.4,22.2-1.5,29.9-0.2c7.6,1.3,15.1,4.6,20.2,10.5"/>
	<path class="st4" d="M311.8,3033c2.3,4.4,4.2,7.8,7.8,11.1c3.6,3.3,8.9,5.3,13.6,3.8"/>
	<path class="st4" d="M407.3,3061.7c11.2,1.2,22.2,4.2,32.5,8.8"/>
	<path class="st4" d="M271.3,3031.8c-27.9,4.4-48.9,11.8-73.2,26.3c-5.5,3.3-11.4,7.4-12.4,13.8"/>
	<path class="st4" d="M226.5,3043.8c-12.9-2.5-22.8-2.5-35.8-1.1"/>
	<path class="st4" d="M226.5,3043.8c6.4,9.2,13.2,22.5,12.7,33.8"/>
	<path class="st4" d="M263.8,3032.8c0.7,5,4.8,8.8,7,13.4c4,8.2,1.3,18.1-2.5,26.3"/>
	<path class="st4" d="M262.9,3033.2c0.2-3.9-4.2-5.2-7.6-7.1c-3.3-2-7.4-2.7-11.3-3.1c-8.2-0.9-16.6-1.1-24.9-0.5"/>
</g>
<g id="tomato_5_">
	
		<ellipse transform="matrix(-0.1704 -0.9854 0.9854 -0.1704 -2644.7373 3703.9141)" class="st5" cx="236.8" cy="2965.3" rx="31.5" ry="81.5"/>
	
		<ellipse transform="matrix(-0.1704 -0.9854 0.9854 -0.1704 -2637.7317 3695.6077)" class="st6" cx="236.8" cy="2958.2" rx="31.5" ry="81.5"/>
	<path class="st5" d="M199.2,2963c0,0-22.3-8.2,4.5-18.6c0,0,11.7-6.9,23.7,5.8c0,0,8.2-18.2,26.8-12.4c0,0,26.8,0.3,28.2,8.2
		c0,0,2.1,9.6-9.6,12.1c0,0,14.8,14.8-10.3,18.2c0,0-24.4,6.5-30.5-8.6c0,0-0.3,17.2-30.2,13.4
		C201.6,2981.3,166.2,2974.8,199.2,2963z"/>
	
		<ellipse transform="matrix(8.182696e-02 -0.9966 0.9966 8.182696e-02 -2649.1665 3081.1121)" class="st5" cx="347.6" cy="2978.3" rx="33" ry="81.5"/>
	
		<ellipse transform="matrix(8.182696e-02 -0.9966 0.9966 8.182696e-02 -2643.1277 3070.2476)" class="st6" cx="344.8" cy="2969.6" rx="33" ry="81.5"/>
	<path class="st5" d="M382.2,2981.7c0,0,23.6-2.9-0.1-19.1c0,0-9.8-9.4-24.4,0.2c0,0-3.8-19.6-23.2-18.2c0,0-26.2-5.8-29.3,1.5
		c0,0-4.2,8.9,6.6,13.9c0,0-17.8,11,5.8,20.1c0,0,22.2,12,31.8-1.3c0,0-3.6,16.8,26.3,20C375.7,2998.9,411.6,3000.7,382.2,2981.7z"
		/>
</g>
<g id="burger_5_">
	<g>
		<path class="st7" d="M166.2,2835c0,0-0.9,0.5-2.1,1.3c-3.7,2.6-9.6,8.4,0.7,13.1c0,0-24.7,6.1-11.7,18.4c0,0-13.6,22.2,4.7,22.2
			c0,0-3.7,20.6,16.8,14.5c0,0,6.2,11.6,16.7,7.6c0,0-7.6,12.3,88.6,5.4c0,0,80.3,8.4,138.3-3.1c0,0,9.9,11.5,21.4-2.3
			c0,0,21.4,3.1,22.9-9.2c0,0,17.6-6.9,7.6-22.2c0,0,11.5-6.1-1.5-13.7c0,0,0.7-22.2-18.4-21.4c0,0-174.4-27.3-285.1-10.2"/>
		<path class="st1" d="M207.3,2945.1c0,0-9.2-68-14.5-78.7c0,0-35.6-22.9-26.6-31.4c0,0,70.1-58.1,240.6-17.6
			c0,0,41.3,6.1,48.5,30.5c0,0-97.4,26.9-136.4,26.1c0,0-25.2,7.6-30.5,14.4C288.3,2888.5,254.7,2932.8,207.3,2945.1z"/>
		<ellipse class="st8" cx="209.1" cy="2880.9" rx="7.8" ry="8.9"/>
		<ellipse class="st9" cx="296.6" cy="2900.3" rx="7.8" ry="7.5"/>
		<ellipse class="st9" cx="329.8" cy="2905.7" rx="7.8" ry="5.6"/>
		<path class="st9" d="M360.2,2900.1c0,0,11,9.7,19.4-2.3c0,0,34.1,7.8,27.8-12.6"/>
		<path class="st8" d="M209.1,2858.4c0,0-12.1-8.2-11.5-19.1c0,0,4.5-13.1-6.4-10.7c0,0-13.3,5.7-2.7,19
			C188.7,2847.7,195.2,2857.2,209.1,2858.4z"/>
		<path class="st8" d="M340.6,2812.1c0,0,46.6-2.3,84.6,19.6c0,0-0.2,5.1-5.3,4.7c0,0-28.4-19-79.3-17.6
			C340.6,2818.9,331,2815.4,340.6,2812.1z"/>
	</g>
</g>
<g id="top_5_">
	<g>
		<path class="st0" d="M422.2,2697.7c5.5,5,15.8,15.2,19.7,21.5c11.8,19.2,17.3,33.5,13.1,55.6c-3,16.1-41.6,18-45.3,18.2
			c-61.2,1.5-81.5,4.3-146.3,3.5c-16.4-0.2-76.8-3.4-85.1-8.4c-8.3-5.1-21.8-9.1-24.5-18.5c-5-17.3,5.3-35.4,17.5-48.6
			c37-39.9,89-53.2,143.4-55.7c11.5-0.5,26.7,0.1,38.1,1.9c18,2.8,34.4,9.6,50.6,18.1C410.2,2688.8,416.5,2692.6,422.2,2697.7z"/>
		<path class="st8" d="M211.7,2721.1c0,3.4-3.1,6.2-7,6.2c-3.8,0-18.9-2.8-18.9-6.2s15.1-6.2,18.9-6.2S211.7,2717.7,211.7,2721.1z"
			/>
		<path class="st8" d="M252.2,2717c-0.9-3.3,1.5-6.8,5.2-7.7c3.8-0.9,19-1.9,19.8,1.4c0.8,3.3-13.1,9.7-16.8,10.7
			C256.7,2722.2,253,2720.2,252.2,2717z"/>
		<path class="st8" d="M239.5,2690c-0.8-3.3,1.5-6.8,5.2-7.7c3.8-0.9,19-1.9,19.8,1.4c0.8,3.3-13.1,9.7-16.8,10.7
			C244.1,2695.3,240.3,2693.3,239.5,2690z"/>
		<path class="st8" d="M311.1,2706.8c-2.2,2.6-6.4,2.8-9.3,0.3s-12.8-14.2-10.6-16.9c2.2-2.6,15.5,4.8,18.5,7.3
			C312.7,2700,313.3,2704.2,311.1,2706.8z"/>
		<path class="st8" d="M345.8,2691.1c-2.7,2.1-6.8,1.3-9.2-1.7c-2.3-3-9.4-16.6-6.8-18.7c2.7-2.1,14.1,8,16.5,11.1
			C348.8,2684.9,348.5,2689,345.8,2691.1z"/>
		<path class="st8" d="M356.5,2724.2c-1.3,3.2-5.2,4.6-8.8,3.2c-3.6-1.4-16.5-9.6-15.3-12.8s16.3-0.2,19.8,1.3
			C355.8,2717.4,357.8,2721,356.5,2724.2z"/>
		<path class="st8" d="M393.7,2685.3c2.1,2.7,1.2,6.8-1.9,9.2c-3.1,2.3-16.8,9-18.9,6.3c-2.1-2.7,8.4-14,11.5-16.3
			C387.5,2682.3,391.7,2682.6,393.7,2685.3z"/>
		<path class="st8" d="M394.7,2719c1-3.3,4.8-5.1,8.4-4c3.7,1.1,17.4,8,16.3,11.3c-1,3.3-16.2,1.7-19.9,0.6
			C396,2725.9,393.7,2722.3,394.7,2719z"/>
	</g>
	<g id="drops_4_">
	</g>
</g>
<g>
</g>
<g>
</g>
<g>
</g>
<g>
</g>
<g>
</g>
<g>
</g>
<g>
</g>
<g>
</g>
<g>
</g>
<g>
</g>
<g>
</g>
</svg>
