<svg xmlns="http://www.w3.org/2000/svg" viewBox="0 0 594 3186" enable-background="new 0 0 594 3186"><style type="text/css">.st0{fill:#F5DC75;} .st1{fill:#FDC43D;} .st2{fill:#00F670;} .st3{fill:#6EBF5B;} .st4{fill:none;stroke:#FFFFFF;stroke-width:5;stroke-linecap:round;stroke-miterlimit:10;} .st5{fill:#EC2226;} .st6{fill:#EA4A24;} .st7{fill:#87662D;} .st8{fill:#FFFFFF;} .st9{fill:none;stroke:#FFFFFF;stroke-width:4;stroke-miterlimit:10;}</style><g id="bottom"><path class="st0" d="M156.4 438.2s2.8-4.2 14.7-6.5c56.1-10.9 149.3-33.2 269.7 8 5.8 2 16.2 19.4 14.8 22.6 0 0 7.4 53.2-71.3 60.6 0 0-62 6.8-155.1-3.1-93-9.8-82.1-73.5-72.8-81.6z"/><path class="st1" d="M160.4 435.7s-14.8 21.4 66.1 40.8c0 0 59.8 18.6 183.9-.9 0 0 49.6-5.4 30.5-36"/></g><g id="lettuce"><path class="st2" d="M289.9 481.8c1.5 5.8 7.6 9.8 13.5 9.2 5.9-.7 10.9-6.1 11.1-12.1 5.2 4.8 11.3 9.8 18.5 9.8 7.2-.1 13.9-8.6 9.8-14.4 5.7 3.8 12.1 6.6 18.7 8 5.5 1.3 11.8 1.5 16.3-1.9 4.4-3.3 5.8-9.4 5.4-14.9-.7-9.2-5.8-17.8-12.5-24.1-6.7-6.4-14.9-11-23.3-15-36.8-17.9-77.7-27.3-118.6-27.4-5.8 0-11.7.2-17.2 1.9-5.1 1.6-9.7 4.5-14.2 7.4-6.8 4.4-18.9 6.5-25.5 11.2-8.7 6.2-12.5 15.9-14.3 26.4-1.2 6.8 3.6 15.6 10.4 14.5-5.2 4.6-8.4 11.6-7.3 18.4 1.1 6.8 7.4 12.7 14.3 12.3s12.5-8.4 9.7-14.7c.1 2.5.1 5.1.1 7.6 5.2 3.5 11.2 5.8 17.4 6.6 3.7.5 7.6.5 10.8-1.3 3.2-1.8 5.4-5.8 4.2-9.3 2.8 9.8 16.9 14.1 24.7 7.6 5.4 7.9 19.2 7.5 24.1-.7 1.3 5.4 8 8.2 13.3 6.7 5-1.6 8.8-6.5 10.6-11.8z"/><path class="st3" d="M274.2 432.9c-1.1-5.9 2.1-11.6 5.2-16.7 1.1-1.7 2.2-3.6 3.6-5s3.1-2.5 4.8-3.4c23.4-13.3 52.7-13.9 78.3-5.8 25.7 8.1 48.2 24.1 68 42.4 6.1 5.6 12.2 11.9 14.7 19.8 1.5 5 1.5 10.2 1.3 15.4-.2 3.3-.9 7.3-4 8.7-2.2 1-4.8.1-7.2-.3-2.4-.5-5.4-.3-6.6 1.9-.5.9-.5 1.9-.9 2.9-1.1 3.7-5.6 5.5-9.4 4.7-3.8-.8-6.8-3.5-9.3-6.4-2.3 5-7.1 8.6-12.5 9.5-5.4.9-11.1-1.1-14.9-5-.7-.8-1.7-1.7-2.7-1.5-.6.1-1 .6-1.5 1-2.9 2.7-7.7 2.8-11.3.9-3.6-1.9-6-5.4-7.5-9.1-1.5 3.5-3.8 7.6-7.6 7.6-1.4 0-2.7-.6-4-1.3-8.8-5.4-11-17-12.3-27.3-22.2 2.7-45.5-6.7-59.6-24-2-2.9-4-5.8-4.6-9z"/><path class="st4" d="M292.1 425.9c15.9-.6 31.8-1.1 47.6-1.5 9.9-.2 20.1-.3 29.3 3.1 9.4 3.5 17.2 10.3 24.8 16.8 7.9 6.9 16.1 14.2 19.8 24.1m-57.2-42.6c2.5 13.5 11.9 25.4 24.2 31.3m-22-32.3c7.7-.4 22.2-1.5 29.9-.2s15.1 4.6 20.2 10.5m-98.9-9.3c2.3 4.4 4.2 7.8 7.8 11.1 3.6 3.3 8.9 5.3 13.6 3.8m74 13.8c11.2 1.2 22.2 4.2 32.5 8.8m-168.4-38.7c-27.9 4.4-48.9 11.8-73.2 26.3-5.5 3.3-11.4 7.4-12.4 13.8m40.7-28.1c-12.9-2.5-22.8-2.5-35.8-1.1m35.8 1.1c6.4 9.2 13.2 22.5 12.7 33.8m24.6-44.7c.7 5 4.8 8.8 7 13.4 4 8.2 1.3 18.1-2.5 26.3m-5.3-39.3c.2-3.9-4.2-5.2-7.6-7.1-3.3-2-7.4-2.7-11.3-3.1-8.2-.9-16.6-1.1-24.9-.5"/></g><g id="tomato"><ellipse transform="matrix(-.17 -.985 .985 -.17 -138.923 722.719)" class="st5" cx="234.8" cy="419.8" rx="31.5" ry="81.5"/><ellipse transform="matrix(-.17 -.985 .985 -.17 -131.865 714.324)" class="st6" cx="234.8" cy="412.7" rx="31.5" ry="81.5"/><path class="st5" d="M197.1 417.6s-22.3-8.2 4.5-18.6c0 0 11.7-6.9 23.7 5.8 0 0 8.2-18.2 26.8-12.4 0 0 26.8.3 28.2 8.2 0 0 2.1 9.6-9.6 12.1 0 0 14.8 14.8-10.3 18.2 0 0-24.4 6.5-30.5-8.6 0 0-.3 17.2-30.2 13.4-.1 0-35.5-6.5-2.6-18.1z"/><ellipse transform="matrix(.082 -.997 .997 .082 -114.07 741.842)" class="st5" cx="345.6" cy="432.8" rx="33" ry="81.5"/><ellipse transform="matrix(.082 -.997 .997 .082 -108.103 731.034)" class="st6" cx="342.7" cy="424.2" rx="33" ry="81.5"/><path class="st5" d="M380.2 436.2s23.6-2.9-.1-19.1c0 0-9.8-9.4-24.4.2 0 0-3.8-19.6-23.2-18.2 0 0-26.2-5.8-29.3 1.5 0 0-4.2 8.9 6.6 13.9 0 0-17.8 11 5.8 20.1 0 0 22.2 12 31.8-1.3 0 0-3.6 16.8 26.3 20-.1.1 35.9 1.9 6.5-17.1z"/></g><g id="burger"><path class="st7" d="M164.1 357.9s-.9.5-2.1 1.3c-3.7 2.6-9.6 8.4.7 13.1 0 0-24.7 6.1-11.7 18.4 0 0-13.6 22.2 4.7 22.2 0 0-3.7 20.6 16.8 14.5 0 0 6.2 11.6 16.7 7.6 0 0-7.6 12.3 88.6 5.4 0 0 80.3 8.4 138.3-3.1 0 0 9.9 11.5 21.4-2.3 0 0 21.4 3.1 22.9-9.2 0 0 17.6-6.9 7.6-22.2 0 0 11.5-6.1-1.5-13.7 0 0 .7-22.2-18.4-21.4 0 0-174.4-27.3-285.1-10.2"/><path class="st1" d="M205.2 468s-9.2-68-14.5-78.7c0 0-35.6-22.9-26.6-31.4 0 0 70.1-58.1 240.6-17.6 0 0 41.3 6.1 48.5 30.5 0 0-97.4 26.9-136.4 26.1 0 0-25.2 7.6-30.5 14.4-.1.1-33.7 44.4-81.1 56.7z"/><ellipse class="st8" cx="207.1" cy="403.9" rx="7.8" ry="8.9"/><ellipse class="st9" cx="294.6" cy="423.2" rx="7.8" ry="7.5"/><ellipse class="st9" cx="327.7" cy="428.6" rx="7.8" ry="5.6"/><path class="st9" d="M358.1 423s11 9.7 19.4-2.3c0 0 34.1 7.8 27.8-12.6"/><path class="st8" d="M207.1 381.3s-12.1-8.2-11.5-19.1c0 0 4.5-13.1-6.4-10.7 0 0-13.3 5.7-2.7 19 .1.1 6.6 9.6 20.6 10.8zm131.4-46.3s46.6-2.3 84.6 19.6c0 0-.2 5.1-5.3 4.7 0 0-28.4-19-79.3-17.6 0 .1-9.6-3.4 0-6.7z"/></g><g id="top"><path class="st0" d="M420.1 287.6c5.5 5 15.8 15.2 19.7 21.5 11.8 19.2 17.3 33.5 13.1 55.6-3 16.1-41.6 18-45.3 18.2-61.2 1.5-81.5 4.3-146.3 3.5-16.4-.2-76.8-3.4-85.1-8.4-8.3-5.1-21.8-9.1-24.5-18.5-5-17.3 5.3-35.4 17.5-48.6 37-39.9 89-53.2 143.4-55.7 11.5-.5 26.7.1 38.1 1.9 18 2.8 34.4 9.6 50.6 18.1 6.8 3.4 13.2 7.3 18.8 12.4z"/><path class="st8" d="M209.7 310.9c0 3.4-3.1 6.2-7 6.2-3.8 0-18.9-2.8-18.9-6.2s15.1-6.2 18.9-6.2 7 2.8 7 6.2zm40.4-4.1c-.9-3.3 1.5-6.8 5.2-7.7 3.8-.9 19-1.9 19.8 1.4.9 3.3-13.1 9.7-16.8 10.7-3.6.8-7.4-1.1-8.2-4.4zm-12.6-27c-.8-3.3 1.5-6.8 5.2-7.7 3.8-.9 19-1.9 19.8 1.4.8 3.3-13.1 9.7-16.8 10.7s-7.4-1.1-8.2-4.4zm71.5 16.8c-2.2 2.6-6.4 2.8-9.3.3s-12.8-14.2-10.6-16.9c2.2-2.6 15.5 4.8 18.5 7.3s3.6 6.7 1.4 9.3zm34.7-15.7c-2.7 2.1-6.8 1.3-9.2-1.7-2.3-3-9.4-16.6-6.8-18.7 2.7-2.1 14.1 8 16.5 11.1 2.5 3 2.3 7.2-.5 9.3zm10.7 33.1c-1.3 3.2-5.2 4.6-8.8 3.2s-16.5-9.6-15.3-12.8c1.3-3.2 16.3-.2 19.8 1.3s5.6 5.1 4.3 8.3zm37.3-38.8c2.1 2.7 1.2 6.8-1.9 9.2-3.1 2.3-16.8 9-18.9 6.3-2.1-2.7 8.4-14 11.5-16.3 3.1-2.3 7.2-2 9.3.8zm.9 33.6c1-3.3 4.8-5.1 8.4-4 3.7 1.1 17.4 8 16.3 11.3-1 3.3-16.2 1.7-19.9.6-3.5-1.1-5.7-4.6-4.8-7.9z"/><g id="drops"><path class="st5" d="M501.9 443.3s19.6-38.4 52.4-26.3c0 0 23.6 8.2 15.1 28.9 0 0-5.4 14-24.4 3.6 0 0-11.1-16.3-32.2-10.9 0 0-10.1 2.1-10.9 4.7zm-10.6 23.7s54.5-.1 58.4 42.9c0 0-1 20.6-24.2 15.9 0 0-18.3-3.5-11.9-25 .1 0 8.1-23.9-22.3-33.8z"/><path class="st8" d="M529.8 487.9s26.1 18.1 6 31.4c-.9.5-1.8.9-2.8.9-2.5.1-7.6-.3-10.3-3.3.1 0 28.8.8 7.1-29z"/><path class="st1" d="M124.2 467.4s-53.9-7.8-63.9 34.2c0 0-1.9 20.6 21.7 19.2 0 0 18.6-.8 15.3-23 0-.1-4.5-24.8 26.9-30.4z"/><path class="st8" d="M83.1 482.7s-28.3 14.2-10.5 30.3c.7.7 1.7 1.1 2.7 1.3 2.5.4 7.6.8 10.6-1.9.1 0-28.5-3.3-2.8-29.7zm460.1-60.7s19.2-3.4 23 14.3c0 0 1.9 2.8-5.4 11.2 0-.1 4.9-16.9-17.6-25.5z"/></g></g><g id="bottom_1_"><path class="st0" d="M158.2 970s2.8-4.2 14.7-6.5c56.1-10.9 149.3-33.2 269.7 8 5.8 2 16.2 19.4 14.8 22.6 0 0 7.4 53.2-71.3 60.6 0 0-62 6.8-155.1-3.1s-82.1-73.5-72.8-81.6z"/><path class="st1" d="M162.2 967.6s-14.8 21.4 66.1 40.8c0 0 59.8 18.6 183.9-.9 0 0 49.6-5.4 30.5-36"/></g><g id="lettuce_1_"><path class="st2" d="M291.7 1007c1.5 5.8 7.6 9.8 13.5 9.2 5.9-.7 10.9-6.1 11.1-12.1 5.2 4.8 11.3 9.8 18.5 9.8 7.2-.1 13.9-8.6 9.8-14.4 5.7 3.8 12.1 6.6 18.7 8 5.5 1.3 11.8 1.5 16.3-1.9 4.4-3.3 5.8-9.4 5.4-14.9-.7-9.2-5.8-17.8-12.5-24.1-6.7-6.4-14.9-11-23.3-15-36.8-17.9-77.7-27.3-118.6-27.4-5.8 0-11.7.2-17.2 1.9-5.1 1.6-9.7 4.5-14.2 7.4-6.8 4.4-18.9 6.5-25.5 11.2-8.7 6.2-12.5 15.9-14.3 26.4-1.2 6.8 3.6 15.6 10.4 14.5-5.2 4.6-8.4 11.6-7.3 18.4 1.1 6.8 7.4 12.7 14.3 12.3s12.5-8.4 9.7-14.7c.1 2.5.1 5.1.1 7.6 5.2 3.5 11.2 5.8 17.4 6.6 3.7.5 7.6.5 10.8-1.3 3.2-1.8 5.4-5.8 4.2-9.3 2.8 9.8 16.9 14.1 24.7 7.6 5.4 7.9 19.2 7.5 24.1-.7 1.3 5.4 8 8.2 13.3 6.7 5-1.6 8.8-6.6 10.6-11.8z"/><path class="st3" d="M276 958c-1.1-5.9 2.1-11.6 5.2-16.7 1.1-1.7 2.2-3.6 3.6-5s3.1-2.5 4.8-3.4c23.4-13.3 52.7-13.9 78.3-5.8 25.7 8.1 48.2 24.1 68 42.4 6.1 5.6 12.2 11.9 14.7 19.8 1.5 5 1.5 10.2 1.3 15.4-.2 3.3-.9 7.3-4 8.7-2.2 1-4.8.1-7.2-.3-2.4-.5-5.4-.3-6.6 1.9-.5.9-.5 1.9-.9 2.9-1.1 3.7-5.6 5.5-9.4 4.7-3.8-.8-6.8-3.5-9.3-6.4-2.3 5-7.1 8.6-12.5 9.5-5.4.9-11.1-1.1-14.9-5-.7-.8-1.7-1.7-2.7-1.5-.6.1-1 .6-1.5 1-2.9 2.7-7.7 2.8-11.3.9-3.6-1.9-6-5.4-7.5-9.1-1.5 3.5-3.8 7.6-7.6 7.6-1.4 0-2.7-.6-4-1.3-8.8-5.4-11-17-12.3-27.3-22.2 2.7-45.5-6.7-59.6-24-2-2.9-4-5.7-4.6-9z"/><path class="st4" d="M293.9 951c15.9-.6 31.8-1.1 47.6-1.5 9.9-.2 20.1-.3 29.3 3.1 9.4 3.5 17.2 10.3 24.8 16.8 7.9 6.9 16.1 14.2 19.8 24.1m-57.2-42.6c2.5 13.5 11.9 25.4 24.2 31.3m-22-32.3c7.7-.4 22.2-1.5 29.9-.2 7.6 1.3 15.1 4.6 20.2 10.5m-98.9-9.3c2.3 4.4 4.2 7.8 7.8 11.1s8.9 5.3 13.6 3.8m74 13.8c11.2 1.2 22.2 4.2 32.5 8.8m-168.4-38.7c-27.9 4.4-48.9 11.8-73.2 26.3-5.5 3.3-11.4 7.4-12.4 13.8m40.7-28.1c-12.9-2.5-22.8-2.5-35.8-1.1m35.8 1.1c6.4 9.2 13.2 22.5 12.7 33.8m24.6-44.7c.7 5 4.8 8.8 7 13.4 4 8.2 1.3 18.1-2.5 26.3m-5.3-39.3c.2-3.9-4.2-5.2-7.6-7.1-3.4-1.9-7.4-2.7-11.3-3.1-8.2-.9-16.6-1.1-24.9-.5"/></g><g id="tomato_1_"><ellipse transform="matrix(-.17 -.985 .985 -.17 -646.265 1329.598)" class="st5" cx="236.6" cy="936.8" rx="31.5" ry="81.5"/><ellipse transform="matrix(-.17 -.985 .985 -.17 -639.26 1321.291)" class="st6" cx="236.6" cy="929.7" rx="31.5" ry="81.5"/><path class="st5" d="M198.9 934.6s-22.3-8.2 4.5-18.6c0 0 11.7-6.9 23.7 5.8 0 0 8.2-18.2 26.8-12.4 0 0 26.8.3 28.2 8.2 0 0 2.1 9.6-9.6 12.1 0 0 14.8 14.8-10.3 18.2 0 0-24.4 6.5-30.5-8.6 0 0-.3 17.2-30.2 13.4-.1.1-35.5-6.4-2.6-18.1z"/><ellipse transform="matrix(.082 -.997 .997 .082 -627.754 1218.409)" class="st5" cx="347.4" cy="949.9" rx="33" ry="81.5"/><ellipse transform="matrix(.082 -.997 .997 .082 -621.787 1207.601)" class="st6" cx="344.5" cy="941.3" rx="33" ry="81.5"/><path class="st5" d="M382 953.3s23.6-2.9-.1-19.1c0 0-9.8-9.4-24.4.2 0 0-3.8-19.6-23.2-18.2 0 0-26.2-5.8-29.3 1.5 0 0-4.2 8.9 6.6 13.9 0 0-17.8 11 5.8 20.1 0 0 22.2 12 31.8-1.3 0 0-3.6 16.8 26.3 20-.1 0 35.9 1.9 6.5-17.1z"/></g><g id="burger_1_"><path class="st7" d="M165.9 868.3s-.9.5-2.1 1.3c-3.7 2.6-9.6 8.4.7 13.1 0 0-24.7 6.1-11.7 18.4 0 0-13.6 22.2 4.7 22.2 0 0-3.7 20.6 16.8 14.5 0 0 6.2 11.6 16.7 7.6 0 0-7.6 12.3 88.6 5.4 0 0 80.3 8.4 138.3-3.1 0 0 9.9 11.5 21.4-2.3 0 0 21.4 3.1 22.9-9.2 0 0 17.6-6.9 7.6-22.2 0 0 11.5-6.1-1.5-13.7 0 0 .7-22.2-18.4-21.4 0 0-174.4-27.3-285.1-10.2"/><path class="st1" d="M207.1 978.3s-9.2-68-14.5-78.7c0 0-35.6-22.9-26.6-31.4 0 0 70.1-58.1 240.6-17.6 0 0 41.3 6.1 48.5 30.5 0 0-97.4 26.9-136.4 26.1 0 0-25.2 7.6-30.5 14.4-.1.1-33.8 44.5-81.1 56.7z"/><ellipse class="st8" cx="208.9" cy="914.2" rx="7.8" ry="8.9"/><ellipse class="st9" cx="296.4" cy="933.6" rx="7.8" ry="7.5"/><ellipse class="st9" cx="329.5" cy="939" rx="7.8" ry="5.6"/><path class="st9" d="M359.9 933.3s11 9.7 19.4-2.3c0 0 34.1 7.8 27.8-12.6"/><path class="st8" d="M208.9 891.7s-12.1-8.2-11.5-19.1c0 0 4.5-13.1-6.4-10.7 0 0-13.3 5.7-2.7 19 .1 0 6.6 9.5 20.6 10.8zm131.4-46.3s46.6-2.3 84.6 19.6c0 0-.2 5.1-5.3 4.7 0 0-28.4-19-79.3-17.6 0 0-9.6-3.5 0-6.7z"/></g><g id="top_1_"><path class="st0" d="M421.9 793.2c5.5 5 15.8 15.2 19.7 21.5 11.8 19.2 17.3 33.5 13.1 55.6-3 16.1-41.6 18-45.3 18.2-61.2 1.5-81.5 4.3-146.3 3.5-16.4-.2-76.8-3.4-85.1-8.4-8.3-5.1-21.8-9.1-24.5-18.5-5-17.3 5.3-35.4 17.5-48.6 37-39.9 89-53.2 143.4-55.7 11.5-.5 26.7.1 38.1 1.9 18 2.8 34.4 9.6 50.6 18.1 6.8 3.5 13.2 7.3 18.8 12.4z"/><path class="st8" d="M211.5 816.6c0 3.4-3.1 6.2-7 6.2s-18.9-2.8-18.9-6.2 15.1-6.2 18.9-6.2c3.8 0 7 2.7 7 6.2zm40.4-4.2c-.9-3.3 1.5-6.8 5.2-7.7 3.8-.9 19-1.9 19.8 1.4.8 3.3-13.1 9.7-16.8 10.7-3.6.9-7.4-1-8.2-4.4zm-12.6-26.9c-.8-3.3 1.5-6.8 5.2-7.7s19-1.9 19.8 1.4c.8 3.3-13.1 9.7-16.8 10.7s-7.4-1.1-8.2-4.4zm71.5 16.8c-2.2 2.6-6.4 2.8-9.3.3s-12.8-14.2-10.6-16.9c2.2-2.6 15.5 4.8 18.5 7.3s3.6 6.6 1.4 9.3zm34.7-15.7c-2.7 2.1-6.8 1.3-9.2-1.7-2.3-3-9.4-16.6-6.8-18.7 2.7-2.1 14.1 8 16.5 11.1 2.5 3 2.3 7.2-.5 9.3zm10.8 33c-1.3 3.2-5.2 4.6-8.8 3.2-3.6-1.4-16.5-9.6-15.3-12.8 1.3-3.2 16.3-.2 19.8 1.3 3.7 1.4 5.5 5.2 4.3 8.3zm37.2-38.8c2.1 2.7 1.2 6.8-1.9 9.2-3.1 2.3-16.8 9-18.9 6.3-2.1-2.7 8.4-14 11.5-16.3 3.1-2.3 7.2-1.9 9.3.8zm.9 33.7c1-3.3 4.8-5.1 8.4-4 3.7 1.1 17.4 8 16.3 11.3-1 3.3-16.2 1.7-19.9.6-3.5-1.1-5.7-4.6-4.8-7.9z"/><g id="drops_1_"><path class="st5" d="M474.9 932s19.6-38.4 52.4-26.3c0 0 23.6 8.2 15.1 28.9 0 0-5.4 14-24.4 3.6 0 0-11.1-16.3-32.2-10.9 0 0-10.2 2.1-10.9 4.7zm-10.6 23.6s54.5-.1 58.4 42.9c0 0-1 20.6-24.2 15.9 0 0-18.3-3.5-11.9-25 .1.1 8-23.8-22.3-33.8z"/><path class="st8" d="M502.8 976.7s26.1 18.1 6 31.4c-.9.5-1.8.9-2.8.9-2.5.1-7.6-.3-10.3-3.3 0-.1 28.8.7 7.1-29z"/><path class="st1" d="M162.8 941.1s-53.9-7.8-63.9 34.2c0 0-1.9 20.6 21.7 19.2 0 0 18.6-.8 15.3-23-.1-.1-4.5-24.8 26.9-30.4z"/><path class="st8" d="M121.8 956.4s-28.3 14.2-10.5 30.3c.7.7 1.7 1.1 2.7 1.3 2.5.4 7.6.8 10.6-1.9 0 0-28.6-3.3-2.8-29.7zm394.4-45.7s19.2-3.4 23 14.3c0 0 1.9 2.8-5.4 11.2-.1-.1 4.9-16.9-17.6-25.5z"/></g></g><g id="bottom_2_"><path class="st0" d="M158.5 1501.4s2.8-4.2 14.7-6.5c56.1-10.9 149.3-33.2 269.7 8 5.8 2 16.2 19.4 14.8 22.6 0 0 7.4 53.2-71.3 60.6 0 0-62 6.8-155.1-3.1s-82.2-73.5-72.8-81.6z"/><path class="st1" d="M162.4 1499s-14.8 21.4 66.1 40.8c0 0 59.8 18.6 183.9-.9 0 0 49.6-5.4 30.5-36"/></g><g id="lettuce_2_"><path class="st2" d="M291.9 1525.6c1.5 5.8 7.6 9.8 13.5 9.2 5.9-.7 10.9-6.1 11.1-12.1 5.2 4.8 11.3 9.8 18.5 9.8 7.2-.1 13.9-8.6 9.8-14.4 5.7 3.8 12.1 6.6 18.7 8 5.5 1.3 11.8 1.5 16.3-1.9 4.4-3.3 5.8-9.4 5.4-14.9-.7-9.2-5.8-17.8-12.5-24.1-6.7-6.4-14.9-11-23.3-15-36.8-17.9-77.7-27.3-118.6-27.4-5.8 0-11.7.2-17.2 1.9-5.1 1.6-9.7 4.5-14.2 7.4-6.8 4.4-18.9 6.5-25.5 11.2-8.7 6.2-12.5 15.9-14.3 26.4-1.2 6.8 3.6 15.6 10.4 14.5-5.2 4.6-8.4 11.6-7.3 18.4 1.1 6.8 7.4 12.7 14.3 12.3 6.9-.4 12.5-8.4 9.7-14.7.1 2.5.1 5.1.1 7.6 5.2 3.5 11.2 5.8 17.4 6.6 3.7.5 7.6.5 10.8-1.3 3.2-1.8 5.4-5.8 4.2-9.3 2.8 9.8 16.9 14.1 24.7 7.6 5.4 7.9 19.2 7.5 24.1-.7 1.3 5.4 8 8.2 13.3 6.7 5.1-1.5 8.9-6.5 10.6-11.8z"/><path class="st3" d="M276.2 1476.7c-1.1-5.9 2.1-11.6 5.2-16.7 1.1-1.7 2.2-3.6 3.6-5s3.1-2.5 4.8-3.4c23.4-13.3 52.7-13.9 78.3-5.8 25.7 8.1 48.2 24.1 68 42.4 6.1 5.6 12.2 11.9 14.7 19.8 1.5 5 1.6 10.2 1.3 15.4-.2 3.3-.9 7.3-4 8.7-2.2 1-4.8.1-7.2-.3-2.4-.5-5.4-.3-6.6 1.9-.5.9-.5 1.9-.9 2.9-1.1 3.7-5.6 5.5-9.4 4.7-3.8-.8-6.8-3.5-9.3-6.4-2.3 5-7.1 8.6-12.5 9.5-5.4.9-11.1-1.1-14.9-5-.7-.8-1.7-1.7-2.7-1.5-.6.1-1 .6-1.5 1-2.9 2.7-7.7 2.8-11.3.9s-6-5.4-7.5-9.1c-1.5 3.5-3.8 7.6-7.6 7.6-1.4 0-2.7-.6-4-1.3-8.8-5.4-11-17-12.3-27.3-22.2 2.7-45.5-6.7-59.6-24-1.9-2.9-4-5.7-4.6-9z"/><path class="st4" d="M294.2 1469.7c15.9-.6 31.8-1.1 47.6-1.5 9.9-.2 20.1-.3 29.3 3.1 9.4 3.5 17.2 10.3 24.8 16.8 7.9 6.9 16.1 14.2 19.8 24.1m-57.3-42.6c2.5 13.5 11.9 25.4 24.2 31.3m-21.9-32.3c7.7-.4 22.2-1.5 29.9-.2 7.6 1.3 15.1 4.6 20.2 10.5m-99-9.3c2.3 4.4 4.2 7.8 7.8 11.1 3.6 3.3 8.9 5.3 13.6 3.8m74.1 13.8c11.2 1.2 22.2 4.2 32.5 8.8m-168.5-38.7c-27.9 4.4-48.9 11.8-73.2 26.3-5.5 3.3-11.4 7.4-12.4 13.8m40.8-28.1c-12.9-2.5-22.8-2.5-35.8-1.1m35.8 1.1c6.4 9.2 13.2 22.5 12.7 33.8m24.6-44.7c.7 5 4.8 8.8 7 13.4 4 8.2 1.3 18.1-2.5 26.3m-5.4-39.3c.2-3.9-4.2-5.2-7.6-7.1s-7.4-2.7-11.3-3.1c-8.2-.9-16.6-1.1-24.9-.5"/></g><g id="tomato_2_"><ellipse transform="matrix(-.17 -.985 .985 -.17 -1151.793 1930.638)" class="st5" cx="236.8" cy="1450.2" rx="31.5" ry="81.5"/><ellipse transform="matrix(-.17 -.985 .985 -.17 -1144.787 1922.331)" class="st6" cx="236.8" cy="1443.1" rx="31.5" ry="81.5"/><path class="st5" d="M199.2 1447.9s-22.3-8.2 4.5-18.6c0 0 11.7-6.9 23.7 5.8 0 0 8.2-18.2 26.8-12.4 0 0 26.8.3 28.2 8.2 0 0 2.1 9.6-9.6 12.1 0 0 14.8 14.8-10.3 18.2 0 0-24.4 6.5-30.5-8.6 0 0-.3 17.2-30.2 13.4-.2.1-35.6-6.4-2.6-18.1z"/><ellipse transform="matrix(.082 -.997 .997 .082 -1139.135 1689.977)" class="st5" cx="347.6" cy="1463.2" rx="33" ry="81.5"/><ellipse transform="matrix(.082 -.997 .997 .082 -1133.097 1679.112)" class="st6" cx="344.8" cy="1454.5" rx="33" ry="81.5"/><path class="st5" d="M382.2 1466.6s23.6-2.9-.1-19.1c0 0-9.8-9.4-24.4.2 0 0-3.8-19.6-23.2-18.2 0 0-26.2-5.8-29.3 1.5 0 0-4.2 8.9 6.6 13.9 0 0-17.8 11 5.8 20.1 0 0 22.2 12 31.8-1.3 0 0-3.6 16.8 26.3 20 0 .1 35.9 1.9 6.5-17.1z"/></g><g id="burger_2_"><path class="st7" d="M166.2 1372.2s-.9.5-2.1 1.3c-3.7 2.6-9.6 8.4.7 13.1 0 0-24.7 6.1-11.7 18.4 0 0-13.6 22.2 4.7 22.2 0 0-3.7 20.6 16.8 14.5 0 0 6.2 11.6 16.7 7.6 0 0-7.6 12.3 88.6 5.4 0 0 80.3 8.4 138.3-3.1 0 0 9.9 11.5 21.4-2.3 0 0 21.4 3.1 22.9-9.2 0 0 17.6-6.9 7.6-22.2 0 0 11.5-6.1-1.5-13.7 0 0 .7-22.2-18.4-21.4 0 0-174.4-27.3-285.1-10.2"/><path class="st1" d="M207.3 1482.2s-9.2-68-14.5-78.7c0 0-35.6-22.9-26.6-31.4 0 0 70.1-58.1 240.6-17.6 0 0 41.3 6.1 48.5 30.5 0 0-97.4 26.9-136.4 26.1 0 0-25.2 7.6-30.5 14.4-.1.2-33.7 44.5-81.1 56.7z"/><ellipse class="st8" cx="209.1" cy="1418.1" rx="7.8" ry="8.9"/><ellipse class="st9" cx="296.6" cy="1437.5" rx="7.8" ry="7.5"/><ellipse class="st9" cx="329.8" cy="1442.8" rx="7.8" ry="5.6"/><path class="st9" d="M360.2 1437.3s11 9.7 19.4-2.3c0 0 34.1 7.8 27.8-12.6"/><path class="st8" d="M209.1 1395.5s-12.1-8.2-11.5-19.1c0 0 4.5-13.1-6.4-10.7 0 0-13.3 5.7-2.7 19 .2.2 6.7 9.7 20.6 10.8zm131.5-46.2s46.6-2.3 84.6 19.6c0 0-.2 5.1-5.3 4.7 0 0-28.4-19-79.3-17.6 0 0-9.6-3.5 0-6.7z"/></g><g id="top_2_"><path class="st0" d="M422.2 1290.4c5.5 5 15.8 15.2 19.7 21.5 11.8 19.2 17.3 33.5 13.1 55.6-3 16.1-41.6 18-45.3 18.2-61.2 1.5-81.5 4.3-146.3 3.5-16.4-.2-76.8-3.4-85.1-8.4-8.3-5.1-21.8-9.1-24.5-18.5-5-17.3 5.3-35.4 17.5-48.6 37-39.9 89-53.2 143.4-55.7 11.5-.5 26.7.1 38.1 1.9 18 2.8 34.4 9.6 50.6 18.1 6.8 3.4 13.1 7.3 18.8 12.4z"/><path class="st8" d="M211.7 1313.8c0 3.4-3.1 6.2-7 6.2-3.8 0-18.9-2.8-18.9-6.2s15.1-6.2 18.9-6.2 7 2.8 7 6.2zm40.5-4.2c-.9-3.3 1.5-6.8 5.2-7.7 3.8-.9 19-1.9 19.8 1.4.9 3.3-13.1 9.7-16.8 10.7-3.7.9-7.4-1-8.2-4.4zm-12.7-26.9c-.8-3.3 1.5-6.8 5.2-7.7 3.8-.9 19-1.9 19.8 1.4.8 3.3-13.1 9.7-16.8 10.7-3.6.9-7.4-1-8.2-4.4zm71.6 16.8c-2.2 2.6-6.4 2.8-9.3.3-2.9-2.5-12.8-14.2-10.6-16.9 2.2-2.6 15.5 4.8 18.5 7.3 2.9 2.5 3.6 6.7 1.4 9.3zm34.7-15.6c-2.7 2.1-6.8 1.3-9.2-1.7-2.3-3-9.4-16.6-6.8-18.7 2.7-2.1 14.1 8 16.5 11.1 2.5 3 2.2 7.1-.5 9.3zm10.7 33c-1.3 3.2-5.2 4.6-8.8 3.2-3.6-1.4-16.5-9.6-15.3-12.8 1.3-3.2 16.3-.2 19.8 1.3 3.7 1.3 5.6 5.1 4.3 8.3zm37.2-38.9c2.1 2.7 1.2 6.8-1.9 9.2-3.1 2.3-16.8 9-18.9 6.3-2.1-2.7 8.4-14 11.5-16.3 3.1-2.3 7.3-1.9 9.3.8zm1 33.7c1-3.3 4.8-5.1 8.4-4 3.7 1.1 17.4 8 16.3 11.3-1 3.3-16.2 1.7-19.9.6-3.6-1-5.8-4.6-4.8-7.9z"/></g><g id="bottom_3_"><path class="st0" d="M155.8 2033.2s2.8-4.2 14.7-6.5c56.1-10.9 149.3-33.2 269.7 8 5.8 2 16.2 19.4 14.8 22.6 0 0 7.4 53.2-71.3 60.6 0 0-62 6.8-155.1-3.1s-82.1-73.5-72.8-81.6z"/><path class="st1" d="M159.7 2030.8s-14.8 21.4 66.1 40.8c0 0 59.8 18.6 183.9-.9 0 0 49.6-5.4 30.5-36"/></g><g id="lettuce_3_"><path class="st2" d="M289.2 2040.7c1.5 5.8 7.6 9.8 13.5 9.2s10.9-6.1 11.1-12.1c5.2 4.8 11.3 9.8 18.5 9.8 7.2-.1 13.9-8.6 9.8-14.4 5.7 3.8 12.1 6.6 18.7 8 5.5 1.3 11.8 1.5 16.3-1.9 4.4-3.3 5.8-9.4 5.4-14.9-.7-9.2-5.8-17.8-12.5-24.1-6.7-6.4-14.9-11-23.3-15-36.8-17.9-77.7-27.3-118.6-27.4-5.8 0-11.7.2-17.2 1.9-5.1 1.6-9.7 4.5-14.2 7.4-6.8 4.4-18.9 6.5-25.5 11.2-8.7 6.2-12.5 15.9-14.3 26.4-1.2 6.8 3.6 15.6 10.4 14.5-5.2 4.6-8.4 11.6-7.3 18.4 1.1 6.8 7.4 12.7 14.3 12.3 6.9-.4 12.5-8.4 9.7-14.7.1 2.5.1 5.1.1 7.6 5.2 3.5 11.2 5.8 17.4 6.6 3.7.5 7.6.5 10.8-1.3 3.2-1.8 5.4-5.8 4.2-9.3 2.8 9.8 16.9 14.1 24.7 7.6 5.4 7.9 19.2 7.5 24.1-.7 1.3 5.4 8 8.2 13.3 6.7 5.1-1.6 8.9-6.5 10.6-11.8z"/><path class="st3" d="M273.6 1991.7c-1.1-5.9 2.1-11.6 5.2-16.7 1.1-1.7 2.2-3.6 3.6-5s3.1-2.5 4.8-3.4c23.4-13.3 52.7-13.9 78.3-5.8 25.7 8.1 48.2 24.1 68 42.4 6.1 5.6 12.2 11.9 14.7 19.8 1.5 5 1.6 10.2 1.3 15.4-.2 3.3-.9 7.3-4 8.7-2.2 1-4.8.1-7.2-.3-2.4-.5-5.4-.3-6.6 1.9-.5.9-.5 1.9-.9 2.9-1.1 3.7-5.6 5.5-9.4 4.7s-6.8-3.5-9.3-6.4c-2.3 5-7.1 8.6-12.5 9.5-5.4.9-11.1-1.1-14.9-5-.7-.8-1.7-1.7-2.7-1.5-.6.1-1 .6-1.5 1-2.9 2.7-7.7 2.8-11.3.9-3.6-1.9-6-5.4-7.5-9.1-1.5 3.5-3.8 7.6-7.6 7.6-1.4 0-2.7-.6-4-1.3-8.8-5.4-11-17-12.3-27.3-22.2 2.7-45.5-6.7-59.6-24-2-2.8-4-5.6-4.6-9z"/><path class="st4" d="M291.5 1990.8c15.9-.6 31.8-1.1 47.6-1.5 9.9-.2 20.1-.3 29.3 3.1 9.4 3.5 17.2 10.3 24.8 16.8 7.9 6.9 16.1 14.2 19.8 24.1m-57.2-42.6c2.5 13.5 11.9 25.4 24.2 31.3m-22-32.3c7.7-.4 22.2-1.5 29.9-.2 7.6 1.3 15.1 4.6 20.2 10.5m-99-9.3c2.3 4.4 4.2 7.8 7.8 11.1 3.6 3.3 8.9 5.3 13.6 3.8m74.1 13.8c11.2 1.2 22.2 4.2 32.5 8.8m-168.4-38.6c-27.9 4.4-48.9 11.8-73.2 26.3-5.5 3.3-11.4 7.4-12.4 13.8m40.7-28.1c-12.9-2.5-22.8-2.5-35.8-1.1m35.8 1.1c6.4 9.2 13.2 22.5 12.7 33.8m24.6-44.8c.7 5 4.8 8.8 7 13.4 4 8.2 1.3 18.1-2.5 26.3m-5.4-39.3c.2-3.9-4.2-5.2-7.6-7.1-3.3-2-7.4-2.7-11.3-3.1-8.2-.9-16.6-1.1-24.9-.5"/></g><g id="tomato_3_"><ellipse transform="matrix(-.17 -.985 .985 -.17 -1641.369 2505.785)" class="st5" cx="234.1" cy="1943.8" rx="31.5" ry="81.5"/><ellipse transform="matrix(-.17 -.985 .985 -.17 -1634.312 2497.39)" class="st6" cx="234.1" cy="1936.7" rx="31.5" ry="81.5"/><path class="st5" d="M196.5 1941.6s-22.3-8.2 4.5-18.6c0 0 11.7-6.9 23.7 5.8 0 0 8.2-18.2 26.8-12.4 0 0 26.8.3 28.2 8.2 0 0 2.1 9.6-9.6 12.1 0 0 14.8 14.8-10.3 18.2 0 0-24.4 6.5-30.5-8.6 0 0-.3 17.2-30.2 13.4-.2 0-35.5-6.4-2.6-18.1z"/><ellipse transform="matrix(.082 -.997 .997 .082 -1633.541 2140.518)" class="st5" cx="345" cy="1956.8" rx="33" ry="81.5"/><ellipse transform="matrix(.082 -.997 .997 .082 -1627.574 2129.71)" class="st6" cx="342.1" cy="1948.2" rx="33" ry="81.5"/><path class="st5" d="M379.5 1960.2s23.6-2.9-.1-19.1c0 0-9.8-9.4-24.4.2 0 0-3.8-19.6-23.2-18.2 0 0-26.2-5.8-29.3 1.5 0 0-4.2 8.9 6.6 13.9 0 0-17.8 11 5.8 20.1 0 0 22.2 12 31.8-1.3 0 0-3.6 16.8 26.3 20 0 .1 36 1.9 6.5-17.1z"/></g><g id="burger_3_"><path class="st7" d="M163.5 1847.1s-.9.5-2.1 1.3c-3.7 2.6-9.6 8.4.7 13.1 0 0-24.7 6.1-11.7 18.4 0 0-13.6 22.2 4.7 22.2 0 0-3.7 20.6 16.8 14.5 0 0 6.2 11.6 16.7 7.6 0 0-7.6 12.3 88.6 5.4 0 0 80.3 8.4 138.3-3.1 0 0 9.9 11.5 21.4-2.3 0 0 21.4 3.1 22.9-9.2 0 0 17.6-6.9 7.6-22.2 0 0 11.5-6.1-1.5-13.7 0 0 .7-22.2-18.4-21.4 0 0-174.4-27.3-285.1-10.2"/><path class="st1" d="M204.6 1957.1s-9.2-68-14.5-78.7c0 0-35.6-22.9-26.6-31.4 0 0 70.1-58.1 240.6-17.6 0 0 41.3 6.1 48.5 30.5 0 0-97.4 26.9-136.4 26.1 0 0-25.2 7.6-30.5 14.4-.1.1-33.7 44.5-81.1 56.7z"/><ellipse class="st8" cx="206.4" cy="1893" rx="7.8" ry="8.9"/><ellipse class="st9" cx="293.9" cy="1912.4" rx="7.8" ry="7.5"/><ellipse class="st9" cx="327.1" cy="1917.7" rx="7.8" ry="5.6"/><path class="st9" d="M357.5 1912.1s11 9.7 19.4-2.3c0 0 34.1 7.8 27.8-12.6"/><path class="st8" d="M206.4 1870.4s-12.1-8.2-11.5-19.1c0 0 4.5-13.1-6.4-10.7 0 0-13.3 5.7-2.7 19 .2.1 6.7 9.6 20.6 10.8zm131.5-46.2s46.6-2.3 84.6 19.6c0 0-.2 5.1-5.3 4.7 0 0-28.4-19-79.3-17.6 0 0-9.6-3.5 0-6.7z"/></g><g id="top_3_"><path class="st0" d="M419.5 1747.2c5.5 5 15.8 15.2 19.7 21.5 11.8 19.2 17.3 33.5 13.1 55.6-3 16.1-41.6 18-45.3 18.2-61.2 1.5-81.5 4.3-146.3 3.5-16.4-.2-76.8-3.4-85.1-8.4-8.3-5.1-21.8-9.1-24.5-18.5-5-17.3 5.3-35.4 17.5-48.6 37-39.9 89-53.2 143.4-55.7 11.5-.5 26.7.1 38.1 1.9 18 2.8 34.4 9.6 50.6 18.1 6.8 3.4 13.1 7.3 18.8 12.4z"/><path class="st8" d="M209 1770.6c0 3.4-3.1 6.2-7 6.2-3.8 0-18.9-2.8-18.9-6.2s15.1-6.2 18.9-6.2 7 2.7 7 6.2zm40.5-4.2c-.9-3.3 1.5-6.8 5.2-7.7 3.8-.9 19-1.9 19.8 1.4.9 3.3-13.1 9.7-16.8 10.7-3.6.9-7.4-1-8.2-4.4zm-12.7-26.9c-.8-3.3 1.5-6.8 5.2-7.7 3.7-.9 19-1.9 19.8 1.4.8 3.3-13.1 9.7-16.8 10.7-3.7.9-7.4-1.1-8.2-4.4zm71.6 16.8c-2.2 2.6-6.4 2.8-9.3.3-2.9-2.5-12.8-14.2-10.6-16.9 2.2-2.6 15.5 4.8 18.5 7.3s3.6 6.6 1.4 9.3zm34.7-15.7c-2.7 2.1-6.8 1.3-9.2-1.7-2.3-3-9.4-16.6-6.8-18.7 2.7-2.1 14.1 8 16.5 11.1 2.5 3 2.2 7.2-.5 9.3zm10.7 33c-1.3 3.2-5.2 4.6-8.8 3.2-3.6-1.4-16.5-9.6-15.3-12.8 1.3-3.2 16.3-.2 19.8 1.3 3.7 1.4 5.6 5.1 4.3 8.3zm37.3-38.8c2.1 2.7 1.2 6.8-1.9 9.2-3.1 2.3-16.8 9-18.9 6.3-2.1-2.7 8.4-14 11.5-16.3 3-2.3 7.2-2 9.3.8zm.9 33.7c1-3.3 4.8-5.1 8.4-4 3.7 1.1 17.4 8 16.3 11.3-1 3.3-16.2 1.7-19.9.6-3.5-1.1-5.7-4.6-4.8-7.9z"/></g><g id="bottom_4_"><path class="st0" d="M158.5 2563.4s2.8-4.2 14.7-6.5c56.1-10.9 149.3-33.2 269.7 8 5.8 2 16.2 19.4 14.8 22.6 0 0 7.4 53.2-71.3 60.6 0 0-62 6.8-155.1-3.1s-82.2-73.5-72.8-81.6z"/><path class="st1" d="M162.4 2561s-14.8 21.4 66.1 40.8c0 0 59.8 18.6 183.9-.9 0 0 49.6-5.4 30.5-36"/></g><g id="lettuce_4_"><path class="st2" d="M291.9 2567.5c1.5 5.8 7.6 9.8 13.5 9.2 5.9-.7 10.9-6.1 11.1-12.1 5.2 4.8 11.3 9.8 18.5 9.8 7.2-.1 13.9-8.6 9.8-14.4 5.7 3.8 12.1 6.6 18.7 8 5.5 1.3 11.8 1.5 16.3-1.9 4.4-3.3 5.8-9.4 5.4-14.9-.7-9.2-5.8-17.8-12.5-24.1-6.7-6.4-14.9-11-23.3-15-36.8-17.9-77.7-27.3-118.6-27.4-5.8 0-11.7.2-17.2 1.9-5.1 1.6-9.7 4.5-14.2 7.4-6.8 4.4-18.9 6.5-25.5 11.2-8.7 6.2-12.5 15.9-14.3 26.4-1.2 6.8 3.6 15.6 10.4 14.5-5.2 4.6-8.4 11.6-7.3 18.4 1.1 6.8 7.4 12.7 14.3 12.3 6.9-.4 12.5-8.4 9.7-14.7.1 2.5.1 5.1.1 7.6 5.2 3.5 11.2 5.8 17.4 6.6 3.7.5 7.6.5 10.8-1.3 3.2-1.8 5.4-5.8 4.2-9.3 2.8 9.8 16.9 14.1 24.7 7.6 5.4 7.9 19.2 7.5 24.1-.7 1.3 5.4 8 8.2 13.3 6.7 5.1-1.6 8.9-6.5 10.6-11.8z"/><path class="st3" d="M276.2 2518.5c-1.1-5.9 2.1-11.6 5.2-16.7 1.1-1.7 2.2-3.6 3.6-5s3.1-2.5 4.8-3.4c23.4-13.3 52.7-13.9 78.3-5.8 25.7 8.1 48.2 24.1 68 42.4 6.1 5.6 12.2 11.9 14.7 19.8 1.5 5 1.5 10.2 1.3 15.4-.2 3.3-.9 7.3-4 8.7-2.2 1-4.8.1-7.2-.3s-5.4-.3-6.6 1.9c-.5.9-.5 1.9-.9 2.9-1.1 3.7-5.6 5.5-9.4 4.7-3.8-.8-6.8-3.5-9.3-6.4-2.3 5-7.1 8.6-12.5 9.5-5.4.9-11.1-1.1-14.9-5-.7-.8-1.7-1.7-2.7-1.5-.6.1-1 .6-1.5 1-2.9 2.7-7.7 2.8-11.3.9-3.6-1.9-6-5.4-7.5-9.1-1.5 3.5-3.8 7.6-7.6 7.6-1.4 0-2.7-.6-4-1.3-8.8-5.4-11-17-12.3-27.3-22.2 2.7-45.5-6.7-59.6-24-1.9-2.8-4-5.6-4.6-9z"/><path class="st4" d="M294.2 2511.5c15.9-.6 31.8-1.1 47.6-1.5 9.9-.2 20.1-.3 29.3 3.1 9.4 3.5 17.2 10.3 24.8 16.8 7.9 6.9 16.1 14.2 19.8 24.1m-57.3-42.5c2.5 13.5 11.9 25.4 24.2 31.3m-21.9-32.4c7.7-.4 22.2-1.5 29.9-.2 7.6 1.3 15.1 4.6 20.2 10.5m-99-9.2c2.3 4.4 4.2 7.8 7.8 11.1 3.6 3.3 8.9 5.3 13.6 3.8m74.1 13.8c11.2 1.2 22.2 4.2 32.5 8.8m-168.5-38.7c-27.9 4.4-48.9 11.8-73.2 26.3-5.5 3.3-11.4 7.4-12.4 13.8m40.8-28.1c-12.9-2.5-22.8-2.5-35.8-1.1m35.8 1.1c6.4 9.2 13.2 22.5 12.7 33.8m24.6-44.8c.7 5 4.8 8.8 7 13.4 4 8.2 1.3 18.1-2.5 26.3m-5.4-39.2c.2-3.9-4.2-5.2-7.6-7.1-3.3-2-7.4-2.7-11.3-3.1-8.2-.9-16.6-1.1-24.9-.5"/></g><g id="tomato_4_"><ellipse transform="matrix(-.17 -.985 .985 -.17 -2144.064 3109.22)" class="st5" cx="236.8" cy="2457.2" rx="31.5" ry="81.5"/><ellipse transform="matrix(-.17 -.985 .985 -.17 -2129.794 3092.289)" class="st6" cx="236.8" cy="2442.7" rx="31.5" ry="81.5"/><path class="st5" d="M199.2 2454.9s-22.3-8.2 4.5-18.6c0 0 11.7-6.9 23.7 5.8 0 0 8.2-18.2 26.8-12.4 0 0 26.8.3 28.2 8.2 0 0 2.1 9.6-9.6 12.1 0 0 14.8 14.8-10.3 18.2 0 0-24.4 6.5-30.5-8.6 0 0-.3 17.2-30.2 13.4-.2.1-35.6-6.4-2.6-18.1z"/><ellipse transform="matrix(.082 -.997 .997 .082 -2142.756 2614.579)" class="st5" cx="347.6" cy="2470.2" rx="33" ry="81.5"/><ellipse transform="matrix(.082 -.997 .997 .082 -2136.789 2603.77)" class="st6" cx="344.8" cy="2461.6" rx="33" ry="81.5"/><path class="st5" d="M382.2 2473.6s23.6-2.9-.1-19.1c0 0-9.8-9.4-24.4.2 0 0-3.8-19.6-23.2-18.2 0 0-26.2-5.8-29.3 1.5 0 0-4.2 8.9 6.6 13.9 0 0-17.8 11 5.8 20.1 0 0 22.2 12 31.8-1.3 0 0-3.6 16.8 26.3 20 0 .1 35.9 1.9 6.5-17.1z"/></g><g id="burger_4_"><path class="st7" d="M166.2 2349.7s-.9.5-2.1 1.3c-3.7 2.6-9.6 8.4.7 13.1 0 0-24.7 6.1-11.7 18.4 0 0-13.6 22.2 4.7 22.2 0 0-3.7 20.6 16.8 14.5 0 0 6.2 11.6 16.7 7.6 0 0-7.6 12.3 88.6 5.4 0 0 80.3 8.4 138.3-3.1 0 0 9.9 11.5 21.4-2.3 0 0 21.4 3.1 22.9-9.2 0 0 17.6-6.9 7.6-22.2 0 0 11.5-6.1-1.5-13.7 0 0 .7-22.2-18.4-21.4 0 0-174.4-27.3-285.1-10.2"/><path class="st1" d="M207.3 2459.7s-9.2-68-14.5-78.7c0 0-35.6-22.9-26.6-31.4 0 0 70.1-58.1 240.6-17.6 0 0 41.3 6.1 48.5 30.5 0 0-97.4 26.9-136.4 26.1 0 0-25.2 7.6-30.5 14.4-.1.2-33.7 44.6-81.1 56.7z"/><ellipse class="st8" cx="209.1" cy="2395.6" rx="7.8" ry="8.9"/><ellipse class="st9" cx="296.6" cy="2415.1" rx="7.8" ry="7.5"/><ellipse class="st9" cx="329.8" cy="2420.4" rx="7.8" ry="5.6"/><path class="st9" d="M360.2 2414.8s11 9.7 19.4-2.3c0 0 34.1 7.8 27.8-12.6"/><path class="st8" d="M209.1 2373.1s-12.1-8.2-11.5-19.1c0 0 4.5-13.1-6.4-10.7 0 0-13.3 5.7-2.7 19 .2.1 6.7 9.6 20.6 10.8zm131.5-46.3s46.6-2.3 84.6 19.6c0 0-.2 5.1-5.3 4.7 0 0-28.4-19-79.3-17.6 0 0-9.6-3.5 0-6.7z"/></g><g id="top_4_"><path class="st0" d="M422.2 2225.8c5.5 5 15.8 15.2 19.7 21.5 11.8 19.2 17.3 33.5 13.1 55.6-3 16.1-41.6 18-45.3 18.2-61.2 1.5-81.5 4.3-146.3 3.5-16.4-.2-76.8-3.4-85.1-8.4-8.3-5.1-21.8-9.1-24.5-18.5-5-17.3 5.3-35.4 17.5-48.6 37-39.9 89-53.2 143.4-55.7 11.5-.5 26.7.1 38.1 1.9 18 2.8 34.4 9.6 50.6 18.1 6.8 3.5 13.1 7.4 18.8 12.4z"/><path class="st8" d="M211.7 2249.2c0 3.4-3.1 6.2-7 6.2-3.8 0-18.9-2.8-18.9-6.2s15.1-6.2 18.9-6.2 7 2.8 7 6.2zm40.5-4.2c-.9-3.3 1.5-6.8 5.2-7.7 3.8-.9 19-1.9 19.8 1.4.8 3.3-13.1 9.7-16.8 10.7-3.7.9-7.4-1-8.2-4.4zm-12.7-26.9c-.8-3.3 1.5-6.8 5.2-7.7 3.8-.9 19-1.9 19.8 1.4.8 3.3-13.1 9.7-16.8 10.7-3.6.9-7.4-1.1-8.2-4.4zm71.6 16.8c-2.2 2.6-6.4 2.8-9.3.3s-12.8-14.2-10.6-16.9c2.2-2.6 15.5 4.8 18.5 7.3s3.6 6.7 1.4 9.3zm34.7-15.7c-2.7 2.1-6.8 1.3-9.2-1.7-2.3-3-9.4-16.6-6.8-18.7 2.7-2.1 14.1 8 16.5 11.1 2.5 3 2.2 7.3-.5 9.3zm10.7 33.1c-1.3 3.2-5.2 4.6-8.8 3.2-3.6-1.4-16.5-9.6-15.3-12.8s16.3-.2 19.8 1.3c3.6 1.4 5.6 5.1 4.3 8.3zm37.2-38.8c2.1 2.7 1.2 6.8-1.9 9.2-3.1 2.3-16.8 9-18.9 6.3s8.4-14 11.5-16.3 7.3-2 9.3.8zm1 33.6c1-3.3 4.8-5.1 8.4-4 3.7 1.1 17.4 8 16.3 11.3-1 3.3-16.2 1.7-19.9.6-3.5-1.1-5.8-4.6-4.8-7.9z"/></g><g id="bottom_5_"><path class="st0" d="M158.5 3098.3s2.8-4.2 14.7-6.5c56.1-10.9 149.3-33.2 269.7 8 5.8 2 16.2 19.4 14.8 22.6 0 0 7.4 53.2-71.3 60.6 0 0-62 6.8-155.1-3.1s-82.2-73.5-72.8-81.6z"/><path class="st1" d="M162.4 3095.9s-14.8 21.4 66.1 40.8c0 0 59.8 18.6 183.9-.9 0 0 49.6-5.4 30.5-36"/></g><g id="lettuce_5_"><path class="st2" d="M291.9 3089.1c1.5 5.8 7.6 9.8 13.5 9.2 5.9-.7 10.9-6.1 11.1-12.1 5.2 4.8 11.3 9.8 18.5 9.8 7.2-.1 13.9-8.6 9.8-14.4 5.7 3.8 12.1 6.6 18.7 8 5.5 1.3 11.8 1.5 16.3-1.9 4.4-3.3 5.8-9.4 5.4-14.9-.7-9.2-5.8-17.8-12.5-24.1-6.7-6.4-14.9-11-23.3-15-36.8-17.9-77.7-27.3-118.6-27.4-5.8 0-11.7.2-17.2 1.9-5.1 1.6-9.7 4.5-14.2 7.4-6.8 4.4-18.9 6.5-25.5 11.2-8.7 6.2-12.5 15.9-14.3 26.4-1.2 6.8 3.6 15.6 10.4 14.5-5.2 4.6-8.4 11.6-7.3 18.4 1.1 6.8 7.4 12.7 14.3 12.3 6.9-.4 12.5-8.4 9.7-14.7.1 2.5.1 5.1.1 7.6 5.2 3.5 11.2 5.8 17.4 6.6 3.7.5 7.6.5 10.8-1.3 3.2-1.8 5.4-5.8 4.2-9.3 2.8 9.8 16.9 14.1 24.7 7.6 5.4 7.9 19.2 7.5 24.1-.7 1.3 5.4 8 8.2 13.3 6.7 5.1-1.7 8.9-6.6 10.6-11.8z"/><path class="st3" d="M276.2 3040c-1.1-5.9 2.1-11.6 5.2-16.7 1.1-1.7 2.2-3.6 3.6-5s3.1-2.5 4.8-3.4c23.4-13.3 52.7-13.9 78.3-5.8 25.7 8.1 48.2 24.1 68 42.4 6.1 5.6 12.2 11.9 14.7 19.8 1.5 5 1.5 10.2 1.3 15.4-.2 3.3-.9 7.3-4 8.7-2.2 1-4.8.1-7.2-.3-2.4-.5-5.4-.3-6.6 1.9-.5.9-.5 1.9-.9 2.9-1.1 3.7-5.6 5.5-9.4 4.7-3.8-.8-6.8-3.5-9.3-6.4-2.3 5-7.1 8.6-12.5 9.5-5.4.9-11.1-1.1-14.9-5-.7-.8-1.7-1.7-2.7-1.5-.6.1-1 .6-1.5 1-2.9 2.7-7.7 2.8-11.3.9-3.6-1.9-6-5.4-7.5-9.1-1.5 3.5-3.8 7.6-7.6 7.6-1.4 0-2.7-.6-4-1.3-8.8-5.4-11-17-12.3-27.3-22.2 2.7-45.5-6.7-59.6-24-1.9-2.8-4-5.6-4.6-9z"/><path class="st4" d="M294.2 3033c15.9-.6 31.8-1.1 47.6-1.5 9.9-.2 20.1-.3 29.3 3.1 9.4 3.5 17.2 10.3 24.8 16.8 7.9 6.9 16.1 14.2 19.8 24.1m-57.3-42.5c2.5 13.5 11.9 25.4 24.2 31.3m-21.9-32.4c7.7-.4 22.2-1.5 29.9-.2 7.6 1.3 15.1 4.6 20.2 10.5m-99-9.2c2.3 4.4 4.2 7.8 7.8 11.1 3.6 3.3 8.9 5.3 13.6 3.8m74.1 13.8c11.2 1.2 22.2 4.2 32.5 8.8m-168.5-38.7c-27.9 4.4-48.9 11.8-73.2 26.3-5.5 3.3-11.4 7.4-12.4 13.8m40.8-28.1c-12.9-2.5-22.8-2.5-35.8-1.1m35.8 1.1c6.4 9.2 13.2 22.5 12.7 33.8m24.6-44.8c.7 5 4.8 8.8 7 13.4 4 8.2 1.3 18.1-2.5 26.3m-5.4-39.3c.2-3.9-4.2-5.2-7.6-7.1-3.3-2-7.4-2.7-11.3-3.1-8.2-.9-16.6-1.1-24.9-.5"/></g><g id="tomato_5_"><ellipse transform="matrix(-.17 -.985 .985 -.17 -2644.737 3703.914)" class="st5" cx="236.8" cy="2965.3" rx="31.5" ry="81.5"/><ellipse transform="matrix(-.17 -.985 .985 -.17 -2637.732 3695.608)" class="st6" cx="236.8" cy="2958.2" rx="31.5" ry="81.5"/><path class="st5" d="M199.2 2963s-22.3-8.2 4.5-18.6c0 0 11.7-6.9 23.7 5.8 0 0 8.2-18.2 26.8-12.4 0 0 26.8.3 28.2 8.2 0 0 2.1 9.6-9.6 12.1 0 0 14.8 14.8-10.3 18.2 0 0-24.4 6.5-30.5-8.6 0 0-.3 17.2-30.2 13.4-.2.2-35.6-6.3-2.6-18.1z"/><ellipse transform="matrix(.082 -.997 .997 .082 -2649.166 3081.112)" class="st5" cx="347.6" cy="2978.3" rx="33" ry="81.5"/><ellipse transform="matrix(.082 -.997 .997 .082 -2643.128 3070.248)" class="st6" cx="344.8" cy="2969.6" rx="33" ry="81.5"/><path class="st5" d="M382.2 2981.7s23.6-2.9-.1-19.1c0 0-9.8-9.4-24.4.2 0 0-3.8-19.6-23.2-18.2 0 0-26.2-5.8-29.3 1.5 0 0-4.2 8.9 6.6 13.9 0 0-17.8 11 5.8 20.1 0 0 22.2 12 31.8-1.3 0 0-3.6 16.8 26.3 20 0 .1 35.9 1.9 6.5-17.1z"/></g><g id="burger_5_"><path class="st7" d="M166.2 2835s-.9.5-2.1 1.3c-3.7 2.6-9.6 8.4.7 13.1 0 0-24.7 6.1-11.7 18.4 0 0-13.6 22.2 4.7 22.2 0 0-3.7 20.6 16.8 14.5 0 0 6.2 11.6 16.7 7.6 0 0-7.6 12.3 88.6 5.4 0 0 80.3 8.4 138.3-3.1 0 0 9.9 11.5 21.4-2.3 0 0 21.4 3.1 22.9-9.2 0 0 17.6-6.9 7.6-22.2 0 0 11.5-6.1-1.5-13.7 0 0 .7-22.2-18.4-21.4 0 0-174.4-27.3-285.1-10.2"/><path class="st1" d="M207.3 2945.1s-9.2-68-14.5-78.7c0 0-35.6-22.9-26.6-31.4 0 0 70.1-58.1 240.6-17.6 0 0 41.3 6.1 48.5 30.5 0 0-97.4 26.9-136.4 26.1 0 0-25.2 7.6-30.5 14.4-.1.1-33.7 44.4-81.1 56.7z"/><ellipse class="st8" cx="209.1" cy="2880.9" rx="7.8" ry="8.9"/><ellipse class="st9" cx="296.6" cy="2900.3" rx="7.8" ry="7.5"/><ellipse class="st9" cx="329.8" cy="2905.7" rx="7.8" ry="5.6"/><path class="st9" d="M360.2 2900.1s11 9.7 19.4-2.3c0 0 34.1 7.8 27.8-12.6"/><path class="st8" d="M209.1 2858.4s-12.1-8.2-11.5-19.1c0 0 4.5-13.1-6.4-10.7 0 0-13.3 5.7-2.7 19 .2.1 6.7 9.6 20.6 10.8zm131.5-46.3s46.6-2.3 84.6 19.6c0 0-.2 5.1-5.3 4.7 0 0-28.4-19-79.3-17.6 0 .1-9.6-3.4 0-6.7z"/></g><g id="top_5_"><path class="st0" d="M422.2 2697.7c5.5 5 15.8 15.2 19.7 21.5 11.8 19.2 17.3 33.5 13.1 55.6-3 16.1-41.6 18-45.3 18.2-61.2 1.5-81.5 4.3-146.3 3.5-16.4-.2-76.8-3.4-85.1-8.4-8.3-5.1-21.8-9.1-24.5-18.5-5-17.3 5.3-35.4 17.5-48.6 37-39.9 89-53.2 143.4-55.7 11.5-.5 26.7.1 38.1 1.9 18 2.8 34.4 9.6 50.6 18.1 6.8 3.5 13.1 7.3 18.8 12.4z"/><path class="st8" d="M211.7 2721.1c0 3.4-3.1 6.2-7 6.2-3.8 0-18.9-2.8-18.9-6.2s15.1-6.2 18.9-6.2 7 2.8 7 6.2zm40.5-4.1c-.9-3.3 1.5-6.8 5.2-7.7 3.8-.9 19-1.9 19.8 1.4.8 3.3-13.1 9.7-16.8 10.7-3.7.8-7.4-1.2-8.2-4.4zm-12.7-27c-.8-3.3 1.5-6.8 5.2-7.7 3.8-.9 19-1.9 19.8 1.4.8 3.3-13.1 9.7-16.8 10.7-3.6.9-7.4-1.1-8.2-4.4zm71.6 16.8c-2.2 2.6-6.4 2.8-9.3.3s-12.8-14.2-10.6-16.9c2.2-2.6 15.5 4.8 18.5 7.3s3.6 6.7 1.4 9.3zm34.7-15.7c-2.7 2.1-6.8 1.3-9.2-1.7-2.3-3-9.4-16.6-6.8-18.7 2.7-2.1 14.1 8 16.5 11.1 2.5 3.1 2.2 7.2-.5 9.3zm10.7 33.1c-1.3 3.2-5.2 4.6-8.8 3.2-3.6-1.4-16.5-9.6-15.3-12.8s16.3-.2 19.8 1.3c3.6 1.5 5.6 5.1 4.3 8.3zm37.2-38.9c2.1 2.7 1.2 6.8-1.9 9.2-3.1 2.3-16.8 9-18.9 6.3-2.1-2.7 8.4-14 11.5-16.3 3.1-2.2 7.3-1.9 9.3.8zm1 33.7c1-3.3 4.8-5.1 8.4-4 3.7 1.1 17.4 8 16.3 11.3-1 3.3-16.2 1.7-19.9.6-3.5-1-5.8-4.6-4.8-7.9z"/></g></svg>