<?xml version="1.0" encoding="utf-8"?>
<!-- Generator: Adobe Illustrator 18.1.1, SVG Export Plug-In . SVG Version: 6.00 Build 0)  -->
<!DOCTYPE svg PUBLIC "-//W3C//DTD SVG 1.1//EN" "http://www.w3.org/Graphics/SVG/1.1/DTD/svg11.dtd">
<svg version="1.1" xmlns="http://www.w3.org/2000/svg" xmlns:xlink="http://www.w3.org/1999/xlink" x="0px" y="0px"
	 viewBox="0 0 867.7 2292.7" style="enable-background:new 0 0 867.7 2292.7;" xml:space="preserve">
<style type="text/css">
	.st0{display:none;}
	.st1{fill:#F5DC75;}
	.st2{fill:#FDC43D;}
	.st3{fill:#00F670;}
	.st4{fill:#6EBF5B;}
	.st5{fill:none;stroke:#FFFFFF;stroke-width:5;stroke-linecap:round;stroke-miterlimit:10;}
	.st6{fill:#EC2226;}
	.st7{fill:#EA4A24;}
	.st8{fill:#87662D;}
	.st9{fill:#FFFFFF;}
	.st10{fill:none;stroke:#FFFFFF;stroke-width:4;stroke-miterlimit:10;}
</style>
<g id="Layer_1" class="st0">
	
		<image style="display:inline;overflow:visible;" width="1604" height="2792" xlink:href="burger.jpeg"  transform="matrix(0.5642 0 0 0.5087 35.6089 741.0291)">
	</image>
</g>
<g id="bottom">
	<g>
		<path class="st1" d="M200.9,1194.1c0,0,4.2-6.3,22-9.7c83.7-16.3,222.9-49.6,402.6,12c8.7,3,24.2,28.9,22.1,33.8
			c0,0,11.1,79.4-106.5,90.5c0,0-92.6,10.2-231.5-4.6S187,1206.2,200.9,1194.1z"/>
		<path class="st2" d="M206.8,1190.5c0,0-22.1,32,98.6,60.9c0,0,89.3,27.7,274.5-1.3c0,0,74-8.1,45.6-53.7"/>
	</g>
</g>
<g id="lettuce">
	<g>
		<path class="st3" d="M400.1,1249.3c2.3,8.6,11.4,14.7,20.2,13.7s16.2-9.1,16.5-18c7.8,7.2,16.9,14.7,27.6,14.6
			s20.8-12.8,14.6-21.5c8.5,5.7,18,9.8,27.9,12c8.2,1.9,17.6,2.2,24.3-2.9c6.5-5,8.6-14.1,8-22.3c-1.1-13.8-8.7-26.5-18.7-36
			c-10-9.6-22.3-16.4-34.8-22.4c-55-26.7-116-40.8-177.1-40.9c-8.6,0-17.4,0.3-25.6,2.9c-7.6,2.4-14.5,6.7-21.2,11
			c-10.1,6.5-28.2,9.7-38.1,16.7c-13,9.2-18.6,23.8-21.3,39.4c-1.8,10.2,5.3,23.3,15.5,21.6c-7.7,6.9-12.6,17.3-10.9,27.5
			s11,19,21.3,18.4c10.3-0.6,18.7-12.5,14.5-21.9c0.1,3.8,0.2,7.6,0.2,11.3c7.8,5.2,16.7,8.6,26,9.9c5.5,0.8,11.3,0.7,16.1-2
			s8.1-8.7,6.2-13.9c4.2,14.7,25.2,21.1,36.9,11.4c8,11.8,28.6,11.2,35.9-1c1.9,8,11.9,12.3,19.8,10S397.5,1257.2,400.1,1249.3z"/>
		<path class="st4" d="M376.7,1176.2c-1.7-8.8,3.1-17.3,7.8-25c1.6-2.6,3.3-5.3,5.4-7.5c2.1-2.1,4.6-3.7,7.2-5.1
			c34.9-19.9,78.6-20.7,116.9-8.6s72,36,101.5,63.3c9.1,8.4,18.2,17.7,21.9,29.5c2.3,7.4,2.3,15.2,2,23c-0.3,5-1.3,10.9-5.9,13
			c-3.3,1.5-7.2,0.2-10.8-0.5c-3.6-0.7-8.1-0.4-9.8,2.8c-0.7,1.3-0.8,2.8-1.3,4.3c-1.7,5.5-8.4,8.2-14,7c-5.6-1.2-10.2-5.2-13.9-9.6
			c-3.4,7.4-10.6,12.9-18.7,14.2s-16.6-1.6-22.3-7.5c-1.1-1.2-2.5-2.6-4.1-2.2c-0.9,0.2-1.5,0.9-2.2,1.5c-4.4,4.1-11.5,4.2-16.8,1.4
			c-5.3-2.8-8.9-8.1-11.2-13.6c-2.2,5.2-5.7,11.3-11.4,11.3c-2.1,0-4.1-0.9-5.9-2c-13.1-8.1-16.4-25.4-18.3-40.7
			c-33.1,4-67.9-10-89-35.8C380.6,1185.4,377.6,1181.1,376.7,1176.2z"/>
	</g>
	<path class="st5" d="M403.5,1165.8c23.7-0.9,47.4-1.7,71.1-2.2c14.8-0.3,30-0.4,43.8,4.7c14.1,5.2,25.7,15.3,37,25.1
		c11.8,10.3,24,21.2,29.5,35.9"/>
	<path class="st5" d="M499.4,1165.6c3.8,20.1,17.7,37.9,36.1,46.7"/>
	<path class="st5" d="M502.7,1164.1c11.5-0.6,33.2-2.3,44.6-0.3c11.4,2,22.6,6.9,30.1,15.6"/>
	<path class="st5" d="M429.8,1165.6c3.5,6.5,6.2,11.6,11.6,16.5c5.4,4.9,13.3,7.9,20.3,5.7"/>
	<path class="st5" d="M572.3,1208.5c16.7,1.8,33.2,6.3,48.5,13.2"/>
	<path class="st5" d="M369.4,1163.9c-41.6,6.6-73,17.6-109.2,39.2c-8.2,4.9-17,11.1-18.5,20.6"/>
	<path class="st5" d="M302.4,1181.8c-19.2-3.8-34.1-3.8-53.5-1.7"/>
	<path class="st5" d="M302.4,1181.8c9.6,13.8,19.7,33.6,18.9,50.4"/>
	<path class="st5" d="M358.1,1165.5c1,7.5,7.1,13.2,10.4,20c5.9,12.3,2,27-3.8,39.3"/>
	<path class="st5" d="M356.8,1166.1c0.3-5.8-6.3-7.7-11.4-10.6s-11-4-16.8-4.6c-12.3-1.4-24.8-1.6-37.1-0.7"/>
</g>
<g id="tomato">
	
		<ellipse transform="matrix(0.9854 -0.1704 0.1704 0.9854 -190.4405 70.9395)" class="st6" cx="317.9" cy="1144.6" rx="121.7" ry="47"/>
	
		<ellipse transform="matrix(0.9854 -0.1704 0.1704 0.9854 -188.6251 70.7836)" class="st7" cx="317.9" cy="1134" rx="121.7" ry="47"/>
	<path class="st6" d="M261.7,1141.3c0,0-33.3-12.3,6.7-27.7c0,0,17.4-10.3,35.4,8.7c0,0,12.3-27.2,40-18.5c0,0,40,0.5,42.1,12.3
		c0,0,3.1,14.4-14.4,18c0,0,22.1,22.1-15.4,27.2c0,0-36.4,9.7-45.6-12.8c0,0-0.5,25.6-45.1,20
		C265.3,1168.5,212.5,1158.8,261.7,1141.3z"/>
	
		<ellipse transform="matrix(0.9966 8.182319e-02 -8.182319e-02 0.9966 96.8779 -35.6376)" class="st6" cx="483.3" cy="1164.2" rx="121.7" ry="49.3"/>
	
		<ellipse transform="matrix(0.9966 8.182319e-02 -8.182319e-02 0.9966 95.805 -35.3305)" class="st7" cx="479" cy="1151.3" rx="121.7" ry="49.3"/>
	<path class="st6" d="M534.9,1169.2c0,0,35.3-4.3-0.1-28.5c0,0-14.6-14-36.4,0.3c0,0-5.7-29.3-34.7-27.2c0,0-39.1-8.7-43.8,2.3
		c0,0-6.3,13.3,9.8,20.8c0,0-26.5,16.4,8.7,30c0,0,33.2,17.9,47.4-2c0,0-5.4,25.1,39.3,29.8C525.1,1194.8,578.8,1197.5,534.9,1169.2
		z"/>
</g>
<g id="burger">
	<g>
		<path class="st8" d="M212.4,1042.3c0,0-1.4,0.8-3.2,2c-5.5,3.9-14.4,12.5,1.1,19.6c0,0-36.8,9.1-17.4,27.4c0,0-20.3,33.1,7,33.1
			c0,0-5.5,30.8,25.1,21.7c0,0,9.2,17.3,25,11.4c0,0-11.4,18.3,132.3,8c0,0,119.8,12.5,206.5-4.6c0,0,14.8,17.1,31.9-3.4
			c0,0,31.9,4.6,34.2-13.7c0,0,26.2-10.3,11.4-33.1c0,0,17.1-9.1-2.3-20.5c0,0,1.1-33.1-27.4-31.9c0,0-260.3-40.7-425.6-15.2"/>
		<path class="st2" d="M273.8,1206.6c0,0-13.7-101.5-21.7-117.5c0,0-53.2-34.2-39.7-46.8c0,0,104.7-86.7,359.1-26.2
			c0,0,61.6,9.1,72.4,45.6c0,0-145.4,40.2-203.6,38.9c0,0-37.6,11.3-45.6,21.5C394.7,1122.1,344.5,1188.3,273.8,1206.6z"/>
		<ellipse class="st9" cx="276.5" cy="1110.8" rx="11.7" ry="13.3"/>
		<ellipse class="st10" cx="407.1" cy="1139.8" rx="11.7" ry="11.2"/>
		<ellipse class="st10" cx="456.6" cy="1147.8" rx="11.7" ry="8.3"/>
		<path class="st10" d="M502,1139.4c0,0,16.4,14.5,29-3.5c0,0,50.9,11.7,41.5-18.8"/>
		<path class="st9" d="M276.5,1077.2c0,0-18-12.3-17.1-28.5c0,0,6.7-19.5-9.5-15.9c0,0-19.8,8.5-4,28.4
			C246,1061.2,255.7,1075.4,276.5,1077.2z"/>
		<path class="st9" d="M472.7,1008.1c0,0,69.6-3.4,126.3,29.3c0,0-0.3,7.6-7.9,7c0,0-42.4-28.4-118.4-26.2
			C472.7,1018.2,458.4,1013,472.7,1008.1z"/>
	</g>
</g>
<g id="top">
	<g>
		<path class="st1" d="M594.5,930.2c8.2,7.4,23.6,22.7,29.4,32.1c17.6,28.6,25.8,50,19.6,83c-4.5,24.1-62.1,26.9-67.6,27.1
			c-91.4,2.3-121.6,6.4-218.3,5.2c-24.5-0.3-114.6-5.1-127-12.6c-12.4-7.6-32.5-13.6-36.6-27.6c-7.5-25.8,7.9-52.8,26.1-72.5
			c55.2-59.5,132.9-79.4,214-83.2c17.1-0.8,39.9,0.2,56.8,2.8c26.9,4.2,51.4,14.4,75.5,27C576.6,916.9,586.1,922.6,594.5,930.2z"/>
		<path class="st9" d="M280.4,965.2c0,5.1-4.7,9.3-10.4,9.3c-5.7,0-28.2-4.2-28.2-9.3c0-5.1,22.5-9.3,28.2-9.3
			C275.7,955.9,280.4,960,280.4,965.2z"/>
		<path class="st9" d="M340.8,958.9c-1.3-5,2.2-10.1,7.8-11.5c5.6-1.4,28.4-2.9,29.6,2.1s-19.5,14.5-25.1,15.9
			C347.6,966.8,342,963.9,340.8,958.9z"/>
		<path class="st9" d="M321.9,918.7c-1.2-5,2.3-10.1,7.8-11.5s28.4-2.8,29.6,2.1s-19.5,14.5-25.1,15.9S323.1,923.7,321.9,918.7z"/>
		<path class="st9" d="M428.7,943.8c-3.3,3.9-9.5,4.2-13.9,0.5s-19.1-21.2-15.8-25.2c3.3-3.9,23.2,7.2,27.6,10.9
			C431.1,933.7,432,939.8,428.7,943.8z"/>
		<path class="st9" d="M480.5,920.4c-4,3.2-10.2,2-13.7-2.5c-3.5-4.5-14.1-24.8-10.1-27.9c4-3.2,21.1,12,24.7,16.5
			C485,911,484.6,917.2,480.5,920.4z"/>
		<path class="st9" d="M496.5,969.7c-1.9,4.8-7.8,6.9-13.1,4.8s-24.7-14.3-22.8-19.1s24.3-0.3,29.6,1.9
			C495.6,959.4,498.4,965,496.5,969.7z"/>
		<path class="st9" d="M552.1,911.8c3.1,4.1,1.8,10.2-2.8,13.7c-4.6,3.4-25.1,13.5-28.2,9.4s12.5-20.9,17.1-24.3
			C542.8,907.1,549,907.7,552.1,911.8z"/>
		<path class="st9" d="M553.5,962c1.5-4.9,7.1-7.6,12.6-5.9c5.5,1.6,25.9,12,24.4,16.9c-1.5,4.9-24.2,2.5-29.7,0.9
			C555.4,972.2,552.1,966.9,553.5,962z"/>
	</g>
	<g id="drops">
		<path class="st6" d="M673.6,1137.4c0,0,29.3-57.3,78.2-39.3c0,0,35.3,12.3,22.5,43.1c0,0-8,20.9-36.4,5.4c0,0-16.6-24.3-48-16.2
			C689.9,1130.4,674.7,1133.5,673.6,1137.4z"/>
		<path class="st6" d="M657.8,1172.7c0,0,81.3-0.1,87.2,64.1c0,0-1.5,30.8-36.1,23.7c0,0-27.3-5.2-17.7-37.3
			C691.2,1223.2,703,1187.6,657.8,1172.7z"/>
		<path class="st9" d="M715.2,1204.1c0,0,38.9,27,9,46.9c-1.3,0.8-2.7,1.3-4.2,1.3c-3.8,0.1-11.4-0.4-15.3-5
			C704.7,1247.3,747.7,1248.5,715.2,1204.1z"/>
		<path class="st2" d="M207.8,1151c0,0-80.5-11.6-95.4,51c0,0-2.9,30.7,32.4,28.6c0,0,27.8-1.2,22.8-34.4
			C167.5,1196.2,160.9,1159.3,207.8,1151z"/>
		<path class="st9" d="M146.5,1173.9c0,0-42.3,21.2-15.6,45.2c1.1,1,2.5,1.7,4,1.9c3.8,0.6,11.4,1.2,15.8-2.8
			C150.7,1218.2,108,1213.2,146.5,1173.9z"/>
		<path class="st9" d="M735.2,1105.6c0,0,28.6-5.1,34.3,21.3c0,0,2.9,4.2-8.1,16.7C761.4,1143.6,768.8,1118.5,735.2,1105.6z"/>
	</g>
</g>
</svg>
