<?xml version="1.0" encoding="utf-8"?>
<!-- Generator: Adobe Illustrator 18.1.1, SVG Export Plug-In . SVG Version: 6.00 Build 0)  -->
<!DOCTYPE svg PUBLIC "-//W3C//DTD SVG 1.1//EN" "http://www.w3.org/Graphics/SVG/1.1/DTD/svg11.dtd">
<svg version="1.1" id="Layer_1" xmlns="http://www.w3.org/2000/svg" xmlns:xlink="http://www.w3.org/1999/xlink" x="0px" y="0px"
	 viewBox="0 0 228.8 341.5" style="enable-background:new 0 0 228.8 341.5;" xml:space="preserve">
<style type="text/css">
	.st0{clip-path:url(#SVGID_2_);}
	.st1{fill:#EC2226;}
</style>
<g>
	<g>
		<defs>
			<path id="SVGID_1_" d="M207.6,217.8c1.3-29.5-14-52.8-30.4-75.5c-8.1-11.3-16.6-23.6-23.2-35.8c-7.8-14.5-8.2-30.3-14.4-45.1
				c-3.7-8.8-9.2-18-19.4-12.5c-10.9,6-9.1,24.7-13.3,35.1c-9.9,24.7-31.3,46.3-47,67.3c-17.2,23-30.9,45.1-22.3,75.4
				c8.2,28.8,23.1,53.5,50.5,65.4C144.4,316.6,203.8,281,207.6,217.8C208.3,200.7,207.2,224.2,207.6,217.8z M176.9,211.3
				c0.1,9.9-16.6,17.2-23.3,21.8c-9.8,6.7-18.4,18.2-31.3,14.3c-10.1-3-19-13.9-27.4-20.2c-6.7-5-21-16.1-14.5-27
				c7.6-12.7,17,9,20.7,15.3c6,10.3,13.2,19.9,26.1,19.9c11.4,0.1,18.5-8.5,26.2-15.9C155.8,216.9,177.8,197.6,176.9,211.3
				C176.9,213.4,177.3,206.2,176.9,211.3z"/>
		</defs>
		<clipPath id="SVGID_2_">
			<use xlink:href="#SVGID_1_"  style="overflow:visible;"/>
		</clipPath>
		<g id="DfuA4O_2_" class="st0">
			<g>
				<path class="st1" d="M44,217.8c-1.3-29.5,14.5-52.8,31.5-75.5c8.4-11.3,17.2-23.6,24.1-35.8c8.1-14.5,8.5-30.3,15-45.1
					c3.9-8.8,9.6-18,20.1-12.5c11.3,6,9.4,24.7,13.7,35.1c10.2,24.7,32.4,46.3,48.7,67.3c17.8,23,32,45.1,23.1,75.4
					c-8.4,28.8-23.9,53.5-52.3,65.4C109.5,316.6,47.9,281,44,217.8C43.2,200.7,44.4,224.2,44,217.8z M115.5,135.2
					c-0.3-8.3-13.1,8.6-13.5,9.2c-3.5,5.8-16,21.8-15.4,29c0.9,10.1,8.5,1.7,12.6-4C106.6,159.4,111.1,146.7,115.5,135.2
					C115.4,133.4,114.3,138.3,115.5,135.2z"/>
			</g>
		</g>
	</g>
</g>
<g>
</g>
<g>
</g>
<g>
</g>
<g>
</g>
<g>
</g>
<g>
</g>
<g>
</g>
<g>
</g>
<g>
</g>
<g>
</g>
<g>
</g>
</svg>
