<svg xmlns="http://www.w3.org/2000/svg" width="189" height="353" viewBox="0 0 189 353">
  <style>
    .st0{fill:#FF0000;} .st1{fill:#FFFFFF;} .st2{fill:#FFFFFF;stroke:#000000;stroke-width:5;stroke-miterlimit:10;}
  </style>
  <path id="kdrop" d="M126.3 100s25.7-56-23.8-65.3c-6.4-1.2-13.2-.4-19.7 2 0 .2-.2.2-.2.2-24 15-19 42 10.7 36 10.6-2 23-1 33 26z" class="st0"/>
  <g id="kbottle">
    <path d="M3.8 155l-4 179.3L151 353s18.6 2.5 30.2-15 7-183 7-183 .7-13.6-16-13.6c-12 0-22-19.3-26.7-30-1.7-4-1.5-8.5.5-12.3 3.3-6 6.6-17-2.8-25-10.2-8-7.2-24-4.7-32 1.5-4 2-10 1.4-15-1-3-1-5-2-7-3-4-25-18-64-7-7 2-12 8-12 15-1 4-1 7-1 10 1 8 2 30-3 32-5 1-15 16.8-8 27 2 4.8 3 10 1 15-4 9-13 21.6-28 27.3-21 7.3-20 17-20 17z" class="st0"/>
    <path d="M61 53l-2 15.6s34.5 26.6 82.5 2.4V55.5S100 75.7 61 53zm-2-17.4s31.5 20.6 82.5 3.2V19.5S111.3-9 59 16.8v18.8z" class="st1"/>
    <path d="M30.7 210.8s-7.3 58.8-2.4 74.6c0 0 16.5 8 17 19.8 0 0 23.4 30.7 54.3 9.4 3.8-2.6 6.8-6.3 8.4-10.6 1.7-4.4 3.4-10.4 19-11.7l1-67.4s-13-3-18-21c-1-4-2.8-7-5.3-10-8.5-10-28.4-26-52.7-3-2 2-3.5 4-4.4 6-1 3-4.6 7.2-17 12z" class="st2"/>
  </g>
</svg>
