<svg xmlns="http://www.w3.org/2000/svg" width="189" height="313" viewBox="0 0 189 313">
  <style>
    .st0{fill:#FCC828;} .st1{fill:#FFFFFF;stroke:#000000;stroke-width:5;stroke-linejoin:bevel;stroke-miterlimit:10;}
  </style>
  <path id="drop" d="M103.7 111.6s45.5-41.5 3.6-69.3c-5.4-3.6-12-5.5-19-5.8H88c-28 5-34 32-4.4 38 10.7 2 21.7 8 20 37z" class="st0"/>
  <g id="bottle">
    <path d="M146.5 88c14.7 17.7 81.4 107.6 9.2 212 0 0-64.6 27-127.3 1.7 0 0-69.8-125.4 10.7-212.2 3-3 5-6.8 5-10.7l3-23.4c1-8 6.7-14.6 14.5-16.4l1-.2 9-30S71 1 92 .6s20.5 6 20.5 6L124 38.4s11.7 3.6 12.6 11.8c.7 6 4.4 22.4 6.3 30.4.3 2.7 2 5.3 3.5 7.5z" class="st0"/>
    <path d="M141 206.5s-15.8-4.7-19-21c0 0-64.5 4.4-92-8 0 0-9.2 14.3-17.5 14.5 0 0-3.6 27.5 0 43.7 0 0 14.2 13 17 25 0 0 19.7 12.2 91.7 7.4 0 0 2.7-14 19.7-19v-42z" class="st1"/>
  </g>
</svg>
